%TF.GenerationSoftware,KiCad,Pcbnew,9.0.7*%
%TF.CreationDate,2026-02-19T11:27:47-05:00*%
%TF.ProjectId,project_pcba,70726f6a-6563-4745-9f70-6362612e6b69,rev?*%
%TF.SameCoordinates,Original*%
%TF.FileFunction,Soldermask,Top*%
%TF.FilePolarity,Negative*%
%FSLAX46Y46*%
G04 Gerber Fmt 4.6, Leading zero omitted, Abs format (unit mm)*
G04 Created by KiCad (PCBNEW 9.0.7) date 2026-02-19 11:27:47*
%MOMM*%
%LPD*%
G01*
G04 APERTURE LIST*
G04 Aperture macros list*
%AMRoundRect*
0 Rectangle with rounded corners*
0 $1 Rounding radius*
0 $2 $3 $4 $5 $6 $7 $8 $9 X,Y pos of 4 corners*
0 Add a 4 corners polygon primitive as box body*
4,1,4,$2,$3,$4,$5,$6,$7,$8,$9,$2,$3,0*
0 Add four circle primitives for the rounded corners*
1,1,$1+$1,$2,$3*
1,1,$1+$1,$4,$5*
1,1,$1+$1,$6,$7*
1,1,$1+$1,$8,$9*
0 Add four rect primitives between the rounded corners*
20,1,$1+$1,$2,$3,$4,$5,0*
20,1,$1+$1,$4,$5,$6,$7,0*
20,1,$1+$1,$6,$7,$8,$9,0*
20,1,$1+$1,$8,$9,$2,$3,0*%
G04 Aperture macros list end*
%ADD10C,3.200000*%
%ADD11R,1.700000X1.700000*%
%ADD12C,1.700000*%
%ADD13R,2.000000X1.200000*%
%ADD14O,2.000000X1.200000*%
%ADD15RoundRect,0.249999X-1.250001X-1.250001X1.250001X-1.250001X1.250001X1.250001X-1.250001X1.250001X0*%
%ADD16C,3.000000*%
G04 APERTURE END LIST*
D10*
%TO.C,REF\u002A\u002A*%
X53467000Y-111506000D03*
%TD*%
D11*
%TO.C,J2*%
X63754000Y-99695000D03*
D12*
X66294000Y-99695000D03*
X68834000Y-99695000D03*
X71374000Y-99695000D03*
%TD*%
D10*
%TO.C,REF\u002A\u002A*%
X111506000Y-111506000D03*
%TD*%
D11*
%TO.C,J4*%
X54229000Y-60452000D03*
D12*
X54229000Y-62992000D03*
X54229000Y-65532000D03*
X54229000Y-68072000D03*
%TD*%
D10*
%TO.C,REF\u002A\u002A*%
X53467000Y-53467000D03*
%TD*%
D11*
%TO.C,J3*%
X63373000Y-60325000D03*
D12*
X63373000Y-62865000D03*
X63373000Y-65405000D03*
X63373000Y-67945000D03*
%TD*%
D13*
%TO.C,U1*%
X81026000Y-64770000D03*
D14*
X81026000Y-67310000D03*
X81026000Y-69850000D03*
X81026000Y-72390000D03*
X81026000Y-74930000D03*
X81026000Y-77470000D03*
X81026000Y-80010000D03*
X81026000Y-82550000D03*
X81026000Y-85090000D03*
X81026000Y-87630000D03*
X81026000Y-90170000D03*
X81026000Y-92710000D03*
X81026000Y-95250000D03*
X81026000Y-97790000D03*
X81026000Y-100330000D03*
X81026000Y-102870000D03*
X103886000Y-102870000D03*
X103886000Y-100330000D03*
X103886000Y-97790000D03*
X103886000Y-95250000D03*
X103886000Y-92710000D03*
X103886000Y-90170000D03*
X103886000Y-87630000D03*
X103886000Y-85090000D03*
X103886000Y-82550000D03*
X103886000Y-80010000D03*
X103886000Y-77470000D03*
X103886000Y-74930000D03*
X103886000Y-72390000D03*
X103886000Y-69850000D03*
X103886000Y-67310000D03*
X103886000Y-64770000D03*
%TD*%
D11*
%TO.C,J11*%
X109855000Y-85090000D03*
D12*
X109855000Y-87630000D03*
X109855000Y-90170000D03*
X109855000Y-92710000D03*
%TD*%
D15*
%TO.C,J1*%
X66298000Y-109741000D03*
D16*
X71298000Y-109741000D03*
%TD*%
D10*
%TO.C,REF\u002A\u002A*%
X111506000Y-53467000D03*
%TD*%
D11*
%TO.C,J9*%
X53594000Y-78105000D03*
D12*
X53594000Y-80645000D03*
%TD*%
D11*
%TO.C,J7*%
X74382000Y-75376000D03*
D12*
X74382000Y-77916000D03*
X74382000Y-80456000D03*
X74382000Y-82996000D03*
X74382000Y-85536000D03*
X74382000Y-88076000D03*
%TD*%
D11*
%TO.C,J8*%
X62382000Y-75336000D03*
D12*
X62382000Y-77876000D03*
X62382000Y-80416000D03*
X62382000Y-82956000D03*
X62382000Y-85496000D03*
X62382000Y-88036000D03*
%TD*%
D11*
%TO.C,J10*%
X53619000Y-87650000D03*
D12*
X53619000Y-90190000D03*
%TD*%
D11*
%TO.C,J6*%
X109474000Y-66294000D03*
D12*
X109474000Y-63754000D03*
X109474000Y-61214000D03*
%TD*%
D11*
%TO.C,J5*%
X64262000Y-53213000D03*
D12*
X66802000Y-53213000D03*
X69342000Y-53213000D03*
X71882000Y-53213000D03*
X74422000Y-53213000D03*
%TD*%
M02*
