%TF.GenerationSoftware,KiCad,Pcbnew,9.0.7*%
%TF.CreationDate,2026-02-19T11:27:47-05:00*%
%TF.ProjectId,project_pcba,70726f6a-6563-4745-9f70-6362612e6b69,rev?*%
%TF.SameCoordinates,Original*%
%TF.FileFunction,Legend,Top*%
%TF.FilePolarity,Positive*%
%FSLAX46Y46*%
G04 Gerber Fmt 4.6, Leading zero omitted, Abs format (unit mm)*
G04 Created by KiCad (PCBNEW 9.0.7) date 2026-02-19 11:27:47*
%MOMM*%
%LPD*%
G01*
G04 APERTURE LIST*
%ADD10C,0.150000*%
%ADD11C,0.120000*%
G04 APERTURE END LIST*
D10*
X62480666Y-101930819D02*
X62480666Y-102645104D01*
X62480666Y-102645104D02*
X62433047Y-102787961D01*
X62433047Y-102787961D02*
X62337809Y-102883200D01*
X62337809Y-102883200D02*
X62194952Y-102930819D01*
X62194952Y-102930819D02*
X62099714Y-102930819D01*
X62909238Y-102026057D02*
X62956857Y-101978438D01*
X62956857Y-101978438D02*
X63052095Y-101930819D01*
X63052095Y-101930819D02*
X63290190Y-101930819D01*
X63290190Y-101930819D02*
X63385428Y-101978438D01*
X63385428Y-101978438D02*
X63433047Y-102026057D01*
X63433047Y-102026057D02*
X63480666Y-102121295D01*
X63480666Y-102121295D02*
X63480666Y-102216533D01*
X63480666Y-102216533D02*
X63433047Y-102359390D01*
X63433047Y-102359390D02*
X62861619Y-102930819D01*
X62861619Y-102930819D02*
X63480666Y-102930819D01*
X53895666Y-57526819D02*
X53895666Y-58241104D01*
X53895666Y-58241104D02*
X53848047Y-58383961D01*
X53848047Y-58383961D02*
X53752809Y-58479200D01*
X53752809Y-58479200D02*
X53609952Y-58526819D01*
X53609952Y-58526819D02*
X53514714Y-58526819D01*
X54800428Y-57860152D02*
X54800428Y-58526819D01*
X54562333Y-57479200D02*
X54324238Y-58193485D01*
X54324238Y-58193485D02*
X54943285Y-58193485D01*
X63039666Y-57399819D02*
X63039666Y-58114104D01*
X63039666Y-58114104D02*
X62992047Y-58256961D01*
X62992047Y-58256961D02*
X62896809Y-58352200D01*
X62896809Y-58352200D02*
X62753952Y-58399819D01*
X62753952Y-58399819D02*
X62658714Y-58399819D01*
X63420619Y-57399819D02*
X64039666Y-57399819D01*
X64039666Y-57399819D02*
X63706333Y-57780771D01*
X63706333Y-57780771D02*
X63849190Y-57780771D01*
X63849190Y-57780771D02*
X63944428Y-57828390D01*
X63944428Y-57828390D02*
X63992047Y-57876009D01*
X63992047Y-57876009D02*
X64039666Y-57971247D01*
X64039666Y-57971247D02*
X64039666Y-58209342D01*
X64039666Y-58209342D02*
X63992047Y-58304580D01*
X63992047Y-58304580D02*
X63944428Y-58352200D01*
X63944428Y-58352200D02*
X63849190Y-58399819D01*
X63849190Y-58399819D02*
X63563476Y-58399819D01*
X63563476Y-58399819D02*
X63468238Y-58352200D01*
X63468238Y-58352200D02*
X63420619Y-58304580D01*
X91871895Y-61380019D02*
X91871895Y-62189542D01*
X91871895Y-62189542D02*
X91919514Y-62284780D01*
X91919514Y-62284780D02*
X91967133Y-62332400D01*
X91967133Y-62332400D02*
X92062371Y-62380019D01*
X92062371Y-62380019D02*
X92252847Y-62380019D01*
X92252847Y-62380019D02*
X92348085Y-62332400D01*
X92348085Y-62332400D02*
X92395704Y-62284780D01*
X92395704Y-62284780D02*
X92443323Y-62189542D01*
X92443323Y-62189542D02*
X92443323Y-61380019D01*
X93443323Y-62380019D02*
X92871895Y-62380019D01*
X93157609Y-62380019D02*
X93157609Y-61380019D01*
X93157609Y-61380019D02*
X93062371Y-61522876D01*
X93062371Y-61522876D02*
X92967133Y-61618114D01*
X92967133Y-61618114D02*
X92871895Y-61665733D01*
X84170286Y-105925209D02*
X84503619Y-105925209D01*
X84646476Y-106449019D02*
X84170286Y-106449019D01*
X84170286Y-106449019D02*
X84170286Y-105449019D01*
X84170286Y-105449019D02*
X84646476Y-105449019D01*
X85027429Y-106401400D02*
X85170286Y-106449019D01*
X85170286Y-106449019D02*
X85408381Y-106449019D01*
X85408381Y-106449019D02*
X85503619Y-106401400D01*
X85503619Y-106401400D02*
X85551238Y-106353780D01*
X85551238Y-106353780D02*
X85598857Y-106258542D01*
X85598857Y-106258542D02*
X85598857Y-106163304D01*
X85598857Y-106163304D02*
X85551238Y-106068066D01*
X85551238Y-106068066D02*
X85503619Y-106020447D01*
X85503619Y-106020447D02*
X85408381Y-105972828D01*
X85408381Y-105972828D02*
X85217905Y-105925209D01*
X85217905Y-105925209D02*
X85122667Y-105877590D01*
X85122667Y-105877590D02*
X85075048Y-105829971D01*
X85075048Y-105829971D02*
X85027429Y-105734733D01*
X85027429Y-105734733D02*
X85027429Y-105639495D01*
X85027429Y-105639495D02*
X85075048Y-105544257D01*
X85075048Y-105544257D02*
X85122667Y-105496638D01*
X85122667Y-105496638D02*
X85217905Y-105449019D01*
X85217905Y-105449019D02*
X85456000Y-105449019D01*
X85456000Y-105449019D02*
X85598857Y-105496638D01*
X86027429Y-106449019D02*
X86027429Y-105449019D01*
X86027429Y-105449019D02*
X86408381Y-105449019D01*
X86408381Y-105449019D02*
X86503619Y-105496638D01*
X86503619Y-105496638D02*
X86551238Y-105544257D01*
X86551238Y-105544257D02*
X86598857Y-105639495D01*
X86598857Y-105639495D02*
X86598857Y-105782352D01*
X86598857Y-105782352D02*
X86551238Y-105877590D01*
X86551238Y-105877590D02*
X86503619Y-105925209D01*
X86503619Y-105925209D02*
X86408381Y-105972828D01*
X86408381Y-105972828D02*
X86027429Y-105972828D01*
X86932191Y-105449019D02*
X87551238Y-105449019D01*
X87551238Y-105449019D02*
X87217905Y-105829971D01*
X87217905Y-105829971D02*
X87360762Y-105829971D01*
X87360762Y-105829971D02*
X87456000Y-105877590D01*
X87456000Y-105877590D02*
X87503619Y-105925209D01*
X87503619Y-105925209D02*
X87551238Y-106020447D01*
X87551238Y-106020447D02*
X87551238Y-106258542D01*
X87551238Y-106258542D02*
X87503619Y-106353780D01*
X87503619Y-106353780D02*
X87456000Y-106401400D01*
X87456000Y-106401400D02*
X87360762Y-106449019D01*
X87360762Y-106449019D02*
X87075048Y-106449019D01*
X87075048Y-106449019D02*
X86979810Y-106401400D01*
X86979810Y-106401400D02*
X86932191Y-106353780D01*
X87932191Y-105544257D02*
X87979810Y-105496638D01*
X87979810Y-105496638D02*
X88075048Y-105449019D01*
X88075048Y-105449019D02*
X88313143Y-105449019D01*
X88313143Y-105449019D02*
X88408381Y-105496638D01*
X88408381Y-105496638D02*
X88456000Y-105544257D01*
X88456000Y-105544257D02*
X88503619Y-105639495D01*
X88503619Y-105639495D02*
X88503619Y-105734733D01*
X88503619Y-105734733D02*
X88456000Y-105877590D01*
X88456000Y-105877590D02*
X87884572Y-106449019D01*
X87884572Y-106449019D02*
X88503619Y-106449019D01*
X88932191Y-106068066D02*
X89694096Y-106068066D01*
X90741714Y-106353780D02*
X90694095Y-106401400D01*
X90694095Y-106401400D02*
X90551238Y-106449019D01*
X90551238Y-106449019D02*
X90456000Y-106449019D01*
X90456000Y-106449019D02*
X90313143Y-106401400D01*
X90313143Y-106401400D02*
X90217905Y-106306161D01*
X90217905Y-106306161D02*
X90170286Y-106210923D01*
X90170286Y-106210923D02*
X90122667Y-106020447D01*
X90122667Y-106020447D02*
X90122667Y-105877590D01*
X90122667Y-105877590D02*
X90170286Y-105687114D01*
X90170286Y-105687114D02*
X90217905Y-105591876D01*
X90217905Y-105591876D02*
X90313143Y-105496638D01*
X90313143Y-105496638D02*
X90456000Y-105449019D01*
X90456000Y-105449019D02*
X90551238Y-105449019D01*
X90551238Y-105449019D02*
X90694095Y-105496638D01*
X90694095Y-105496638D02*
X90741714Y-105544257D01*
X91598857Y-105449019D02*
X91408381Y-105449019D01*
X91408381Y-105449019D02*
X91313143Y-105496638D01*
X91313143Y-105496638D02*
X91265524Y-105544257D01*
X91265524Y-105544257D02*
X91170286Y-105687114D01*
X91170286Y-105687114D02*
X91122667Y-105877590D01*
X91122667Y-105877590D02*
X91122667Y-106258542D01*
X91122667Y-106258542D02*
X91170286Y-106353780D01*
X91170286Y-106353780D02*
X91217905Y-106401400D01*
X91217905Y-106401400D02*
X91313143Y-106449019D01*
X91313143Y-106449019D02*
X91503619Y-106449019D01*
X91503619Y-106449019D02*
X91598857Y-106401400D01*
X91598857Y-106401400D02*
X91646476Y-106353780D01*
X91646476Y-106353780D02*
X91694095Y-106258542D01*
X91694095Y-106258542D02*
X91694095Y-106020447D01*
X91694095Y-106020447D02*
X91646476Y-105925209D01*
X91646476Y-105925209D02*
X91598857Y-105877590D01*
X91598857Y-105877590D02*
X91503619Y-105829971D01*
X91503619Y-105829971D02*
X91313143Y-105829971D01*
X91313143Y-105829971D02*
X91217905Y-105877590D01*
X91217905Y-105877590D02*
X91170286Y-105925209D01*
X91170286Y-105925209D02*
X91122667Y-106020447D01*
X92122667Y-106068066D02*
X92884572Y-106068066D01*
X93360762Y-106449019D02*
X93360762Y-105449019D01*
X93360762Y-105449019D02*
X93598857Y-105449019D01*
X93598857Y-105449019D02*
X93741714Y-105496638D01*
X93741714Y-105496638D02*
X93836952Y-105591876D01*
X93836952Y-105591876D02*
X93884571Y-105687114D01*
X93884571Y-105687114D02*
X93932190Y-105877590D01*
X93932190Y-105877590D02*
X93932190Y-106020447D01*
X93932190Y-106020447D02*
X93884571Y-106210923D01*
X93884571Y-106210923D02*
X93836952Y-106306161D01*
X93836952Y-106306161D02*
X93741714Y-106401400D01*
X93741714Y-106401400D02*
X93598857Y-106449019D01*
X93598857Y-106449019D02*
X93360762Y-106449019D01*
X94741714Y-106401400D02*
X94646476Y-106449019D01*
X94646476Y-106449019D02*
X94456000Y-106449019D01*
X94456000Y-106449019D02*
X94360762Y-106401400D01*
X94360762Y-106401400D02*
X94313143Y-106306161D01*
X94313143Y-106306161D02*
X94313143Y-105925209D01*
X94313143Y-105925209D02*
X94360762Y-105829971D01*
X94360762Y-105829971D02*
X94456000Y-105782352D01*
X94456000Y-105782352D02*
X94646476Y-105782352D01*
X94646476Y-105782352D02*
X94741714Y-105829971D01*
X94741714Y-105829971D02*
X94789333Y-105925209D01*
X94789333Y-105925209D02*
X94789333Y-106020447D01*
X94789333Y-106020447D02*
X94313143Y-106115685D01*
X95122667Y-105782352D02*
X95360762Y-106449019D01*
X95360762Y-106449019D02*
X95598857Y-105782352D01*
X95979810Y-106449019D02*
X95979810Y-105449019D01*
X96551238Y-106449019D02*
X96122667Y-105877590D01*
X96551238Y-105449019D02*
X95979810Y-106020447D01*
X96979810Y-106449019D02*
X96979810Y-105782352D01*
X96979810Y-105449019D02*
X96932191Y-105496638D01*
X96932191Y-105496638D02*
X96979810Y-105544257D01*
X96979810Y-105544257D02*
X97027429Y-105496638D01*
X97027429Y-105496638D02*
X96979810Y-105449019D01*
X96979810Y-105449019D02*
X96979810Y-105544257D01*
X97313143Y-105782352D02*
X97694095Y-105782352D01*
X97456000Y-105449019D02*
X97456000Y-106306161D01*
X97456000Y-106306161D02*
X97503619Y-106401400D01*
X97503619Y-106401400D02*
X97598857Y-106449019D01*
X97598857Y-106449019D02*
X97694095Y-106449019D01*
X98598857Y-106353780D02*
X98551238Y-106401400D01*
X98551238Y-106401400D02*
X98408381Y-106449019D01*
X98408381Y-106449019D02*
X98313143Y-106449019D01*
X98313143Y-106449019D02*
X98170286Y-106401400D01*
X98170286Y-106401400D02*
X98075048Y-106306161D01*
X98075048Y-106306161D02*
X98027429Y-106210923D01*
X98027429Y-106210923D02*
X97979810Y-106020447D01*
X97979810Y-106020447D02*
X97979810Y-105877590D01*
X97979810Y-105877590D02*
X98027429Y-105687114D01*
X98027429Y-105687114D02*
X98075048Y-105591876D01*
X98075048Y-105591876D02*
X98170286Y-105496638D01*
X98170286Y-105496638D02*
X98313143Y-105449019D01*
X98313143Y-105449019D02*
X98408381Y-105449019D01*
X98408381Y-105449019D02*
X98551238Y-105496638D01*
X98551238Y-105496638D02*
X98598857Y-105544257D01*
X99027429Y-106068066D02*
X99789334Y-106068066D01*
X100789333Y-106449019D02*
X100217905Y-106449019D01*
X100503619Y-106449019D02*
X100503619Y-105449019D01*
X100503619Y-105449019D02*
X100408381Y-105591876D01*
X100408381Y-105591876D02*
X100313143Y-105687114D01*
X100313143Y-105687114D02*
X100217905Y-105734733D01*
X83156588Y-79512438D02*
X83061350Y-79464819D01*
X83061350Y-79464819D02*
X82918493Y-79464819D01*
X82918493Y-79464819D02*
X82775636Y-79512438D01*
X82775636Y-79512438D02*
X82680398Y-79607676D01*
X82680398Y-79607676D02*
X82632779Y-79702914D01*
X82632779Y-79702914D02*
X82585160Y-79893390D01*
X82585160Y-79893390D02*
X82585160Y-80036247D01*
X82585160Y-80036247D02*
X82632779Y-80226723D01*
X82632779Y-80226723D02*
X82680398Y-80321961D01*
X82680398Y-80321961D02*
X82775636Y-80417200D01*
X82775636Y-80417200D02*
X82918493Y-80464819D01*
X82918493Y-80464819D02*
X83013731Y-80464819D01*
X83013731Y-80464819D02*
X83156588Y-80417200D01*
X83156588Y-80417200D02*
X83204207Y-80369580D01*
X83204207Y-80369580D02*
X83204207Y-80036247D01*
X83204207Y-80036247D02*
X83013731Y-80036247D01*
X83632779Y-80464819D02*
X83632779Y-79464819D01*
X83632779Y-79464819D02*
X84013731Y-79464819D01*
X84013731Y-79464819D02*
X84108969Y-79512438D01*
X84108969Y-79512438D02*
X84156588Y-79560057D01*
X84156588Y-79560057D02*
X84204207Y-79655295D01*
X84204207Y-79655295D02*
X84204207Y-79798152D01*
X84204207Y-79798152D02*
X84156588Y-79893390D01*
X84156588Y-79893390D02*
X84108969Y-79941009D01*
X84108969Y-79941009D02*
X84013731Y-79988628D01*
X84013731Y-79988628D02*
X83632779Y-79988628D01*
X84632779Y-80464819D02*
X84632779Y-79464819D01*
X85299445Y-79464819D02*
X85489921Y-79464819D01*
X85489921Y-79464819D02*
X85585159Y-79512438D01*
X85585159Y-79512438D02*
X85680397Y-79607676D01*
X85680397Y-79607676D02*
X85728016Y-79798152D01*
X85728016Y-79798152D02*
X85728016Y-80131485D01*
X85728016Y-80131485D02*
X85680397Y-80321961D01*
X85680397Y-80321961D02*
X85585159Y-80417200D01*
X85585159Y-80417200D02*
X85489921Y-80464819D01*
X85489921Y-80464819D02*
X85299445Y-80464819D01*
X85299445Y-80464819D02*
X85204207Y-80417200D01*
X85204207Y-80417200D02*
X85108969Y-80321961D01*
X85108969Y-80321961D02*
X85061350Y-80131485D01*
X85061350Y-80131485D02*
X85061350Y-79798152D01*
X85061350Y-79798152D02*
X85108969Y-79607676D01*
X85108969Y-79607676D02*
X85204207Y-79512438D01*
X85204207Y-79512438D02*
X85299445Y-79464819D01*
X86347064Y-79464819D02*
X86442302Y-79464819D01*
X86442302Y-79464819D02*
X86537540Y-79512438D01*
X86537540Y-79512438D02*
X86585159Y-79560057D01*
X86585159Y-79560057D02*
X86632778Y-79655295D01*
X86632778Y-79655295D02*
X86680397Y-79845771D01*
X86680397Y-79845771D02*
X86680397Y-80083866D01*
X86680397Y-80083866D02*
X86632778Y-80274342D01*
X86632778Y-80274342D02*
X86585159Y-80369580D01*
X86585159Y-80369580D02*
X86537540Y-80417200D01*
X86537540Y-80417200D02*
X86442302Y-80464819D01*
X86442302Y-80464819D02*
X86347064Y-80464819D01*
X86347064Y-80464819D02*
X86251826Y-80417200D01*
X86251826Y-80417200D02*
X86204207Y-80369580D01*
X86204207Y-80369580D02*
X86156588Y-80274342D01*
X86156588Y-80274342D02*
X86108969Y-80083866D01*
X86108969Y-80083866D02*
X86108969Y-79845771D01*
X86108969Y-79845771D02*
X86156588Y-79655295D01*
X86156588Y-79655295D02*
X86204207Y-79560057D01*
X86204207Y-79560057D02*
X86251826Y-79512438D01*
X86251826Y-79512438D02*
X86347064Y-79464819D01*
X86966112Y-80083866D02*
X87013731Y-80036247D01*
X87013731Y-80036247D02*
X87108969Y-79988628D01*
X87108969Y-79988628D02*
X87299445Y-80083866D01*
X87299445Y-80083866D02*
X87394683Y-80036247D01*
X87394683Y-80036247D02*
X87442302Y-79988628D01*
X97136363Y-76972438D02*
X97041125Y-76924819D01*
X97041125Y-76924819D02*
X96898268Y-76924819D01*
X96898268Y-76924819D02*
X96755411Y-76972438D01*
X96755411Y-76972438D02*
X96660173Y-77067676D01*
X96660173Y-77067676D02*
X96612554Y-77162914D01*
X96612554Y-77162914D02*
X96564935Y-77353390D01*
X96564935Y-77353390D02*
X96564935Y-77496247D01*
X96564935Y-77496247D02*
X96612554Y-77686723D01*
X96612554Y-77686723D02*
X96660173Y-77781961D01*
X96660173Y-77781961D02*
X96755411Y-77877200D01*
X96755411Y-77877200D02*
X96898268Y-77924819D01*
X96898268Y-77924819D02*
X96993506Y-77924819D01*
X96993506Y-77924819D02*
X97136363Y-77877200D01*
X97136363Y-77877200D02*
X97183982Y-77829580D01*
X97183982Y-77829580D02*
X97183982Y-77496247D01*
X97183982Y-77496247D02*
X96993506Y-77496247D01*
X97612554Y-77924819D02*
X97612554Y-76924819D01*
X97612554Y-76924819D02*
X97993506Y-76924819D01*
X97993506Y-76924819D02*
X98088744Y-76972438D01*
X98088744Y-76972438D02*
X98136363Y-77020057D01*
X98136363Y-77020057D02*
X98183982Y-77115295D01*
X98183982Y-77115295D02*
X98183982Y-77258152D01*
X98183982Y-77258152D02*
X98136363Y-77353390D01*
X98136363Y-77353390D02*
X98088744Y-77401009D01*
X98088744Y-77401009D02*
X97993506Y-77448628D01*
X97993506Y-77448628D02*
X97612554Y-77448628D01*
X98612554Y-77924819D02*
X98612554Y-76924819D01*
X99279220Y-76924819D02*
X99469696Y-76924819D01*
X99469696Y-76924819D02*
X99564934Y-76972438D01*
X99564934Y-76972438D02*
X99660172Y-77067676D01*
X99660172Y-77067676D02*
X99707791Y-77258152D01*
X99707791Y-77258152D02*
X99707791Y-77591485D01*
X99707791Y-77591485D02*
X99660172Y-77781961D01*
X99660172Y-77781961D02*
X99564934Y-77877200D01*
X99564934Y-77877200D02*
X99469696Y-77924819D01*
X99469696Y-77924819D02*
X99279220Y-77924819D01*
X99279220Y-77924819D02*
X99183982Y-77877200D01*
X99183982Y-77877200D02*
X99088744Y-77781961D01*
X99088744Y-77781961D02*
X99041125Y-77591485D01*
X99041125Y-77591485D02*
X99041125Y-77258152D01*
X99041125Y-77258152D02*
X99088744Y-77067676D01*
X99088744Y-77067676D02*
X99183982Y-76972438D01*
X99183982Y-76972438D02*
X99279220Y-76924819D01*
X100088744Y-77020057D02*
X100136363Y-76972438D01*
X100136363Y-76972438D02*
X100231601Y-76924819D01*
X100231601Y-76924819D02*
X100469696Y-76924819D01*
X100469696Y-76924819D02*
X100564934Y-76972438D01*
X100564934Y-76972438D02*
X100612553Y-77020057D01*
X100612553Y-77020057D02*
X100660172Y-77115295D01*
X100660172Y-77115295D02*
X100660172Y-77210533D01*
X100660172Y-77210533D02*
X100612553Y-77353390D01*
X100612553Y-77353390D02*
X100041125Y-77924819D01*
X100041125Y-77924819D02*
X100660172Y-77924819D01*
X101041125Y-77020057D02*
X101088744Y-76972438D01*
X101088744Y-76972438D02*
X101183982Y-76924819D01*
X101183982Y-76924819D02*
X101422077Y-76924819D01*
X101422077Y-76924819D02*
X101517315Y-76972438D01*
X101517315Y-76972438D02*
X101564934Y-77020057D01*
X101564934Y-77020057D02*
X101612553Y-77115295D01*
X101612553Y-77115295D02*
X101612553Y-77210533D01*
X101612553Y-77210533D02*
X101564934Y-77353390D01*
X101564934Y-77353390D02*
X100993506Y-77924819D01*
X100993506Y-77924819D02*
X101612553Y-77924819D01*
X101898268Y-77543866D02*
X101945887Y-77496247D01*
X101945887Y-77496247D02*
X102041125Y-77448628D01*
X102041125Y-77448628D02*
X102231601Y-77543866D01*
X102231601Y-77543866D02*
X102326839Y-77496247D01*
X102326839Y-77496247D02*
X102374458Y-77448628D01*
X83156588Y-84592438D02*
X83061350Y-84544819D01*
X83061350Y-84544819D02*
X82918493Y-84544819D01*
X82918493Y-84544819D02*
X82775636Y-84592438D01*
X82775636Y-84592438D02*
X82680398Y-84687676D01*
X82680398Y-84687676D02*
X82632779Y-84782914D01*
X82632779Y-84782914D02*
X82585160Y-84973390D01*
X82585160Y-84973390D02*
X82585160Y-85116247D01*
X82585160Y-85116247D02*
X82632779Y-85306723D01*
X82632779Y-85306723D02*
X82680398Y-85401961D01*
X82680398Y-85401961D02*
X82775636Y-85497200D01*
X82775636Y-85497200D02*
X82918493Y-85544819D01*
X82918493Y-85544819D02*
X83013731Y-85544819D01*
X83013731Y-85544819D02*
X83156588Y-85497200D01*
X83156588Y-85497200D02*
X83204207Y-85449580D01*
X83204207Y-85449580D02*
X83204207Y-85116247D01*
X83204207Y-85116247D02*
X83013731Y-85116247D01*
X83632779Y-85544819D02*
X83632779Y-84544819D01*
X83632779Y-84544819D02*
X84013731Y-84544819D01*
X84013731Y-84544819D02*
X84108969Y-84592438D01*
X84108969Y-84592438D02*
X84156588Y-84640057D01*
X84156588Y-84640057D02*
X84204207Y-84735295D01*
X84204207Y-84735295D02*
X84204207Y-84878152D01*
X84204207Y-84878152D02*
X84156588Y-84973390D01*
X84156588Y-84973390D02*
X84108969Y-85021009D01*
X84108969Y-85021009D02*
X84013731Y-85068628D01*
X84013731Y-85068628D02*
X83632779Y-85068628D01*
X84632779Y-85544819D02*
X84632779Y-84544819D01*
X85299445Y-84544819D02*
X85489921Y-84544819D01*
X85489921Y-84544819D02*
X85585159Y-84592438D01*
X85585159Y-84592438D02*
X85680397Y-84687676D01*
X85680397Y-84687676D02*
X85728016Y-84878152D01*
X85728016Y-84878152D02*
X85728016Y-85211485D01*
X85728016Y-85211485D02*
X85680397Y-85401961D01*
X85680397Y-85401961D02*
X85585159Y-85497200D01*
X85585159Y-85497200D02*
X85489921Y-85544819D01*
X85489921Y-85544819D02*
X85299445Y-85544819D01*
X85299445Y-85544819D02*
X85204207Y-85497200D01*
X85204207Y-85497200D02*
X85108969Y-85401961D01*
X85108969Y-85401961D02*
X85061350Y-85211485D01*
X85061350Y-85211485D02*
X85061350Y-84878152D01*
X85061350Y-84878152D02*
X85108969Y-84687676D01*
X85108969Y-84687676D02*
X85204207Y-84592438D01*
X85204207Y-84592438D02*
X85299445Y-84544819D01*
X86299445Y-84973390D02*
X86204207Y-84925771D01*
X86204207Y-84925771D02*
X86156588Y-84878152D01*
X86156588Y-84878152D02*
X86108969Y-84782914D01*
X86108969Y-84782914D02*
X86108969Y-84735295D01*
X86108969Y-84735295D02*
X86156588Y-84640057D01*
X86156588Y-84640057D02*
X86204207Y-84592438D01*
X86204207Y-84592438D02*
X86299445Y-84544819D01*
X86299445Y-84544819D02*
X86489921Y-84544819D01*
X86489921Y-84544819D02*
X86585159Y-84592438D01*
X86585159Y-84592438D02*
X86632778Y-84640057D01*
X86632778Y-84640057D02*
X86680397Y-84735295D01*
X86680397Y-84735295D02*
X86680397Y-84782914D01*
X86680397Y-84782914D02*
X86632778Y-84878152D01*
X86632778Y-84878152D02*
X86585159Y-84925771D01*
X86585159Y-84925771D02*
X86489921Y-84973390D01*
X86489921Y-84973390D02*
X86299445Y-84973390D01*
X86299445Y-84973390D02*
X86204207Y-85021009D01*
X86204207Y-85021009D02*
X86156588Y-85068628D01*
X86156588Y-85068628D02*
X86108969Y-85163866D01*
X86108969Y-85163866D02*
X86108969Y-85354342D01*
X86108969Y-85354342D02*
X86156588Y-85449580D01*
X86156588Y-85449580D02*
X86204207Y-85497200D01*
X86204207Y-85497200D02*
X86299445Y-85544819D01*
X86299445Y-85544819D02*
X86489921Y-85544819D01*
X86489921Y-85544819D02*
X86585159Y-85497200D01*
X86585159Y-85497200D02*
X86632778Y-85449580D01*
X86632778Y-85449580D02*
X86680397Y-85354342D01*
X86680397Y-85354342D02*
X86680397Y-85163866D01*
X86680397Y-85163866D02*
X86632778Y-85068628D01*
X86632778Y-85068628D02*
X86585159Y-85021009D01*
X86585159Y-85021009D02*
X86489921Y-84973390D01*
X86966112Y-85163866D02*
X87013731Y-85116247D01*
X87013731Y-85116247D02*
X87108969Y-85068628D01*
X87108969Y-85068628D02*
X87299445Y-85163866D01*
X87299445Y-85163866D02*
X87394683Y-85116247D01*
X87394683Y-85116247D02*
X87442302Y-85068628D01*
X88537540Y-84497200D02*
X87680398Y-85782914D01*
X89204207Y-85021009D02*
X89347064Y-85068628D01*
X89347064Y-85068628D02*
X89394683Y-85116247D01*
X89394683Y-85116247D02*
X89442302Y-85211485D01*
X89442302Y-85211485D02*
X89442302Y-85354342D01*
X89442302Y-85354342D02*
X89394683Y-85449580D01*
X89394683Y-85449580D02*
X89347064Y-85497200D01*
X89347064Y-85497200D02*
X89251826Y-85544819D01*
X89251826Y-85544819D02*
X88870874Y-85544819D01*
X88870874Y-85544819D02*
X88870874Y-84544819D01*
X88870874Y-84544819D02*
X89204207Y-84544819D01*
X89204207Y-84544819D02*
X89299445Y-84592438D01*
X89299445Y-84592438D02*
X89347064Y-84640057D01*
X89347064Y-84640057D02*
X89394683Y-84735295D01*
X89394683Y-84735295D02*
X89394683Y-84830533D01*
X89394683Y-84830533D02*
X89347064Y-84925771D01*
X89347064Y-84925771D02*
X89299445Y-84973390D01*
X89299445Y-84973390D02*
X89204207Y-85021009D01*
X89204207Y-85021009D02*
X88870874Y-85021009D01*
X90061350Y-84544819D02*
X90251826Y-84544819D01*
X90251826Y-84544819D02*
X90347064Y-84592438D01*
X90347064Y-84592438D02*
X90442302Y-84687676D01*
X90442302Y-84687676D02*
X90489921Y-84878152D01*
X90489921Y-84878152D02*
X90489921Y-85211485D01*
X90489921Y-85211485D02*
X90442302Y-85401961D01*
X90442302Y-85401961D02*
X90347064Y-85497200D01*
X90347064Y-85497200D02*
X90251826Y-85544819D01*
X90251826Y-85544819D02*
X90061350Y-85544819D01*
X90061350Y-85544819D02*
X89966112Y-85497200D01*
X89966112Y-85497200D02*
X89870874Y-85401961D01*
X89870874Y-85401961D02*
X89823255Y-85211485D01*
X89823255Y-85211485D02*
X89823255Y-84878152D01*
X89823255Y-84878152D02*
X89870874Y-84687676D01*
X89870874Y-84687676D02*
X89966112Y-84592438D01*
X89966112Y-84592438D02*
X90061350Y-84544819D01*
X91108969Y-84544819D02*
X91299445Y-84544819D01*
X91299445Y-84544819D02*
X91394683Y-84592438D01*
X91394683Y-84592438D02*
X91489921Y-84687676D01*
X91489921Y-84687676D02*
X91537540Y-84878152D01*
X91537540Y-84878152D02*
X91537540Y-85211485D01*
X91537540Y-85211485D02*
X91489921Y-85401961D01*
X91489921Y-85401961D02*
X91394683Y-85497200D01*
X91394683Y-85497200D02*
X91299445Y-85544819D01*
X91299445Y-85544819D02*
X91108969Y-85544819D01*
X91108969Y-85544819D02*
X91013731Y-85497200D01*
X91013731Y-85497200D02*
X90918493Y-85401961D01*
X90918493Y-85401961D02*
X90870874Y-85211485D01*
X90870874Y-85211485D02*
X90870874Y-84878152D01*
X90870874Y-84878152D02*
X90918493Y-84687676D01*
X90918493Y-84687676D02*
X91013731Y-84592438D01*
X91013731Y-84592438D02*
X91108969Y-84544819D01*
X91823255Y-84544819D02*
X92394683Y-84544819D01*
X92108969Y-85544819D02*
X92108969Y-84544819D01*
X83156588Y-92212438D02*
X83061350Y-92164819D01*
X83061350Y-92164819D02*
X82918493Y-92164819D01*
X82918493Y-92164819D02*
X82775636Y-92212438D01*
X82775636Y-92212438D02*
X82680398Y-92307676D01*
X82680398Y-92307676D02*
X82632779Y-92402914D01*
X82632779Y-92402914D02*
X82585160Y-92593390D01*
X82585160Y-92593390D02*
X82585160Y-92736247D01*
X82585160Y-92736247D02*
X82632779Y-92926723D01*
X82632779Y-92926723D02*
X82680398Y-93021961D01*
X82680398Y-93021961D02*
X82775636Y-93117200D01*
X82775636Y-93117200D02*
X82918493Y-93164819D01*
X82918493Y-93164819D02*
X83013731Y-93164819D01*
X83013731Y-93164819D02*
X83156588Y-93117200D01*
X83156588Y-93117200D02*
X83204207Y-93069580D01*
X83204207Y-93069580D02*
X83204207Y-92736247D01*
X83204207Y-92736247D02*
X83013731Y-92736247D01*
X83632779Y-93164819D02*
X83632779Y-92164819D01*
X83632779Y-92164819D02*
X84013731Y-92164819D01*
X84013731Y-92164819D02*
X84108969Y-92212438D01*
X84108969Y-92212438D02*
X84156588Y-92260057D01*
X84156588Y-92260057D02*
X84204207Y-92355295D01*
X84204207Y-92355295D02*
X84204207Y-92498152D01*
X84204207Y-92498152D02*
X84156588Y-92593390D01*
X84156588Y-92593390D02*
X84108969Y-92641009D01*
X84108969Y-92641009D02*
X84013731Y-92688628D01*
X84013731Y-92688628D02*
X83632779Y-92688628D01*
X84632779Y-93164819D02*
X84632779Y-92164819D01*
X85299445Y-92164819D02*
X85489921Y-92164819D01*
X85489921Y-92164819D02*
X85585159Y-92212438D01*
X85585159Y-92212438D02*
X85680397Y-92307676D01*
X85680397Y-92307676D02*
X85728016Y-92498152D01*
X85728016Y-92498152D02*
X85728016Y-92831485D01*
X85728016Y-92831485D02*
X85680397Y-93021961D01*
X85680397Y-93021961D02*
X85585159Y-93117200D01*
X85585159Y-93117200D02*
X85489921Y-93164819D01*
X85489921Y-93164819D02*
X85299445Y-93164819D01*
X85299445Y-93164819D02*
X85204207Y-93117200D01*
X85204207Y-93117200D02*
X85108969Y-93021961D01*
X85108969Y-93021961D02*
X85061350Y-92831485D01*
X85061350Y-92831485D02*
X85061350Y-92498152D01*
X85061350Y-92498152D02*
X85108969Y-92307676D01*
X85108969Y-92307676D02*
X85204207Y-92212438D01*
X85204207Y-92212438D02*
X85299445Y-92164819D01*
X86108969Y-92260057D02*
X86156588Y-92212438D01*
X86156588Y-92212438D02*
X86251826Y-92164819D01*
X86251826Y-92164819D02*
X86489921Y-92164819D01*
X86489921Y-92164819D02*
X86585159Y-92212438D01*
X86585159Y-92212438D02*
X86632778Y-92260057D01*
X86632778Y-92260057D02*
X86680397Y-92355295D01*
X86680397Y-92355295D02*
X86680397Y-92450533D01*
X86680397Y-92450533D02*
X86632778Y-92593390D01*
X86632778Y-92593390D02*
X86061350Y-93164819D01*
X86061350Y-93164819D02*
X86680397Y-93164819D01*
X86966112Y-92783866D02*
X87013731Y-92736247D01*
X87013731Y-92736247D02*
X87108969Y-92688628D01*
X87108969Y-92688628D02*
X87299445Y-92783866D01*
X87299445Y-92783866D02*
X87394683Y-92736247D01*
X87394683Y-92736247D02*
X87442302Y-92688628D01*
X83156588Y-82052438D02*
X83061350Y-82004819D01*
X83061350Y-82004819D02*
X82918493Y-82004819D01*
X82918493Y-82004819D02*
X82775636Y-82052438D01*
X82775636Y-82052438D02*
X82680398Y-82147676D01*
X82680398Y-82147676D02*
X82632779Y-82242914D01*
X82632779Y-82242914D02*
X82585160Y-82433390D01*
X82585160Y-82433390D02*
X82585160Y-82576247D01*
X82585160Y-82576247D02*
X82632779Y-82766723D01*
X82632779Y-82766723D02*
X82680398Y-82861961D01*
X82680398Y-82861961D02*
X82775636Y-82957200D01*
X82775636Y-82957200D02*
X82918493Y-83004819D01*
X82918493Y-83004819D02*
X83013731Y-83004819D01*
X83013731Y-83004819D02*
X83156588Y-82957200D01*
X83156588Y-82957200D02*
X83204207Y-82909580D01*
X83204207Y-82909580D02*
X83204207Y-82576247D01*
X83204207Y-82576247D02*
X83013731Y-82576247D01*
X83632779Y-83004819D02*
X83632779Y-82004819D01*
X83632779Y-82004819D02*
X84013731Y-82004819D01*
X84013731Y-82004819D02*
X84108969Y-82052438D01*
X84108969Y-82052438D02*
X84156588Y-82100057D01*
X84156588Y-82100057D02*
X84204207Y-82195295D01*
X84204207Y-82195295D02*
X84204207Y-82338152D01*
X84204207Y-82338152D02*
X84156588Y-82433390D01*
X84156588Y-82433390D02*
X84108969Y-82481009D01*
X84108969Y-82481009D02*
X84013731Y-82528628D01*
X84013731Y-82528628D02*
X83632779Y-82528628D01*
X84632779Y-83004819D02*
X84632779Y-82004819D01*
X85299445Y-82004819D02*
X85489921Y-82004819D01*
X85489921Y-82004819D02*
X85585159Y-82052438D01*
X85585159Y-82052438D02*
X85680397Y-82147676D01*
X85680397Y-82147676D02*
X85728016Y-82338152D01*
X85728016Y-82338152D02*
X85728016Y-82671485D01*
X85728016Y-82671485D02*
X85680397Y-82861961D01*
X85680397Y-82861961D02*
X85585159Y-82957200D01*
X85585159Y-82957200D02*
X85489921Y-83004819D01*
X85489921Y-83004819D02*
X85299445Y-83004819D01*
X85299445Y-83004819D02*
X85204207Y-82957200D01*
X85204207Y-82957200D02*
X85108969Y-82861961D01*
X85108969Y-82861961D02*
X85061350Y-82671485D01*
X85061350Y-82671485D02*
X85061350Y-82338152D01*
X85061350Y-82338152D02*
X85108969Y-82147676D01*
X85108969Y-82147676D02*
X85204207Y-82052438D01*
X85204207Y-82052438D02*
X85299445Y-82004819D01*
X86680397Y-83004819D02*
X86108969Y-83004819D01*
X86394683Y-83004819D02*
X86394683Y-82004819D01*
X86394683Y-82004819D02*
X86299445Y-82147676D01*
X86299445Y-82147676D02*
X86204207Y-82242914D01*
X86204207Y-82242914D02*
X86108969Y-82290533D01*
X86966112Y-82623866D02*
X87013731Y-82576247D01*
X87013731Y-82576247D02*
X87108969Y-82528628D01*
X87108969Y-82528628D02*
X87299445Y-82623866D01*
X87299445Y-82623866D02*
X87394683Y-82576247D01*
X87394683Y-82576247D02*
X87442302Y-82528628D01*
X82527921Y-67241009D02*
X82861254Y-67241009D01*
X83004111Y-67764819D02*
X82527921Y-67764819D01*
X82527921Y-67764819D02*
X82527921Y-66764819D01*
X82527921Y-66764819D02*
X83004111Y-66764819D01*
X83432683Y-67764819D02*
X83432683Y-66764819D01*
X83432683Y-66764819D02*
X84004111Y-67764819D01*
X84004111Y-67764819D02*
X84004111Y-66764819D01*
X85194587Y-66717200D02*
X84337445Y-68002914D01*
X86099349Y-67764819D02*
X85766016Y-67288628D01*
X85527921Y-67764819D02*
X85527921Y-66764819D01*
X85527921Y-66764819D02*
X85908873Y-66764819D01*
X85908873Y-66764819D02*
X86004111Y-66812438D01*
X86004111Y-66812438D02*
X86051730Y-66860057D01*
X86051730Y-66860057D02*
X86099349Y-66955295D01*
X86099349Y-66955295D02*
X86099349Y-67098152D01*
X86099349Y-67098152D02*
X86051730Y-67193390D01*
X86051730Y-67193390D02*
X86004111Y-67241009D01*
X86004111Y-67241009D02*
X85908873Y-67288628D01*
X85908873Y-67288628D02*
X85527921Y-67288628D01*
X86527921Y-67241009D02*
X86861254Y-67241009D01*
X87004111Y-67764819D02*
X86527921Y-67764819D01*
X86527921Y-67764819D02*
X86527921Y-66764819D01*
X86527921Y-66764819D02*
X87004111Y-66764819D01*
X87385064Y-67717200D02*
X87527921Y-67764819D01*
X87527921Y-67764819D02*
X87766016Y-67764819D01*
X87766016Y-67764819D02*
X87861254Y-67717200D01*
X87861254Y-67717200D02*
X87908873Y-67669580D01*
X87908873Y-67669580D02*
X87956492Y-67574342D01*
X87956492Y-67574342D02*
X87956492Y-67479104D01*
X87956492Y-67479104D02*
X87908873Y-67383866D01*
X87908873Y-67383866D02*
X87861254Y-67336247D01*
X87861254Y-67336247D02*
X87766016Y-67288628D01*
X87766016Y-67288628D02*
X87575540Y-67241009D01*
X87575540Y-67241009D02*
X87480302Y-67193390D01*
X87480302Y-67193390D02*
X87432683Y-67145771D01*
X87432683Y-67145771D02*
X87385064Y-67050533D01*
X87385064Y-67050533D02*
X87385064Y-66955295D01*
X87385064Y-66955295D02*
X87432683Y-66860057D01*
X87432683Y-66860057D02*
X87480302Y-66812438D01*
X87480302Y-66812438D02*
X87575540Y-66764819D01*
X87575540Y-66764819D02*
X87813635Y-66764819D01*
X87813635Y-66764819D02*
X87956492Y-66812438D01*
X88385064Y-67241009D02*
X88718397Y-67241009D01*
X88861254Y-67764819D02*
X88385064Y-67764819D01*
X88385064Y-67764819D02*
X88385064Y-66764819D01*
X88385064Y-66764819D02*
X88861254Y-66764819D01*
X89146969Y-66764819D02*
X89718397Y-66764819D01*
X89432683Y-67764819D02*
X89432683Y-66764819D01*
X92707791Y-71892438D02*
X92612553Y-71844819D01*
X92612553Y-71844819D02*
X92469696Y-71844819D01*
X92469696Y-71844819D02*
X92326839Y-71892438D01*
X92326839Y-71892438D02*
X92231601Y-71987676D01*
X92231601Y-71987676D02*
X92183982Y-72082914D01*
X92183982Y-72082914D02*
X92136363Y-72273390D01*
X92136363Y-72273390D02*
X92136363Y-72416247D01*
X92136363Y-72416247D02*
X92183982Y-72606723D01*
X92183982Y-72606723D02*
X92231601Y-72701961D01*
X92231601Y-72701961D02*
X92326839Y-72797200D01*
X92326839Y-72797200D02*
X92469696Y-72844819D01*
X92469696Y-72844819D02*
X92564934Y-72844819D01*
X92564934Y-72844819D02*
X92707791Y-72797200D01*
X92707791Y-72797200D02*
X92755410Y-72749580D01*
X92755410Y-72749580D02*
X92755410Y-72416247D01*
X92755410Y-72416247D02*
X92564934Y-72416247D01*
X93183982Y-72844819D02*
X93183982Y-71844819D01*
X93183982Y-71844819D02*
X93564934Y-71844819D01*
X93564934Y-71844819D02*
X93660172Y-71892438D01*
X93660172Y-71892438D02*
X93707791Y-71940057D01*
X93707791Y-71940057D02*
X93755410Y-72035295D01*
X93755410Y-72035295D02*
X93755410Y-72178152D01*
X93755410Y-72178152D02*
X93707791Y-72273390D01*
X93707791Y-72273390D02*
X93660172Y-72321009D01*
X93660172Y-72321009D02*
X93564934Y-72368628D01*
X93564934Y-72368628D02*
X93183982Y-72368628D01*
X94183982Y-72844819D02*
X94183982Y-71844819D01*
X94850648Y-71844819D02*
X95041124Y-71844819D01*
X95041124Y-71844819D02*
X95136362Y-71892438D01*
X95136362Y-71892438D02*
X95231600Y-71987676D01*
X95231600Y-71987676D02*
X95279219Y-72178152D01*
X95279219Y-72178152D02*
X95279219Y-72511485D01*
X95279219Y-72511485D02*
X95231600Y-72701961D01*
X95231600Y-72701961D02*
X95136362Y-72797200D01*
X95136362Y-72797200D02*
X95041124Y-72844819D01*
X95041124Y-72844819D02*
X94850648Y-72844819D01*
X94850648Y-72844819D02*
X94755410Y-72797200D01*
X94755410Y-72797200D02*
X94660172Y-72701961D01*
X94660172Y-72701961D02*
X94612553Y-72511485D01*
X94612553Y-72511485D02*
X94612553Y-72178152D01*
X94612553Y-72178152D02*
X94660172Y-71987676D01*
X94660172Y-71987676D02*
X94755410Y-71892438D01*
X94755410Y-71892438D02*
X94850648Y-71844819D01*
X96231600Y-72844819D02*
X95660172Y-72844819D01*
X95945886Y-72844819D02*
X95945886Y-71844819D01*
X95945886Y-71844819D02*
X95850648Y-71987676D01*
X95850648Y-71987676D02*
X95755410Y-72082914D01*
X95755410Y-72082914D02*
X95660172Y-72130533D01*
X97136362Y-71844819D02*
X96660172Y-71844819D01*
X96660172Y-71844819D02*
X96612553Y-72321009D01*
X96612553Y-72321009D02*
X96660172Y-72273390D01*
X96660172Y-72273390D02*
X96755410Y-72225771D01*
X96755410Y-72225771D02*
X96993505Y-72225771D01*
X96993505Y-72225771D02*
X97088743Y-72273390D01*
X97088743Y-72273390D02*
X97136362Y-72321009D01*
X97136362Y-72321009D02*
X97183981Y-72416247D01*
X97183981Y-72416247D02*
X97183981Y-72654342D01*
X97183981Y-72654342D02*
X97136362Y-72749580D01*
X97136362Y-72749580D02*
X97088743Y-72797200D01*
X97088743Y-72797200D02*
X96993505Y-72844819D01*
X96993505Y-72844819D02*
X96755410Y-72844819D01*
X96755410Y-72844819D02*
X96660172Y-72797200D01*
X96660172Y-72797200D02*
X96612553Y-72749580D01*
X97469696Y-72463866D02*
X97517315Y-72416247D01*
X97517315Y-72416247D02*
X97612553Y-72368628D01*
X97612553Y-72368628D02*
X97803029Y-72463866D01*
X97803029Y-72463866D02*
X97898267Y-72416247D01*
X97898267Y-72416247D02*
X97945886Y-72368628D01*
X99041124Y-71797200D02*
X98183982Y-73082914D01*
X99660172Y-71844819D02*
X99660172Y-72559104D01*
X99660172Y-72559104D02*
X99612553Y-72701961D01*
X99612553Y-72701961D02*
X99517315Y-72797200D01*
X99517315Y-72797200D02*
X99374458Y-72844819D01*
X99374458Y-72844819D02*
X99279220Y-72844819D01*
X99993506Y-71844819D02*
X100564934Y-71844819D01*
X100279220Y-72844819D02*
X100279220Y-71844819D01*
X100850649Y-72559104D02*
X101326839Y-72559104D01*
X100755411Y-72844819D02*
X101088744Y-71844819D01*
X101088744Y-71844819D02*
X101422077Y-72844819D01*
X102279220Y-71892438D02*
X102183982Y-71844819D01*
X102183982Y-71844819D02*
X102041125Y-71844819D01*
X102041125Y-71844819D02*
X101898268Y-71892438D01*
X101898268Y-71892438D02*
X101803030Y-71987676D01*
X101803030Y-71987676D02*
X101755411Y-72082914D01*
X101755411Y-72082914D02*
X101707792Y-72273390D01*
X101707792Y-72273390D02*
X101707792Y-72416247D01*
X101707792Y-72416247D02*
X101755411Y-72606723D01*
X101755411Y-72606723D02*
X101803030Y-72701961D01*
X101803030Y-72701961D02*
X101898268Y-72797200D01*
X101898268Y-72797200D02*
X102041125Y-72844819D01*
X102041125Y-72844819D02*
X102136363Y-72844819D01*
X102136363Y-72844819D02*
X102279220Y-72797200D01*
X102279220Y-72797200D02*
X102326839Y-72749580D01*
X102326839Y-72749580D02*
X102326839Y-72416247D01*
X102326839Y-72416247D02*
X102136363Y-72416247D01*
X83108969Y-97244819D02*
X82632779Y-97244819D01*
X82632779Y-97244819D02*
X82585160Y-97721009D01*
X82585160Y-97721009D02*
X82632779Y-97673390D01*
X82632779Y-97673390D02*
X82728017Y-97625771D01*
X82728017Y-97625771D02*
X82966112Y-97625771D01*
X82966112Y-97625771D02*
X83061350Y-97673390D01*
X83061350Y-97673390D02*
X83108969Y-97721009D01*
X83108969Y-97721009D02*
X83156588Y-97816247D01*
X83156588Y-97816247D02*
X83156588Y-98054342D01*
X83156588Y-98054342D02*
X83108969Y-98149580D01*
X83108969Y-98149580D02*
X83061350Y-98197200D01*
X83061350Y-98197200D02*
X82966112Y-98244819D01*
X82966112Y-98244819D02*
X82728017Y-98244819D01*
X82728017Y-98244819D02*
X82632779Y-98197200D01*
X82632779Y-98197200D02*
X82585160Y-98149580D01*
X83442303Y-97244819D02*
X83775636Y-98244819D01*
X83775636Y-98244819D02*
X84108969Y-97244819D01*
X83156588Y-71892438D02*
X83061350Y-71844819D01*
X83061350Y-71844819D02*
X82918493Y-71844819D01*
X82918493Y-71844819D02*
X82775636Y-71892438D01*
X82775636Y-71892438D02*
X82680398Y-71987676D01*
X82680398Y-71987676D02*
X82632779Y-72082914D01*
X82632779Y-72082914D02*
X82585160Y-72273390D01*
X82585160Y-72273390D02*
X82585160Y-72416247D01*
X82585160Y-72416247D02*
X82632779Y-72606723D01*
X82632779Y-72606723D02*
X82680398Y-72701961D01*
X82680398Y-72701961D02*
X82775636Y-72797200D01*
X82775636Y-72797200D02*
X82918493Y-72844819D01*
X82918493Y-72844819D02*
X83013731Y-72844819D01*
X83013731Y-72844819D02*
X83156588Y-72797200D01*
X83156588Y-72797200D02*
X83204207Y-72749580D01*
X83204207Y-72749580D02*
X83204207Y-72416247D01*
X83204207Y-72416247D02*
X83013731Y-72416247D01*
X83632779Y-72844819D02*
X83632779Y-71844819D01*
X83632779Y-71844819D02*
X84013731Y-71844819D01*
X84013731Y-71844819D02*
X84108969Y-71892438D01*
X84108969Y-71892438D02*
X84156588Y-71940057D01*
X84156588Y-71940057D02*
X84204207Y-72035295D01*
X84204207Y-72035295D02*
X84204207Y-72178152D01*
X84204207Y-72178152D02*
X84156588Y-72273390D01*
X84156588Y-72273390D02*
X84108969Y-72321009D01*
X84108969Y-72321009D02*
X84013731Y-72368628D01*
X84013731Y-72368628D02*
X83632779Y-72368628D01*
X84632779Y-72844819D02*
X84632779Y-71844819D01*
X85299445Y-71844819D02*
X85489921Y-71844819D01*
X85489921Y-71844819D02*
X85585159Y-71892438D01*
X85585159Y-71892438D02*
X85680397Y-71987676D01*
X85680397Y-71987676D02*
X85728016Y-72178152D01*
X85728016Y-72178152D02*
X85728016Y-72511485D01*
X85728016Y-72511485D02*
X85680397Y-72701961D01*
X85680397Y-72701961D02*
X85585159Y-72797200D01*
X85585159Y-72797200D02*
X85489921Y-72844819D01*
X85489921Y-72844819D02*
X85299445Y-72844819D01*
X85299445Y-72844819D02*
X85204207Y-72797200D01*
X85204207Y-72797200D02*
X85108969Y-72701961D01*
X85108969Y-72701961D02*
X85061350Y-72511485D01*
X85061350Y-72511485D02*
X85061350Y-72178152D01*
X85061350Y-72178152D02*
X85108969Y-71987676D01*
X85108969Y-71987676D02*
X85204207Y-71892438D01*
X85204207Y-71892438D02*
X85299445Y-71844819D01*
X86632778Y-71844819D02*
X86156588Y-71844819D01*
X86156588Y-71844819D02*
X86108969Y-72321009D01*
X86108969Y-72321009D02*
X86156588Y-72273390D01*
X86156588Y-72273390D02*
X86251826Y-72225771D01*
X86251826Y-72225771D02*
X86489921Y-72225771D01*
X86489921Y-72225771D02*
X86585159Y-72273390D01*
X86585159Y-72273390D02*
X86632778Y-72321009D01*
X86632778Y-72321009D02*
X86680397Y-72416247D01*
X86680397Y-72416247D02*
X86680397Y-72654342D01*
X86680397Y-72654342D02*
X86632778Y-72749580D01*
X86632778Y-72749580D02*
X86585159Y-72797200D01*
X86585159Y-72797200D02*
X86489921Y-72844819D01*
X86489921Y-72844819D02*
X86251826Y-72844819D01*
X86251826Y-72844819D02*
X86156588Y-72797200D01*
X86156588Y-72797200D02*
X86108969Y-72749580D01*
X86966112Y-72463866D02*
X87013731Y-72416247D01*
X87013731Y-72416247D02*
X87108969Y-72368628D01*
X87108969Y-72368628D02*
X87299445Y-72463866D01*
X87299445Y-72463866D02*
X87394683Y-72416247D01*
X87394683Y-72416247D02*
X87442302Y-72368628D01*
X83750562Y-111163219D02*
X83750562Y-111972742D01*
X83750562Y-111972742D02*
X83798181Y-112067980D01*
X83798181Y-112067980D02*
X83845800Y-112115600D01*
X83845800Y-112115600D02*
X83941038Y-112163219D01*
X83941038Y-112163219D02*
X84131514Y-112163219D01*
X84131514Y-112163219D02*
X84226752Y-112115600D01*
X84226752Y-112115600D02*
X84274371Y-112067980D01*
X84274371Y-112067980D02*
X84321990Y-111972742D01*
X84321990Y-111972742D02*
X84321990Y-111163219D01*
X84750562Y-111877504D02*
X85226752Y-111877504D01*
X84655324Y-112163219D02*
X84988657Y-111163219D01*
X84988657Y-111163219D02*
X85321990Y-112163219D01*
X86226752Y-112163219D02*
X85893419Y-111687028D01*
X85655324Y-112163219D02*
X85655324Y-111163219D01*
X85655324Y-111163219D02*
X86036276Y-111163219D01*
X86036276Y-111163219D02*
X86131514Y-111210838D01*
X86131514Y-111210838D02*
X86179133Y-111258457D01*
X86179133Y-111258457D02*
X86226752Y-111353695D01*
X86226752Y-111353695D02*
X86226752Y-111496552D01*
X86226752Y-111496552D02*
X86179133Y-111591790D01*
X86179133Y-111591790D02*
X86131514Y-111639409D01*
X86131514Y-111639409D02*
X86036276Y-111687028D01*
X86036276Y-111687028D02*
X85655324Y-111687028D01*
X86512467Y-111163219D02*
X87083895Y-111163219D01*
X86798181Y-112163219D02*
X86798181Y-111163219D01*
X83156588Y-89672438D02*
X83061350Y-89624819D01*
X83061350Y-89624819D02*
X82918493Y-89624819D01*
X82918493Y-89624819D02*
X82775636Y-89672438D01*
X82775636Y-89672438D02*
X82680398Y-89767676D01*
X82680398Y-89767676D02*
X82632779Y-89862914D01*
X82632779Y-89862914D02*
X82585160Y-90053390D01*
X82585160Y-90053390D02*
X82585160Y-90196247D01*
X82585160Y-90196247D02*
X82632779Y-90386723D01*
X82632779Y-90386723D02*
X82680398Y-90481961D01*
X82680398Y-90481961D02*
X82775636Y-90577200D01*
X82775636Y-90577200D02*
X82918493Y-90624819D01*
X82918493Y-90624819D02*
X83013731Y-90624819D01*
X83013731Y-90624819D02*
X83156588Y-90577200D01*
X83156588Y-90577200D02*
X83204207Y-90529580D01*
X83204207Y-90529580D02*
X83204207Y-90196247D01*
X83204207Y-90196247D02*
X83013731Y-90196247D01*
X83632779Y-90624819D02*
X83632779Y-89624819D01*
X83632779Y-89624819D02*
X84013731Y-89624819D01*
X84013731Y-89624819D02*
X84108969Y-89672438D01*
X84108969Y-89672438D02*
X84156588Y-89720057D01*
X84156588Y-89720057D02*
X84204207Y-89815295D01*
X84204207Y-89815295D02*
X84204207Y-89958152D01*
X84204207Y-89958152D02*
X84156588Y-90053390D01*
X84156588Y-90053390D02*
X84108969Y-90101009D01*
X84108969Y-90101009D02*
X84013731Y-90148628D01*
X84013731Y-90148628D02*
X83632779Y-90148628D01*
X84632779Y-90624819D02*
X84632779Y-89624819D01*
X85299445Y-89624819D02*
X85489921Y-89624819D01*
X85489921Y-89624819D02*
X85585159Y-89672438D01*
X85585159Y-89672438D02*
X85680397Y-89767676D01*
X85680397Y-89767676D02*
X85728016Y-89958152D01*
X85728016Y-89958152D02*
X85728016Y-90291485D01*
X85728016Y-90291485D02*
X85680397Y-90481961D01*
X85680397Y-90481961D02*
X85585159Y-90577200D01*
X85585159Y-90577200D02*
X85489921Y-90624819D01*
X85489921Y-90624819D02*
X85299445Y-90624819D01*
X85299445Y-90624819D02*
X85204207Y-90577200D01*
X85204207Y-90577200D02*
X85108969Y-90481961D01*
X85108969Y-90481961D02*
X85061350Y-90291485D01*
X85061350Y-90291485D02*
X85061350Y-89958152D01*
X85061350Y-89958152D02*
X85108969Y-89767676D01*
X85108969Y-89767676D02*
X85204207Y-89672438D01*
X85204207Y-89672438D02*
X85299445Y-89624819D01*
X86680397Y-90624819D02*
X86108969Y-90624819D01*
X86394683Y-90624819D02*
X86394683Y-89624819D01*
X86394683Y-89624819D02*
X86299445Y-89767676D01*
X86299445Y-89767676D02*
X86204207Y-89862914D01*
X86204207Y-89862914D02*
X86108969Y-89910533D01*
X87632778Y-90624819D02*
X87061350Y-90624819D01*
X87347064Y-90624819D02*
X87347064Y-89624819D01*
X87347064Y-89624819D02*
X87251826Y-89767676D01*
X87251826Y-89767676D02*
X87156588Y-89862914D01*
X87156588Y-89862914D02*
X87061350Y-89910533D01*
X87918493Y-90243866D02*
X87966112Y-90196247D01*
X87966112Y-90196247D02*
X88061350Y-90148628D01*
X88061350Y-90148628D02*
X88251826Y-90243866D01*
X88251826Y-90243866D02*
X88347064Y-90196247D01*
X88347064Y-90196247D02*
X88394683Y-90148628D01*
X97136363Y-84592438D02*
X97041125Y-84544819D01*
X97041125Y-84544819D02*
X96898268Y-84544819D01*
X96898268Y-84544819D02*
X96755411Y-84592438D01*
X96755411Y-84592438D02*
X96660173Y-84687676D01*
X96660173Y-84687676D02*
X96612554Y-84782914D01*
X96612554Y-84782914D02*
X96564935Y-84973390D01*
X96564935Y-84973390D02*
X96564935Y-85116247D01*
X96564935Y-85116247D02*
X96612554Y-85306723D01*
X96612554Y-85306723D02*
X96660173Y-85401961D01*
X96660173Y-85401961D02*
X96755411Y-85497200D01*
X96755411Y-85497200D02*
X96898268Y-85544819D01*
X96898268Y-85544819D02*
X96993506Y-85544819D01*
X96993506Y-85544819D02*
X97136363Y-85497200D01*
X97136363Y-85497200D02*
X97183982Y-85449580D01*
X97183982Y-85449580D02*
X97183982Y-85116247D01*
X97183982Y-85116247D02*
X96993506Y-85116247D01*
X97612554Y-85544819D02*
X97612554Y-84544819D01*
X97612554Y-84544819D02*
X97993506Y-84544819D01*
X97993506Y-84544819D02*
X98088744Y-84592438D01*
X98088744Y-84592438D02*
X98136363Y-84640057D01*
X98136363Y-84640057D02*
X98183982Y-84735295D01*
X98183982Y-84735295D02*
X98183982Y-84878152D01*
X98183982Y-84878152D02*
X98136363Y-84973390D01*
X98136363Y-84973390D02*
X98088744Y-85021009D01*
X98088744Y-85021009D02*
X97993506Y-85068628D01*
X97993506Y-85068628D02*
X97612554Y-85068628D01*
X98612554Y-85544819D02*
X98612554Y-84544819D01*
X99279220Y-84544819D02*
X99469696Y-84544819D01*
X99469696Y-84544819D02*
X99564934Y-84592438D01*
X99564934Y-84592438D02*
X99660172Y-84687676D01*
X99660172Y-84687676D02*
X99707791Y-84878152D01*
X99707791Y-84878152D02*
X99707791Y-85211485D01*
X99707791Y-85211485D02*
X99660172Y-85401961D01*
X99660172Y-85401961D02*
X99564934Y-85497200D01*
X99564934Y-85497200D02*
X99469696Y-85544819D01*
X99469696Y-85544819D02*
X99279220Y-85544819D01*
X99279220Y-85544819D02*
X99183982Y-85497200D01*
X99183982Y-85497200D02*
X99088744Y-85401961D01*
X99088744Y-85401961D02*
X99041125Y-85211485D01*
X99041125Y-85211485D02*
X99041125Y-84878152D01*
X99041125Y-84878152D02*
X99088744Y-84687676D01*
X99088744Y-84687676D02*
X99183982Y-84592438D01*
X99183982Y-84592438D02*
X99279220Y-84544819D01*
X100660172Y-85544819D02*
X100088744Y-85544819D01*
X100374458Y-85544819D02*
X100374458Y-84544819D01*
X100374458Y-84544819D02*
X100279220Y-84687676D01*
X100279220Y-84687676D02*
X100183982Y-84782914D01*
X100183982Y-84782914D02*
X100088744Y-84830533D01*
X101136363Y-85544819D02*
X101326839Y-85544819D01*
X101326839Y-85544819D02*
X101422077Y-85497200D01*
X101422077Y-85497200D02*
X101469696Y-85449580D01*
X101469696Y-85449580D02*
X101564934Y-85306723D01*
X101564934Y-85306723D02*
X101612553Y-85116247D01*
X101612553Y-85116247D02*
X101612553Y-84735295D01*
X101612553Y-84735295D02*
X101564934Y-84640057D01*
X101564934Y-84640057D02*
X101517315Y-84592438D01*
X101517315Y-84592438D02*
X101422077Y-84544819D01*
X101422077Y-84544819D02*
X101231601Y-84544819D01*
X101231601Y-84544819D02*
X101136363Y-84592438D01*
X101136363Y-84592438D02*
X101088744Y-84640057D01*
X101088744Y-84640057D02*
X101041125Y-84735295D01*
X101041125Y-84735295D02*
X101041125Y-84973390D01*
X101041125Y-84973390D02*
X101088744Y-85068628D01*
X101088744Y-85068628D02*
X101136363Y-85116247D01*
X101136363Y-85116247D02*
X101231601Y-85163866D01*
X101231601Y-85163866D02*
X101422077Y-85163866D01*
X101422077Y-85163866D02*
X101517315Y-85116247D01*
X101517315Y-85116247D02*
X101564934Y-85068628D01*
X101564934Y-85068628D02*
X101612553Y-84973390D01*
X101898268Y-85163866D02*
X101945887Y-85116247D01*
X101945887Y-85116247D02*
X102041125Y-85068628D01*
X102041125Y-85068628D02*
X102231601Y-85163866D01*
X102231601Y-85163866D02*
X102326839Y-85116247D01*
X102326839Y-85116247D02*
X102374458Y-85068628D01*
X90088744Y-97292438D02*
X89993506Y-97244819D01*
X89993506Y-97244819D02*
X89850649Y-97244819D01*
X89850649Y-97244819D02*
X89707792Y-97292438D01*
X89707792Y-97292438D02*
X89612554Y-97387676D01*
X89612554Y-97387676D02*
X89564935Y-97482914D01*
X89564935Y-97482914D02*
X89517316Y-97673390D01*
X89517316Y-97673390D02*
X89517316Y-97816247D01*
X89517316Y-97816247D02*
X89564935Y-98006723D01*
X89564935Y-98006723D02*
X89612554Y-98101961D01*
X89612554Y-98101961D02*
X89707792Y-98197200D01*
X89707792Y-98197200D02*
X89850649Y-98244819D01*
X89850649Y-98244819D02*
X89945887Y-98244819D01*
X89945887Y-98244819D02*
X90088744Y-98197200D01*
X90088744Y-98197200D02*
X90136363Y-98149580D01*
X90136363Y-98149580D02*
X90136363Y-97816247D01*
X90136363Y-97816247D02*
X89945887Y-97816247D01*
X90564935Y-98244819D02*
X90564935Y-97244819D01*
X90564935Y-97244819D02*
X90945887Y-97244819D01*
X90945887Y-97244819D02*
X91041125Y-97292438D01*
X91041125Y-97292438D02*
X91088744Y-97340057D01*
X91088744Y-97340057D02*
X91136363Y-97435295D01*
X91136363Y-97435295D02*
X91136363Y-97578152D01*
X91136363Y-97578152D02*
X91088744Y-97673390D01*
X91088744Y-97673390D02*
X91041125Y-97721009D01*
X91041125Y-97721009D02*
X90945887Y-97768628D01*
X90945887Y-97768628D02*
X90564935Y-97768628D01*
X91564935Y-98244819D02*
X91564935Y-97244819D01*
X92231601Y-97244819D02*
X92422077Y-97244819D01*
X92422077Y-97244819D02*
X92517315Y-97292438D01*
X92517315Y-97292438D02*
X92612553Y-97387676D01*
X92612553Y-97387676D02*
X92660172Y-97578152D01*
X92660172Y-97578152D02*
X92660172Y-97911485D01*
X92660172Y-97911485D02*
X92612553Y-98101961D01*
X92612553Y-98101961D02*
X92517315Y-98197200D01*
X92517315Y-98197200D02*
X92422077Y-98244819D01*
X92422077Y-98244819D02*
X92231601Y-98244819D01*
X92231601Y-98244819D02*
X92136363Y-98197200D01*
X92136363Y-98197200D02*
X92041125Y-98101961D01*
X92041125Y-98101961D02*
X91993506Y-97911485D01*
X91993506Y-97911485D02*
X91993506Y-97578152D01*
X91993506Y-97578152D02*
X92041125Y-97387676D01*
X92041125Y-97387676D02*
X92136363Y-97292438D01*
X92136363Y-97292438D02*
X92231601Y-97244819D01*
X93612553Y-98244819D02*
X93041125Y-98244819D01*
X93326839Y-98244819D02*
X93326839Y-97244819D01*
X93326839Y-97244819D02*
X93231601Y-97387676D01*
X93231601Y-97387676D02*
X93136363Y-97482914D01*
X93136363Y-97482914D02*
X93041125Y-97530533D01*
X93993506Y-97340057D02*
X94041125Y-97292438D01*
X94041125Y-97292438D02*
X94136363Y-97244819D01*
X94136363Y-97244819D02*
X94374458Y-97244819D01*
X94374458Y-97244819D02*
X94469696Y-97292438D01*
X94469696Y-97292438D02*
X94517315Y-97340057D01*
X94517315Y-97340057D02*
X94564934Y-97435295D01*
X94564934Y-97435295D02*
X94564934Y-97530533D01*
X94564934Y-97530533D02*
X94517315Y-97673390D01*
X94517315Y-97673390D02*
X93945887Y-98244819D01*
X93945887Y-98244819D02*
X94564934Y-98244819D01*
X94850649Y-97863866D02*
X94898268Y-97816247D01*
X94898268Y-97816247D02*
X94993506Y-97768628D01*
X94993506Y-97768628D02*
X95183982Y-97863866D01*
X95183982Y-97863866D02*
X95279220Y-97816247D01*
X95279220Y-97816247D02*
X95326839Y-97768628D01*
X96422077Y-97197200D02*
X95564935Y-98482914D01*
X96755411Y-97244819D02*
X96755411Y-98054342D01*
X96755411Y-98054342D02*
X96803030Y-98149580D01*
X96803030Y-98149580D02*
X96850649Y-98197200D01*
X96850649Y-98197200D02*
X96945887Y-98244819D01*
X96945887Y-98244819D02*
X97136363Y-98244819D01*
X97136363Y-98244819D02*
X97231601Y-98197200D01*
X97231601Y-98197200D02*
X97279220Y-98149580D01*
X97279220Y-98149580D02*
X97326839Y-98054342D01*
X97326839Y-98054342D02*
X97326839Y-97244819D01*
X97755411Y-98197200D02*
X97898268Y-98244819D01*
X97898268Y-98244819D02*
X98136363Y-98244819D01*
X98136363Y-98244819D02*
X98231601Y-98197200D01*
X98231601Y-98197200D02*
X98279220Y-98149580D01*
X98279220Y-98149580D02*
X98326839Y-98054342D01*
X98326839Y-98054342D02*
X98326839Y-97959104D01*
X98326839Y-97959104D02*
X98279220Y-97863866D01*
X98279220Y-97863866D02*
X98231601Y-97816247D01*
X98231601Y-97816247D02*
X98136363Y-97768628D01*
X98136363Y-97768628D02*
X97945887Y-97721009D01*
X97945887Y-97721009D02*
X97850649Y-97673390D01*
X97850649Y-97673390D02*
X97803030Y-97625771D01*
X97803030Y-97625771D02*
X97755411Y-97530533D01*
X97755411Y-97530533D02*
X97755411Y-97435295D01*
X97755411Y-97435295D02*
X97803030Y-97340057D01*
X97803030Y-97340057D02*
X97850649Y-97292438D01*
X97850649Y-97292438D02*
X97945887Y-97244819D01*
X97945887Y-97244819D02*
X98183982Y-97244819D01*
X98183982Y-97244819D02*
X98326839Y-97292438D01*
X99088744Y-97721009D02*
X99231601Y-97768628D01*
X99231601Y-97768628D02*
X99279220Y-97816247D01*
X99279220Y-97816247D02*
X99326839Y-97911485D01*
X99326839Y-97911485D02*
X99326839Y-98054342D01*
X99326839Y-98054342D02*
X99279220Y-98149580D01*
X99279220Y-98149580D02*
X99231601Y-98197200D01*
X99231601Y-98197200D02*
X99136363Y-98244819D01*
X99136363Y-98244819D02*
X98755411Y-98244819D01*
X98755411Y-98244819D02*
X98755411Y-97244819D01*
X98755411Y-97244819D02*
X99088744Y-97244819D01*
X99088744Y-97244819D02*
X99183982Y-97292438D01*
X99183982Y-97292438D02*
X99231601Y-97340057D01*
X99231601Y-97340057D02*
X99279220Y-97435295D01*
X99279220Y-97435295D02*
X99279220Y-97530533D01*
X99279220Y-97530533D02*
X99231601Y-97625771D01*
X99231601Y-97625771D02*
X99183982Y-97673390D01*
X99183982Y-97673390D02*
X99088744Y-97721009D01*
X99088744Y-97721009D02*
X98755411Y-97721009D01*
X99517316Y-98340057D02*
X100279220Y-98340057D01*
X100517316Y-98244819D02*
X100517316Y-97244819D01*
X100517316Y-97244819D02*
X100755411Y-97244819D01*
X100755411Y-97244819D02*
X100898268Y-97292438D01*
X100898268Y-97292438D02*
X100993506Y-97387676D01*
X100993506Y-97387676D02*
X101041125Y-97482914D01*
X101041125Y-97482914D02*
X101088744Y-97673390D01*
X101088744Y-97673390D02*
X101088744Y-97816247D01*
X101088744Y-97816247D02*
X101041125Y-98006723D01*
X101041125Y-98006723D02*
X100993506Y-98101961D01*
X100993506Y-98101961D02*
X100898268Y-98197200D01*
X100898268Y-98197200D02*
X100755411Y-98244819D01*
X100755411Y-98244819D02*
X100517316Y-98244819D01*
X101517316Y-97863866D02*
X102279221Y-97863866D01*
X100231601Y-64272438D02*
X100136363Y-64224819D01*
X100136363Y-64224819D02*
X99993506Y-64224819D01*
X99993506Y-64224819D02*
X99850649Y-64272438D01*
X99850649Y-64272438D02*
X99755411Y-64367676D01*
X99755411Y-64367676D02*
X99707792Y-64462914D01*
X99707792Y-64462914D02*
X99660173Y-64653390D01*
X99660173Y-64653390D02*
X99660173Y-64796247D01*
X99660173Y-64796247D02*
X99707792Y-64986723D01*
X99707792Y-64986723D02*
X99755411Y-65081961D01*
X99755411Y-65081961D02*
X99850649Y-65177200D01*
X99850649Y-65177200D02*
X99993506Y-65224819D01*
X99993506Y-65224819D02*
X100088744Y-65224819D01*
X100088744Y-65224819D02*
X100231601Y-65177200D01*
X100231601Y-65177200D02*
X100279220Y-65129580D01*
X100279220Y-65129580D02*
X100279220Y-64796247D01*
X100279220Y-64796247D02*
X100088744Y-64796247D01*
X100707792Y-65224819D02*
X100707792Y-64224819D01*
X100707792Y-64224819D02*
X101279220Y-65224819D01*
X101279220Y-65224819D02*
X101279220Y-64224819D01*
X101755411Y-65224819D02*
X101755411Y-64224819D01*
X101755411Y-64224819D02*
X101993506Y-64224819D01*
X101993506Y-64224819D02*
X102136363Y-64272438D01*
X102136363Y-64272438D02*
X102231601Y-64367676D01*
X102231601Y-64367676D02*
X102279220Y-64462914D01*
X102279220Y-64462914D02*
X102326839Y-64653390D01*
X102326839Y-64653390D02*
X102326839Y-64796247D01*
X102326839Y-64796247D02*
X102279220Y-64986723D01*
X102279220Y-64986723D02*
X102231601Y-65081961D01*
X102231601Y-65081961D02*
X102136363Y-65177200D01*
X102136363Y-65177200D02*
X101993506Y-65224819D01*
X101993506Y-65224819D02*
X101755411Y-65224819D01*
X97136363Y-82052438D02*
X97041125Y-82004819D01*
X97041125Y-82004819D02*
X96898268Y-82004819D01*
X96898268Y-82004819D02*
X96755411Y-82052438D01*
X96755411Y-82052438D02*
X96660173Y-82147676D01*
X96660173Y-82147676D02*
X96612554Y-82242914D01*
X96612554Y-82242914D02*
X96564935Y-82433390D01*
X96564935Y-82433390D02*
X96564935Y-82576247D01*
X96564935Y-82576247D02*
X96612554Y-82766723D01*
X96612554Y-82766723D02*
X96660173Y-82861961D01*
X96660173Y-82861961D02*
X96755411Y-82957200D01*
X96755411Y-82957200D02*
X96898268Y-83004819D01*
X96898268Y-83004819D02*
X96993506Y-83004819D01*
X96993506Y-83004819D02*
X97136363Y-82957200D01*
X97136363Y-82957200D02*
X97183982Y-82909580D01*
X97183982Y-82909580D02*
X97183982Y-82576247D01*
X97183982Y-82576247D02*
X96993506Y-82576247D01*
X97612554Y-83004819D02*
X97612554Y-82004819D01*
X97612554Y-82004819D02*
X97993506Y-82004819D01*
X97993506Y-82004819D02*
X98088744Y-82052438D01*
X98088744Y-82052438D02*
X98136363Y-82100057D01*
X98136363Y-82100057D02*
X98183982Y-82195295D01*
X98183982Y-82195295D02*
X98183982Y-82338152D01*
X98183982Y-82338152D02*
X98136363Y-82433390D01*
X98136363Y-82433390D02*
X98088744Y-82481009D01*
X98088744Y-82481009D02*
X97993506Y-82528628D01*
X97993506Y-82528628D02*
X97612554Y-82528628D01*
X98612554Y-83004819D02*
X98612554Y-82004819D01*
X99279220Y-82004819D02*
X99469696Y-82004819D01*
X99469696Y-82004819D02*
X99564934Y-82052438D01*
X99564934Y-82052438D02*
X99660172Y-82147676D01*
X99660172Y-82147676D02*
X99707791Y-82338152D01*
X99707791Y-82338152D02*
X99707791Y-82671485D01*
X99707791Y-82671485D02*
X99660172Y-82861961D01*
X99660172Y-82861961D02*
X99564934Y-82957200D01*
X99564934Y-82957200D02*
X99469696Y-83004819D01*
X99469696Y-83004819D02*
X99279220Y-83004819D01*
X99279220Y-83004819D02*
X99183982Y-82957200D01*
X99183982Y-82957200D02*
X99088744Y-82861961D01*
X99088744Y-82861961D02*
X99041125Y-82671485D01*
X99041125Y-82671485D02*
X99041125Y-82338152D01*
X99041125Y-82338152D02*
X99088744Y-82147676D01*
X99088744Y-82147676D02*
X99183982Y-82052438D01*
X99183982Y-82052438D02*
X99279220Y-82004819D01*
X100088744Y-82100057D02*
X100136363Y-82052438D01*
X100136363Y-82052438D02*
X100231601Y-82004819D01*
X100231601Y-82004819D02*
X100469696Y-82004819D01*
X100469696Y-82004819D02*
X100564934Y-82052438D01*
X100564934Y-82052438D02*
X100612553Y-82100057D01*
X100612553Y-82100057D02*
X100660172Y-82195295D01*
X100660172Y-82195295D02*
X100660172Y-82290533D01*
X100660172Y-82290533D02*
X100612553Y-82433390D01*
X100612553Y-82433390D02*
X100041125Y-83004819D01*
X100041125Y-83004819D02*
X100660172Y-83004819D01*
X101279220Y-82004819D02*
X101374458Y-82004819D01*
X101374458Y-82004819D02*
X101469696Y-82052438D01*
X101469696Y-82052438D02*
X101517315Y-82100057D01*
X101517315Y-82100057D02*
X101564934Y-82195295D01*
X101564934Y-82195295D02*
X101612553Y-82385771D01*
X101612553Y-82385771D02*
X101612553Y-82623866D01*
X101612553Y-82623866D02*
X101564934Y-82814342D01*
X101564934Y-82814342D02*
X101517315Y-82909580D01*
X101517315Y-82909580D02*
X101469696Y-82957200D01*
X101469696Y-82957200D02*
X101374458Y-83004819D01*
X101374458Y-83004819D02*
X101279220Y-83004819D01*
X101279220Y-83004819D02*
X101183982Y-82957200D01*
X101183982Y-82957200D02*
X101136363Y-82909580D01*
X101136363Y-82909580D02*
X101088744Y-82814342D01*
X101088744Y-82814342D02*
X101041125Y-82623866D01*
X101041125Y-82623866D02*
X101041125Y-82385771D01*
X101041125Y-82385771D02*
X101088744Y-82195295D01*
X101088744Y-82195295D02*
X101136363Y-82100057D01*
X101136363Y-82100057D02*
X101183982Y-82052438D01*
X101183982Y-82052438D02*
X101279220Y-82004819D01*
X101898268Y-82623866D02*
X101945887Y-82576247D01*
X101945887Y-82576247D02*
X102041125Y-82528628D01*
X102041125Y-82528628D02*
X102231601Y-82623866D01*
X102231601Y-82623866D02*
X102326839Y-82576247D01*
X102326839Y-82576247D02*
X102374458Y-82528628D01*
X82632779Y-103324819D02*
X82632779Y-102324819D01*
X82632779Y-102324819D02*
X83204207Y-103324819D01*
X83204207Y-103324819D02*
X83204207Y-102324819D01*
X84251826Y-103229580D02*
X84204207Y-103277200D01*
X84204207Y-103277200D02*
X84061350Y-103324819D01*
X84061350Y-103324819D02*
X83966112Y-103324819D01*
X83966112Y-103324819D02*
X83823255Y-103277200D01*
X83823255Y-103277200D02*
X83728017Y-103181961D01*
X83728017Y-103181961D02*
X83680398Y-103086723D01*
X83680398Y-103086723D02*
X83632779Y-102896247D01*
X83632779Y-102896247D02*
X83632779Y-102753390D01*
X83632779Y-102753390D02*
X83680398Y-102562914D01*
X83680398Y-102562914D02*
X83728017Y-102467676D01*
X83728017Y-102467676D02*
X83823255Y-102372438D01*
X83823255Y-102372438D02*
X83966112Y-102324819D01*
X83966112Y-102324819D02*
X84061350Y-102324819D01*
X84061350Y-102324819D02*
X84204207Y-102372438D01*
X84204207Y-102372438D02*
X84251826Y-102420057D01*
X100707792Y-103324819D02*
X100707792Y-102324819D01*
X100707792Y-102324819D02*
X101279220Y-103324819D01*
X101279220Y-103324819D02*
X101279220Y-102324819D01*
X102326839Y-103229580D02*
X102279220Y-103277200D01*
X102279220Y-103277200D02*
X102136363Y-103324819D01*
X102136363Y-103324819D02*
X102041125Y-103324819D01*
X102041125Y-103324819D02*
X101898268Y-103277200D01*
X101898268Y-103277200D02*
X101803030Y-103181961D01*
X101803030Y-103181961D02*
X101755411Y-103086723D01*
X101755411Y-103086723D02*
X101707792Y-102896247D01*
X101707792Y-102896247D02*
X101707792Y-102753390D01*
X101707792Y-102753390D02*
X101755411Y-102562914D01*
X101755411Y-102562914D02*
X101803030Y-102467676D01*
X101803030Y-102467676D02*
X101898268Y-102372438D01*
X101898268Y-102372438D02*
X102041125Y-102324819D01*
X102041125Y-102324819D02*
X102136363Y-102324819D01*
X102136363Y-102324819D02*
X102279220Y-102372438D01*
X102279220Y-102372438D02*
X102326839Y-102420057D01*
X83156588Y-74432438D02*
X83061350Y-74384819D01*
X83061350Y-74384819D02*
X82918493Y-74384819D01*
X82918493Y-74384819D02*
X82775636Y-74432438D01*
X82775636Y-74432438D02*
X82680398Y-74527676D01*
X82680398Y-74527676D02*
X82632779Y-74622914D01*
X82632779Y-74622914D02*
X82585160Y-74813390D01*
X82585160Y-74813390D02*
X82585160Y-74956247D01*
X82585160Y-74956247D02*
X82632779Y-75146723D01*
X82632779Y-75146723D02*
X82680398Y-75241961D01*
X82680398Y-75241961D02*
X82775636Y-75337200D01*
X82775636Y-75337200D02*
X82918493Y-75384819D01*
X82918493Y-75384819D02*
X83013731Y-75384819D01*
X83013731Y-75384819D02*
X83156588Y-75337200D01*
X83156588Y-75337200D02*
X83204207Y-75289580D01*
X83204207Y-75289580D02*
X83204207Y-74956247D01*
X83204207Y-74956247D02*
X83013731Y-74956247D01*
X83632779Y-75384819D02*
X83632779Y-74384819D01*
X83632779Y-74384819D02*
X84013731Y-74384819D01*
X84013731Y-74384819D02*
X84108969Y-74432438D01*
X84108969Y-74432438D02*
X84156588Y-74480057D01*
X84156588Y-74480057D02*
X84204207Y-74575295D01*
X84204207Y-74575295D02*
X84204207Y-74718152D01*
X84204207Y-74718152D02*
X84156588Y-74813390D01*
X84156588Y-74813390D02*
X84108969Y-74861009D01*
X84108969Y-74861009D02*
X84013731Y-74908628D01*
X84013731Y-74908628D02*
X83632779Y-74908628D01*
X84632779Y-75384819D02*
X84632779Y-74384819D01*
X85299445Y-74384819D02*
X85489921Y-74384819D01*
X85489921Y-74384819D02*
X85585159Y-74432438D01*
X85585159Y-74432438D02*
X85680397Y-74527676D01*
X85680397Y-74527676D02*
X85728016Y-74718152D01*
X85728016Y-74718152D02*
X85728016Y-75051485D01*
X85728016Y-75051485D02*
X85680397Y-75241961D01*
X85680397Y-75241961D02*
X85585159Y-75337200D01*
X85585159Y-75337200D02*
X85489921Y-75384819D01*
X85489921Y-75384819D02*
X85299445Y-75384819D01*
X85299445Y-75384819D02*
X85204207Y-75337200D01*
X85204207Y-75337200D02*
X85108969Y-75241961D01*
X85108969Y-75241961D02*
X85061350Y-75051485D01*
X85061350Y-75051485D02*
X85061350Y-74718152D01*
X85061350Y-74718152D02*
X85108969Y-74527676D01*
X85108969Y-74527676D02*
X85204207Y-74432438D01*
X85204207Y-74432438D02*
X85299445Y-74384819D01*
X86585159Y-74384819D02*
X86394683Y-74384819D01*
X86394683Y-74384819D02*
X86299445Y-74432438D01*
X86299445Y-74432438D02*
X86251826Y-74480057D01*
X86251826Y-74480057D02*
X86156588Y-74622914D01*
X86156588Y-74622914D02*
X86108969Y-74813390D01*
X86108969Y-74813390D02*
X86108969Y-75194342D01*
X86108969Y-75194342D02*
X86156588Y-75289580D01*
X86156588Y-75289580D02*
X86204207Y-75337200D01*
X86204207Y-75337200D02*
X86299445Y-75384819D01*
X86299445Y-75384819D02*
X86489921Y-75384819D01*
X86489921Y-75384819D02*
X86585159Y-75337200D01*
X86585159Y-75337200D02*
X86632778Y-75289580D01*
X86632778Y-75289580D02*
X86680397Y-75194342D01*
X86680397Y-75194342D02*
X86680397Y-74956247D01*
X86680397Y-74956247D02*
X86632778Y-74861009D01*
X86632778Y-74861009D02*
X86585159Y-74813390D01*
X86585159Y-74813390D02*
X86489921Y-74765771D01*
X86489921Y-74765771D02*
X86299445Y-74765771D01*
X86299445Y-74765771D02*
X86204207Y-74813390D01*
X86204207Y-74813390D02*
X86156588Y-74861009D01*
X86156588Y-74861009D02*
X86108969Y-74956247D01*
X86966112Y-75003866D02*
X87013731Y-74956247D01*
X87013731Y-74956247D02*
X87108969Y-74908628D01*
X87108969Y-74908628D02*
X87299445Y-75003866D01*
X87299445Y-75003866D02*
X87394683Y-74956247D01*
X87394683Y-74956247D02*
X87442302Y-74908628D01*
X83156588Y-99832438D02*
X83061350Y-99784819D01*
X83061350Y-99784819D02*
X82918493Y-99784819D01*
X82918493Y-99784819D02*
X82775636Y-99832438D01*
X82775636Y-99832438D02*
X82680398Y-99927676D01*
X82680398Y-99927676D02*
X82632779Y-100022914D01*
X82632779Y-100022914D02*
X82585160Y-100213390D01*
X82585160Y-100213390D02*
X82585160Y-100356247D01*
X82585160Y-100356247D02*
X82632779Y-100546723D01*
X82632779Y-100546723D02*
X82680398Y-100641961D01*
X82680398Y-100641961D02*
X82775636Y-100737200D01*
X82775636Y-100737200D02*
X82918493Y-100784819D01*
X82918493Y-100784819D02*
X83013731Y-100784819D01*
X83013731Y-100784819D02*
X83156588Y-100737200D01*
X83156588Y-100737200D02*
X83204207Y-100689580D01*
X83204207Y-100689580D02*
X83204207Y-100356247D01*
X83204207Y-100356247D02*
X83013731Y-100356247D01*
X83632779Y-100784819D02*
X83632779Y-99784819D01*
X83632779Y-99784819D02*
X84204207Y-100784819D01*
X84204207Y-100784819D02*
X84204207Y-99784819D01*
X84680398Y-100784819D02*
X84680398Y-99784819D01*
X84680398Y-99784819D02*
X84918493Y-99784819D01*
X84918493Y-99784819D02*
X85061350Y-99832438D01*
X85061350Y-99832438D02*
X85156588Y-99927676D01*
X85156588Y-99927676D02*
X85204207Y-100022914D01*
X85204207Y-100022914D02*
X85251826Y-100213390D01*
X85251826Y-100213390D02*
X85251826Y-100356247D01*
X85251826Y-100356247D02*
X85204207Y-100546723D01*
X85204207Y-100546723D02*
X85156588Y-100641961D01*
X85156588Y-100641961D02*
X85061350Y-100737200D01*
X85061350Y-100737200D02*
X84918493Y-100784819D01*
X84918493Y-100784819D02*
X84680398Y-100784819D01*
X83156588Y-87132438D02*
X83061350Y-87084819D01*
X83061350Y-87084819D02*
X82918493Y-87084819D01*
X82918493Y-87084819D02*
X82775636Y-87132438D01*
X82775636Y-87132438D02*
X82680398Y-87227676D01*
X82680398Y-87227676D02*
X82632779Y-87322914D01*
X82632779Y-87322914D02*
X82585160Y-87513390D01*
X82585160Y-87513390D02*
X82585160Y-87656247D01*
X82585160Y-87656247D02*
X82632779Y-87846723D01*
X82632779Y-87846723D02*
X82680398Y-87941961D01*
X82680398Y-87941961D02*
X82775636Y-88037200D01*
X82775636Y-88037200D02*
X82918493Y-88084819D01*
X82918493Y-88084819D02*
X83013731Y-88084819D01*
X83013731Y-88084819D02*
X83156588Y-88037200D01*
X83156588Y-88037200D02*
X83204207Y-87989580D01*
X83204207Y-87989580D02*
X83204207Y-87656247D01*
X83204207Y-87656247D02*
X83013731Y-87656247D01*
X83632779Y-88084819D02*
X83632779Y-87084819D01*
X83632779Y-87084819D02*
X84013731Y-87084819D01*
X84013731Y-87084819D02*
X84108969Y-87132438D01*
X84108969Y-87132438D02*
X84156588Y-87180057D01*
X84156588Y-87180057D02*
X84204207Y-87275295D01*
X84204207Y-87275295D02*
X84204207Y-87418152D01*
X84204207Y-87418152D02*
X84156588Y-87513390D01*
X84156588Y-87513390D02*
X84108969Y-87561009D01*
X84108969Y-87561009D02*
X84013731Y-87608628D01*
X84013731Y-87608628D02*
X83632779Y-87608628D01*
X84632779Y-88084819D02*
X84632779Y-87084819D01*
X85299445Y-87084819D02*
X85489921Y-87084819D01*
X85489921Y-87084819D02*
X85585159Y-87132438D01*
X85585159Y-87132438D02*
X85680397Y-87227676D01*
X85680397Y-87227676D02*
X85728016Y-87418152D01*
X85728016Y-87418152D02*
X85728016Y-87751485D01*
X85728016Y-87751485D02*
X85680397Y-87941961D01*
X85680397Y-87941961D02*
X85585159Y-88037200D01*
X85585159Y-88037200D02*
X85489921Y-88084819D01*
X85489921Y-88084819D02*
X85299445Y-88084819D01*
X85299445Y-88084819D02*
X85204207Y-88037200D01*
X85204207Y-88037200D02*
X85108969Y-87941961D01*
X85108969Y-87941961D02*
X85061350Y-87751485D01*
X85061350Y-87751485D02*
X85061350Y-87418152D01*
X85061350Y-87418152D02*
X85108969Y-87227676D01*
X85108969Y-87227676D02*
X85204207Y-87132438D01*
X85204207Y-87132438D02*
X85299445Y-87084819D01*
X86680397Y-88084819D02*
X86108969Y-88084819D01*
X86394683Y-88084819D02*
X86394683Y-87084819D01*
X86394683Y-87084819D02*
X86299445Y-87227676D01*
X86299445Y-87227676D02*
X86204207Y-87322914D01*
X86204207Y-87322914D02*
X86108969Y-87370533D01*
X87299445Y-87084819D02*
X87394683Y-87084819D01*
X87394683Y-87084819D02*
X87489921Y-87132438D01*
X87489921Y-87132438D02*
X87537540Y-87180057D01*
X87537540Y-87180057D02*
X87585159Y-87275295D01*
X87585159Y-87275295D02*
X87632778Y-87465771D01*
X87632778Y-87465771D02*
X87632778Y-87703866D01*
X87632778Y-87703866D02*
X87585159Y-87894342D01*
X87585159Y-87894342D02*
X87537540Y-87989580D01*
X87537540Y-87989580D02*
X87489921Y-88037200D01*
X87489921Y-88037200D02*
X87394683Y-88084819D01*
X87394683Y-88084819D02*
X87299445Y-88084819D01*
X87299445Y-88084819D02*
X87204207Y-88037200D01*
X87204207Y-88037200D02*
X87156588Y-87989580D01*
X87156588Y-87989580D02*
X87108969Y-87894342D01*
X87108969Y-87894342D02*
X87061350Y-87703866D01*
X87061350Y-87703866D02*
X87061350Y-87465771D01*
X87061350Y-87465771D02*
X87108969Y-87275295D01*
X87108969Y-87275295D02*
X87156588Y-87180057D01*
X87156588Y-87180057D02*
X87204207Y-87132438D01*
X87204207Y-87132438D02*
X87299445Y-87084819D01*
X87918493Y-87703866D02*
X87966112Y-87656247D01*
X87966112Y-87656247D02*
X88061350Y-87608628D01*
X88061350Y-87608628D02*
X88251826Y-87703866D01*
X88251826Y-87703866D02*
X88347064Y-87656247D01*
X88347064Y-87656247D02*
X88394683Y-87608628D01*
X93183982Y-89672438D02*
X93088744Y-89624819D01*
X93088744Y-89624819D02*
X92945887Y-89624819D01*
X92945887Y-89624819D02*
X92803030Y-89672438D01*
X92803030Y-89672438D02*
X92707792Y-89767676D01*
X92707792Y-89767676D02*
X92660173Y-89862914D01*
X92660173Y-89862914D02*
X92612554Y-90053390D01*
X92612554Y-90053390D02*
X92612554Y-90196247D01*
X92612554Y-90196247D02*
X92660173Y-90386723D01*
X92660173Y-90386723D02*
X92707792Y-90481961D01*
X92707792Y-90481961D02*
X92803030Y-90577200D01*
X92803030Y-90577200D02*
X92945887Y-90624819D01*
X92945887Y-90624819D02*
X93041125Y-90624819D01*
X93041125Y-90624819D02*
X93183982Y-90577200D01*
X93183982Y-90577200D02*
X93231601Y-90529580D01*
X93231601Y-90529580D02*
X93231601Y-90196247D01*
X93231601Y-90196247D02*
X93041125Y-90196247D01*
X93660173Y-90624819D02*
X93660173Y-89624819D01*
X93660173Y-89624819D02*
X94041125Y-89624819D01*
X94041125Y-89624819D02*
X94136363Y-89672438D01*
X94136363Y-89672438D02*
X94183982Y-89720057D01*
X94183982Y-89720057D02*
X94231601Y-89815295D01*
X94231601Y-89815295D02*
X94231601Y-89958152D01*
X94231601Y-89958152D02*
X94183982Y-90053390D01*
X94183982Y-90053390D02*
X94136363Y-90101009D01*
X94136363Y-90101009D02*
X94041125Y-90148628D01*
X94041125Y-90148628D02*
X93660173Y-90148628D01*
X94660173Y-90624819D02*
X94660173Y-89624819D01*
X95326839Y-89624819D02*
X95517315Y-89624819D01*
X95517315Y-89624819D02*
X95612553Y-89672438D01*
X95612553Y-89672438D02*
X95707791Y-89767676D01*
X95707791Y-89767676D02*
X95755410Y-89958152D01*
X95755410Y-89958152D02*
X95755410Y-90291485D01*
X95755410Y-90291485D02*
X95707791Y-90481961D01*
X95707791Y-90481961D02*
X95612553Y-90577200D01*
X95612553Y-90577200D02*
X95517315Y-90624819D01*
X95517315Y-90624819D02*
X95326839Y-90624819D01*
X95326839Y-90624819D02*
X95231601Y-90577200D01*
X95231601Y-90577200D02*
X95136363Y-90481961D01*
X95136363Y-90481961D02*
X95088744Y-90291485D01*
X95088744Y-90291485D02*
X95088744Y-89958152D01*
X95088744Y-89958152D02*
X95136363Y-89767676D01*
X95136363Y-89767676D02*
X95231601Y-89672438D01*
X95231601Y-89672438D02*
X95326839Y-89624819D01*
X96231601Y-90624819D02*
X96422077Y-90624819D01*
X96422077Y-90624819D02*
X96517315Y-90577200D01*
X96517315Y-90577200D02*
X96564934Y-90529580D01*
X96564934Y-90529580D02*
X96660172Y-90386723D01*
X96660172Y-90386723D02*
X96707791Y-90196247D01*
X96707791Y-90196247D02*
X96707791Y-89815295D01*
X96707791Y-89815295D02*
X96660172Y-89720057D01*
X96660172Y-89720057D02*
X96612553Y-89672438D01*
X96612553Y-89672438D02*
X96517315Y-89624819D01*
X96517315Y-89624819D02*
X96326839Y-89624819D01*
X96326839Y-89624819D02*
X96231601Y-89672438D01*
X96231601Y-89672438D02*
X96183982Y-89720057D01*
X96183982Y-89720057D02*
X96136363Y-89815295D01*
X96136363Y-89815295D02*
X96136363Y-90053390D01*
X96136363Y-90053390D02*
X96183982Y-90148628D01*
X96183982Y-90148628D02*
X96231601Y-90196247D01*
X96231601Y-90196247D02*
X96326839Y-90243866D01*
X96326839Y-90243866D02*
X96517315Y-90243866D01*
X96517315Y-90243866D02*
X96612553Y-90196247D01*
X96612553Y-90196247D02*
X96660172Y-90148628D01*
X96660172Y-90148628D02*
X96707791Y-90053390D01*
X96993506Y-90243866D02*
X97041125Y-90196247D01*
X97041125Y-90196247D02*
X97136363Y-90148628D01*
X97136363Y-90148628D02*
X97326839Y-90243866D01*
X97326839Y-90243866D02*
X97422077Y-90196247D01*
X97422077Y-90196247D02*
X97469696Y-90148628D01*
X98564934Y-89577200D02*
X97707792Y-90862914D01*
X99231601Y-90101009D02*
X99374458Y-90148628D01*
X99374458Y-90148628D02*
X99422077Y-90196247D01*
X99422077Y-90196247D02*
X99469696Y-90291485D01*
X99469696Y-90291485D02*
X99469696Y-90434342D01*
X99469696Y-90434342D02*
X99422077Y-90529580D01*
X99422077Y-90529580D02*
X99374458Y-90577200D01*
X99374458Y-90577200D02*
X99279220Y-90624819D01*
X99279220Y-90624819D02*
X98898268Y-90624819D01*
X98898268Y-90624819D02*
X98898268Y-89624819D01*
X98898268Y-89624819D02*
X99231601Y-89624819D01*
X99231601Y-89624819D02*
X99326839Y-89672438D01*
X99326839Y-89672438D02*
X99374458Y-89720057D01*
X99374458Y-89720057D02*
X99422077Y-89815295D01*
X99422077Y-89815295D02*
X99422077Y-89910533D01*
X99422077Y-89910533D02*
X99374458Y-90005771D01*
X99374458Y-90005771D02*
X99326839Y-90053390D01*
X99326839Y-90053390D02*
X99231601Y-90101009D01*
X99231601Y-90101009D02*
X98898268Y-90101009D01*
X100088744Y-89624819D02*
X100279220Y-89624819D01*
X100279220Y-89624819D02*
X100374458Y-89672438D01*
X100374458Y-89672438D02*
X100469696Y-89767676D01*
X100469696Y-89767676D02*
X100517315Y-89958152D01*
X100517315Y-89958152D02*
X100517315Y-90291485D01*
X100517315Y-90291485D02*
X100469696Y-90481961D01*
X100469696Y-90481961D02*
X100374458Y-90577200D01*
X100374458Y-90577200D02*
X100279220Y-90624819D01*
X100279220Y-90624819D02*
X100088744Y-90624819D01*
X100088744Y-90624819D02*
X99993506Y-90577200D01*
X99993506Y-90577200D02*
X99898268Y-90481961D01*
X99898268Y-90481961D02*
X99850649Y-90291485D01*
X99850649Y-90291485D02*
X99850649Y-89958152D01*
X99850649Y-89958152D02*
X99898268Y-89767676D01*
X99898268Y-89767676D02*
X99993506Y-89672438D01*
X99993506Y-89672438D02*
X100088744Y-89624819D01*
X101136363Y-89624819D02*
X101326839Y-89624819D01*
X101326839Y-89624819D02*
X101422077Y-89672438D01*
X101422077Y-89672438D02*
X101517315Y-89767676D01*
X101517315Y-89767676D02*
X101564934Y-89958152D01*
X101564934Y-89958152D02*
X101564934Y-90291485D01*
X101564934Y-90291485D02*
X101517315Y-90481961D01*
X101517315Y-90481961D02*
X101422077Y-90577200D01*
X101422077Y-90577200D02*
X101326839Y-90624819D01*
X101326839Y-90624819D02*
X101136363Y-90624819D01*
X101136363Y-90624819D02*
X101041125Y-90577200D01*
X101041125Y-90577200D02*
X100945887Y-90481961D01*
X100945887Y-90481961D02*
X100898268Y-90291485D01*
X100898268Y-90291485D02*
X100898268Y-89958152D01*
X100898268Y-89958152D02*
X100945887Y-89767676D01*
X100945887Y-89767676D02*
X101041125Y-89672438D01*
X101041125Y-89672438D02*
X101136363Y-89624819D01*
X101850649Y-89624819D02*
X102422077Y-89624819D01*
X102136363Y-90624819D02*
X102136363Y-89624819D01*
X98483895Y-111163219D02*
X98483895Y-111972742D01*
X98483895Y-111972742D02*
X98531514Y-112067980D01*
X98531514Y-112067980D02*
X98579133Y-112115600D01*
X98579133Y-112115600D02*
X98674371Y-112163219D01*
X98674371Y-112163219D02*
X98864847Y-112163219D01*
X98864847Y-112163219D02*
X98960085Y-112115600D01*
X98960085Y-112115600D02*
X99007704Y-112067980D01*
X99007704Y-112067980D02*
X99055323Y-111972742D01*
X99055323Y-111972742D02*
X99055323Y-111163219D01*
X99483895Y-112115600D02*
X99626752Y-112163219D01*
X99626752Y-112163219D02*
X99864847Y-112163219D01*
X99864847Y-112163219D02*
X99960085Y-112115600D01*
X99960085Y-112115600D02*
X100007704Y-112067980D01*
X100007704Y-112067980D02*
X100055323Y-111972742D01*
X100055323Y-111972742D02*
X100055323Y-111877504D01*
X100055323Y-111877504D02*
X100007704Y-111782266D01*
X100007704Y-111782266D02*
X99960085Y-111734647D01*
X99960085Y-111734647D02*
X99864847Y-111687028D01*
X99864847Y-111687028D02*
X99674371Y-111639409D01*
X99674371Y-111639409D02*
X99579133Y-111591790D01*
X99579133Y-111591790D02*
X99531514Y-111544171D01*
X99531514Y-111544171D02*
X99483895Y-111448933D01*
X99483895Y-111448933D02*
X99483895Y-111353695D01*
X99483895Y-111353695D02*
X99531514Y-111258457D01*
X99531514Y-111258457D02*
X99579133Y-111210838D01*
X99579133Y-111210838D02*
X99674371Y-111163219D01*
X99674371Y-111163219D02*
X99912466Y-111163219D01*
X99912466Y-111163219D02*
X100055323Y-111210838D01*
X100817228Y-111639409D02*
X100960085Y-111687028D01*
X100960085Y-111687028D02*
X101007704Y-111734647D01*
X101007704Y-111734647D02*
X101055323Y-111829885D01*
X101055323Y-111829885D02*
X101055323Y-111972742D01*
X101055323Y-111972742D02*
X101007704Y-112067980D01*
X101007704Y-112067980D02*
X100960085Y-112115600D01*
X100960085Y-112115600D02*
X100864847Y-112163219D01*
X100864847Y-112163219D02*
X100483895Y-112163219D01*
X100483895Y-112163219D02*
X100483895Y-111163219D01*
X100483895Y-111163219D02*
X100817228Y-111163219D01*
X100817228Y-111163219D02*
X100912466Y-111210838D01*
X100912466Y-111210838D02*
X100960085Y-111258457D01*
X100960085Y-111258457D02*
X101007704Y-111353695D01*
X101007704Y-111353695D02*
X101007704Y-111448933D01*
X101007704Y-111448933D02*
X100960085Y-111544171D01*
X100960085Y-111544171D02*
X100912466Y-111591790D01*
X100912466Y-111591790D02*
X100817228Y-111639409D01*
X100817228Y-111639409D02*
X100483895Y-111639409D01*
X97136363Y-87132438D02*
X97041125Y-87084819D01*
X97041125Y-87084819D02*
X96898268Y-87084819D01*
X96898268Y-87084819D02*
X96755411Y-87132438D01*
X96755411Y-87132438D02*
X96660173Y-87227676D01*
X96660173Y-87227676D02*
X96612554Y-87322914D01*
X96612554Y-87322914D02*
X96564935Y-87513390D01*
X96564935Y-87513390D02*
X96564935Y-87656247D01*
X96564935Y-87656247D02*
X96612554Y-87846723D01*
X96612554Y-87846723D02*
X96660173Y-87941961D01*
X96660173Y-87941961D02*
X96755411Y-88037200D01*
X96755411Y-88037200D02*
X96898268Y-88084819D01*
X96898268Y-88084819D02*
X96993506Y-88084819D01*
X96993506Y-88084819D02*
X97136363Y-88037200D01*
X97136363Y-88037200D02*
X97183982Y-87989580D01*
X97183982Y-87989580D02*
X97183982Y-87656247D01*
X97183982Y-87656247D02*
X96993506Y-87656247D01*
X97612554Y-88084819D02*
X97612554Y-87084819D01*
X97612554Y-87084819D02*
X97993506Y-87084819D01*
X97993506Y-87084819D02*
X98088744Y-87132438D01*
X98088744Y-87132438D02*
X98136363Y-87180057D01*
X98136363Y-87180057D02*
X98183982Y-87275295D01*
X98183982Y-87275295D02*
X98183982Y-87418152D01*
X98183982Y-87418152D02*
X98136363Y-87513390D01*
X98136363Y-87513390D02*
X98088744Y-87561009D01*
X98088744Y-87561009D02*
X97993506Y-87608628D01*
X97993506Y-87608628D02*
X97612554Y-87608628D01*
X98612554Y-88084819D02*
X98612554Y-87084819D01*
X99279220Y-87084819D02*
X99469696Y-87084819D01*
X99469696Y-87084819D02*
X99564934Y-87132438D01*
X99564934Y-87132438D02*
X99660172Y-87227676D01*
X99660172Y-87227676D02*
X99707791Y-87418152D01*
X99707791Y-87418152D02*
X99707791Y-87751485D01*
X99707791Y-87751485D02*
X99660172Y-87941961D01*
X99660172Y-87941961D02*
X99564934Y-88037200D01*
X99564934Y-88037200D02*
X99469696Y-88084819D01*
X99469696Y-88084819D02*
X99279220Y-88084819D01*
X99279220Y-88084819D02*
X99183982Y-88037200D01*
X99183982Y-88037200D02*
X99088744Y-87941961D01*
X99088744Y-87941961D02*
X99041125Y-87751485D01*
X99041125Y-87751485D02*
X99041125Y-87418152D01*
X99041125Y-87418152D02*
X99088744Y-87227676D01*
X99088744Y-87227676D02*
X99183982Y-87132438D01*
X99183982Y-87132438D02*
X99279220Y-87084819D01*
X100660172Y-88084819D02*
X100088744Y-88084819D01*
X100374458Y-88084819D02*
X100374458Y-87084819D01*
X100374458Y-87084819D02*
X100279220Y-87227676D01*
X100279220Y-87227676D02*
X100183982Y-87322914D01*
X100183982Y-87322914D02*
X100088744Y-87370533D01*
X101231601Y-87513390D02*
X101136363Y-87465771D01*
X101136363Y-87465771D02*
X101088744Y-87418152D01*
X101088744Y-87418152D02*
X101041125Y-87322914D01*
X101041125Y-87322914D02*
X101041125Y-87275295D01*
X101041125Y-87275295D02*
X101088744Y-87180057D01*
X101088744Y-87180057D02*
X101136363Y-87132438D01*
X101136363Y-87132438D02*
X101231601Y-87084819D01*
X101231601Y-87084819D02*
X101422077Y-87084819D01*
X101422077Y-87084819D02*
X101517315Y-87132438D01*
X101517315Y-87132438D02*
X101564934Y-87180057D01*
X101564934Y-87180057D02*
X101612553Y-87275295D01*
X101612553Y-87275295D02*
X101612553Y-87322914D01*
X101612553Y-87322914D02*
X101564934Y-87418152D01*
X101564934Y-87418152D02*
X101517315Y-87465771D01*
X101517315Y-87465771D02*
X101422077Y-87513390D01*
X101422077Y-87513390D02*
X101231601Y-87513390D01*
X101231601Y-87513390D02*
X101136363Y-87561009D01*
X101136363Y-87561009D02*
X101088744Y-87608628D01*
X101088744Y-87608628D02*
X101041125Y-87703866D01*
X101041125Y-87703866D02*
X101041125Y-87894342D01*
X101041125Y-87894342D02*
X101088744Y-87989580D01*
X101088744Y-87989580D02*
X101136363Y-88037200D01*
X101136363Y-88037200D02*
X101231601Y-88084819D01*
X101231601Y-88084819D02*
X101422077Y-88084819D01*
X101422077Y-88084819D02*
X101517315Y-88037200D01*
X101517315Y-88037200D02*
X101564934Y-87989580D01*
X101564934Y-87989580D02*
X101612553Y-87894342D01*
X101612553Y-87894342D02*
X101612553Y-87703866D01*
X101612553Y-87703866D02*
X101564934Y-87608628D01*
X101564934Y-87608628D02*
X101517315Y-87561009D01*
X101517315Y-87561009D02*
X101422077Y-87513390D01*
X101898268Y-87703866D02*
X101945887Y-87656247D01*
X101945887Y-87656247D02*
X102041125Y-87608628D01*
X102041125Y-87608628D02*
X102231601Y-87703866D01*
X102231601Y-87703866D02*
X102326839Y-87656247D01*
X102326839Y-87656247D02*
X102374458Y-87608628D01*
X82537541Y-64224819D02*
X83156588Y-64224819D01*
X83156588Y-64224819D02*
X82823255Y-64605771D01*
X82823255Y-64605771D02*
X82966112Y-64605771D01*
X82966112Y-64605771D02*
X83061350Y-64653390D01*
X83061350Y-64653390D02*
X83108969Y-64701009D01*
X83108969Y-64701009D02*
X83156588Y-64796247D01*
X83156588Y-64796247D02*
X83156588Y-65034342D01*
X83156588Y-65034342D02*
X83108969Y-65129580D01*
X83108969Y-65129580D02*
X83061350Y-65177200D01*
X83061350Y-65177200D02*
X82966112Y-65224819D01*
X82966112Y-65224819D02*
X82680398Y-65224819D01*
X82680398Y-65224819D02*
X82585160Y-65177200D01*
X82585160Y-65177200D02*
X82537541Y-65129580D01*
X83442303Y-64224819D02*
X83775636Y-65224819D01*
X83775636Y-65224819D02*
X84108969Y-64224819D01*
X84347065Y-64224819D02*
X84966112Y-64224819D01*
X84966112Y-64224819D02*
X84632779Y-64605771D01*
X84632779Y-64605771D02*
X84775636Y-64605771D01*
X84775636Y-64605771D02*
X84870874Y-64653390D01*
X84870874Y-64653390D02*
X84918493Y-64701009D01*
X84918493Y-64701009D02*
X84966112Y-64796247D01*
X84966112Y-64796247D02*
X84966112Y-65034342D01*
X84966112Y-65034342D02*
X84918493Y-65129580D01*
X84918493Y-65129580D02*
X84870874Y-65177200D01*
X84870874Y-65177200D02*
X84775636Y-65224819D01*
X84775636Y-65224819D02*
X84489922Y-65224819D01*
X84489922Y-65224819D02*
X84394684Y-65177200D01*
X84394684Y-65177200D02*
X84347065Y-65129580D01*
X90088744Y-94752438D02*
X89993506Y-94704819D01*
X89993506Y-94704819D02*
X89850649Y-94704819D01*
X89850649Y-94704819D02*
X89707792Y-94752438D01*
X89707792Y-94752438D02*
X89612554Y-94847676D01*
X89612554Y-94847676D02*
X89564935Y-94942914D01*
X89564935Y-94942914D02*
X89517316Y-95133390D01*
X89517316Y-95133390D02*
X89517316Y-95276247D01*
X89517316Y-95276247D02*
X89564935Y-95466723D01*
X89564935Y-95466723D02*
X89612554Y-95561961D01*
X89612554Y-95561961D02*
X89707792Y-95657200D01*
X89707792Y-95657200D02*
X89850649Y-95704819D01*
X89850649Y-95704819D02*
X89945887Y-95704819D01*
X89945887Y-95704819D02*
X90088744Y-95657200D01*
X90088744Y-95657200D02*
X90136363Y-95609580D01*
X90136363Y-95609580D02*
X90136363Y-95276247D01*
X90136363Y-95276247D02*
X89945887Y-95276247D01*
X90564935Y-95704819D02*
X90564935Y-94704819D01*
X90564935Y-94704819D02*
X90945887Y-94704819D01*
X90945887Y-94704819D02*
X91041125Y-94752438D01*
X91041125Y-94752438D02*
X91088744Y-94800057D01*
X91088744Y-94800057D02*
X91136363Y-94895295D01*
X91136363Y-94895295D02*
X91136363Y-95038152D01*
X91136363Y-95038152D02*
X91088744Y-95133390D01*
X91088744Y-95133390D02*
X91041125Y-95181009D01*
X91041125Y-95181009D02*
X90945887Y-95228628D01*
X90945887Y-95228628D02*
X90564935Y-95228628D01*
X91564935Y-95704819D02*
X91564935Y-94704819D01*
X92231601Y-94704819D02*
X92422077Y-94704819D01*
X92422077Y-94704819D02*
X92517315Y-94752438D01*
X92517315Y-94752438D02*
X92612553Y-94847676D01*
X92612553Y-94847676D02*
X92660172Y-95038152D01*
X92660172Y-95038152D02*
X92660172Y-95371485D01*
X92660172Y-95371485D02*
X92612553Y-95561961D01*
X92612553Y-95561961D02*
X92517315Y-95657200D01*
X92517315Y-95657200D02*
X92422077Y-95704819D01*
X92422077Y-95704819D02*
X92231601Y-95704819D01*
X92231601Y-95704819D02*
X92136363Y-95657200D01*
X92136363Y-95657200D02*
X92041125Y-95561961D01*
X92041125Y-95561961D02*
X91993506Y-95371485D01*
X91993506Y-95371485D02*
X91993506Y-95038152D01*
X91993506Y-95038152D02*
X92041125Y-94847676D01*
X92041125Y-94847676D02*
X92136363Y-94752438D01*
X92136363Y-94752438D02*
X92231601Y-94704819D01*
X93612553Y-95704819D02*
X93041125Y-95704819D01*
X93326839Y-95704819D02*
X93326839Y-94704819D01*
X93326839Y-94704819D02*
X93231601Y-94847676D01*
X93231601Y-94847676D02*
X93136363Y-94942914D01*
X93136363Y-94942914D02*
X93041125Y-94990533D01*
X93945887Y-94704819D02*
X94564934Y-94704819D01*
X94564934Y-94704819D02*
X94231601Y-95085771D01*
X94231601Y-95085771D02*
X94374458Y-95085771D01*
X94374458Y-95085771D02*
X94469696Y-95133390D01*
X94469696Y-95133390D02*
X94517315Y-95181009D01*
X94517315Y-95181009D02*
X94564934Y-95276247D01*
X94564934Y-95276247D02*
X94564934Y-95514342D01*
X94564934Y-95514342D02*
X94517315Y-95609580D01*
X94517315Y-95609580D02*
X94469696Y-95657200D01*
X94469696Y-95657200D02*
X94374458Y-95704819D01*
X94374458Y-95704819D02*
X94088744Y-95704819D01*
X94088744Y-95704819D02*
X93993506Y-95657200D01*
X93993506Y-95657200D02*
X93945887Y-95609580D01*
X94850649Y-95323866D02*
X94898268Y-95276247D01*
X94898268Y-95276247D02*
X94993506Y-95228628D01*
X94993506Y-95228628D02*
X95183982Y-95323866D01*
X95183982Y-95323866D02*
X95279220Y-95276247D01*
X95279220Y-95276247D02*
X95326839Y-95228628D01*
X96422077Y-94657200D02*
X95564935Y-95942914D01*
X96755411Y-94704819D02*
X96755411Y-95514342D01*
X96755411Y-95514342D02*
X96803030Y-95609580D01*
X96803030Y-95609580D02*
X96850649Y-95657200D01*
X96850649Y-95657200D02*
X96945887Y-95704819D01*
X96945887Y-95704819D02*
X97136363Y-95704819D01*
X97136363Y-95704819D02*
X97231601Y-95657200D01*
X97231601Y-95657200D02*
X97279220Y-95609580D01*
X97279220Y-95609580D02*
X97326839Y-95514342D01*
X97326839Y-95514342D02*
X97326839Y-94704819D01*
X97755411Y-95657200D02*
X97898268Y-95704819D01*
X97898268Y-95704819D02*
X98136363Y-95704819D01*
X98136363Y-95704819D02*
X98231601Y-95657200D01*
X98231601Y-95657200D02*
X98279220Y-95609580D01*
X98279220Y-95609580D02*
X98326839Y-95514342D01*
X98326839Y-95514342D02*
X98326839Y-95419104D01*
X98326839Y-95419104D02*
X98279220Y-95323866D01*
X98279220Y-95323866D02*
X98231601Y-95276247D01*
X98231601Y-95276247D02*
X98136363Y-95228628D01*
X98136363Y-95228628D02*
X97945887Y-95181009D01*
X97945887Y-95181009D02*
X97850649Y-95133390D01*
X97850649Y-95133390D02*
X97803030Y-95085771D01*
X97803030Y-95085771D02*
X97755411Y-94990533D01*
X97755411Y-94990533D02*
X97755411Y-94895295D01*
X97755411Y-94895295D02*
X97803030Y-94800057D01*
X97803030Y-94800057D02*
X97850649Y-94752438D01*
X97850649Y-94752438D02*
X97945887Y-94704819D01*
X97945887Y-94704819D02*
X98183982Y-94704819D01*
X98183982Y-94704819D02*
X98326839Y-94752438D01*
X99088744Y-95181009D02*
X99231601Y-95228628D01*
X99231601Y-95228628D02*
X99279220Y-95276247D01*
X99279220Y-95276247D02*
X99326839Y-95371485D01*
X99326839Y-95371485D02*
X99326839Y-95514342D01*
X99326839Y-95514342D02*
X99279220Y-95609580D01*
X99279220Y-95609580D02*
X99231601Y-95657200D01*
X99231601Y-95657200D02*
X99136363Y-95704819D01*
X99136363Y-95704819D02*
X98755411Y-95704819D01*
X98755411Y-95704819D02*
X98755411Y-94704819D01*
X98755411Y-94704819D02*
X99088744Y-94704819D01*
X99088744Y-94704819D02*
X99183982Y-94752438D01*
X99183982Y-94752438D02*
X99231601Y-94800057D01*
X99231601Y-94800057D02*
X99279220Y-94895295D01*
X99279220Y-94895295D02*
X99279220Y-94990533D01*
X99279220Y-94990533D02*
X99231601Y-95085771D01*
X99231601Y-95085771D02*
X99183982Y-95133390D01*
X99183982Y-95133390D02*
X99088744Y-95181009D01*
X99088744Y-95181009D02*
X98755411Y-95181009D01*
X99517316Y-95800057D02*
X100279220Y-95800057D01*
X100517316Y-95704819D02*
X100517316Y-94704819D01*
X100517316Y-94704819D02*
X100755411Y-94704819D01*
X100755411Y-94704819D02*
X100898268Y-94752438D01*
X100898268Y-94752438D02*
X100993506Y-94847676D01*
X100993506Y-94847676D02*
X101041125Y-94942914D01*
X101041125Y-94942914D02*
X101088744Y-95133390D01*
X101088744Y-95133390D02*
X101088744Y-95276247D01*
X101088744Y-95276247D02*
X101041125Y-95466723D01*
X101041125Y-95466723D02*
X100993506Y-95561961D01*
X100993506Y-95561961D02*
X100898268Y-95657200D01*
X100898268Y-95657200D02*
X100755411Y-95704819D01*
X100755411Y-95704819D02*
X100517316Y-95704819D01*
X101517316Y-95323866D02*
X102279221Y-95323866D01*
X101898268Y-95704819D02*
X101898268Y-94942914D01*
X97136363Y-74432438D02*
X97041125Y-74384819D01*
X97041125Y-74384819D02*
X96898268Y-74384819D01*
X96898268Y-74384819D02*
X96755411Y-74432438D01*
X96755411Y-74432438D02*
X96660173Y-74527676D01*
X96660173Y-74527676D02*
X96612554Y-74622914D01*
X96612554Y-74622914D02*
X96564935Y-74813390D01*
X96564935Y-74813390D02*
X96564935Y-74956247D01*
X96564935Y-74956247D02*
X96612554Y-75146723D01*
X96612554Y-75146723D02*
X96660173Y-75241961D01*
X96660173Y-75241961D02*
X96755411Y-75337200D01*
X96755411Y-75337200D02*
X96898268Y-75384819D01*
X96898268Y-75384819D02*
X96993506Y-75384819D01*
X96993506Y-75384819D02*
X97136363Y-75337200D01*
X97136363Y-75337200D02*
X97183982Y-75289580D01*
X97183982Y-75289580D02*
X97183982Y-74956247D01*
X97183982Y-74956247D02*
X96993506Y-74956247D01*
X97612554Y-75384819D02*
X97612554Y-74384819D01*
X97612554Y-74384819D02*
X97993506Y-74384819D01*
X97993506Y-74384819D02*
X98088744Y-74432438D01*
X98088744Y-74432438D02*
X98136363Y-74480057D01*
X98136363Y-74480057D02*
X98183982Y-74575295D01*
X98183982Y-74575295D02*
X98183982Y-74718152D01*
X98183982Y-74718152D02*
X98136363Y-74813390D01*
X98136363Y-74813390D02*
X98088744Y-74861009D01*
X98088744Y-74861009D02*
X97993506Y-74908628D01*
X97993506Y-74908628D02*
X97612554Y-74908628D01*
X98612554Y-75384819D02*
X98612554Y-74384819D01*
X99279220Y-74384819D02*
X99469696Y-74384819D01*
X99469696Y-74384819D02*
X99564934Y-74432438D01*
X99564934Y-74432438D02*
X99660172Y-74527676D01*
X99660172Y-74527676D02*
X99707791Y-74718152D01*
X99707791Y-74718152D02*
X99707791Y-75051485D01*
X99707791Y-75051485D02*
X99660172Y-75241961D01*
X99660172Y-75241961D02*
X99564934Y-75337200D01*
X99564934Y-75337200D02*
X99469696Y-75384819D01*
X99469696Y-75384819D02*
X99279220Y-75384819D01*
X99279220Y-75384819D02*
X99183982Y-75337200D01*
X99183982Y-75337200D02*
X99088744Y-75241961D01*
X99088744Y-75241961D02*
X99041125Y-75051485D01*
X99041125Y-75051485D02*
X99041125Y-74718152D01*
X99041125Y-74718152D02*
X99088744Y-74527676D01*
X99088744Y-74527676D02*
X99183982Y-74432438D01*
X99183982Y-74432438D02*
X99279220Y-74384819D01*
X100088744Y-74480057D02*
X100136363Y-74432438D01*
X100136363Y-74432438D02*
X100231601Y-74384819D01*
X100231601Y-74384819D02*
X100469696Y-74384819D01*
X100469696Y-74384819D02*
X100564934Y-74432438D01*
X100564934Y-74432438D02*
X100612553Y-74480057D01*
X100612553Y-74480057D02*
X100660172Y-74575295D01*
X100660172Y-74575295D02*
X100660172Y-74670533D01*
X100660172Y-74670533D02*
X100612553Y-74813390D01*
X100612553Y-74813390D02*
X100041125Y-75384819D01*
X100041125Y-75384819D02*
X100660172Y-75384819D01*
X100993506Y-74384819D02*
X101612553Y-74384819D01*
X101612553Y-74384819D02*
X101279220Y-74765771D01*
X101279220Y-74765771D02*
X101422077Y-74765771D01*
X101422077Y-74765771D02*
X101517315Y-74813390D01*
X101517315Y-74813390D02*
X101564934Y-74861009D01*
X101564934Y-74861009D02*
X101612553Y-74956247D01*
X101612553Y-74956247D02*
X101612553Y-75194342D01*
X101612553Y-75194342D02*
X101564934Y-75289580D01*
X101564934Y-75289580D02*
X101517315Y-75337200D01*
X101517315Y-75337200D02*
X101422077Y-75384819D01*
X101422077Y-75384819D02*
X101136363Y-75384819D01*
X101136363Y-75384819D02*
X101041125Y-75337200D01*
X101041125Y-75337200D02*
X100993506Y-75289580D01*
X101898268Y-75003866D02*
X101945887Y-74956247D01*
X101945887Y-74956247D02*
X102041125Y-74908628D01*
X102041125Y-74908628D02*
X102231601Y-75003866D01*
X102231601Y-75003866D02*
X102326839Y-74956247D01*
X102326839Y-74956247D02*
X102374458Y-74908628D01*
X83156588Y-94752438D02*
X83061350Y-94704819D01*
X83061350Y-94704819D02*
X82918493Y-94704819D01*
X82918493Y-94704819D02*
X82775636Y-94752438D01*
X82775636Y-94752438D02*
X82680398Y-94847676D01*
X82680398Y-94847676D02*
X82632779Y-94942914D01*
X82632779Y-94942914D02*
X82585160Y-95133390D01*
X82585160Y-95133390D02*
X82585160Y-95276247D01*
X82585160Y-95276247D02*
X82632779Y-95466723D01*
X82632779Y-95466723D02*
X82680398Y-95561961D01*
X82680398Y-95561961D02*
X82775636Y-95657200D01*
X82775636Y-95657200D02*
X82918493Y-95704819D01*
X82918493Y-95704819D02*
X83013731Y-95704819D01*
X83013731Y-95704819D02*
X83156588Y-95657200D01*
X83156588Y-95657200D02*
X83204207Y-95609580D01*
X83204207Y-95609580D02*
X83204207Y-95276247D01*
X83204207Y-95276247D02*
X83013731Y-95276247D01*
X83632779Y-95704819D02*
X83632779Y-94704819D01*
X83632779Y-94704819D02*
X84013731Y-94704819D01*
X84013731Y-94704819D02*
X84108969Y-94752438D01*
X84108969Y-94752438D02*
X84156588Y-94800057D01*
X84156588Y-94800057D02*
X84204207Y-94895295D01*
X84204207Y-94895295D02*
X84204207Y-95038152D01*
X84204207Y-95038152D02*
X84156588Y-95133390D01*
X84156588Y-95133390D02*
X84108969Y-95181009D01*
X84108969Y-95181009D02*
X84013731Y-95228628D01*
X84013731Y-95228628D02*
X83632779Y-95228628D01*
X84632779Y-95704819D02*
X84632779Y-94704819D01*
X85299445Y-94704819D02*
X85489921Y-94704819D01*
X85489921Y-94704819D02*
X85585159Y-94752438D01*
X85585159Y-94752438D02*
X85680397Y-94847676D01*
X85680397Y-94847676D02*
X85728016Y-95038152D01*
X85728016Y-95038152D02*
X85728016Y-95371485D01*
X85728016Y-95371485D02*
X85680397Y-95561961D01*
X85680397Y-95561961D02*
X85585159Y-95657200D01*
X85585159Y-95657200D02*
X85489921Y-95704819D01*
X85489921Y-95704819D02*
X85299445Y-95704819D01*
X85299445Y-95704819D02*
X85204207Y-95657200D01*
X85204207Y-95657200D02*
X85108969Y-95561961D01*
X85108969Y-95561961D02*
X85061350Y-95371485D01*
X85061350Y-95371485D02*
X85061350Y-95038152D01*
X85061350Y-95038152D02*
X85108969Y-94847676D01*
X85108969Y-94847676D02*
X85204207Y-94752438D01*
X85204207Y-94752438D02*
X85299445Y-94704819D01*
X86061350Y-94704819D02*
X86680397Y-94704819D01*
X86680397Y-94704819D02*
X86347064Y-95085771D01*
X86347064Y-95085771D02*
X86489921Y-95085771D01*
X86489921Y-95085771D02*
X86585159Y-95133390D01*
X86585159Y-95133390D02*
X86632778Y-95181009D01*
X86632778Y-95181009D02*
X86680397Y-95276247D01*
X86680397Y-95276247D02*
X86680397Y-95514342D01*
X86680397Y-95514342D02*
X86632778Y-95609580D01*
X86632778Y-95609580D02*
X86585159Y-95657200D01*
X86585159Y-95657200D02*
X86489921Y-95704819D01*
X86489921Y-95704819D02*
X86204207Y-95704819D01*
X86204207Y-95704819D02*
X86108969Y-95657200D01*
X86108969Y-95657200D02*
X86061350Y-95609580D01*
X86966112Y-95323866D02*
X87013731Y-95276247D01*
X87013731Y-95276247D02*
X87108969Y-95228628D01*
X87108969Y-95228628D02*
X87299445Y-95323866D01*
X87299445Y-95323866D02*
X87394683Y-95276247D01*
X87394683Y-95276247D02*
X87442302Y-95228628D01*
X97136363Y-79512438D02*
X97041125Y-79464819D01*
X97041125Y-79464819D02*
X96898268Y-79464819D01*
X96898268Y-79464819D02*
X96755411Y-79512438D01*
X96755411Y-79512438D02*
X96660173Y-79607676D01*
X96660173Y-79607676D02*
X96612554Y-79702914D01*
X96612554Y-79702914D02*
X96564935Y-79893390D01*
X96564935Y-79893390D02*
X96564935Y-80036247D01*
X96564935Y-80036247D02*
X96612554Y-80226723D01*
X96612554Y-80226723D02*
X96660173Y-80321961D01*
X96660173Y-80321961D02*
X96755411Y-80417200D01*
X96755411Y-80417200D02*
X96898268Y-80464819D01*
X96898268Y-80464819D02*
X96993506Y-80464819D01*
X96993506Y-80464819D02*
X97136363Y-80417200D01*
X97136363Y-80417200D02*
X97183982Y-80369580D01*
X97183982Y-80369580D02*
X97183982Y-80036247D01*
X97183982Y-80036247D02*
X96993506Y-80036247D01*
X97612554Y-80464819D02*
X97612554Y-79464819D01*
X97612554Y-79464819D02*
X97993506Y-79464819D01*
X97993506Y-79464819D02*
X98088744Y-79512438D01*
X98088744Y-79512438D02*
X98136363Y-79560057D01*
X98136363Y-79560057D02*
X98183982Y-79655295D01*
X98183982Y-79655295D02*
X98183982Y-79798152D01*
X98183982Y-79798152D02*
X98136363Y-79893390D01*
X98136363Y-79893390D02*
X98088744Y-79941009D01*
X98088744Y-79941009D02*
X97993506Y-79988628D01*
X97993506Y-79988628D02*
X97612554Y-79988628D01*
X98612554Y-80464819D02*
X98612554Y-79464819D01*
X99279220Y-79464819D02*
X99469696Y-79464819D01*
X99469696Y-79464819D02*
X99564934Y-79512438D01*
X99564934Y-79512438D02*
X99660172Y-79607676D01*
X99660172Y-79607676D02*
X99707791Y-79798152D01*
X99707791Y-79798152D02*
X99707791Y-80131485D01*
X99707791Y-80131485D02*
X99660172Y-80321961D01*
X99660172Y-80321961D02*
X99564934Y-80417200D01*
X99564934Y-80417200D02*
X99469696Y-80464819D01*
X99469696Y-80464819D02*
X99279220Y-80464819D01*
X99279220Y-80464819D02*
X99183982Y-80417200D01*
X99183982Y-80417200D02*
X99088744Y-80321961D01*
X99088744Y-80321961D02*
X99041125Y-80131485D01*
X99041125Y-80131485D02*
X99041125Y-79798152D01*
X99041125Y-79798152D02*
X99088744Y-79607676D01*
X99088744Y-79607676D02*
X99183982Y-79512438D01*
X99183982Y-79512438D02*
X99279220Y-79464819D01*
X100088744Y-79560057D02*
X100136363Y-79512438D01*
X100136363Y-79512438D02*
X100231601Y-79464819D01*
X100231601Y-79464819D02*
X100469696Y-79464819D01*
X100469696Y-79464819D02*
X100564934Y-79512438D01*
X100564934Y-79512438D02*
X100612553Y-79560057D01*
X100612553Y-79560057D02*
X100660172Y-79655295D01*
X100660172Y-79655295D02*
X100660172Y-79750533D01*
X100660172Y-79750533D02*
X100612553Y-79893390D01*
X100612553Y-79893390D02*
X100041125Y-80464819D01*
X100041125Y-80464819D02*
X100660172Y-80464819D01*
X101612553Y-80464819D02*
X101041125Y-80464819D01*
X101326839Y-80464819D02*
X101326839Y-79464819D01*
X101326839Y-79464819D02*
X101231601Y-79607676D01*
X101231601Y-79607676D02*
X101136363Y-79702914D01*
X101136363Y-79702914D02*
X101041125Y-79750533D01*
X101898268Y-80083866D02*
X101945887Y-80036247D01*
X101945887Y-80036247D02*
X102041125Y-79988628D01*
X102041125Y-79988628D02*
X102231601Y-80083866D01*
X102231601Y-80083866D02*
X102326839Y-80036247D01*
X102326839Y-80036247D02*
X102374458Y-79988628D01*
X83156588Y-69352438D02*
X83061350Y-69304819D01*
X83061350Y-69304819D02*
X82918493Y-69304819D01*
X82918493Y-69304819D02*
X82775636Y-69352438D01*
X82775636Y-69352438D02*
X82680398Y-69447676D01*
X82680398Y-69447676D02*
X82632779Y-69542914D01*
X82632779Y-69542914D02*
X82585160Y-69733390D01*
X82585160Y-69733390D02*
X82585160Y-69876247D01*
X82585160Y-69876247D02*
X82632779Y-70066723D01*
X82632779Y-70066723D02*
X82680398Y-70161961D01*
X82680398Y-70161961D02*
X82775636Y-70257200D01*
X82775636Y-70257200D02*
X82918493Y-70304819D01*
X82918493Y-70304819D02*
X83013731Y-70304819D01*
X83013731Y-70304819D02*
X83156588Y-70257200D01*
X83156588Y-70257200D02*
X83204207Y-70209580D01*
X83204207Y-70209580D02*
X83204207Y-69876247D01*
X83204207Y-69876247D02*
X83013731Y-69876247D01*
X83632779Y-70304819D02*
X83632779Y-69304819D01*
X83632779Y-69304819D02*
X84013731Y-69304819D01*
X84013731Y-69304819D02*
X84108969Y-69352438D01*
X84108969Y-69352438D02*
X84156588Y-69400057D01*
X84156588Y-69400057D02*
X84204207Y-69495295D01*
X84204207Y-69495295D02*
X84204207Y-69638152D01*
X84204207Y-69638152D02*
X84156588Y-69733390D01*
X84156588Y-69733390D02*
X84108969Y-69781009D01*
X84108969Y-69781009D02*
X84013731Y-69828628D01*
X84013731Y-69828628D02*
X83632779Y-69828628D01*
X84632779Y-70304819D02*
X84632779Y-69304819D01*
X85299445Y-69304819D02*
X85489921Y-69304819D01*
X85489921Y-69304819D02*
X85585159Y-69352438D01*
X85585159Y-69352438D02*
X85680397Y-69447676D01*
X85680397Y-69447676D02*
X85728016Y-69638152D01*
X85728016Y-69638152D02*
X85728016Y-69971485D01*
X85728016Y-69971485D02*
X85680397Y-70161961D01*
X85680397Y-70161961D02*
X85585159Y-70257200D01*
X85585159Y-70257200D02*
X85489921Y-70304819D01*
X85489921Y-70304819D02*
X85299445Y-70304819D01*
X85299445Y-70304819D02*
X85204207Y-70257200D01*
X85204207Y-70257200D02*
X85108969Y-70161961D01*
X85108969Y-70161961D02*
X85061350Y-69971485D01*
X85061350Y-69971485D02*
X85061350Y-69638152D01*
X85061350Y-69638152D02*
X85108969Y-69447676D01*
X85108969Y-69447676D02*
X85204207Y-69352438D01*
X85204207Y-69352438D02*
X85299445Y-69304819D01*
X86585159Y-69638152D02*
X86585159Y-70304819D01*
X86347064Y-69257200D02*
X86108969Y-69971485D01*
X86108969Y-69971485D02*
X86728016Y-69971485D01*
X86966112Y-69923866D02*
X87013731Y-69876247D01*
X87013731Y-69876247D02*
X87108969Y-69828628D01*
X87108969Y-69828628D02*
X87299445Y-69923866D01*
X87299445Y-69923866D02*
X87394683Y-69876247D01*
X87394683Y-69876247D02*
X87442302Y-69828628D01*
X91374458Y-66812438D02*
X91279220Y-66764819D01*
X91279220Y-66764819D02*
X91136363Y-66764819D01*
X91136363Y-66764819D02*
X90993506Y-66812438D01*
X90993506Y-66812438D02*
X90898268Y-66907676D01*
X90898268Y-66907676D02*
X90850649Y-67002914D01*
X90850649Y-67002914D02*
X90803030Y-67193390D01*
X90803030Y-67193390D02*
X90803030Y-67336247D01*
X90803030Y-67336247D02*
X90850649Y-67526723D01*
X90850649Y-67526723D02*
X90898268Y-67621961D01*
X90898268Y-67621961D02*
X90993506Y-67717200D01*
X90993506Y-67717200D02*
X91136363Y-67764819D01*
X91136363Y-67764819D02*
X91231601Y-67764819D01*
X91231601Y-67764819D02*
X91374458Y-67717200D01*
X91374458Y-67717200D02*
X91422077Y-67669580D01*
X91422077Y-67669580D02*
X91422077Y-67336247D01*
X91422077Y-67336247D02*
X91231601Y-67336247D01*
X91850649Y-67764819D02*
X91850649Y-66764819D01*
X91850649Y-66764819D02*
X92231601Y-66764819D01*
X92231601Y-66764819D02*
X92326839Y-66812438D01*
X92326839Y-66812438D02*
X92374458Y-66860057D01*
X92374458Y-66860057D02*
X92422077Y-66955295D01*
X92422077Y-66955295D02*
X92422077Y-67098152D01*
X92422077Y-67098152D02*
X92374458Y-67193390D01*
X92374458Y-67193390D02*
X92326839Y-67241009D01*
X92326839Y-67241009D02*
X92231601Y-67288628D01*
X92231601Y-67288628D02*
X91850649Y-67288628D01*
X92850649Y-67764819D02*
X92850649Y-66764819D01*
X93517315Y-66764819D02*
X93707791Y-66764819D01*
X93707791Y-66764819D02*
X93803029Y-66812438D01*
X93803029Y-66812438D02*
X93898267Y-66907676D01*
X93898267Y-66907676D02*
X93945886Y-67098152D01*
X93945886Y-67098152D02*
X93945886Y-67431485D01*
X93945886Y-67431485D02*
X93898267Y-67621961D01*
X93898267Y-67621961D02*
X93803029Y-67717200D01*
X93803029Y-67717200D02*
X93707791Y-67764819D01*
X93707791Y-67764819D02*
X93517315Y-67764819D01*
X93517315Y-67764819D02*
X93422077Y-67717200D01*
X93422077Y-67717200D02*
X93326839Y-67621961D01*
X93326839Y-67621961D02*
X93279220Y-67431485D01*
X93279220Y-67431485D02*
X93279220Y-67098152D01*
X93279220Y-67098152D02*
X93326839Y-66907676D01*
X93326839Y-66907676D02*
X93422077Y-66812438D01*
X93422077Y-66812438D02*
X93517315Y-66764819D01*
X94898267Y-67764819D02*
X94326839Y-67764819D01*
X94612553Y-67764819D02*
X94612553Y-66764819D01*
X94612553Y-66764819D02*
X94517315Y-66907676D01*
X94517315Y-66907676D02*
X94422077Y-67002914D01*
X94422077Y-67002914D02*
X94326839Y-67050533D01*
X95755410Y-66764819D02*
X95564934Y-66764819D01*
X95564934Y-66764819D02*
X95469696Y-66812438D01*
X95469696Y-66812438D02*
X95422077Y-66860057D01*
X95422077Y-66860057D02*
X95326839Y-67002914D01*
X95326839Y-67002914D02*
X95279220Y-67193390D01*
X95279220Y-67193390D02*
X95279220Y-67574342D01*
X95279220Y-67574342D02*
X95326839Y-67669580D01*
X95326839Y-67669580D02*
X95374458Y-67717200D01*
X95374458Y-67717200D02*
X95469696Y-67764819D01*
X95469696Y-67764819D02*
X95660172Y-67764819D01*
X95660172Y-67764819D02*
X95755410Y-67717200D01*
X95755410Y-67717200D02*
X95803029Y-67669580D01*
X95803029Y-67669580D02*
X95850648Y-67574342D01*
X95850648Y-67574342D02*
X95850648Y-67336247D01*
X95850648Y-67336247D02*
X95803029Y-67241009D01*
X95803029Y-67241009D02*
X95755410Y-67193390D01*
X95755410Y-67193390D02*
X95660172Y-67145771D01*
X95660172Y-67145771D02*
X95469696Y-67145771D01*
X95469696Y-67145771D02*
X95374458Y-67193390D01*
X95374458Y-67193390D02*
X95326839Y-67241009D01*
X95326839Y-67241009D02*
X95279220Y-67336247D01*
X96136363Y-67383866D02*
X96183982Y-67336247D01*
X96183982Y-67336247D02*
X96279220Y-67288628D01*
X96279220Y-67288628D02*
X96469696Y-67383866D01*
X96469696Y-67383866D02*
X96564934Y-67336247D01*
X96564934Y-67336247D02*
X96612553Y-67288628D01*
X97707791Y-66717200D02*
X96850649Y-68002914D01*
X98041125Y-66764819D02*
X98041125Y-67574342D01*
X98041125Y-67574342D02*
X98088744Y-67669580D01*
X98088744Y-67669580D02*
X98136363Y-67717200D01*
X98136363Y-67717200D02*
X98231601Y-67764819D01*
X98231601Y-67764819D02*
X98422077Y-67764819D01*
X98422077Y-67764819D02*
X98517315Y-67717200D01*
X98517315Y-67717200D02*
X98564934Y-67669580D01*
X98564934Y-67669580D02*
X98612553Y-67574342D01*
X98612553Y-67574342D02*
X98612553Y-66764819D01*
X99279220Y-66764819D02*
X99374458Y-66764819D01*
X99374458Y-66764819D02*
X99469696Y-66812438D01*
X99469696Y-66812438D02*
X99517315Y-66860057D01*
X99517315Y-66860057D02*
X99564934Y-66955295D01*
X99564934Y-66955295D02*
X99612553Y-67145771D01*
X99612553Y-67145771D02*
X99612553Y-67383866D01*
X99612553Y-67383866D02*
X99564934Y-67574342D01*
X99564934Y-67574342D02*
X99517315Y-67669580D01*
X99517315Y-67669580D02*
X99469696Y-67717200D01*
X99469696Y-67717200D02*
X99374458Y-67764819D01*
X99374458Y-67764819D02*
X99279220Y-67764819D01*
X99279220Y-67764819D02*
X99183982Y-67717200D01*
X99183982Y-67717200D02*
X99136363Y-67669580D01*
X99136363Y-67669580D02*
X99088744Y-67574342D01*
X99088744Y-67574342D02*
X99041125Y-67383866D01*
X99041125Y-67383866D02*
X99041125Y-67145771D01*
X99041125Y-67145771D02*
X99088744Y-66955295D01*
X99088744Y-66955295D02*
X99136363Y-66860057D01*
X99136363Y-66860057D02*
X99183982Y-66812438D01*
X99183982Y-66812438D02*
X99279220Y-66764819D01*
X99898268Y-66764819D02*
X100469696Y-66764819D01*
X100183982Y-67764819D02*
X100183982Y-66764819D01*
X100707792Y-66764819D02*
X101374458Y-67764819D01*
X101374458Y-66764819D02*
X100707792Y-67764819D01*
X101755411Y-67764819D02*
X101755411Y-66764819D01*
X101755411Y-66764819D02*
X101993506Y-66764819D01*
X101993506Y-66764819D02*
X102136363Y-66812438D01*
X102136363Y-66812438D02*
X102231601Y-66907676D01*
X102231601Y-66907676D02*
X102279220Y-67002914D01*
X102279220Y-67002914D02*
X102326839Y-67193390D01*
X102326839Y-67193390D02*
X102326839Y-67336247D01*
X102326839Y-67336247D02*
X102279220Y-67526723D01*
X102279220Y-67526723D02*
X102231601Y-67621961D01*
X102231601Y-67621961D02*
X102136363Y-67717200D01*
X102136363Y-67717200D02*
X101993506Y-67764819D01*
X101993506Y-67764819D02*
X101755411Y-67764819D01*
X100231601Y-92212438D02*
X100136363Y-92164819D01*
X100136363Y-92164819D02*
X99993506Y-92164819D01*
X99993506Y-92164819D02*
X99850649Y-92212438D01*
X99850649Y-92212438D02*
X99755411Y-92307676D01*
X99755411Y-92307676D02*
X99707792Y-92402914D01*
X99707792Y-92402914D02*
X99660173Y-92593390D01*
X99660173Y-92593390D02*
X99660173Y-92736247D01*
X99660173Y-92736247D02*
X99707792Y-92926723D01*
X99707792Y-92926723D02*
X99755411Y-93021961D01*
X99755411Y-93021961D02*
X99850649Y-93117200D01*
X99850649Y-93117200D02*
X99993506Y-93164819D01*
X99993506Y-93164819D02*
X100088744Y-93164819D01*
X100088744Y-93164819D02*
X100231601Y-93117200D01*
X100231601Y-93117200D02*
X100279220Y-93069580D01*
X100279220Y-93069580D02*
X100279220Y-92736247D01*
X100279220Y-92736247D02*
X100088744Y-92736247D01*
X100707792Y-93164819D02*
X100707792Y-92164819D01*
X100707792Y-92164819D02*
X101279220Y-93164819D01*
X101279220Y-93164819D02*
X101279220Y-92164819D01*
X101755411Y-93164819D02*
X101755411Y-92164819D01*
X101755411Y-92164819D02*
X101993506Y-92164819D01*
X101993506Y-92164819D02*
X102136363Y-92212438D01*
X102136363Y-92212438D02*
X102231601Y-92307676D01*
X102231601Y-92307676D02*
X102279220Y-92402914D01*
X102279220Y-92402914D02*
X102326839Y-92593390D01*
X102326839Y-92593390D02*
X102326839Y-92736247D01*
X102326839Y-92736247D02*
X102279220Y-92926723D01*
X102279220Y-92926723D02*
X102231601Y-93021961D01*
X102231601Y-93021961D02*
X102136363Y-93117200D01*
X102136363Y-93117200D02*
X101993506Y-93164819D01*
X101993506Y-93164819D02*
X101755411Y-93164819D01*
X100231601Y-99832438D02*
X100136363Y-99784819D01*
X100136363Y-99784819D02*
X99993506Y-99784819D01*
X99993506Y-99784819D02*
X99850649Y-99832438D01*
X99850649Y-99832438D02*
X99755411Y-99927676D01*
X99755411Y-99927676D02*
X99707792Y-100022914D01*
X99707792Y-100022914D02*
X99660173Y-100213390D01*
X99660173Y-100213390D02*
X99660173Y-100356247D01*
X99660173Y-100356247D02*
X99707792Y-100546723D01*
X99707792Y-100546723D02*
X99755411Y-100641961D01*
X99755411Y-100641961D02*
X99850649Y-100737200D01*
X99850649Y-100737200D02*
X99993506Y-100784819D01*
X99993506Y-100784819D02*
X100088744Y-100784819D01*
X100088744Y-100784819D02*
X100231601Y-100737200D01*
X100231601Y-100737200D02*
X100279220Y-100689580D01*
X100279220Y-100689580D02*
X100279220Y-100356247D01*
X100279220Y-100356247D02*
X100088744Y-100356247D01*
X100707792Y-100784819D02*
X100707792Y-99784819D01*
X100707792Y-99784819D02*
X101279220Y-100784819D01*
X101279220Y-100784819D02*
X101279220Y-99784819D01*
X101755411Y-100784819D02*
X101755411Y-99784819D01*
X101755411Y-99784819D02*
X101993506Y-99784819D01*
X101993506Y-99784819D02*
X102136363Y-99832438D01*
X102136363Y-99832438D02*
X102231601Y-99927676D01*
X102231601Y-99927676D02*
X102279220Y-100022914D01*
X102279220Y-100022914D02*
X102326839Y-100213390D01*
X102326839Y-100213390D02*
X102326839Y-100356247D01*
X102326839Y-100356247D02*
X102279220Y-100546723D01*
X102279220Y-100546723D02*
X102231601Y-100641961D01*
X102231601Y-100641961D02*
X102136363Y-100737200D01*
X102136363Y-100737200D02*
X101993506Y-100784819D01*
X101993506Y-100784819D02*
X101755411Y-100784819D01*
X91136363Y-69352438D02*
X91041125Y-69304819D01*
X91041125Y-69304819D02*
X90898268Y-69304819D01*
X90898268Y-69304819D02*
X90755411Y-69352438D01*
X90755411Y-69352438D02*
X90660173Y-69447676D01*
X90660173Y-69447676D02*
X90612554Y-69542914D01*
X90612554Y-69542914D02*
X90564935Y-69733390D01*
X90564935Y-69733390D02*
X90564935Y-69876247D01*
X90564935Y-69876247D02*
X90612554Y-70066723D01*
X90612554Y-70066723D02*
X90660173Y-70161961D01*
X90660173Y-70161961D02*
X90755411Y-70257200D01*
X90755411Y-70257200D02*
X90898268Y-70304819D01*
X90898268Y-70304819D02*
X90993506Y-70304819D01*
X90993506Y-70304819D02*
X91136363Y-70257200D01*
X91136363Y-70257200D02*
X91183982Y-70209580D01*
X91183982Y-70209580D02*
X91183982Y-69876247D01*
X91183982Y-69876247D02*
X90993506Y-69876247D01*
X91612554Y-70304819D02*
X91612554Y-69304819D01*
X91612554Y-69304819D02*
X91993506Y-69304819D01*
X91993506Y-69304819D02*
X92088744Y-69352438D01*
X92088744Y-69352438D02*
X92136363Y-69400057D01*
X92136363Y-69400057D02*
X92183982Y-69495295D01*
X92183982Y-69495295D02*
X92183982Y-69638152D01*
X92183982Y-69638152D02*
X92136363Y-69733390D01*
X92136363Y-69733390D02*
X92088744Y-69781009D01*
X92088744Y-69781009D02*
X91993506Y-69828628D01*
X91993506Y-69828628D02*
X91612554Y-69828628D01*
X92612554Y-70304819D02*
X92612554Y-69304819D01*
X93279220Y-69304819D02*
X93469696Y-69304819D01*
X93469696Y-69304819D02*
X93564934Y-69352438D01*
X93564934Y-69352438D02*
X93660172Y-69447676D01*
X93660172Y-69447676D02*
X93707791Y-69638152D01*
X93707791Y-69638152D02*
X93707791Y-69971485D01*
X93707791Y-69971485D02*
X93660172Y-70161961D01*
X93660172Y-70161961D02*
X93564934Y-70257200D01*
X93564934Y-70257200D02*
X93469696Y-70304819D01*
X93469696Y-70304819D02*
X93279220Y-70304819D01*
X93279220Y-70304819D02*
X93183982Y-70257200D01*
X93183982Y-70257200D02*
X93088744Y-70161961D01*
X93088744Y-70161961D02*
X93041125Y-69971485D01*
X93041125Y-69971485D02*
X93041125Y-69638152D01*
X93041125Y-69638152D02*
X93088744Y-69447676D01*
X93088744Y-69447676D02*
X93183982Y-69352438D01*
X93183982Y-69352438D02*
X93279220Y-69304819D01*
X94660172Y-70304819D02*
X94088744Y-70304819D01*
X94374458Y-70304819D02*
X94374458Y-69304819D01*
X94374458Y-69304819D02*
X94279220Y-69447676D01*
X94279220Y-69447676D02*
X94183982Y-69542914D01*
X94183982Y-69542914D02*
X94088744Y-69590533D01*
X94993506Y-69304819D02*
X95660172Y-69304819D01*
X95660172Y-69304819D02*
X95231601Y-70304819D01*
X95898268Y-69923866D02*
X95945887Y-69876247D01*
X95945887Y-69876247D02*
X96041125Y-69828628D01*
X96041125Y-69828628D02*
X96231601Y-69923866D01*
X96231601Y-69923866D02*
X96326839Y-69876247D01*
X96326839Y-69876247D02*
X96374458Y-69828628D01*
X97469696Y-69257200D02*
X96612554Y-70542914D01*
X97803030Y-69304819D02*
X97803030Y-70114342D01*
X97803030Y-70114342D02*
X97850649Y-70209580D01*
X97850649Y-70209580D02*
X97898268Y-70257200D01*
X97898268Y-70257200D02*
X97993506Y-70304819D01*
X97993506Y-70304819D02*
X98183982Y-70304819D01*
X98183982Y-70304819D02*
X98279220Y-70257200D01*
X98279220Y-70257200D02*
X98326839Y-70209580D01*
X98326839Y-70209580D02*
X98374458Y-70114342D01*
X98374458Y-70114342D02*
X98374458Y-69304819D01*
X99041125Y-69304819D02*
X99136363Y-69304819D01*
X99136363Y-69304819D02*
X99231601Y-69352438D01*
X99231601Y-69352438D02*
X99279220Y-69400057D01*
X99279220Y-69400057D02*
X99326839Y-69495295D01*
X99326839Y-69495295D02*
X99374458Y-69685771D01*
X99374458Y-69685771D02*
X99374458Y-69923866D01*
X99374458Y-69923866D02*
X99326839Y-70114342D01*
X99326839Y-70114342D02*
X99279220Y-70209580D01*
X99279220Y-70209580D02*
X99231601Y-70257200D01*
X99231601Y-70257200D02*
X99136363Y-70304819D01*
X99136363Y-70304819D02*
X99041125Y-70304819D01*
X99041125Y-70304819D02*
X98945887Y-70257200D01*
X98945887Y-70257200D02*
X98898268Y-70209580D01*
X98898268Y-70209580D02*
X98850649Y-70114342D01*
X98850649Y-70114342D02*
X98803030Y-69923866D01*
X98803030Y-69923866D02*
X98803030Y-69685771D01*
X98803030Y-69685771D02*
X98850649Y-69495295D01*
X98850649Y-69495295D02*
X98898268Y-69400057D01*
X98898268Y-69400057D02*
X98945887Y-69352438D01*
X98945887Y-69352438D02*
X99041125Y-69304819D01*
X100374458Y-70304819D02*
X100041125Y-69828628D01*
X99803030Y-70304819D02*
X99803030Y-69304819D01*
X99803030Y-69304819D02*
X100183982Y-69304819D01*
X100183982Y-69304819D02*
X100279220Y-69352438D01*
X100279220Y-69352438D02*
X100326839Y-69400057D01*
X100326839Y-69400057D02*
X100374458Y-69495295D01*
X100374458Y-69495295D02*
X100374458Y-69638152D01*
X100374458Y-69638152D02*
X100326839Y-69733390D01*
X100326839Y-69733390D02*
X100279220Y-69781009D01*
X100279220Y-69781009D02*
X100183982Y-69828628D01*
X100183982Y-69828628D02*
X99803030Y-69828628D01*
X100707792Y-69304819D02*
X101374458Y-70304819D01*
X101374458Y-69304819D02*
X100707792Y-70304819D01*
X101755411Y-70304819D02*
X101755411Y-69304819D01*
X101755411Y-69304819D02*
X101993506Y-69304819D01*
X101993506Y-69304819D02*
X102136363Y-69352438D01*
X102136363Y-69352438D02*
X102231601Y-69447676D01*
X102231601Y-69447676D02*
X102279220Y-69542914D01*
X102279220Y-69542914D02*
X102326839Y-69733390D01*
X102326839Y-69733390D02*
X102326839Y-69876247D01*
X102326839Y-69876247D02*
X102279220Y-70066723D01*
X102279220Y-70066723D02*
X102231601Y-70161961D01*
X102231601Y-70161961D02*
X102136363Y-70257200D01*
X102136363Y-70257200D02*
X101993506Y-70304819D01*
X101993506Y-70304819D02*
X101755411Y-70304819D01*
X83156588Y-76972438D02*
X83061350Y-76924819D01*
X83061350Y-76924819D02*
X82918493Y-76924819D01*
X82918493Y-76924819D02*
X82775636Y-76972438D01*
X82775636Y-76972438D02*
X82680398Y-77067676D01*
X82680398Y-77067676D02*
X82632779Y-77162914D01*
X82632779Y-77162914D02*
X82585160Y-77353390D01*
X82585160Y-77353390D02*
X82585160Y-77496247D01*
X82585160Y-77496247D02*
X82632779Y-77686723D01*
X82632779Y-77686723D02*
X82680398Y-77781961D01*
X82680398Y-77781961D02*
X82775636Y-77877200D01*
X82775636Y-77877200D02*
X82918493Y-77924819D01*
X82918493Y-77924819D02*
X83013731Y-77924819D01*
X83013731Y-77924819D02*
X83156588Y-77877200D01*
X83156588Y-77877200D02*
X83204207Y-77829580D01*
X83204207Y-77829580D02*
X83204207Y-77496247D01*
X83204207Y-77496247D02*
X83013731Y-77496247D01*
X83632779Y-77924819D02*
X83632779Y-76924819D01*
X83632779Y-76924819D02*
X84013731Y-76924819D01*
X84013731Y-76924819D02*
X84108969Y-76972438D01*
X84108969Y-76972438D02*
X84156588Y-77020057D01*
X84156588Y-77020057D02*
X84204207Y-77115295D01*
X84204207Y-77115295D02*
X84204207Y-77258152D01*
X84204207Y-77258152D02*
X84156588Y-77353390D01*
X84156588Y-77353390D02*
X84108969Y-77401009D01*
X84108969Y-77401009D02*
X84013731Y-77448628D01*
X84013731Y-77448628D02*
X83632779Y-77448628D01*
X84632779Y-77924819D02*
X84632779Y-76924819D01*
X85299445Y-76924819D02*
X85489921Y-76924819D01*
X85489921Y-76924819D02*
X85585159Y-76972438D01*
X85585159Y-76972438D02*
X85680397Y-77067676D01*
X85680397Y-77067676D02*
X85728016Y-77258152D01*
X85728016Y-77258152D02*
X85728016Y-77591485D01*
X85728016Y-77591485D02*
X85680397Y-77781961D01*
X85680397Y-77781961D02*
X85585159Y-77877200D01*
X85585159Y-77877200D02*
X85489921Y-77924819D01*
X85489921Y-77924819D02*
X85299445Y-77924819D01*
X85299445Y-77924819D02*
X85204207Y-77877200D01*
X85204207Y-77877200D02*
X85108969Y-77781961D01*
X85108969Y-77781961D02*
X85061350Y-77591485D01*
X85061350Y-77591485D02*
X85061350Y-77258152D01*
X85061350Y-77258152D02*
X85108969Y-77067676D01*
X85108969Y-77067676D02*
X85204207Y-76972438D01*
X85204207Y-76972438D02*
X85299445Y-76924819D01*
X86061350Y-76924819D02*
X86728016Y-76924819D01*
X86728016Y-76924819D02*
X86299445Y-77924819D01*
X86966112Y-77543866D02*
X87013731Y-77496247D01*
X87013731Y-77496247D02*
X87108969Y-77448628D01*
X87108969Y-77448628D02*
X87299445Y-77543866D01*
X87299445Y-77543866D02*
X87394683Y-77496247D01*
X87394683Y-77496247D02*
X87442302Y-77448628D01*
X109045476Y-82164819D02*
X109045476Y-82879104D01*
X109045476Y-82879104D02*
X108997857Y-83021961D01*
X108997857Y-83021961D02*
X108902619Y-83117200D01*
X108902619Y-83117200D02*
X108759762Y-83164819D01*
X108759762Y-83164819D02*
X108664524Y-83164819D01*
X110045476Y-83164819D02*
X109474048Y-83164819D01*
X109759762Y-83164819D02*
X109759762Y-82164819D01*
X109759762Y-82164819D02*
X109664524Y-82307676D01*
X109664524Y-82307676D02*
X109569286Y-82402914D01*
X109569286Y-82402914D02*
X109474048Y-82450533D01*
X110997857Y-83164819D02*
X110426429Y-83164819D01*
X110712143Y-83164819D02*
X110712143Y-82164819D01*
X110712143Y-82164819D02*
X110616905Y-82307676D01*
X110616905Y-82307676D02*
X110521667Y-82402914D01*
X110521667Y-82402914D02*
X110426429Y-82450533D01*
X68464666Y-103075819D02*
X68464666Y-103790104D01*
X68464666Y-103790104D02*
X68417047Y-103932961D01*
X68417047Y-103932961D02*
X68321809Y-104028200D01*
X68321809Y-104028200D02*
X68178952Y-104075819D01*
X68178952Y-104075819D02*
X68083714Y-104075819D01*
X69464666Y-104075819D02*
X68893238Y-104075819D01*
X69178952Y-104075819D02*
X69178952Y-103075819D01*
X69178952Y-103075819D02*
X69083714Y-103218676D01*
X69083714Y-103218676D02*
X68988476Y-103313914D01*
X68988476Y-103313914D02*
X68893238Y-103361533D01*
X53260666Y-75179819D02*
X53260666Y-75894104D01*
X53260666Y-75894104D02*
X53213047Y-76036961D01*
X53213047Y-76036961D02*
X53117809Y-76132200D01*
X53117809Y-76132200D02*
X52974952Y-76179819D01*
X52974952Y-76179819D02*
X52879714Y-76179819D01*
X53784476Y-76179819D02*
X53974952Y-76179819D01*
X53974952Y-76179819D02*
X54070190Y-76132200D01*
X54070190Y-76132200D02*
X54117809Y-76084580D01*
X54117809Y-76084580D02*
X54213047Y-75941723D01*
X54213047Y-75941723D02*
X54260666Y-75751247D01*
X54260666Y-75751247D02*
X54260666Y-75370295D01*
X54260666Y-75370295D02*
X54213047Y-75275057D01*
X54213047Y-75275057D02*
X54165428Y-75227438D01*
X54165428Y-75227438D02*
X54070190Y-75179819D01*
X54070190Y-75179819D02*
X53879714Y-75179819D01*
X53879714Y-75179819D02*
X53784476Y-75227438D01*
X53784476Y-75227438D02*
X53736857Y-75275057D01*
X53736857Y-75275057D02*
X53689238Y-75370295D01*
X53689238Y-75370295D02*
X53689238Y-75608390D01*
X53689238Y-75608390D02*
X53736857Y-75703628D01*
X53736857Y-75703628D02*
X53784476Y-75751247D01*
X53784476Y-75751247D02*
X53879714Y-75798866D01*
X53879714Y-75798866D02*
X54070190Y-75798866D01*
X54070190Y-75798866D02*
X54165428Y-75751247D01*
X54165428Y-75751247D02*
X54213047Y-75703628D01*
X54213047Y-75703628D02*
X54260666Y-75608390D01*
X74048666Y-72450819D02*
X74048666Y-73165104D01*
X74048666Y-73165104D02*
X74001047Y-73307961D01*
X74001047Y-73307961D02*
X73905809Y-73403200D01*
X73905809Y-73403200D02*
X73762952Y-73450819D01*
X73762952Y-73450819D02*
X73667714Y-73450819D01*
X74429619Y-72450819D02*
X75096285Y-72450819D01*
X75096285Y-72450819D02*
X74667714Y-73450819D01*
X62048666Y-72020819D02*
X62048666Y-72735104D01*
X62048666Y-72735104D02*
X62001047Y-72877961D01*
X62001047Y-72877961D02*
X61905809Y-72973200D01*
X61905809Y-72973200D02*
X61762952Y-73020819D01*
X61762952Y-73020819D02*
X61667714Y-73020819D01*
X62667714Y-72449390D02*
X62572476Y-72401771D01*
X62572476Y-72401771D02*
X62524857Y-72354152D01*
X62524857Y-72354152D02*
X62477238Y-72258914D01*
X62477238Y-72258914D02*
X62477238Y-72211295D01*
X62477238Y-72211295D02*
X62524857Y-72116057D01*
X62524857Y-72116057D02*
X62572476Y-72068438D01*
X62572476Y-72068438D02*
X62667714Y-72020819D01*
X62667714Y-72020819D02*
X62858190Y-72020819D01*
X62858190Y-72020819D02*
X62953428Y-72068438D01*
X62953428Y-72068438D02*
X63001047Y-72116057D01*
X63001047Y-72116057D02*
X63048666Y-72211295D01*
X63048666Y-72211295D02*
X63048666Y-72258914D01*
X63048666Y-72258914D02*
X63001047Y-72354152D01*
X63001047Y-72354152D02*
X62953428Y-72401771D01*
X62953428Y-72401771D02*
X62858190Y-72449390D01*
X62858190Y-72449390D02*
X62667714Y-72449390D01*
X62667714Y-72449390D02*
X62572476Y-72497009D01*
X62572476Y-72497009D02*
X62524857Y-72544628D01*
X62524857Y-72544628D02*
X62477238Y-72639866D01*
X62477238Y-72639866D02*
X62477238Y-72830342D01*
X62477238Y-72830342D02*
X62524857Y-72925580D01*
X62524857Y-72925580D02*
X62572476Y-72973200D01*
X62572476Y-72973200D02*
X62667714Y-73020819D01*
X62667714Y-73020819D02*
X62858190Y-73020819D01*
X62858190Y-73020819D02*
X62953428Y-72973200D01*
X62953428Y-72973200D02*
X63001047Y-72925580D01*
X63001047Y-72925580D02*
X63048666Y-72830342D01*
X63048666Y-72830342D02*
X63048666Y-72639866D01*
X63048666Y-72639866D02*
X63001047Y-72544628D01*
X63001047Y-72544628D02*
X62953428Y-72497009D01*
X62953428Y-72497009D02*
X62858190Y-72449390D01*
X52809476Y-84334819D02*
X52809476Y-85049104D01*
X52809476Y-85049104D02*
X52761857Y-85191961D01*
X52761857Y-85191961D02*
X52666619Y-85287200D01*
X52666619Y-85287200D02*
X52523762Y-85334819D01*
X52523762Y-85334819D02*
X52428524Y-85334819D01*
X53809476Y-85334819D02*
X53238048Y-85334819D01*
X53523762Y-85334819D02*
X53523762Y-84334819D01*
X53523762Y-84334819D02*
X53428524Y-84477676D01*
X53428524Y-84477676D02*
X53333286Y-84572914D01*
X53333286Y-84572914D02*
X53238048Y-84620533D01*
X54428524Y-84334819D02*
X54523762Y-84334819D01*
X54523762Y-84334819D02*
X54619000Y-84382438D01*
X54619000Y-84382438D02*
X54666619Y-84430057D01*
X54666619Y-84430057D02*
X54714238Y-84525295D01*
X54714238Y-84525295D02*
X54761857Y-84715771D01*
X54761857Y-84715771D02*
X54761857Y-84953866D01*
X54761857Y-84953866D02*
X54714238Y-85144342D01*
X54714238Y-85144342D02*
X54666619Y-85239580D01*
X54666619Y-85239580D02*
X54619000Y-85287200D01*
X54619000Y-85287200D02*
X54523762Y-85334819D01*
X54523762Y-85334819D02*
X54428524Y-85334819D01*
X54428524Y-85334819D02*
X54333286Y-85287200D01*
X54333286Y-85287200D02*
X54285667Y-85239580D01*
X54285667Y-85239580D02*
X54238048Y-85144342D01*
X54238048Y-85144342D02*
X54190429Y-84953866D01*
X54190429Y-84953866D02*
X54190429Y-84715771D01*
X54190429Y-84715771D02*
X54238048Y-84525295D01*
X54238048Y-84525295D02*
X54285667Y-84430057D01*
X54285667Y-84430057D02*
X54333286Y-84382438D01*
X54333286Y-84382438D02*
X54428524Y-84334819D01*
X108039819Y-69548333D02*
X108754104Y-69548333D01*
X108754104Y-69548333D02*
X108896961Y-69595952D01*
X108896961Y-69595952D02*
X108992200Y-69691190D01*
X108992200Y-69691190D02*
X109039819Y-69834047D01*
X109039819Y-69834047D02*
X109039819Y-69929285D01*
X108039819Y-68643571D02*
X108039819Y-68834047D01*
X108039819Y-68834047D02*
X108087438Y-68929285D01*
X108087438Y-68929285D02*
X108135057Y-68976904D01*
X108135057Y-68976904D02*
X108277914Y-69072142D01*
X108277914Y-69072142D02*
X108468390Y-69119761D01*
X108468390Y-69119761D02*
X108849342Y-69119761D01*
X108849342Y-69119761D02*
X108944580Y-69072142D01*
X108944580Y-69072142D02*
X108992200Y-69024523D01*
X108992200Y-69024523D02*
X109039819Y-68929285D01*
X109039819Y-68929285D02*
X109039819Y-68738809D01*
X109039819Y-68738809D02*
X108992200Y-68643571D01*
X108992200Y-68643571D02*
X108944580Y-68595952D01*
X108944580Y-68595952D02*
X108849342Y-68548333D01*
X108849342Y-68548333D02*
X108611247Y-68548333D01*
X108611247Y-68548333D02*
X108516009Y-68595952D01*
X108516009Y-68595952D02*
X108468390Y-68643571D01*
X108468390Y-68643571D02*
X108420771Y-68738809D01*
X108420771Y-68738809D02*
X108420771Y-68929285D01*
X108420771Y-68929285D02*
X108468390Y-69024523D01*
X108468390Y-69024523D02*
X108516009Y-69072142D01*
X108516009Y-69072142D02*
X108611247Y-69119761D01*
X61261666Y-51397819D02*
X61261666Y-52112104D01*
X61261666Y-52112104D02*
X61214047Y-52254961D01*
X61214047Y-52254961D02*
X61118809Y-52350200D01*
X61118809Y-52350200D02*
X60975952Y-52397819D01*
X60975952Y-52397819D02*
X60880714Y-52397819D01*
X62214047Y-51397819D02*
X61737857Y-51397819D01*
X61737857Y-51397819D02*
X61690238Y-51874009D01*
X61690238Y-51874009D02*
X61737857Y-51826390D01*
X61737857Y-51826390D02*
X61833095Y-51778771D01*
X61833095Y-51778771D02*
X62071190Y-51778771D01*
X62071190Y-51778771D02*
X62166428Y-51826390D01*
X62166428Y-51826390D02*
X62214047Y-51874009D01*
X62214047Y-51874009D02*
X62261666Y-51969247D01*
X62261666Y-51969247D02*
X62261666Y-52207342D01*
X62261666Y-52207342D02*
X62214047Y-52302580D01*
X62214047Y-52302580D02*
X62166428Y-52350200D01*
X62166428Y-52350200D02*
X62071190Y-52397819D01*
X62071190Y-52397819D02*
X61833095Y-52397819D01*
X61833095Y-52397819D02*
X61737857Y-52350200D01*
X61737857Y-52350200D02*
X61690238Y-52302580D01*
D11*
%TO.C,J2*%
X62374000Y-101075000D02*
X62374000Y-99695000D01*
X63754000Y-101075000D02*
X62374000Y-101075000D01*
X65024000Y-98315000D02*
X72754000Y-98315000D01*
X65024000Y-101075000D02*
X65024000Y-98315000D01*
X65024000Y-101075000D02*
X72754000Y-101075000D01*
X72754000Y-101075000D02*
X72754000Y-98315000D01*
%TO.C,J4*%
X52849000Y-59072000D02*
X54229000Y-59072000D01*
X52849000Y-60452000D02*
X52849000Y-59072000D01*
X52849000Y-61722000D02*
X52849000Y-69452000D01*
X52849000Y-61722000D02*
X55609000Y-61722000D01*
X52849000Y-69452000D02*
X55609000Y-69452000D01*
X55609000Y-61722000D02*
X55609000Y-69452000D01*
%TO.C,J3*%
X61993000Y-58945000D02*
X63373000Y-58945000D01*
X61993000Y-60325000D02*
X61993000Y-58945000D01*
X61993000Y-61595000D02*
X61993000Y-69325000D01*
X61993000Y-61595000D02*
X64753000Y-61595000D01*
X61993000Y-69325000D02*
X64753000Y-69325000D01*
X64753000Y-61595000D02*
X64753000Y-69325000D01*
%TO.C,U1*%
X79526000Y-63195000D02*
X79526000Y-114995000D01*
X79526000Y-114995000D02*
X105385999Y-114995000D01*
X83486120Y-56824680D02*
X101469320Y-56824680D01*
X83486120Y-63174680D02*
X83486120Y-56824680D01*
X101469320Y-56824680D02*
X101469320Y-63174680D01*
X105385999Y-114995000D02*
X105386000Y-63195000D01*
X105386000Y-63195000D02*
X79526001Y-63195000D01*
X80926200Y-108178600D02*
X89562200Y-108178600D01*
X89562200Y-115468400D01*
X80926200Y-115468400D01*
X80926200Y-108178600D01*
X95326200Y-108178600D02*
X103962200Y-108178600D01*
X103962200Y-115468400D01*
X95326200Y-115468400D01*
X95326200Y-108178600D01*
%TO.C,J11*%
X108475000Y-83710000D02*
X109855000Y-83710000D01*
X108475000Y-85090000D02*
X108475000Y-83710000D01*
X108475000Y-86360000D02*
X108475000Y-94090000D01*
X108475000Y-86360000D02*
X111235000Y-86360000D01*
X108475000Y-94090000D02*
X111235000Y-94090000D01*
X111235000Y-86360000D02*
X111235000Y-94090000D01*
%TO.C,J1*%
X63678000Y-104621000D02*
X73918000Y-104621000D01*
X63678000Y-111741000D02*
X73918000Y-111741000D01*
X63678000Y-113861000D02*
X63678000Y-104621000D01*
X65998000Y-113861000D02*
X63678000Y-113861000D01*
X73918000Y-104621000D02*
X73918000Y-113861000D01*
X73918000Y-113861000D02*
X66598000Y-113861000D01*
X67298000Y-106541000D02*
G75*
G02*
X65298000Y-106541000I-1000000J0D01*
G01*
X65298000Y-106541000D02*
G75*
G02*
X67298000Y-106541000I1000000J0D01*
G01*
X72298000Y-106541000D02*
G75*
G02*
X70298000Y-106541000I-1000000J0D01*
G01*
X70298000Y-106541000D02*
G75*
G02*
X72298000Y-106541000I1000000J0D01*
G01*
X66738000Y-114471000D02*
X65858000Y-114471000D01*
X66298000Y-113861000D01*
X66738000Y-114471000D01*
G36*
X66738000Y-114471000D02*
G01*
X65858000Y-114471000D01*
X66298000Y-113861000D01*
X66738000Y-114471000D01*
G37*
%TO.C,J9*%
X52214000Y-76725000D02*
X53594000Y-76725000D01*
X52214000Y-78105000D02*
X52214000Y-76725000D01*
X52214000Y-79375000D02*
X52214000Y-82025000D01*
X52214000Y-79375000D02*
X54974000Y-79375000D01*
X52214000Y-82025000D02*
X54974000Y-82025000D01*
X54974000Y-79375000D02*
X54974000Y-82025000D01*
%TO.C,J7*%
X73002000Y-73996000D02*
X74382000Y-73996000D01*
X73002000Y-75376000D02*
X73002000Y-73996000D01*
X73002000Y-76646000D02*
X73002000Y-89456000D01*
X73002000Y-76646000D02*
X75762000Y-76646000D01*
X73002000Y-89456000D02*
X75762000Y-89456000D01*
X75762000Y-76646000D02*
X75762000Y-89456000D01*
%TO.C,J8*%
X61052000Y-76606000D02*
X61052000Y-89366000D01*
X61052000Y-76606000D02*
X63712000Y-76606000D01*
X61052000Y-89366000D02*
X63712000Y-89366000D01*
X62382000Y-74006000D02*
X63712000Y-74006000D01*
X63712000Y-74006000D02*
X63712000Y-75336000D01*
X63712000Y-76606000D02*
X63712000Y-89366000D01*
%TO.C,J10*%
X52289000Y-88920000D02*
X52289000Y-91520000D01*
X52289000Y-88920000D02*
X54949000Y-88920000D01*
X52289000Y-91520000D02*
X54949000Y-91520000D01*
X53619000Y-86320000D02*
X54949000Y-86320000D01*
X54949000Y-86320000D02*
X54949000Y-87650000D01*
X54949000Y-88920000D02*
X54949000Y-91520000D01*
%TO.C,J6*%
X108094000Y-65024000D02*
X108094000Y-59834000D01*
X110854000Y-59834000D02*
X108094000Y-59834000D01*
X110854000Y-65024000D02*
X108094000Y-65024000D01*
X110854000Y-65024000D02*
X110854000Y-59834000D01*
X110854000Y-66294000D02*
X110854000Y-67674000D01*
X110854000Y-67674000D02*
X109474000Y-67674000D01*
%TD*%
M02*
