%TF.GenerationSoftware,KiCad,Pcbnew,9.0.7*%
%TF.CreationDate,2026-02-19T11:28:30-05:00*%
%TF.ProjectId,project_pcba,70726f6a-6563-4745-9f70-6362612e6b69,rev?*%
%TF.SameCoordinates,Original*%
%TF.FileFunction,Drillmap*%
%TF.FilePolarity,Positive*%
%FSLAX45Y45*%
G04 Gerber Fmt 4.5, Leading zero omitted, Abs format (unit mm)*
G04 Created by KiCad (PCBNEW 9.0.7) date 2026-02-19 11:28:30*
%MOMM*%
%LPD*%
G01*
G04 APERTURE LIST*
%ADD10C,0.100000*%
%ADD11C,0.200000*%
%ADD12C,0.130000*%
G04 APERTURE END LIST*
D10*
X5000000Y-5000000D02*
X11500000Y-5000000D01*
X11500000Y-11500000D01*
X5000000Y-11500000D01*
X5000000Y-5000000D01*
D11*
D10*
X8062600Y-6437000D02*
X8142600Y-6517000D01*
X8142600Y-6437000D02*
X8062600Y-6517000D01*
X8062600Y-6691000D02*
X8142600Y-6771000D01*
X8142600Y-6691000D02*
X8062600Y-6771000D01*
X8062600Y-6945000D02*
X8142600Y-7025000D01*
X8142600Y-6945000D02*
X8062600Y-7025000D01*
X8062600Y-7199000D02*
X8142600Y-7279000D01*
X8142600Y-7199000D02*
X8062600Y-7279000D01*
X8062600Y-7453000D02*
X8142600Y-7533000D01*
X8142600Y-7453000D02*
X8062600Y-7533000D01*
X8062600Y-7707000D02*
X8142600Y-7787000D01*
X8142600Y-7707000D02*
X8062600Y-7787000D01*
X8062600Y-7961000D02*
X8142600Y-8041000D01*
X8142600Y-7961000D02*
X8062600Y-8041000D01*
X8062600Y-8215000D02*
X8142600Y-8295000D01*
X8142600Y-8215000D02*
X8062600Y-8295000D01*
X8062600Y-8469000D02*
X8142600Y-8549000D01*
X8142600Y-8469000D02*
X8062600Y-8549000D01*
X8062600Y-8723000D02*
X8142600Y-8803000D01*
X8142600Y-8723000D02*
X8062600Y-8803000D01*
X8062600Y-8977000D02*
X8142600Y-9057000D01*
X8142600Y-8977000D02*
X8062600Y-9057000D01*
X8062600Y-9231000D02*
X8142600Y-9311000D01*
X8142600Y-9231000D02*
X8062600Y-9311000D01*
X8062600Y-9485000D02*
X8142600Y-9565000D01*
X8142600Y-9485000D02*
X8062600Y-9565000D01*
X8062600Y-9739000D02*
X8142600Y-9819000D01*
X8142600Y-9739000D02*
X8062600Y-9819000D01*
X8062600Y-9993000D02*
X8142600Y-10073000D01*
X8142600Y-9993000D02*
X8062600Y-10073000D01*
X8062600Y-10247000D02*
X8142600Y-10327000D01*
X8142600Y-10247000D02*
X8062600Y-10327000D01*
X10348600Y-6437000D02*
X10428600Y-6517000D01*
X10428600Y-6437000D02*
X10348600Y-6517000D01*
X10348600Y-6691000D02*
X10428600Y-6771000D01*
X10428600Y-6691000D02*
X10348600Y-6771000D01*
X10348600Y-6945000D02*
X10428600Y-7025000D01*
X10428600Y-6945000D02*
X10348600Y-7025000D01*
X10348600Y-7199000D02*
X10428600Y-7279000D01*
X10428600Y-7199000D02*
X10348600Y-7279000D01*
X10348600Y-7453000D02*
X10428600Y-7533000D01*
X10428600Y-7453000D02*
X10348600Y-7533000D01*
X10348600Y-7707000D02*
X10428600Y-7787000D01*
X10428600Y-7707000D02*
X10348600Y-7787000D01*
X10348600Y-7961000D02*
X10428600Y-8041000D01*
X10428600Y-7961000D02*
X10348600Y-8041000D01*
X10348600Y-8215000D02*
X10428600Y-8295000D01*
X10428600Y-8215000D02*
X10348600Y-8295000D01*
X10348600Y-8469000D02*
X10428600Y-8549000D01*
X10428600Y-8469000D02*
X10348600Y-8549000D01*
X10348600Y-8723000D02*
X10428600Y-8803000D01*
X10428600Y-8723000D02*
X10348600Y-8803000D01*
X10348600Y-8977000D02*
X10428600Y-9057000D01*
X10428600Y-8977000D02*
X10348600Y-9057000D01*
X10348600Y-9231000D02*
X10428600Y-9311000D01*
X10428600Y-9231000D02*
X10348600Y-9311000D01*
X10348600Y-9485000D02*
X10428600Y-9565000D01*
X10428600Y-9485000D02*
X10348600Y-9565000D01*
X10348600Y-9739000D02*
X10428600Y-9819000D01*
X10428600Y-9739000D02*
X10348600Y-9819000D01*
X10348600Y-9993000D02*
X10428600Y-10073000D01*
X10428600Y-9993000D02*
X10348600Y-10073000D01*
X10348600Y-10247000D02*
X10428600Y-10327000D01*
X10428600Y-10247000D02*
X10348600Y-10327000D01*
X5409400Y-7810500D02*
G75*
G02*
X5309400Y-7810500I-50000J0D01*
G01*
X5309400Y-7810500D02*
G75*
G02*
X5409400Y-7810500I50000J0D01*
G01*
X5409400Y-8064500D02*
G75*
G02*
X5309400Y-8064500I-50000J0D01*
G01*
X5309400Y-8064500D02*
G75*
G02*
X5409400Y-8064500I50000J0D01*
G01*
X5411900Y-8765000D02*
G75*
G02*
X5311900Y-8765000I-50000J0D01*
G01*
X5311900Y-8765000D02*
G75*
G02*
X5411900Y-8765000I50000J0D01*
G01*
X5411900Y-9019000D02*
G75*
G02*
X5311900Y-9019000I-50000J0D01*
G01*
X5311900Y-9019000D02*
G75*
G02*
X5411900Y-9019000I50000J0D01*
G01*
X5472900Y-6045200D02*
G75*
G02*
X5372900Y-6045200I-50000J0D01*
G01*
X5372900Y-6045200D02*
G75*
G02*
X5472900Y-6045200I50000J0D01*
G01*
X5472900Y-6299200D02*
G75*
G02*
X5372900Y-6299200I-50000J0D01*
G01*
X5372900Y-6299200D02*
G75*
G02*
X5472900Y-6299200I50000J0D01*
G01*
X5472900Y-6553200D02*
G75*
G02*
X5372900Y-6553200I-50000J0D01*
G01*
X5372900Y-6553200D02*
G75*
G02*
X5472900Y-6553200I50000J0D01*
G01*
X5472900Y-6807200D02*
G75*
G02*
X5372900Y-6807200I-50000J0D01*
G01*
X5372900Y-6807200D02*
G75*
G02*
X5472900Y-6807200I50000J0D01*
G01*
X6288200Y-7533600D02*
G75*
G02*
X6188200Y-7533600I-50000J0D01*
G01*
X6188200Y-7533600D02*
G75*
G02*
X6288200Y-7533600I50000J0D01*
G01*
X6288200Y-7787600D02*
G75*
G02*
X6188200Y-7787600I-50000J0D01*
G01*
X6188200Y-7787600D02*
G75*
G02*
X6288200Y-7787600I50000J0D01*
G01*
X6288200Y-8041600D02*
G75*
G02*
X6188200Y-8041600I-50000J0D01*
G01*
X6188200Y-8041600D02*
G75*
G02*
X6288200Y-8041600I50000J0D01*
G01*
X6288200Y-8295600D02*
G75*
G02*
X6188200Y-8295600I-50000J0D01*
G01*
X6188200Y-8295600D02*
G75*
G02*
X6288200Y-8295600I50000J0D01*
G01*
X6288200Y-8549600D02*
G75*
G02*
X6188200Y-8549600I-50000J0D01*
G01*
X6188200Y-8549600D02*
G75*
G02*
X6288200Y-8549600I50000J0D01*
G01*
X6288200Y-8803600D02*
G75*
G02*
X6188200Y-8803600I-50000J0D01*
G01*
X6188200Y-8803600D02*
G75*
G02*
X6288200Y-8803600I50000J0D01*
G01*
X6387300Y-6032500D02*
G75*
G02*
X6287300Y-6032500I-50000J0D01*
G01*
X6287300Y-6032500D02*
G75*
G02*
X6387300Y-6032500I50000J0D01*
G01*
X6387300Y-6286500D02*
G75*
G02*
X6287300Y-6286500I-50000J0D01*
G01*
X6287300Y-6286500D02*
G75*
G02*
X6387300Y-6286500I50000J0D01*
G01*
X6387300Y-6540500D02*
G75*
G02*
X6287300Y-6540500I-50000J0D01*
G01*
X6287300Y-6540500D02*
G75*
G02*
X6387300Y-6540500I50000J0D01*
G01*
X6387300Y-6794500D02*
G75*
G02*
X6287300Y-6794500I-50000J0D01*
G01*
X6287300Y-6794500D02*
G75*
G02*
X6387300Y-6794500I50000J0D01*
G01*
X6425400Y-9969500D02*
G75*
G02*
X6325400Y-9969500I-50000J0D01*
G01*
X6325400Y-9969500D02*
G75*
G02*
X6425400Y-9969500I50000J0D01*
G01*
X6476200Y-5321300D02*
G75*
G02*
X6376200Y-5321300I-50000J0D01*
G01*
X6376200Y-5321300D02*
G75*
G02*
X6476200Y-5321300I50000J0D01*
G01*
X6679400Y-9969500D02*
G75*
G02*
X6579400Y-9969500I-50000J0D01*
G01*
X6579400Y-9969500D02*
G75*
G02*
X6679400Y-9969500I50000J0D01*
G01*
X6730200Y-5321300D02*
G75*
G02*
X6630200Y-5321300I-50000J0D01*
G01*
X6630200Y-5321300D02*
G75*
G02*
X6730200Y-5321300I50000J0D01*
G01*
X6933400Y-9969500D02*
G75*
G02*
X6833400Y-9969500I-50000J0D01*
G01*
X6833400Y-9969500D02*
G75*
G02*
X6933400Y-9969500I50000J0D01*
G01*
X6984200Y-5321300D02*
G75*
G02*
X6884200Y-5321300I-50000J0D01*
G01*
X6884200Y-5321300D02*
G75*
G02*
X6984200Y-5321300I50000J0D01*
G01*
X7187400Y-9969500D02*
G75*
G02*
X7087400Y-9969500I-50000J0D01*
G01*
X7087400Y-9969500D02*
G75*
G02*
X7187400Y-9969500I50000J0D01*
G01*
X7238200Y-5321300D02*
G75*
G02*
X7138200Y-5321300I-50000J0D01*
G01*
X7138200Y-5321300D02*
G75*
G02*
X7238200Y-5321300I50000J0D01*
G01*
X7488200Y-7537600D02*
G75*
G02*
X7388200Y-7537600I-50000J0D01*
G01*
X7388200Y-7537600D02*
G75*
G02*
X7488200Y-7537600I50000J0D01*
G01*
X7488200Y-7791600D02*
G75*
G02*
X7388200Y-7791600I-50000J0D01*
G01*
X7388200Y-7791600D02*
G75*
G02*
X7488200Y-7791600I50000J0D01*
G01*
X7488200Y-8045600D02*
G75*
G02*
X7388200Y-8045600I-50000J0D01*
G01*
X7388200Y-8045600D02*
G75*
G02*
X7488200Y-8045600I50000J0D01*
G01*
X7488200Y-8299600D02*
G75*
G02*
X7388200Y-8299600I-50000J0D01*
G01*
X7388200Y-8299600D02*
G75*
G02*
X7488200Y-8299600I50000J0D01*
G01*
X7488200Y-8553600D02*
G75*
G02*
X7388200Y-8553600I-50000J0D01*
G01*
X7388200Y-8553600D02*
G75*
G02*
X7488200Y-8553600I50000J0D01*
G01*
X7488200Y-8807600D02*
G75*
G02*
X7388200Y-8807600I-50000J0D01*
G01*
X7388200Y-8807600D02*
G75*
G02*
X7488200Y-8807600I50000J0D01*
G01*
X7492200Y-5321300D02*
G75*
G02*
X7392200Y-5321300I-50000J0D01*
G01*
X7392200Y-5321300D02*
G75*
G02*
X7492200Y-5321300I50000J0D01*
G01*
X10997400Y-6121400D02*
G75*
G02*
X10897400Y-6121400I-50000J0D01*
G01*
X10897400Y-6121400D02*
G75*
G02*
X10997400Y-6121400I50000J0D01*
G01*
X10997400Y-6375400D02*
G75*
G02*
X10897400Y-6375400I-50000J0D01*
G01*
X10897400Y-6375400D02*
G75*
G02*
X10997400Y-6375400I50000J0D01*
G01*
X10997400Y-6629400D02*
G75*
G02*
X10897400Y-6629400I-50000J0D01*
G01*
X10897400Y-6629400D02*
G75*
G02*
X10997400Y-6629400I50000J0D01*
G01*
X11035500Y-8509000D02*
G75*
G02*
X10935500Y-8509000I-50000J0D01*
G01*
X10935500Y-8509000D02*
G75*
G02*
X11035500Y-8509000I50000J0D01*
G01*
X11035500Y-8763000D02*
G75*
G02*
X10935500Y-8763000I-50000J0D01*
G01*
X10935500Y-8763000D02*
G75*
G02*
X11035500Y-8763000I50000J0D01*
G01*
X11035500Y-9017000D02*
G75*
G02*
X10935500Y-9017000I-50000J0D01*
G01*
X10935500Y-9017000D02*
G75*
G02*
X11035500Y-9017000I50000J0D01*
G01*
X11035500Y-9271000D02*
G75*
G02*
X10935500Y-9271000I-50000J0D01*
G01*
X10935500Y-9271000D02*
G75*
G02*
X11035500Y-9271000I50000J0D01*
G01*
D12*
X6629800Y-10909100D02*
X6629800Y-11039100D01*
X6564800Y-10974100D02*
X6694800Y-10974100D01*
X7129800Y-10909100D02*
X7129800Y-11039100D01*
X7064800Y-10974100D02*
X7194800Y-10974100D01*
D11*
X5255777Y-11816484D02*
X5255777Y-11616484D01*
X5255777Y-11616484D02*
X5303396Y-11616484D01*
X5303396Y-11616484D02*
X5331967Y-11626008D01*
X5331967Y-11626008D02*
X5351015Y-11645055D01*
X5351015Y-11645055D02*
X5360539Y-11664103D01*
X5360539Y-11664103D02*
X5370063Y-11702198D01*
X5370063Y-11702198D02*
X5370063Y-11730769D01*
X5370063Y-11730769D02*
X5360539Y-11768865D01*
X5360539Y-11768865D02*
X5351015Y-11787912D01*
X5351015Y-11787912D02*
X5331967Y-11806960D01*
X5331967Y-11806960D02*
X5303396Y-11816484D01*
X5303396Y-11816484D02*
X5255777Y-11816484D01*
X5455777Y-11816484D02*
X5455777Y-11683150D01*
X5455777Y-11721246D02*
X5465301Y-11702198D01*
X5465301Y-11702198D02*
X5474824Y-11692674D01*
X5474824Y-11692674D02*
X5493872Y-11683150D01*
X5493872Y-11683150D02*
X5512920Y-11683150D01*
X5579586Y-11816484D02*
X5579586Y-11683150D01*
X5579586Y-11616484D02*
X5570063Y-11626008D01*
X5570063Y-11626008D02*
X5579586Y-11635531D01*
X5579586Y-11635531D02*
X5589110Y-11626008D01*
X5589110Y-11626008D02*
X5579586Y-11616484D01*
X5579586Y-11616484D02*
X5579586Y-11635531D01*
X5703396Y-11816484D02*
X5684348Y-11806960D01*
X5684348Y-11806960D02*
X5674824Y-11787912D01*
X5674824Y-11787912D02*
X5674824Y-11616484D01*
X5808158Y-11816484D02*
X5789110Y-11806960D01*
X5789110Y-11806960D02*
X5779586Y-11787912D01*
X5779586Y-11787912D02*
X5779586Y-11616484D01*
X6036729Y-11816484D02*
X6036729Y-11616484D01*
X6036729Y-11616484D02*
X6103396Y-11759341D01*
X6103396Y-11759341D02*
X6170062Y-11616484D01*
X6170062Y-11616484D02*
X6170062Y-11816484D01*
X6351015Y-11816484D02*
X6351015Y-11711722D01*
X6351015Y-11711722D02*
X6341491Y-11692674D01*
X6341491Y-11692674D02*
X6322443Y-11683150D01*
X6322443Y-11683150D02*
X6284348Y-11683150D01*
X6284348Y-11683150D02*
X6265301Y-11692674D01*
X6351015Y-11806960D02*
X6331967Y-11816484D01*
X6331967Y-11816484D02*
X6284348Y-11816484D01*
X6284348Y-11816484D02*
X6265301Y-11806960D01*
X6265301Y-11806960D02*
X6255777Y-11787912D01*
X6255777Y-11787912D02*
X6255777Y-11768865D01*
X6255777Y-11768865D02*
X6265301Y-11749817D01*
X6265301Y-11749817D02*
X6284348Y-11740293D01*
X6284348Y-11740293D02*
X6331967Y-11740293D01*
X6331967Y-11740293D02*
X6351015Y-11730769D01*
X6446253Y-11683150D02*
X6446253Y-11883150D01*
X6446253Y-11692674D02*
X6465301Y-11683150D01*
X6465301Y-11683150D02*
X6503396Y-11683150D01*
X6503396Y-11683150D02*
X6522443Y-11692674D01*
X6522443Y-11692674D02*
X6531967Y-11702198D01*
X6531967Y-11702198D02*
X6541491Y-11721246D01*
X6541491Y-11721246D02*
X6541491Y-11778388D01*
X6541491Y-11778388D02*
X6531967Y-11797436D01*
X6531967Y-11797436D02*
X6522443Y-11806960D01*
X6522443Y-11806960D02*
X6503396Y-11816484D01*
X6503396Y-11816484D02*
X6465301Y-11816484D01*
X6465301Y-11816484D02*
X6446253Y-11806960D01*
X6627205Y-11797436D02*
X6636729Y-11806960D01*
X6636729Y-11806960D02*
X6627205Y-11816484D01*
X6627205Y-11816484D02*
X6617682Y-11806960D01*
X6617682Y-11806960D02*
X6627205Y-11797436D01*
X6627205Y-11797436D02*
X6627205Y-11816484D01*
X6627205Y-11692674D02*
X6636729Y-11702198D01*
X6636729Y-11702198D02*
X6627205Y-11711722D01*
X6627205Y-11711722D02*
X6617682Y-11702198D01*
X6617682Y-11702198D02*
X6627205Y-11692674D01*
X6627205Y-11692674D02*
X6627205Y-11711722D01*
D10*
X4915000Y-12105000D02*
X4995000Y-12185000D01*
X4995000Y-12105000D02*
X4915000Y-12185000D01*
D11*
X5293872Y-12036484D02*
X5312920Y-12036484D01*
X5312920Y-12036484D02*
X5331967Y-12046008D01*
X5331967Y-12046008D02*
X5341491Y-12055531D01*
X5341491Y-12055531D02*
X5351015Y-12074579D01*
X5351015Y-12074579D02*
X5360539Y-12112674D01*
X5360539Y-12112674D02*
X5360539Y-12160293D01*
X5360539Y-12160293D02*
X5351015Y-12198388D01*
X5351015Y-12198388D02*
X5341491Y-12217436D01*
X5341491Y-12217436D02*
X5331967Y-12226960D01*
X5331967Y-12226960D02*
X5312920Y-12236484D01*
X5312920Y-12236484D02*
X5293872Y-12236484D01*
X5293872Y-12236484D02*
X5274824Y-12226960D01*
X5274824Y-12226960D02*
X5265301Y-12217436D01*
X5265301Y-12217436D02*
X5255777Y-12198388D01*
X5255777Y-12198388D02*
X5246253Y-12160293D01*
X5246253Y-12160293D02*
X5246253Y-12112674D01*
X5246253Y-12112674D02*
X5255777Y-12074579D01*
X5255777Y-12074579D02*
X5265301Y-12055531D01*
X5265301Y-12055531D02*
X5274824Y-12046008D01*
X5274824Y-12046008D02*
X5293872Y-12036484D01*
X5446253Y-12217436D02*
X5455777Y-12226960D01*
X5455777Y-12226960D02*
X5446253Y-12236484D01*
X5446253Y-12236484D02*
X5436729Y-12226960D01*
X5436729Y-12226960D02*
X5446253Y-12217436D01*
X5446253Y-12217436D02*
X5446253Y-12236484D01*
X5570063Y-12122198D02*
X5551015Y-12112674D01*
X5551015Y-12112674D02*
X5541491Y-12103150D01*
X5541491Y-12103150D02*
X5531967Y-12084103D01*
X5531967Y-12084103D02*
X5531967Y-12074579D01*
X5531967Y-12074579D02*
X5541491Y-12055531D01*
X5541491Y-12055531D02*
X5551015Y-12046008D01*
X5551015Y-12046008D02*
X5570063Y-12036484D01*
X5570063Y-12036484D02*
X5608158Y-12036484D01*
X5608158Y-12036484D02*
X5627205Y-12046008D01*
X5627205Y-12046008D02*
X5636729Y-12055531D01*
X5636729Y-12055531D02*
X5646253Y-12074579D01*
X5646253Y-12074579D02*
X5646253Y-12084103D01*
X5646253Y-12084103D02*
X5636729Y-12103150D01*
X5636729Y-12103150D02*
X5627205Y-12112674D01*
X5627205Y-12112674D02*
X5608158Y-12122198D01*
X5608158Y-12122198D02*
X5570063Y-12122198D01*
X5570063Y-12122198D02*
X5551015Y-12131722D01*
X5551015Y-12131722D02*
X5541491Y-12141246D01*
X5541491Y-12141246D02*
X5531967Y-12160293D01*
X5531967Y-12160293D02*
X5531967Y-12198388D01*
X5531967Y-12198388D02*
X5541491Y-12217436D01*
X5541491Y-12217436D02*
X5551015Y-12226960D01*
X5551015Y-12226960D02*
X5570063Y-12236484D01*
X5570063Y-12236484D02*
X5608158Y-12236484D01*
X5608158Y-12236484D02*
X5627205Y-12226960D01*
X5627205Y-12226960D02*
X5636729Y-12217436D01*
X5636729Y-12217436D02*
X5646253Y-12198388D01*
X5646253Y-12198388D02*
X5646253Y-12160293D01*
X5646253Y-12160293D02*
X5636729Y-12141246D01*
X5636729Y-12141246D02*
X5627205Y-12131722D01*
X5627205Y-12131722D02*
X5608158Y-12122198D01*
X5770062Y-12036484D02*
X5789110Y-12036484D01*
X5789110Y-12036484D02*
X5808158Y-12046008D01*
X5808158Y-12046008D02*
X5817682Y-12055531D01*
X5817682Y-12055531D02*
X5827205Y-12074579D01*
X5827205Y-12074579D02*
X5836729Y-12112674D01*
X5836729Y-12112674D02*
X5836729Y-12160293D01*
X5836729Y-12160293D02*
X5827205Y-12198388D01*
X5827205Y-12198388D02*
X5817682Y-12217436D01*
X5817682Y-12217436D02*
X5808158Y-12226960D01*
X5808158Y-12226960D02*
X5789110Y-12236484D01*
X5789110Y-12236484D02*
X5770062Y-12236484D01*
X5770062Y-12236484D02*
X5751015Y-12226960D01*
X5751015Y-12226960D02*
X5741491Y-12217436D01*
X5741491Y-12217436D02*
X5731967Y-12198388D01*
X5731967Y-12198388D02*
X5722443Y-12160293D01*
X5722443Y-12160293D02*
X5722443Y-12112674D01*
X5722443Y-12112674D02*
X5731967Y-12074579D01*
X5731967Y-12074579D02*
X5741491Y-12055531D01*
X5741491Y-12055531D02*
X5751015Y-12046008D01*
X5751015Y-12046008D02*
X5770062Y-12036484D01*
X5960539Y-12036484D02*
X5979586Y-12036484D01*
X5979586Y-12036484D02*
X5998634Y-12046008D01*
X5998634Y-12046008D02*
X6008158Y-12055531D01*
X6008158Y-12055531D02*
X6017682Y-12074579D01*
X6017682Y-12074579D02*
X6027205Y-12112674D01*
X6027205Y-12112674D02*
X6027205Y-12160293D01*
X6027205Y-12160293D02*
X6017682Y-12198388D01*
X6017682Y-12198388D02*
X6008158Y-12217436D01*
X6008158Y-12217436D02*
X5998634Y-12226960D01*
X5998634Y-12226960D02*
X5979586Y-12236484D01*
X5979586Y-12236484D02*
X5960539Y-12236484D01*
X5960539Y-12236484D02*
X5941491Y-12226960D01*
X5941491Y-12226960D02*
X5931967Y-12217436D01*
X5931967Y-12217436D02*
X5922443Y-12198388D01*
X5922443Y-12198388D02*
X5912920Y-12160293D01*
X5912920Y-12160293D02*
X5912920Y-12112674D01*
X5912920Y-12112674D02*
X5922443Y-12074579D01*
X5922443Y-12074579D02*
X5931967Y-12055531D01*
X5931967Y-12055531D02*
X5941491Y-12046008D01*
X5941491Y-12046008D02*
X5960539Y-12036484D01*
X6112920Y-12236484D02*
X6112920Y-12103150D01*
X6112920Y-12122198D02*
X6122443Y-12112674D01*
X6122443Y-12112674D02*
X6141491Y-12103150D01*
X6141491Y-12103150D02*
X6170063Y-12103150D01*
X6170063Y-12103150D02*
X6189110Y-12112674D01*
X6189110Y-12112674D02*
X6198634Y-12131722D01*
X6198634Y-12131722D02*
X6198634Y-12236484D01*
X6198634Y-12131722D02*
X6208158Y-12112674D01*
X6208158Y-12112674D02*
X6227205Y-12103150D01*
X6227205Y-12103150D02*
X6255777Y-12103150D01*
X6255777Y-12103150D02*
X6274824Y-12112674D01*
X6274824Y-12112674D02*
X6284348Y-12131722D01*
X6284348Y-12131722D02*
X6284348Y-12236484D01*
X6379586Y-12236484D02*
X6379586Y-12103150D01*
X6379586Y-12122198D02*
X6389110Y-12112674D01*
X6389110Y-12112674D02*
X6408158Y-12103150D01*
X6408158Y-12103150D02*
X6436729Y-12103150D01*
X6436729Y-12103150D02*
X6455777Y-12112674D01*
X6455777Y-12112674D02*
X6465301Y-12131722D01*
X6465301Y-12131722D02*
X6465301Y-12236484D01*
X6465301Y-12131722D02*
X6474824Y-12112674D01*
X6474824Y-12112674D02*
X6493872Y-12103150D01*
X6493872Y-12103150D02*
X6522443Y-12103150D01*
X6522443Y-12103150D02*
X6541491Y-12112674D01*
X6541491Y-12112674D02*
X6551015Y-12131722D01*
X6551015Y-12131722D02*
X6551015Y-12236484D01*
X6941491Y-12026960D02*
X6770063Y-12284103D01*
X7198634Y-12036484D02*
X7217682Y-12036484D01*
X7217682Y-12036484D02*
X7236729Y-12046008D01*
X7236729Y-12046008D02*
X7246253Y-12055531D01*
X7246253Y-12055531D02*
X7255777Y-12074579D01*
X7255777Y-12074579D02*
X7265301Y-12112674D01*
X7265301Y-12112674D02*
X7265301Y-12160293D01*
X7265301Y-12160293D02*
X7255777Y-12198388D01*
X7255777Y-12198388D02*
X7246253Y-12217436D01*
X7246253Y-12217436D02*
X7236729Y-12226960D01*
X7236729Y-12226960D02*
X7217682Y-12236484D01*
X7217682Y-12236484D02*
X7198634Y-12236484D01*
X7198634Y-12236484D02*
X7179586Y-12226960D01*
X7179586Y-12226960D02*
X7170063Y-12217436D01*
X7170063Y-12217436D02*
X7160539Y-12198388D01*
X7160539Y-12198388D02*
X7151015Y-12160293D01*
X7151015Y-12160293D02*
X7151015Y-12112674D01*
X7151015Y-12112674D02*
X7160539Y-12074579D01*
X7160539Y-12074579D02*
X7170063Y-12055531D01*
X7170063Y-12055531D02*
X7179586Y-12046008D01*
X7179586Y-12046008D02*
X7198634Y-12036484D01*
X7351015Y-12217436D02*
X7360539Y-12226960D01*
X7360539Y-12226960D02*
X7351015Y-12236484D01*
X7351015Y-12236484D02*
X7341491Y-12226960D01*
X7341491Y-12226960D02*
X7351015Y-12217436D01*
X7351015Y-12217436D02*
X7351015Y-12236484D01*
X7484348Y-12036484D02*
X7503396Y-12036484D01*
X7503396Y-12036484D02*
X7522444Y-12046008D01*
X7522444Y-12046008D02*
X7531967Y-12055531D01*
X7531967Y-12055531D02*
X7541491Y-12074579D01*
X7541491Y-12074579D02*
X7551015Y-12112674D01*
X7551015Y-12112674D02*
X7551015Y-12160293D01*
X7551015Y-12160293D02*
X7541491Y-12198388D01*
X7541491Y-12198388D02*
X7531967Y-12217436D01*
X7531967Y-12217436D02*
X7522444Y-12226960D01*
X7522444Y-12226960D02*
X7503396Y-12236484D01*
X7503396Y-12236484D02*
X7484348Y-12236484D01*
X7484348Y-12236484D02*
X7465301Y-12226960D01*
X7465301Y-12226960D02*
X7455777Y-12217436D01*
X7455777Y-12217436D02*
X7446253Y-12198388D01*
X7446253Y-12198388D02*
X7436729Y-12160293D01*
X7436729Y-12160293D02*
X7436729Y-12112674D01*
X7436729Y-12112674D02*
X7446253Y-12074579D01*
X7446253Y-12074579D02*
X7455777Y-12055531D01*
X7455777Y-12055531D02*
X7465301Y-12046008D01*
X7465301Y-12046008D02*
X7484348Y-12036484D01*
X7617682Y-12036484D02*
X7741491Y-12036484D01*
X7741491Y-12036484D02*
X7674825Y-12112674D01*
X7674825Y-12112674D02*
X7703396Y-12112674D01*
X7703396Y-12112674D02*
X7722444Y-12122198D01*
X7722444Y-12122198D02*
X7731967Y-12131722D01*
X7731967Y-12131722D02*
X7741491Y-12150769D01*
X7741491Y-12150769D02*
X7741491Y-12198388D01*
X7741491Y-12198388D02*
X7731967Y-12217436D01*
X7731967Y-12217436D02*
X7722444Y-12226960D01*
X7722444Y-12226960D02*
X7703396Y-12236484D01*
X7703396Y-12236484D02*
X7646253Y-12236484D01*
X7646253Y-12236484D02*
X7627206Y-12226960D01*
X7627206Y-12226960D02*
X7617682Y-12217436D01*
X7931967Y-12236484D02*
X7817682Y-12236484D01*
X7874825Y-12236484D02*
X7874825Y-12036484D01*
X7874825Y-12036484D02*
X7855777Y-12065055D01*
X7855777Y-12065055D02*
X7836729Y-12084103D01*
X7836729Y-12084103D02*
X7817682Y-12093627D01*
X8112920Y-12036484D02*
X8017682Y-12036484D01*
X8017682Y-12036484D02*
X8008158Y-12131722D01*
X8008158Y-12131722D02*
X8017682Y-12122198D01*
X8017682Y-12122198D02*
X8036729Y-12112674D01*
X8036729Y-12112674D02*
X8084348Y-12112674D01*
X8084348Y-12112674D02*
X8103396Y-12122198D01*
X8103396Y-12122198D02*
X8112920Y-12131722D01*
X8112920Y-12131722D02*
X8122444Y-12150769D01*
X8122444Y-12150769D02*
X8122444Y-12198388D01*
X8122444Y-12198388D02*
X8112920Y-12217436D01*
X8112920Y-12217436D02*
X8103396Y-12226960D01*
X8103396Y-12226960D02*
X8084348Y-12236484D01*
X8084348Y-12236484D02*
X8036729Y-12236484D01*
X8036729Y-12236484D02*
X8017682Y-12226960D01*
X8017682Y-12226960D02*
X8008158Y-12217436D01*
X8198634Y-12036484D02*
X8198634Y-12074579D01*
X8274825Y-12036484D02*
X8274825Y-12074579D01*
X8570063Y-12312674D02*
X8560539Y-12303150D01*
X8560539Y-12303150D02*
X8541491Y-12274579D01*
X8541491Y-12274579D02*
X8531968Y-12255531D01*
X8531968Y-12255531D02*
X8522444Y-12226960D01*
X8522444Y-12226960D02*
X8512920Y-12179341D01*
X8512920Y-12179341D02*
X8512920Y-12141246D01*
X8512920Y-12141246D02*
X8522444Y-12093627D01*
X8522444Y-12093627D02*
X8531968Y-12065055D01*
X8531968Y-12065055D02*
X8541491Y-12046008D01*
X8541491Y-12046008D02*
X8560539Y-12017436D01*
X8560539Y-12017436D02*
X8570063Y-12007912D01*
X8627206Y-12036484D02*
X8751015Y-12036484D01*
X8751015Y-12036484D02*
X8684349Y-12112674D01*
X8684349Y-12112674D02*
X8712920Y-12112674D01*
X8712920Y-12112674D02*
X8731968Y-12122198D01*
X8731968Y-12122198D02*
X8741491Y-12131722D01*
X8741491Y-12131722D02*
X8751015Y-12150769D01*
X8751015Y-12150769D02*
X8751015Y-12198388D01*
X8751015Y-12198388D02*
X8741491Y-12217436D01*
X8741491Y-12217436D02*
X8731968Y-12226960D01*
X8731968Y-12226960D02*
X8712920Y-12236484D01*
X8712920Y-12236484D02*
X8655777Y-12236484D01*
X8655777Y-12236484D02*
X8636730Y-12226960D01*
X8636730Y-12226960D02*
X8627206Y-12217436D01*
X8827206Y-12055531D02*
X8836730Y-12046008D01*
X8836730Y-12046008D02*
X8855777Y-12036484D01*
X8855777Y-12036484D02*
X8903396Y-12036484D01*
X8903396Y-12036484D02*
X8922444Y-12046008D01*
X8922444Y-12046008D02*
X8931968Y-12055531D01*
X8931968Y-12055531D02*
X8941491Y-12074579D01*
X8941491Y-12074579D02*
X8941491Y-12093627D01*
X8941491Y-12093627D02*
X8931968Y-12122198D01*
X8931968Y-12122198D02*
X8817682Y-12236484D01*
X8817682Y-12236484D02*
X8941491Y-12236484D01*
X9179587Y-12236484D02*
X9179587Y-12036484D01*
X9265301Y-12236484D02*
X9265301Y-12131722D01*
X9265301Y-12131722D02*
X9255777Y-12112674D01*
X9255777Y-12112674D02*
X9236730Y-12103150D01*
X9236730Y-12103150D02*
X9208158Y-12103150D01*
X9208158Y-12103150D02*
X9189111Y-12112674D01*
X9189111Y-12112674D02*
X9179587Y-12122198D01*
X9389111Y-12236484D02*
X9370063Y-12226960D01*
X9370063Y-12226960D02*
X9360539Y-12217436D01*
X9360539Y-12217436D02*
X9351015Y-12198388D01*
X9351015Y-12198388D02*
X9351015Y-12141246D01*
X9351015Y-12141246D02*
X9360539Y-12122198D01*
X9360539Y-12122198D02*
X9370063Y-12112674D01*
X9370063Y-12112674D02*
X9389111Y-12103150D01*
X9389111Y-12103150D02*
X9417682Y-12103150D01*
X9417682Y-12103150D02*
X9436730Y-12112674D01*
X9436730Y-12112674D02*
X9446253Y-12122198D01*
X9446253Y-12122198D02*
X9455777Y-12141246D01*
X9455777Y-12141246D02*
X9455777Y-12198388D01*
X9455777Y-12198388D02*
X9446253Y-12217436D01*
X9446253Y-12217436D02*
X9436730Y-12226960D01*
X9436730Y-12226960D02*
X9417682Y-12236484D01*
X9417682Y-12236484D02*
X9389111Y-12236484D01*
X9570063Y-12236484D02*
X9551015Y-12226960D01*
X9551015Y-12226960D02*
X9541492Y-12207912D01*
X9541492Y-12207912D02*
X9541492Y-12036484D01*
X9722444Y-12226960D02*
X9703396Y-12236484D01*
X9703396Y-12236484D02*
X9665301Y-12236484D01*
X9665301Y-12236484D02*
X9646253Y-12226960D01*
X9646253Y-12226960D02*
X9636730Y-12207912D01*
X9636730Y-12207912D02*
X9636730Y-12131722D01*
X9636730Y-12131722D02*
X9646253Y-12112674D01*
X9646253Y-12112674D02*
X9665301Y-12103150D01*
X9665301Y-12103150D02*
X9703396Y-12103150D01*
X9703396Y-12103150D02*
X9722444Y-12112674D01*
X9722444Y-12112674D02*
X9731968Y-12131722D01*
X9731968Y-12131722D02*
X9731968Y-12150769D01*
X9731968Y-12150769D02*
X9636730Y-12169817D01*
X9808158Y-12226960D02*
X9827206Y-12236484D01*
X9827206Y-12236484D02*
X9865301Y-12236484D01*
X9865301Y-12236484D02*
X9884349Y-12226960D01*
X9884349Y-12226960D02*
X9893873Y-12207912D01*
X9893873Y-12207912D02*
X9893873Y-12198388D01*
X9893873Y-12198388D02*
X9884349Y-12179341D01*
X9884349Y-12179341D02*
X9865301Y-12169817D01*
X9865301Y-12169817D02*
X9836730Y-12169817D01*
X9836730Y-12169817D02*
X9817682Y-12160293D01*
X9817682Y-12160293D02*
X9808158Y-12141246D01*
X9808158Y-12141246D02*
X9808158Y-12131722D01*
X9808158Y-12131722D02*
X9817682Y-12112674D01*
X9817682Y-12112674D02*
X9836730Y-12103150D01*
X9836730Y-12103150D02*
X9865301Y-12103150D01*
X9865301Y-12103150D02*
X9884349Y-12112674D01*
X9960539Y-12312674D02*
X9970063Y-12303150D01*
X9970063Y-12303150D02*
X9989111Y-12274579D01*
X9989111Y-12274579D02*
X9998634Y-12255531D01*
X9998634Y-12255531D02*
X10008158Y-12226960D01*
X10008158Y-12226960D02*
X10017682Y-12179341D01*
X10017682Y-12179341D02*
X10017682Y-12141246D01*
X10017682Y-12141246D02*
X10008158Y-12093627D01*
X10008158Y-12093627D02*
X9998634Y-12065055D01*
X9998634Y-12065055D02*
X9989111Y-12046008D01*
X9989111Y-12046008D02*
X9970063Y-12017436D01*
X9970063Y-12017436D02*
X9960539Y-12007912D01*
D10*
X4995000Y-12409000D02*
G75*
G02*
X4895000Y-12409000I-50000J0D01*
G01*
X4895000Y-12409000D02*
G75*
G02*
X4995000Y-12409000I50000J0D01*
G01*
D11*
X5360539Y-12500484D02*
X5246253Y-12500484D01*
X5303396Y-12500484D02*
X5303396Y-12300484D01*
X5303396Y-12300484D02*
X5284348Y-12329055D01*
X5284348Y-12329055D02*
X5265301Y-12348103D01*
X5265301Y-12348103D02*
X5246253Y-12357627D01*
X5446253Y-12481436D02*
X5455777Y-12490960D01*
X5455777Y-12490960D02*
X5446253Y-12500484D01*
X5446253Y-12500484D02*
X5436729Y-12490960D01*
X5436729Y-12490960D02*
X5446253Y-12481436D01*
X5446253Y-12481436D02*
X5446253Y-12500484D01*
X5579586Y-12300484D02*
X5598634Y-12300484D01*
X5598634Y-12300484D02*
X5617682Y-12310008D01*
X5617682Y-12310008D02*
X5627205Y-12319531D01*
X5627205Y-12319531D02*
X5636729Y-12338579D01*
X5636729Y-12338579D02*
X5646253Y-12376674D01*
X5646253Y-12376674D02*
X5646253Y-12424293D01*
X5646253Y-12424293D02*
X5636729Y-12462388D01*
X5636729Y-12462388D02*
X5627205Y-12481436D01*
X5627205Y-12481436D02*
X5617682Y-12490960D01*
X5617682Y-12490960D02*
X5598634Y-12500484D01*
X5598634Y-12500484D02*
X5579586Y-12500484D01*
X5579586Y-12500484D02*
X5560539Y-12490960D01*
X5560539Y-12490960D02*
X5551015Y-12481436D01*
X5551015Y-12481436D02*
X5541491Y-12462388D01*
X5541491Y-12462388D02*
X5531967Y-12424293D01*
X5531967Y-12424293D02*
X5531967Y-12376674D01*
X5531967Y-12376674D02*
X5541491Y-12338579D01*
X5541491Y-12338579D02*
X5551015Y-12319531D01*
X5551015Y-12319531D02*
X5560539Y-12310008D01*
X5560539Y-12310008D02*
X5579586Y-12300484D01*
X5770062Y-12300484D02*
X5789110Y-12300484D01*
X5789110Y-12300484D02*
X5808158Y-12310008D01*
X5808158Y-12310008D02*
X5817682Y-12319531D01*
X5817682Y-12319531D02*
X5827205Y-12338579D01*
X5827205Y-12338579D02*
X5836729Y-12376674D01*
X5836729Y-12376674D02*
X5836729Y-12424293D01*
X5836729Y-12424293D02*
X5827205Y-12462388D01*
X5827205Y-12462388D02*
X5817682Y-12481436D01*
X5817682Y-12481436D02*
X5808158Y-12490960D01*
X5808158Y-12490960D02*
X5789110Y-12500484D01*
X5789110Y-12500484D02*
X5770062Y-12500484D01*
X5770062Y-12500484D02*
X5751015Y-12490960D01*
X5751015Y-12490960D02*
X5741491Y-12481436D01*
X5741491Y-12481436D02*
X5731967Y-12462388D01*
X5731967Y-12462388D02*
X5722443Y-12424293D01*
X5722443Y-12424293D02*
X5722443Y-12376674D01*
X5722443Y-12376674D02*
X5731967Y-12338579D01*
X5731967Y-12338579D02*
X5741491Y-12319531D01*
X5741491Y-12319531D02*
X5751015Y-12310008D01*
X5751015Y-12310008D02*
X5770062Y-12300484D01*
X5960539Y-12300484D02*
X5979586Y-12300484D01*
X5979586Y-12300484D02*
X5998634Y-12310008D01*
X5998634Y-12310008D02*
X6008158Y-12319531D01*
X6008158Y-12319531D02*
X6017682Y-12338579D01*
X6017682Y-12338579D02*
X6027205Y-12376674D01*
X6027205Y-12376674D02*
X6027205Y-12424293D01*
X6027205Y-12424293D02*
X6017682Y-12462388D01*
X6017682Y-12462388D02*
X6008158Y-12481436D01*
X6008158Y-12481436D02*
X5998634Y-12490960D01*
X5998634Y-12490960D02*
X5979586Y-12500484D01*
X5979586Y-12500484D02*
X5960539Y-12500484D01*
X5960539Y-12500484D02*
X5941491Y-12490960D01*
X5941491Y-12490960D02*
X5931967Y-12481436D01*
X5931967Y-12481436D02*
X5922443Y-12462388D01*
X5922443Y-12462388D02*
X5912920Y-12424293D01*
X5912920Y-12424293D02*
X5912920Y-12376674D01*
X5912920Y-12376674D02*
X5922443Y-12338579D01*
X5922443Y-12338579D02*
X5931967Y-12319531D01*
X5931967Y-12319531D02*
X5941491Y-12310008D01*
X5941491Y-12310008D02*
X5960539Y-12300484D01*
X6112920Y-12500484D02*
X6112920Y-12367150D01*
X6112920Y-12386198D02*
X6122443Y-12376674D01*
X6122443Y-12376674D02*
X6141491Y-12367150D01*
X6141491Y-12367150D02*
X6170063Y-12367150D01*
X6170063Y-12367150D02*
X6189110Y-12376674D01*
X6189110Y-12376674D02*
X6198634Y-12395722D01*
X6198634Y-12395722D02*
X6198634Y-12500484D01*
X6198634Y-12395722D02*
X6208158Y-12376674D01*
X6208158Y-12376674D02*
X6227205Y-12367150D01*
X6227205Y-12367150D02*
X6255777Y-12367150D01*
X6255777Y-12367150D02*
X6274824Y-12376674D01*
X6274824Y-12376674D02*
X6284348Y-12395722D01*
X6284348Y-12395722D02*
X6284348Y-12500484D01*
X6379586Y-12500484D02*
X6379586Y-12367150D01*
X6379586Y-12386198D02*
X6389110Y-12376674D01*
X6389110Y-12376674D02*
X6408158Y-12367150D01*
X6408158Y-12367150D02*
X6436729Y-12367150D01*
X6436729Y-12367150D02*
X6455777Y-12376674D01*
X6455777Y-12376674D02*
X6465301Y-12395722D01*
X6465301Y-12395722D02*
X6465301Y-12500484D01*
X6465301Y-12395722D02*
X6474824Y-12376674D01*
X6474824Y-12376674D02*
X6493872Y-12367150D01*
X6493872Y-12367150D02*
X6522443Y-12367150D01*
X6522443Y-12367150D02*
X6541491Y-12376674D01*
X6541491Y-12376674D02*
X6551015Y-12395722D01*
X6551015Y-12395722D02*
X6551015Y-12500484D01*
X6941491Y-12290960D02*
X6770063Y-12548103D01*
X7198634Y-12300484D02*
X7217682Y-12300484D01*
X7217682Y-12300484D02*
X7236729Y-12310008D01*
X7236729Y-12310008D02*
X7246253Y-12319531D01*
X7246253Y-12319531D02*
X7255777Y-12338579D01*
X7255777Y-12338579D02*
X7265301Y-12376674D01*
X7265301Y-12376674D02*
X7265301Y-12424293D01*
X7265301Y-12424293D02*
X7255777Y-12462388D01*
X7255777Y-12462388D02*
X7246253Y-12481436D01*
X7246253Y-12481436D02*
X7236729Y-12490960D01*
X7236729Y-12490960D02*
X7217682Y-12500484D01*
X7217682Y-12500484D02*
X7198634Y-12500484D01*
X7198634Y-12500484D02*
X7179586Y-12490960D01*
X7179586Y-12490960D02*
X7170063Y-12481436D01*
X7170063Y-12481436D02*
X7160539Y-12462388D01*
X7160539Y-12462388D02*
X7151015Y-12424293D01*
X7151015Y-12424293D02*
X7151015Y-12376674D01*
X7151015Y-12376674D02*
X7160539Y-12338579D01*
X7160539Y-12338579D02*
X7170063Y-12319531D01*
X7170063Y-12319531D02*
X7179586Y-12310008D01*
X7179586Y-12310008D02*
X7198634Y-12300484D01*
X7351015Y-12481436D02*
X7360539Y-12490960D01*
X7360539Y-12490960D02*
X7351015Y-12500484D01*
X7351015Y-12500484D02*
X7341491Y-12490960D01*
X7341491Y-12490960D02*
X7351015Y-12481436D01*
X7351015Y-12481436D02*
X7351015Y-12500484D01*
X7484348Y-12300484D02*
X7503396Y-12300484D01*
X7503396Y-12300484D02*
X7522444Y-12310008D01*
X7522444Y-12310008D02*
X7531967Y-12319531D01*
X7531967Y-12319531D02*
X7541491Y-12338579D01*
X7541491Y-12338579D02*
X7551015Y-12376674D01*
X7551015Y-12376674D02*
X7551015Y-12424293D01*
X7551015Y-12424293D02*
X7541491Y-12462388D01*
X7541491Y-12462388D02*
X7531967Y-12481436D01*
X7531967Y-12481436D02*
X7522444Y-12490960D01*
X7522444Y-12490960D02*
X7503396Y-12500484D01*
X7503396Y-12500484D02*
X7484348Y-12500484D01*
X7484348Y-12500484D02*
X7465301Y-12490960D01*
X7465301Y-12490960D02*
X7455777Y-12481436D01*
X7455777Y-12481436D02*
X7446253Y-12462388D01*
X7446253Y-12462388D02*
X7436729Y-12424293D01*
X7436729Y-12424293D02*
X7436729Y-12376674D01*
X7436729Y-12376674D02*
X7446253Y-12338579D01*
X7446253Y-12338579D02*
X7455777Y-12319531D01*
X7455777Y-12319531D02*
X7465301Y-12310008D01*
X7465301Y-12310008D02*
X7484348Y-12300484D01*
X7617682Y-12300484D02*
X7741491Y-12300484D01*
X7741491Y-12300484D02*
X7674825Y-12376674D01*
X7674825Y-12376674D02*
X7703396Y-12376674D01*
X7703396Y-12376674D02*
X7722444Y-12386198D01*
X7722444Y-12386198D02*
X7731967Y-12395722D01*
X7731967Y-12395722D02*
X7741491Y-12414769D01*
X7741491Y-12414769D02*
X7741491Y-12462388D01*
X7741491Y-12462388D02*
X7731967Y-12481436D01*
X7731967Y-12481436D02*
X7722444Y-12490960D01*
X7722444Y-12490960D02*
X7703396Y-12500484D01*
X7703396Y-12500484D02*
X7646253Y-12500484D01*
X7646253Y-12500484D02*
X7627206Y-12490960D01*
X7627206Y-12490960D02*
X7617682Y-12481436D01*
X7836729Y-12500484D02*
X7874825Y-12500484D01*
X7874825Y-12500484D02*
X7893872Y-12490960D01*
X7893872Y-12490960D02*
X7903396Y-12481436D01*
X7903396Y-12481436D02*
X7922444Y-12452865D01*
X7922444Y-12452865D02*
X7931967Y-12414769D01*
X7931967Y-12414769D02*
X7931967Y-12338579D01*
X7931967Y-12338579D02*
X7922444Y-12319531D01*
X7922444Y-12319531D02*
X7912920Y-12310008D01*
X7912920Y-12310008D02*
X7893872Y-12300484D01*
X7893872Y-12300484D02*
X7855777Y-12300484D01*
X7855777Y-12300484D02*
X7836729Y-12310008D01*
X7836729Y-12310008D02*
X7827206Y-12319531D01*
X7827206Y-12319531D02*
X7817682Y-12338579D01*
X7817682Y-12338579D02*
X7817682Y-12386198D01*
X7817682Y-12386198D02*
X7827206Y-12405246D01*
X7827206Y-12405246D02*
X7836729Y-12414769D01*
X7836729Y-12414769D02*
X7855777Y-12424293D01*
X7855777Y-12424293D02*
X7893872Y-12424293D01*
X7893872Y-12424293D02*
X7912920Y-12414769D01*
X7912920Y-12414769D02*
X7922444Y-12405246D01*
X7922444Y-12405246D02*
X7931967Y-12386198D01*
X8103396Y-12367150D02*
X8103396Y-12500484D01*
X8055777Y-12290960D02*
X8008158Y-12433817D01*
X8008158Y-12433817D02*
X8131967Y-12433817D01*
X8198634Y-12300484D02*
X8198634Y-12338579D01*
X8274825Y-12300484D02*
X8274825Y-12338579D01*
X8570063Y-12576674D02*
X8560539Y-12567150D01*
X8560539Y-12567150D02*
X8541491Y-12538579D01*
X8541491Y-12538579D02*
X8531968Y-12519531D01*
X8531968Y-12519531D02*
X8522444Y-12490960D01*
X8522444Y-12490960D02*
X8512920Y-12443341D01*
X8512920Y-12443341D02*
X8512920Y-12405246D01*
X8512920Y-12405246D02*
X8522444Y-12357627D01*
X8522444Y-12357627D02*
X8531968Y-12329055D01*
X8531968Y-12329055D02*
X8541491Y-12310008D01*
X8541491Y-12310008D02*
X8560539Y-12281436D01*
X8560539Y-12281436D02*
X8570063Y-12271912D01*
X8731968Y-12367150D02*
X8731968Y-12500484D01*
X8684349Y-12290960D02*
X8636730Y-12433817D01*
X8636730Y-12433817D02*
X8760539Y-12433817D01*
X8874825Y-12300484D02*
X8893872Y-12300484D01*
X8893872Y-12300484D02*
X8912920Y-12310008D01*
X8912920Y-12310008D02*
X8922444Y-12319531D01*
X8922444Y-12319531D02*
X8931968Y-12338579D01*
X8931968Y-12338579D02*
X8941491Y-12376674D01*
X8941491Y-12376674D02*
X8941491Y-12424293D01*
X8941491Y-12424293D02*
X8931968Y-12462388D01*
X8931968Y-12462388D02*
X8922444Y-12481436D01*
X8922444Y-12481436D02*
X8912920Y-12490960D01*
X8912920Y-12490960D02*
X8893872Y-12500484D01*
X8893872Y-12500484D02*
X8874825Y-12500484D01*
X8874825Y-12500484D02*
X8855777Y-12490960D01*
X8855777Y-12490960D02*
X8846253Y-12481436D01*
X8846253Y-12481436D02*
X8836730Y-12462388D01*
X8836730Y-12462388D02*
X8827206Y-12424293D01*
X8827206Y-12424293D02*
X8827206Y-12376674D01*
X8827206Y-12376674D02*
X8836730Y-12338579D01*
X8836730Y-12338579D02*
X8846253Y-12319531D01*
X8846253Y-12319531D02*
X8855777Y-12310008D01*
X8855777Y-12310008D02*
X8874825Y-12300484D01*
X9179587Y-12500484D02*
X9179587Y-12300484D01*
X9265301Y-12500484D02*
X9265301Y-12395722D01*
X9265301Y-12395722D02*
X9255777Y-12376674D01*
X9255777Y-12376674D02*
X9236730Y-12367150D01*
X9236730Y-12367150D02*
X9208158Y-12367150D01*
X9208158Y-12367150D02*
X9189111Y-12376674D01*
X9189111Y-12376674D02*
X9179587Y-12386198D01*
X9389111Y-12500484D02*
X9370063Y-12490960D01*
X9370063Y-12490960D02*
X9360539Y-12481436D01*
X9360539Y-12481436D02*
X9351015Y-12462388D01*
X9351015Y-12462388D02*
X9351015Y-12405246D01*
X9351015Y-12405246D02*
X9360539Y-12386198D01*
X9360539Y-12386198D02*
X9370063Y-12376674D01*
X9370063Y-12376674D02*
X9389111Y-12367150D01*
X9389111Y-12367150D02*
X9417682Y-12367150D01*
X9417682Y-12367150D02*
X9436730Y-12376674D01*
X9436730Y-12376674D02*
X9446253Y-12386198D01*
X9446253Y-12386198D02*
X9455777Y-12405246D01*
X9455777Y-12405246D02*
X9455777Y-12462388D01*
X9455777Y-12462388D02*
X9446253Y-12481436D01*
X9446253Y-12481436D02*
X9436730Y-12490960D01*
X9436730Y-12490960D02*
X9417682Y-12500484D01*
X9417682Y-12500484D02*
X9389111Y-12500484D01*
X9570063Y-12500484D02*
X9551015Y-12490960D01*
X9551015Y-12490960D02*
X9541492Y-12471912D01*
X9541492Y-12471912D02*
X9541492Y-12300484D01*
X9722444Y-12490960D02*
X9703396Y-12500484D01*
X9703396Y-12500484D02*
X9665301Y-12500484D01*
X9665301Y-12500484D02*
X9646253Y-12490960D01*
X9646253Y-12490960D02*
X9636730Y-12471912D01*
X9636730Y-12471912D02*
X9636730Y-12395722D01*
X9636730Y-12395722D02*
X9646253Y-12376674D01*
X9646253Y-12376674D02*
X9665301Y-12367150D01*
X9665301Y-12367150D02*
X9703396Y-12367150D01*
X9703396Y-12367150D02*
X9722444Y-12376674D01*
X9722444Y-12376674D02*
X9731968Y-12395722D01*
X9731968Y-12395722D02*
X9731968Y-12414769D01*
X9731968Y-12414769D02*
X9636730Y-12433817D01*
X9808158Y-12490960D02*
X9827206Y-12500484D01*
X9827206Y-12500484D02*
X9865301Y-12500484D01*
X9865301Y-12500484D02*
X9884349Y-12490960D01*
X9884349Y-12490960D02*
X9893873Y-12471912D01*
X9893873Y-12471912D02*
X9893873Y-12462388D01*
X9893873Y-12462388D02*
X9884349Y-12443341D01*
X9884349Y-12443341D02*
X9865301Y-12433817D01*
X9865301Y-12433817D02*
X9836730Y-12433817D01*
X9836730Y-12433817D02*
X9817682Y-12424293D01*
X9817682Y-12424293D02*
X9808158Y-12405246D01*
X9808158Y-12405246D02*
X9808158Y-12395722D01*
X9808158Y-12395722D02*
X9817682Y-12376674D01*
X9817682Y-12376674D02*
X9836730Y-12367150D01*
X9836730Y-12367150D02*
X9865301Y-12367150D01*
X9865301Y-12367150D02*
X9884349Y-12376674D01*
X9960539Y-12576674D02*
X9970063Y-12567150D01*
X9970063Y-12567150D02*
X9989111Y-12538579D01*
X9989111Y-12538579D02*
X9998634Y-12519531D01*
X9998634Y-12519531D02*
X10008158Y-12490960D01*
X10008158Y-12490960D02*
X10017682Y-12443341D01*
X10017682Y-12443341D02*
X10017682Y-12405246D01*
X10017682Y-12405246D02*
X10008158Y-12357627D01*
X10008158Y-12357627D02*
X9998634Y-12329055D01*
X9998634Y-12329055D02*
X9989111Y-12310008D01*
X9989111Y-12310008D02*
X9970063Y-12281436D01*
X9970063Y-12281436D02*
X9960539Y-12271912D01*
D12*
X4930000Y-12608000D02*
X4930000Y-12738000D01*
X4865000Y-12673000D02*
X4995000Y-12673000D01*
D11*
X5360539Y-12764484D02*
X5246253Y-12764484D01*
X5303396Y-12764484D02*
X5303396Y-12564484D01*
X5303396Y-12564484D02*
X5284348Y-12593055D01*
X5284348Y-12593055D02*
X5265301Y-12612103D01*
X5265301Y-12612103D02*
X5246253Y-12621627D01*
X5446253Y-12745436D02*
X5455777Y-12754960D01*
X5455777Y-12754960D02*
X5446253Y-12764484D01*
X5446253Y-12764484D02*
X5436729Y-12754960D01*
X5436729Y-12754960D02*
X5446253Y-12745436D01*
X5446253Y-12745436D02*
X5446253Y-12764484D01*
X5522444Y-12564484D02*
X5646253Y-12564484D01*
X5646253Y-12564484D02*
X5579586Y-12640674D01*
X5579586Y-12640674D02*
X5608158Y-12640674D01*
X5608158Y-12640674D02*
X5627205Y-12650198D01*
X5627205Y-12650198D02*
X5636729Y-12659722D01*
X5636729Y-12659722D02*
X5646253Y-12678769D01*
X5646253Y-12678769D02*
X5646253Y-12726388D01*
X5646253Y-12726388D02*
X5636729Y-12745436D01*
X5636729Y-12745436D02*
X5627205Y-12754960D01*
X5627205Y-12754960D02*
X5608158Y-12764484D01*
X5608158Y-12764484D02*
X5551015Y-12764484D01*
X5551015Y-12764484D02*
X5531967Y-12754960D01*
X5531967Y-12754960D02*
X5522444Y-12745436D01*
X5770062Y-12564484D02*
X5789110Y-12564484D01*
X5789110Y-12564484D02*
X5808158Y-12574008D01*
X5808158Y-12574008D02*
X5817682Y-12583531D01*
X5817682Y-12583531D02*
X5827205Y-12602579D01*
X5827205Y-12602579D02*
X5836729Y-12640674D01*
X5836729Y-12640674D02*
X5836729Y-12688293D01*
X5836729Y-12688293D02*
X5827205Y-12726388D01*
X5827205Y-12726388D02*
X5817682Y-12745436D01*
X5817682Y-12745436D02*
X5808158Y-12754960D01*
X5808158Y-12754960D02*
X5789110Y-12764484D01*
X5789110Y-12764484D02*
X5770062Y-12764484D01*
X5770062Y-12764484D02*
X5751015Y-12754960D01*
X5751015Y-12754960D02*
X5741491Y-12745436D01*
X5741491Y-12745436D02*
X5731967Y-12726388D01*
X5731967Y-12726388D02*
X5722443Y-12688293D01*
X5722443Y-12688293D02*
X5722443Y-12640674D01*
X5722443Y-12640674D02*
X5731967Y-12602579D01*
X5731967Y-12602579D02*
X5741491Y-12583531D01*
X5741491Y-12583531D02*
X5751015Y-12574008D01*
X5751015Y-12574008D02*
X5770062Y-12564484D01*
X5960539Y-12564484D02*
X5979586Y-12564484D01*
X5979586Y-12564484D02*
X5998634Y-12574008D01*
X5998634Y-12574008D02*
X6008158Y-12583531D01*
X6008158Y-12583531D02*
X6017682Y-12602579D01*
X6017682Y-12602579D02*
X6027205Y-12640674D01*
X6027205Y-12640674D02*
X6027205Y-12688293D01*
X6027205Y-12688293D02*
X6017682Y-12726388D01*
X6017682Y-12726388D02*
X6008158Y-12745436D01*
X6008158Y-12745436D02*
X5998634Y-12754960D01*
X5998634Y-12754960D02*
X5979586Y-12764484D01*
X5979586Y-12764484D02*
X5960539Y-12764484D01*
X5960539Y-12764484D02*
X5941491Y-12754960D01*
X5941491Y-12754960D02*
X5931967Y-12745436D01*
X5931967Y-12745436D02*
X5922443Y-12726388D01*
X5922443Y-12726388D02*
X5912920Y-12688293D01*
X5912920Y-12688293D02*
X5912920Y-12640674D01*
X5912920Y-12640674D02*
X5922443Y-12602579D01*
X5922443Y-12602579D02*
X5931967Y-12583531D01*
X5931967Y-12583531D02*
X5941491Y-12574008D01*
X5941491Y-12574008D02*
X5960539Y-12564484D01*
X6112920Y-12764484D02*
X6112920Y-12631150D01*
X6112920Y-12650198D02*
X6122443Y-12640674D01*
X6122443Y-12640674D02*
X6141491Y-12631150D01*
X6141491Y-12631150D02*
X6170063Y-12631150D01*
X6170063Y-12631150D02*
X6189110Y-12640674D01*
X6189110Y-12640674D02*
X6198634Y-12659722D01*
X6198634Y-12659722D02*
X6198634Y-12764484D01*
X6198634Y-12659722D02*
X6208158Y-12640674D01*
X6208158Y-12640674D02*
X6227205Y-12631150D01*
X6227205Y-12631150D02*
X6255777Y-12631150D01*
X6255777Y-12631150D02*
X6274824Y-12640674D01*
X6274824Y-12640674D02*
X6284348Y-12659722D01*
X6284348Y-12659722D02*
X6284348Y-12764484D01*
X6379586Y-12764484D02*
X6379586Y-12631150D01*
X6379586Y-12650198D02*
X6389110Y-12640674D01*
X6389110Y-12640674D02*
X6408158Y-12631150D01*
X6408158Y-12631150D02*
X6436729Y-12631150D01*
X6436729Y-12631150D02*
X6455777Y-12640674D01*
X6455777Y-12640674D02*
X6465301Y-12659722D01*
X6465301Y-12659722D02*
X6465301Y-12764484D01*
X6465301Y-12659722D02*
X6474824Y-12640674D01*
X6474824Y-12640674D02*
X6493872Y-12631150D01*
X6493872Y-12631150D02*
X6522443Y-12631150D01*
X6522443Y-12631150D02*
X6541491Y-12640674D01*
X6541491Y-12640674D02*
X6551015Y-12659722D01*
X6551015Y-12659722D02*
X6551015Y-12764484D01*
X6941491Y-12554960D02*
X6770063Y-12812103D01*
X7198634Y-12564484D02*
X7217682Y-12564484D01*
X7217682Y-12564484D02*
X7236729Y-12574008D01*
X7236729Y-12574008D02*
X7246253Y-12583531D01*
X7246253Y-12583531D02*
X7255777Y-12602579D01*
X7255777Y-12602579D02*
X7265301Y-12640674D01*
X7265301Y-12640674D02*
X7265301Y-12688293D01*
X7265301Y-12688293D02*
X7255777Y-12726388D01*
X7255777Y-12726388D02*
X7246253Y-12745436D01*
X7246253Y-12745436D02*
X7236729Y-12754960D01*
X7236729Y-12754960D02*
X7217682Y-12764484D01*
X7217682Y-12764484D02*
X7198634Y-12764484D01*
X7198634Y-12764484D02*
X7179586Y-12754960D01*
X7179586Y-12754960D02*
X7170063Y-12745436D01*
X7170063Y-12745436D02*
X7160539Y-12726388D01*
X7160539Y-12726388D02*
X7151015Y-12688293D01*
X7151015Y-12688293D02*
X7151015Y-12640674D01*
X7151015Y-12640674D02*
X7160539Y-12602579D01*
X7160539Y-12602579D02*
X7170063Y-12583531D01*
X7170063Y-12583531D02*
X7179586Y-12574008D01*
X7179586Y-12574008D02*
X7198634Y-12564484D01*
X7351015Y-12745436D02*
X7360539Y-12754960D01*
X7360539Y-12754960D02*
X7351015Y-12764484D01*
X7351015Y-12764484D02*
X7341491Y-12754960D01*
X7341491Y-12754960D02*
X7351015Y-12745436D01*
X7351015Y-12745436D02*
X7351015Y-12764484D01*
X7484348Y-12564484D02*
X7503396Y-12564484D01*
X7503396Y-12564484D02*
X7522444Y-12574008D01*
X7522444Y-12574008D02*
X7531967Y-12583531D01*
X7531967Y-12583531D02*
X7541491Y-12602579D01*
X7541491Y-12602579D02*
X7551015Y-12640674D01*
X7551015Y-12640674D02*
X7551015Y-12688293D01*
X7551015Y-12688293D02*
X7541491Y-12726388D01*
X7541491Y-12726388D02*
X7531967Y-12745436D01*
X7531967Y-12745436D02*
X7522444Y-12754960D01*
X7522444Y-12754960D02*
X7503396Y-12764484D01*
X7503396Y-12764484D02*
X7484348Y-12764484D01*
X7484348Y-12764484D02*
X7465301Y-12754960D01*
X7465301Y-12754960D02*
X7455777Y-12745436D01*
X7455777Y-12745436D02*
X7446253Y-12726388D01*
X7446253Y-12726388D02*
X7436729Y-12688293D01*
X7436729Y-12688293D02*
X7436729Y-12640674D01*
X7436729Y-12640674D02*
X7446253Y-12602579D01*
X7446253Y-12602579D02*
X7455777Y-12583531D01*
X7455777Y-12583531D02*
X7465301Y-12574008D01*
X7465301Y-12574008D02*
X7484348Y-12564484D01*
X7731967Y-12564484D02*
X7636729Y-12564484D01*
X7636729Y-12564484D02*
X7627206Y-12659722D01*
X7627206Y-12659722D02*
X7636729Y-12650198D01*
X7636729Y-12650198D02*
X7655777Y-12640674D01*
X7655777Y-12640674D02*
X7703396Y-12640674D01*
X7703396Y-12640674D02*
X7722444Y-12650198D01*
X7722444Y-12650198D02*
X7731967Y-12659722D01*
X7731967Y-12659722D02*
X7741491Y-12678769D01*
X7741491Y-12678769D02*
X7741491Y-12726388D01*
X7741491Y-12726388D02*
X7731967Y-12745436D01*
X7731967Y-12745436D02*
X7722444Y-12754960D01*
X7722444Y-12754960D02*
X7703396Y-12764484D01*
X7703396Y-12764484D02*
X7655777Y-12764484D01*
X7655777Y-12764484D02*
X7636729Y-12754960D01*
X7636729Y-12754960D02*
X7627206Y-12745436D01*
X7931967Y-12764484D02*
X7817682Y-12764484D01*
X7874825Y-12764484D02*
X7874825Y-12564484D01*
X7874825Y-12564484D02*
X7855777Y-12593055D01*
X7855777Y-12593055D02*
X7836729Y-12612103D01*
X7836729Y-12612103D02*
X7817682Y-12621627D01*
X8008158Y-12583531D02*
X8017682Y-12574008D01*
X8017682Y-12574008D02*
X8036729Y-12564484D01*
X8036729Y-12564484D02*
X8084348Y-12564484D01*
X8084348Y-12564484D02*
X8103396Y-12574008D01*
X8103396Y-12574008D02*
X8112920Y-12583531D01*
X8112920Y-12583531D02*
X8122444Y-12602579D01*
X8122444Y-12602579D02*
X8122444Y-12621627D01*
X8122444Y-12621627D02*
X8112920Y-12650198D01*
X8112920Y-12650198D02*
X7998634Y-12764484D01*
X7998634Y-12764484D02*
X8122444Y-12764484D01*
X8198634Y-12564484D02*
X8198634Y-12602579D01*
X8274825Y-12564484D02*
X8274825Y-12602579D01*
X8570063Y-12840674D02*
X8560539Y-12831150D01*
X8560539Y-12831150D02*
X8541491Y-12802579D01*
X8541491Y-12802579D02*
X8531968Y-12783531D01*
X8531968Y-12783531D02*
X8522444Y-12754960D01*
X8522444Y-12754960D02*
X8512920Y-12707341D01*
X8512920Y-12707341D02*
X8512920Y-12669246D01*
X8512920Y-12669246D02*
X8522444Y-12621627D01*
X8522444Y-12621627D02*
X8531968Y-12593055D01*
X8531968Y-12593055D02*
X8541491Y-12574008D01*
X8541491Y-12574008D02*
X8560539Y-12545436D01*
X8560539Y-12545436D02*
X8570063Y-12535912D01*
X8636730Y-12583531D02*
X8646253Y-12574008D01*
X8646253Y-12574008D02*
X8665301Y-12564484D01*
X8665301Y-12564484D02*
X8712920Y-12564484D01*
X8712920Y-12564484D02*
X8731968Y-12574008D01*
X8731968Y-12574008D02*
X8741491Y-12583531D01*
X8741491Y-12583531D02*
X8751015Y-12602579D01*
X8751015Y-12602579D02*
X8751015Y-12621627D01*
X8751015Y-12621627D02*
X8741491Y-12650198D01*
X8741491Y-12650198D02*
X8627206Y-12764484D01*
X8627206Y-12764484D02*
X8751015Y-12764484D01*
X8989111Y-12764484D02*
X8989111Y-12564484D01*
X9074825Y-12764484D02*
X9074825Y-12659722D01*
X9074825Y-12659722D02*
X9065301Y-12640674D01*
X9065301Y-12640674D02*
X9046253Y-12631150D01*
X9046253Y-12631150D02*
X9017682Y-12631150D01*
X9017682Y-12631150D02*
X8998634Y-12640674D01*
X8998634Y-12640674D02*
X8989111Y-12650198D01*
X9198634Y-12764484D02*
X9179587Y-12754960D01*
X9179587Y-12754960D02*
X9170063Y-12745436D01*
X9170063Y-12745436D02*
X9160539Y-12726388D01*
X9160539Y-12726388D02*
X9160539Y-12669246D01*
X9160539Y-12669246D02*
X9170063Y-12650198D01*
X9170063Y-12650198D02*
X9179587Y-12640674D01*
X9179587Y-12640674D02*
X9198634Y-12631150D01*
X9198634Y-12631150D02*
X9227206Y-12631150D01*
X9227206Y-12631150D02*
X9246253Y-12640674D01*
X9246253Y-12640674D02*
X9255777Y-12650198D01*
X9255777Y-12650198D02*
X9265301Y-12669246D01*
X9265301Y-12669246D02*
X9265301Y-12726388D01*
X9265301Y-12726388D02*
X9255777Y-12745436D01*
X9255777Y-12745436D02*
X9246253Y-12754960D01*
X9246253Y-12754960D02*
X9227206Y-12764484D01*
X9227206Y-12764484D02*
X9198634Y-12764484D01*
X9379587Y-12764484D02*
X9360539Y-12754960D01*
X9360539Y-12754960D02*
X9351015Y-12735912D01*
X9351015Y-12735912D02*
X9351015Y-12564484D01*
X9531968Y-12754960D02*
X9512920Y-12764484D01*
X9512920Y-12764484D02*
X9474825Y-12764484D01*
X9474825Y-12764484D02*
X9455777Y-12754960D01*
X9455777Y-12754960D02*
X9446253Y-12735912D01*
X9446253Y-12735912D02*
X9446253Y-12659722D01*
X9446253Y-12659722D02*
X9455777Y-12640674D01*
X9455777Y-12640674D02*
X9474825Y-12631150D01*
X9474825Y-12631150D02*
X9512920Y-12631150D01*
X9512920Y-12631150D02*
X9531968Y-12640674D01*
X9531968Y-12640674D02*
X9541492Y-12659722D01*
X9541492Y-12659722D02*
X9541492Y-12678769D01*
X9541492Y-12678769D02*
X9446253Y-12697817D01*
X9617682Y-12754960D02*
X9636730Y-12764484D01*
X9636730Y-12764484D02*
X9674825Y-12764484D01*
X9674825Y-12764484D02*
X9693873Y-12754960D01*
X9693873Y-12754960D02*
X9703396Y-12735912D01*
X9703396Y-12735912D02*
X9703396Y-12726388D01*
X9703396Y-12726388D02*
X9693873Y-12707341D01*
X9693873Y-12707341D02*
X9674825Y-12697817D01*
X9674825Y-12697817D02*
X9646253Y-12697817D01*
X9646253Y-12697817D02*
X9627206Y-12688293D01*
X9627206Y-12688293D02*
X9617682Y-12669246D01*
X9617682Y-12669246D02*
X9617682Y-12659722D01*
X9617682Y-12659722D02*
X9627206Y-12640674D01*
X9627206Y-12640674D02*
X9646253Y-12631150D01*
X9646253Y-12631150D02*
X9674825Y-12631150D01*
X9674825Y-12631150D02*
X9693873Y-12640674D01*
X9770063Y-12840674D02*
X9779587Y-12831150D01*
X9779587Y-12831150D02*
X9798634Y-12802579D01*
X9798634Y-12802579D02*
X9808158Y-12783531D01*
X9808158Y-12783531D02*
X9817682Y-12754960D01*
X9817682Y-12754960D02*
X9827206Y-12707341D01*
X9827206Y-12707341D02*
X9827206Y-12669246D01*
X9827206Y-12669246D02*
X9817682Y-12621627D01*
X9817682Y-12621627D02*
X9808158Y-12593055D01*
X9808158Y-12593055D02*
X9798634Y-12574008D01*
X9798634Y-12574008D02*
X9779587Y-12545436D01*
X9779587Y-12545436D02*
X9770063Y-12535912D01*
M02*
