%TF.GenerationSoftware,KiCad,Pcbnew,9.0.7*%
%TF.CreationDate,2026-02-19T11:28:30-05:00*%
%TF.ProjectId,project_pcba,70726f6a-6563-4745-9f70-6362612e6b69,rev?*%
%TF.SameCoordinates,Original*%
%TF.FileFunction,Drillmap*%
%TF.FilePolarity,Positive*%
%FSLAX45Y45*%
G04 Gerber Fmt 4.5, Leading zero omitted, Abs format (unit mm)*
G04 Created by KiCad (PCBNEW 9.0.7) date 2026-02-19 11:28:30*
%MOMM*%
%LPD*%
G01*
G04 APERTURE LIST*
%ADD10C,0.100000*%
%ADD11C,0.200000*%
%ADD12C,0.320000*%
G04 APERTURE END LIST*
D10*
X5000000Y-5000000D02*
X11500000Y-5000000D01*
X11500000Y-11500000D01*
X5000000Y-11500000D01*
X5000000Y-5000000D01*
D11*
D12*
X5186700Y-5186700D02*
X5506700Y-5506700D01*
X5506700Y-5186700D02*
X5186700Y-5506700D01*
X5186700Y-10990600D02*
X5506700Y-11310600D01*
X5506700Y-10990600D02*
X5186700Y-11310600D01*
X10990600Y-5186700D02*
X11310600Y-5506700D01*
X11310600Y-5186700D02*
X10990600Y-5506700D01*
X10990600Y-10990600D02*
X11310600Y-11310600D01*
X11310600Y-10990600D02*
X10990600Y-11310600D01*
D11*
X5255777Y-11816484D02*
X5255777Y-11616484D01*
X5255777Y-11616484D02*
X5303396Y-11616484D01*
X5303396Y-11616484D02*
X5331967Y-11626008D01*
X5331967Y-11626008D02*
X5351015Y-11645055D01*
X5351015Y-11645055D02*
X5360539Y-11664103D01*
X5360539Y-11664103D02*
X5370063Y-11702198D01*
X5370063Y-11702198D02*
X5370063Y-11730769D01*
X5370063Y-11730769D02*
X5360539Y-11768865D01*
X5360539Y-11768865D02*
X5351015Y-11787912D01*
X5351015Y-11787912D02*
X5331967Y-11806960D01*
X5331967Y-11806960D02*
X5303396Y-11816484D01*
X5303396Y-11816484D02*
X5255777Y-11816484D01*
X5455777Y-11816484D02*
X5455777Y-11683150D01*
X5455777Y-11721246D02*
X5465301Y-11702198D01*
X5465301Y-11702198D02*
X5474824Y-11692674D01*
X5474824Y-11692674D02*
X5493872Y-11683150D01*
X5493872Y-11683150D02*
X5512920Y-11683150D01*
X5579586Y-11816484D02*
X5579586Y-11683150D01*
X5579586Y-11616484D02*
X5570063Y-11626008D01*
X5570063Y-11626008D02*
X5579586Y-11635531D01*
X5579586Y-11635531D02*
X5589110Y-11626008D01*
X5589110Y-11626008D02*
X5579586Y-11616484D01*
X5579586Y-11616484D02*
X5579586Y-11635531D01*
X5703396Y-11816484D02*
X5684348Y-11806960D01*
X5684348Y-11806960D02*
X5674824Y-11787912D01*
X5674824Y-11787912D02*
X5674824Y-11616484D01*
X5808158Y-11816484D02*
X5789110Y-11806960D01*
X5789110Y-11806960D02*
X5779586Y-11787912D01*
X5779586Y-11787912D02*
X5779586Y-11616484D01*
X6036729Y-11816484D02*
X6036729Y-11616484D01*
X6036729Y-11616484D02*
X6103396Y-11759341D01*
X6103396Y-11759341D02*
X6170062Y-11616484D01*
X6170062Y-11616484D02*
X6170062Y-11816484D01*
X6351015Y-11816484D02*
X6351015Y-11711722D01*
X6351015Y-11711722D02*
X6341491Y-11692674D01*
X6341491Y-11692674D02*
X6322443Y-11683150D01*
X6322443Y-11683150D02*
X6284348Y-11683150D01*
X6284348Y-11683150D02*
X6265301Y-11692674D01*
X6351015Y-11806960D02*
X6331967Y-11816484D01*
X6331967Y-11816484D02*
X6284348Y-11816484D01*
X6284348Y-11816484D02*
X6265301Y-11806960D01*
X6265301Y-11806960D02*
X6255777Y-11787912D01*
X6255777Y-11787912D02*
X6255777Y-11768865D01*
X6255777Y-11768865D02*
X6265301Y-11749817D01*
X6265301Y-11749817D02*
X6284348Y-11740293D01*
X6284348Y-11740293D02*
X6331967Y-11740293D01*
X6331967Y-11740293D02*
X6351015Y-11730769D01*
X6446253Y-11683150D02*
X6446253Y-11883150D01*
X6446253Y-11692674D02*
X6465301Y-11683150D01*
X6465301Y-11683150D02*
X6503396Y-11683150D01*
X6503396Y-11683150D02*
X6522443Y-11692674D01*
X6522443Y-11692674D02*
X6531967Y-11702198D01*
X6531967Y-11702198D02*
X6541491Y-11721246D01*
X6541491Y-11721246D02*
X6541491Y-11778388D01*
X6541491Y-11778388D02*
X6531967Y-11797436D01*
X6531967Y-11797436D02*
X6522443Y-11806960D01*
X6522443Y-11806960D02*
X6503396Y-11816484D01*
X6503396Y-11816484D02*
X6465301Y-11816484D01*
X6465301Y-11816484D02*
X6446253Y-11806960D01*
X6627205Y-11797436D02*
X6636729Y-11806960D01*
X6636729Y-11806960D02*
X6627205Y-11816484D01*
X6627205Y-11816484D02*
X6617682Y-11806960D01*
X6617682Y-11806960D02*
X6627205Y-11797436D01*
X6627205Y-11797436D02*
X6627205Y-11816484D01*
X6627205Y-11692674D02*
X6636729Y-11702198D01*
X6636729Y-11702198D02*
X6627205Y-11711722D01*
X6627205Y-11711722D02*
X6617682Y-11702198D01*
X6617682Y-11702198D02*
X6627205Y-11692674D01*
X6627205Y-11692674D02*
X6627205Y-11711722D01*
X4795000Y-12045000D02*
X4995000Y-12245000D01*
X4995000Y-12045000D02*
X4795000Y-12245000D01*
X5236729Y-12036484D02*
X5360539Y-12036484D01*
X5360539Y-12036484D02*
X5293872Y-12112674D01*
X5293872Y-12112674D02*
X5322444Y-12112674D01*
X5322444Y-12112674D02*
X5341491Y-12122198D01*
X5341491Y-12122198D02*
X5351015Y-12131722D01*
X5351015Y-12131722D02*
X5360539Y-12150769D01*
X5360539Y-12150769D02*
X5360539Y-12198388D01*
X5360539Y-12198388D02*
X5351015Y-12217436D01*
X5351015Y-12217436D02*
X5341491Y-12226960D01*
X5341491Y-12226960D02*
X5322444Y-12236484D01*
X5322444Y-12236484D02*
X5265301Y-12236484D01*
X5265301Y-12236484D02*
X5246253Y-12226960D01*
X5246253Y-12226960D02*
X5236729Y-12217436D01*
X5446253Y-12217436D02*
X5455777Y-12226960D01*
X5455777Y-12226960D02*
X5446253Y-12236484D01*
X5446253Y-12236484D02*
X5436729Y-12226960D01*
X5436729Y-12226960D02*
X5446253Y-12217436D01*
X5446253Y-12217436D02*
X5446253Y-12236484D01*
X5531967Y-12055531D02*
X5541491Y-12046008D01*
X5541491Y-12046008D02*
X5560539Y-12036484D01*
X5560539Y-12036484D02*
X5608158Y-12036484D01*
X5608158Y-12036484D02*
X5627205Y-12046008D01*
X5627205Y-12046008D02*
X5636729Y-12055531D01*
X5636729Y-12055531D02*
X5646253Y-12074579D01*
X5646253Y-12074579D02*
X5646253Y-12093627D01*
X5646253Y-12093627D02*
X5636729Y-12122198D01*
X5636729Y-12122198D02*
X5522444Y-12236484D01*
X5522444Y-12236484D02*
X5646253Y-12236484D01*
X5770062Y-12036484D02*
X5789110Y-12036484D01*
X5789110Y-12036484D02*
X5808158Y-12046008D01*
X5808158Y-12046008D02*
X5817682Y-12055531D01*
X5817682Y-12055531D02*
X5827205Y-12074579D01*
X5827205Y-12074579D02*
X5836729Y-12112674D01*
X5836729Y-12112674D02*
X5836729Y-12160293D01*
X5836729Y-12160293D02*
X5827205Y-12198388D01*
X5827205Y-12198388D02*
X5817682Y-12217436D01*
X5817682Y-12217436D02*
X5808158Y-12226960D01*
X5808158Y-12226960D02*
X5789110Y-12236484D01*
X5789110Y-12236484D02*
X5770062Y-12236484D01*
X5770062Y-12236484D02*
X5751015Y-12226960D01*
X5751015Y-12226960D02*
X5741491Y-12217436D01*
X5741491Y-12217436D02*
X5731967Y-12198388D01*
X5731967Y-12198388D02*
X5722443Y-12160293D01*
X5722443Y-12160293D02*
X5722443Y-12112674D01*
X5722443Y-12112674D02*
X5731967Y-12074579D01*
X5731967Y-12074579D02*
X5741491Y-12055531D01*
X5741491Y-12055531D02*
X5751015Y-12046008D01*
X5751015Y-12046008D02*
X5770062Y-12036484D01*
X5960539Y-12036484D02*
X5979586Y-12036484D01*
X5979586Y-12036484D02*
X5998634Y-12046008D01*
X5998634Y-12046008D02*
X6008158Y-12055531D01*
X6008158Y-12055531D02*
X6017682Y-12074579D01*
X6017682Y-12074579D02*
X6027205Y-12112674D01*
X6027205Y-12112674D02*
X6027205Y-12160293D01*
X6027205Y-12160293D02*
X6017682Y-12198388D01*
X6017682Y-12198388D02*
X6008158Y-12217436D01*
X6008158Y-12217436D02*
X5998634Y-12226960D01*
X5998634Y-12226960D02*
X5979586Y-12236484D01*
X5979586Y-12236484D02*
X5960539Y-12236484D01*
X5960539Y-12236484D02*
X5941491Y-12226960D01*
X5941491Y-12226960D02*
X5931967Y-12217436D01*
X5931967Y-12217436D02*
X5922443Y-12198388D01*
X5922443Y-12198388D02*
X5912920Y-12160293D01*
X5912920Y-12160293D02*
X5912920Y-12112674D01*
X5912920Y-12112674D02*
X5922443Y-12074579D01*
X5922443Y-12074579D02*
X5931967Y-12055531D01*
X5931967Y-12055531D02*
X5941491Y-12046008D01*
X5941491Y-12046008D02*
X5960539Y-12036484D01*
X6112920Y-12236484D02*
X6112920Y-12103150D01*
X6112920Y-12122198D02*
X6122443Y-12112674D01*
X6122443Y-12112674D02*
X6141491Y-12103150D01*
X6141491Y-12103150D02*
X6170063Y-12103150D01*
X6170063Y-12103150D02*
X6189110Y-12112674D01*
X6189110Y-12112674D02*
X6198634Y-12131722D01*
X6198634Y-12131722D02*
X6198634Y-12236484D01*
X6198634Y-12131722D02*
X6208158Y-12112674D01*
X6208158Y-12112674D02*
X6227205Y-12103150D01*
X6227205Y-12103150D02*
X6255777Y-12103150D01*
X6255777Y-12103150D02*
X6274824Y-12112674D01*
X6274824Y-12112674D02*
X6284348Y-12131722D01*
X6284348Y-12131722D02*
X6284348Y-12236484D01*
X6379586Y-12236484D02*
X6379586Y-12103150D01*
X6379586Y-12122198D02*
X6389110Y-12112674D01*
X6389110Y-12112674D02*
X6408158Y-12103150D01*
X6408158Y-12103150D02*
X6436729Y-12103150D01*
X6436729Y-12103150D02*
X6455777Y-12112674D01*
X6455777Y-12112674D02*
X6465301Y-12131722D01*
X6465301Y-12131722D02*
X6465301Y-12236484D01*
X6465301Y-12131722D02*
X6474824Y-12112674D01*
X6474824Y-12112674D02*
X6493872Y-12103150D01*
X6493872Y-12103150D02*
X6522443Y-12103150D01*
X6522443Y-12103150D02*
X6541491Y-12112674D01*
X6541491Y-12112674D02*
X6551015Y-12131722D01*
X6551015Y-12131722D02*
X6551015Y-12236484D01*
X6941491Y-12026960D02*
X6770063Y-12284103D01*
X7198634Y-12036484D02*
X7217682Y-12036484D01*
X7217682Y-12036484D02*
X7236729Y-12046008D01*
X7236729Y-12046008D02*
X7246253Y-12055531D01*
X7246253Y-12055531D02*
X7255777Y-12074579D01*
X7255777Y-12074579D02*
X7265301Y-12112674D01*
X7265301Y-12112674D02*
X7265301Y-12160293D01*
X7265301Y-12160293D02*
X7255777Y-12198388D01*
X7255777Y-12198388D02*
X7246253Y-12217436D01*
X7246253Y-12217436D02*
X7236729Y-12226960D01*
X7236729Y-12226960D02*
X7217682Y-12236484D01*
X7217682Y-12236484D02*
X7198634Y-12236484D01*
X7198634Y-12236484D02*
X7179586Y-12226960D01*
X7179586Y-12226960D02*
X7170063Y-12217436D01*
X7170063Y-12217436D02*
X7160539Y-12198388D01*
X7160539Y-12198388D02*
X7151015Y-12160293D01*
X7151015Y-12160293D02*
X7151015Y-12112674D01*
X7151015Y-12112674D02*
X7160539Y-12074579D01*
X7160539Y-12074579D02*
X7170063Y-12055531D01*
X7170063Y-12055531D02*
X7179586Y-12046008D01*
X7179586Y-12046008D02*
X7198634Y-12036484D01*
X7351015Y-12217436D02*
X7360539Y-12226960D01*
X7360539Y-12226960D02*
X7351015Y-12236484D01*
X7351015Y-12236484D02*
X7341491Y-12226960D01*
X7341491Y-12226960D02*
X7351015Y-12217436D01*
X7351015Y-12217436D02*
X7351015Y-12236484D01*
X7551015Y-12236484D02*
X7436729Y-12236484D01*
X7493872Y-12236484D02*
X7493872Y-12036484D01*
X7493872Y-12036484D02*
X7474825Y-12065055D01*
X7474825Y-12065055D02*
X7455777Y-12084103D01*
X7455777Y-12084103D02*
X7436729Y-12093627D01*
X7627206Y-12055531D02*
X7636729Y-12046008D01*
X7636729Y-12046008D02*
X7655777Y-12036484D01*
X7655777Y-12036484D02*
X7703396Y-12036484D01*
X7703396Y-12036484D02*
X7722444Y-12046008D01*
X7722444Y-12046008D02*
X7731967Y-12055531D01*
X7731967Y-12055531D02*
X7741491Y-12074579D01*
X7741491Y-12074579D02*
X7741491Y-12093627D01*
X7741491Y-12093627D02*
X7731967Y-12122198D01*
X7731967Y-12122198D02*
X7617682Y-12236484D01*
X7617682Y-12236484D02*
X7741491Y-12236484D01*
X7912920Y-12036484D02*
X7874825Y-12036484D01*
X7874825Y-12036484D02*
X7855777Y-12046008D01*
X7855777Y-12046008D02*
X7846253Y-12055531D01*
X7846253Y-12055531D02*
X7827206Y-12084103D01*
X7827206Y-12084103D02*
X7817682Y-12122198D01*
X7817682Y-12122198D02*
X7817682Y-12198388D01*
X7817682Y-12198388D02*
X7827206Y-12217436D01*
X7827206Y-12217436D02*
X7836729Y-12226960D01*
X7836729Y-12226960D02*
X7855777Y-12236484D01*
X7855777Y-12236484D02*
X7893872Y-12236484D01*
X7893872Y-12236484D02*
X7912920Y-12226960D01*
X7912920Y-12226960D02*
X7922444Y-12217436D01*
X7922444Y-12217436D02*
X7931967Y-12198388D01*
X7931967Y-12198388D02*
X7931967Y-12150769D01*
X7931967Y-12150769D02*
X7922444Y-12131722D01*
X7922444Y-12131722D02*
X7912920Y-12122198D01*
X7912920Y-12122198D02*
X7893872Y-12112674D01*
X7893872Y-12112674D02*
X7855777Y-12112674D01*
X7855777Y-12112674D02*
X7836729Y-12122198D01*
X7836729Y-12122198D02*
X7827206Y-12131722D01*
X7827206Y-12131722D02*
X7817682Y-12150769D01*
X8055777Y-12036484D02*
X8074825Y-12036484D01*
X8074825Y-12036484D02*
X8093872Y-12046008D01*
X8093872Y-12046008D02*
X8103396Y-12055531D01*
X8103396Y-12055531D02*
X8112920Y-12074579D01*
X8112920Y-12074579D02*
X8122444Y-12112674D01*
X8122444Y-12112674D02*
X8122444Y-12160293D01*
X8122444Y-12160293D02*
X8112920Y-12198388D01*
X8112920Y-12198388D02*
X8103396Y-12217436D01*
X8103396Y-12217436D02*
X8093872Y-12226960D01*
X8093872Y-12226960D02*
X8074825Y-12236484D01*
X8074825Y-12236484D02*
X8055777Y-12236484D01*
X8055777Y-12236484D02*
X8036729Y-12226960D01*
X8036729Y-12226960D02*
X8027206Y-12217436D01*
X8027206Y-12217436D02*
X8017682Y-12198388D01*
X8017682Y-12198388D02*
X8008158Y-12160293D01*
X8008158Y-12160293D02*
X8008158Y-12112674D01*
X8008158Y-12112674D02*
X8017682Y-12074579D01*
X8017682Y-12074579D02*
X8027206Y-12055531D01*
X8027206Y-12055531D02*
X8036729Y-12046008D01*
X8036729Y-12046008D02*
X8055777Y-12036484D01*
X8198634Y-12036484D02*
X8198634Y-12074579D01*
X8274825Y-12036484D02*
X8274825Y-12074579D01*
X8570063Y-12312674D02*
X8560539Y-12303150D01*
X8560539Y-12303150D02*
X8541491Y-12274579D01*
X8541491Y-12274579D02*
X8531968Y-12255531D01*
X8531968Y-12255531D02*
X8522444Y-12226960D01*
X8522444Y-12226960D02*
X8512920Y-12179341D01*
X8512920Y-12179341D02*
X8512920Y-12141246D01*
X8512920Y-12141246D02*
X8522444Y-12093627D01*
X8522444Y-12093627D02*
X8531968Y-12065055D01*
X8531968Y-12065055D02*
X8541491Y-12046008D01*
X8541491Y-12046008D02*
X8560539Y-12017436D01*
X8560539Y-12017436D02*
X8570063Y-12007912D01*
X8731968Y-12103150D02*
X8731968Y-12236484D01*
X8684349Y-12026960D02*
X8636730Y-12169817D01*
X8636730Y-12169817D02*
X8760539Y-12169817D01*
X8989111Y-12236484D02*
X8989111Y-12036484D01*
X9074825Y-12236484D02*
X9074825Y-12131722D01*
X9074825Y-12131722D02*
X9065301Y-12112674D01*
X9065301Y-12112674D02*
X9046253Y-12103150D01*
X9046253Y-12103150D02*
X9017682Y-12103150D01*
X9017682Y-12103150D02*
X8998634Y-12112674D01*
X8998634Y-12112674D02*
X8989111Y-12122198D01*
X9198634Y-12236484D02*
X9179587Y-12226960D01*
X9179587Y-12226960D02*
X9170063Y-12217436D01*
X9170063Y-12217436D02*
X9160539Y-12198388D01*
X9160539Y-12198388D02*
X9160539Y-12141246D01*
X9160539Y-12141246D02*
X9170063Y-12122198D01*
X9170063Y-12122198D02*
X9179587Y-12112674D01*
X9179587Y-12112674D02*
X9198634Y-12103150D01*
X9198634Y-12103150D02*
X9227206Y-12103150D01*
X9227206Y-12103150D02*
X9246253Y-12112674D01*
X9246253Y-12112674D02*
X9255777Y-12122198D01*
X9255777Y-12122198D02*
X9265301Y-12141246D01*
X9265301Y-12141246D02*
X9265301Y-12198388D01*
X9265301Y-12198388D02*
X9255777Y-12217436D01*
X9255777Y-12217436D02*
X9246253Y-12226960D01*
X9246253Y-12226960D02*
X9227206Y-12236484D01*
X9227206Y-12236484D02*
X9198634Y-12236484D01*
X9379587Y-12236484D02*
X9360539Y-12226960D01*
X9360539Y-12226960D02*
X9351015Y-12207912D01*
X9351015Y-12207912D02*
X9351015Y-12036484D01*
X9531968Y-12226960D02*
X9512920Y-12236484D01*
X9512920Y-12236484D02*
X9474825Y-12236484D01*
X9474825Y-12236484D02*
X9455777Y-12226960D01*
X9455777Y-12226960D02*
X9446253Y-12207912D01*
X9446253Y-12207912D02*
X9446253Y-12131722D01*
X9446253Y-12131722D02*
X9455777Y-12112674D01*
X9455777Y-12112674D02*
X9474825Y-12103150D01*
X9474825Y-12103150D02*
X9512920Y-12103150D01*
X9512920Y-12103150D02*
X9531968Y-12112674D01*
X9531968Y-12112674D02*
X9541492Y-12131722D01*
X9541492Y-12131722D02*
X9541492Y-12150769D01*
X9541492Y-12150769D02*
X9446253Y-12169817D01*
X9617682Y-12226960D02*
X9636730Y-12236484D01*
X9636730Y-12236484D02*
X9674825Y-12236484D01*
X9674825Y-12236484D02*
X9693873Y-12226960D01*
X9693873Y-12226960D02*
X9703396Y-12207912D01*
X9703396Y-12207912D02*
X9703396Y-12198388D01*
X9703396Y-12198388D02*
X9693873Y-12179341D01*
X9693873Y-12179341D02*
X9674825Y-12169817D01*
X9674825Y-12169817D02*
X9646253Y-12169817D01*
X9646253Y-12169817D02*
X9627206Y-12160293D01*
X9627206Y-12160293D02*
X9617682Y-12141246D01*
X9617682Y-12141246D02*
X9617682Y-12131722D01*
X9617682Y-12131722D02*
X9627206Y-12112674D01*
X9627206Y-12112674D02*
X9646253Y-12103150D01*
X9646253Y-12103150D02*
X9674825Y-12103150D01*
X9674825Y-12103150D02*
X9693873Y-12112674D01*
X9770063Y-12312674D02*
X9779587Y-12303150D01*
X9779587Y-12303150D02*
X9798634Y-12274579D01*
X9798634Y-12274579D02*
X9808158Y-12255531D01*
X9808158Y-12255531D02*
X9817682Y-12226960D01*
X9817682Y-12226960D02*
X9827206Y-12179341D01*
X9827206Y-12179341D02*
X9827206Y-12141246D01*
X9827206Y-12141246D02*
X9817682Y-12093627D01*
X9817682Y-12093627D02*
X9808158Y-12065055D01*
X9808158Y-12065055D02*
X9798634Y-12046008D01*
X9798634Y-12046008D02*
X9779587Y-12017436D01*
X9779587Y-12017436D02*
X9770063Y-12007912D01*
X10131968Y-12312674D02*
X10122444Y-12303150D01*
X10122444Y-12303150D02*
X10103396Y-12274579D01*
X10103396Y-12274579D02*
X10093873Y-12255531D01*
X10093873Y-12255531D02*
X10084349Y-12226960D01*
X10084349Y-12226960D02*
X10074825Y-12179341D01*
X10074825Y-12179341D02*
X10074825Y-12141246D01*
X10074825Y-12141246D02*
X10084349Y-12093627D01*
X10084349Y-12093627D02*
X10093873Y-12065055D01*
X10093873Y-12065055D02*
X10103396Y-12046008D01*
X10103396Y-12046008D02*
X10122444Y-12017436D01*
X10122444Y-12017436D02*
X10131968Y-12007912D01*
X10208158Y-12103150D02*
X10208158Y-12236484D01*
X10208158Y-12122198D02*
X10217682Y-12112674D01*
X10217682Y-12112674D02*
X10236730Y-12103150D01*
X10236730Y-12103150D02*
X10265301Y-12103150D01*
X10265301Y-12103150D02*
X10284349Y-12112674D01*
X10284349Y-12112674D02*
X10293873Y-12131722D01*
X10293873Y-12131722D02*
X10293873Y-12236484D01*
X10417682Y-12236484D02*
X10398634Y-12226960D01*
X10398634Y-12226960D02*
X10389111Y-12217436D01*
X10389111Y-12217436D02*
X10379587Y-12198388D01*
X10379587Y-12198388D02*
X10379587Y-12141246D01*
X10379587Y-12141246D02*
X10389111Y-12122198D01*
X10389111Y-12122198D02*
X10398634Y-12112674D01*
X10398634Y-12112674D02*
X10417682Y-12103150D01*
X10417682Y-12103150D02*
X10446254Y-12103150D01*
X10446254Y-12103150D02*
X10465301Y-12112674D01*
X10465301Y-12112674D02*
X10474825Y-12122198D01*
X10474825Y-12122198D02*
X10484349Y-12141246D01*
X10484349Y-12141246D02*
X10484349Y-12198388D01*
X10484349Y-12198388D02*
X10474825Y-12217436D01*
X10474825Y-12217436D02*
X10465301Y-12226960D01*
X10465301Y-12226960D02*
X10446254Y-12236484D01*
X10446254Y-12236484D02*
X10417682Y-12236484D01*
X10541492Y-12103150D02*
X10617682Y-12103150D01*
X10570063Y-12036484D02*
X10570063Y-12207912D01*
X10570063Y-12207912D02*
X10579587Y-12226960D01*
X10579587Y-12226960D02*
X10598634Y-12236484D01*
X10598634Y-12236484D02*
X10617682Y-12236484D01*
X10836730Y-12103150D02*
X10836730Y-12303150D01*
X10836730Y-12112674D02*
X10855777Y-12103150D01*
X10855777Y-12103150D02*
X10893873Y-12103150D01*
X10893873Y-12103150D02*
X10912920Y-12112674D01*
X10912920Y-12112674D02*
X10922444Y-12122198D01*
X10922444Y-12122198D02*
X10931968Y-12141246D01*
X10931968Y-12141246D02*
X10931968Y-12198388D01*
X10931968Y-12198388D02*
X10922444Y-12217436D01*
X10922444Y-12217436D02*
X10912920Y-12226960D01*
X10912920Y-12226960D02*
X10893873Y-12236484D01*
X10893873Y-12236484D02*
X10855777Y-12236484D01*
X10855777Y-12236484D02*
X10836730Y-12226960D01*
X11046254Y-12236484D02*
X11027206Y-12226960D01*
X11027206Y-12226960D02*
X11017682Y-12207912D01*
X11017682Y-12207912D02*
X11017682Y-12036484D01*
X11208158Y-12236484D02*
X11208158Y-12131722D01*
X11208158Y-12131722D02*
X11198634Y-12112674D01*
X11198634Y-12112674D02*
X11179587Y-12103150D01*
X11179587Y-12103150D02*
X11141492Y-12103150D01*
X11141492Y-12103150D02*
X11122444Y-12112674D01*
X11208158Y-12226960D02*
X11189111Y-12236484D01*
X11189111Y-12236484D02*
X11141492Y-12236484D01*
X11141492Y-12236484D02*
X11122444Y-12226960D01*
X11122444Y-12226960D02*
X11112920Y-12207912D01*
X11112920Y-12207912D02*
X11112920Y-12188865D01*
X11112920Y-12188865D02*
X11122444Y-12169817D01*
X11122444Y-12169817D02*
X11141492Y-12160293D01*
X11141492Y-12160293D02*
X11189111Y-12160293D01*
X11189111Y-12160293D02*
X11208158Y-12150769D01*
X11274825Y-12103150D02*
X11351015Y-12103150D01*
X11303396Y-12036484D02*
X11303396Y-12207912D01*
X11303396Y-12207912D02*
X11312920Y-12226960D01*
X11312920Y-12226960D02*
X11331968Y-12236484D01*
X11331968Y-12236484D02*
X11351015Y-12236484D01*
X11493873Y-12226960D02*
X11474825Y-12236484D01*
X11474825Y-12236484D02*
X11436730Y-12236484D01*
X11436730Y-12236484D02*
X11417682Y-12226960D01*
X11417682Y-12226960D02*
X11408158Y-12207912D01*
X11408158Y-12207912D02*
X11408158Y-12131722D01*
X11408158Y-12131722D02*
X11417682Y-12112674D01*
X11417682Y-12112674D02*
X11436730Y-12103150D01*
X11436730Y-12103150D02*
X11474825Y-12103150D01*
X11474825Y-12103150D02*
X11493873Y-12112674D01*
X11493873Y-12112674D02*
X11503396Y-12131722D01*
X11503396Y-12131722D02*
X11503396Y-12150769D01*
X11503396Y-12150769D02*
X11408158Y-12169817D01*
X11674825Y-12236484D02*
X11674825Y-12036484D01*
X11674825Y-12226960D02*
X11655777Y-12236484D01*
X11655777Y-12236484D02*
X11617682Y-12236484D01*
X11617682Y-12236484D02*
X11598634Y-12226960D01*
X11598634Y-12226960D02*
X11589111Y-12217436D01*
X11589111Y-12217436D02*
X11579587Y-12198388D01*
X11579587Y-12198388D02*
X11579587Y-12141246D01*
X11579587Y-12141246D02*
X11589111Y-12122198D01*
X11589111Y-12122198D02*
X11598634Y-12112674D01*
X11598634Y-12112674D02*
X11617682Y-12103150D01*
X11617682Y-12103150D02*
X11655777Y-12103150D01*
X11655777Y-12103150D02*
X11674825Y-12112674D01*
X11751015Y-12312674D02*
X11760539Y-12303150D01*
X11760539Y-12303150D02*
X11779587Y-12274579D01*
X11779587Y-12274579D02*
X11789111Y-12255531D01*
X11789111Y-12255531D02*
X11798634Y-12226960D01*
X11798634Y-12226960D02*
X11808158Y-12179341D01*
X11808158Y-12179341D02*
X11808158Y-12141246D01*
X11808158Y-12141246D02*
X11798634Y-12093627D01*
X11798634Y-12093627D02*
X11789111Y-12065055D01*
X11789111Y-12065055D02*
X11779587Y-12046008D01*
X11779587Y-12046008D02*
X11760539Y-12017436D01*
X11760539Y-12017436D02*
X11751015Y-12007912D01*
M02*
