M48
; DRILL file {KiCad 9.0.7} date 2026-02-19T11:28:30-0500
; FORMAT={-:-/ absolute / metric / decimal}
; #@! TF.CreationDate,2026-02-19T11:28:30-05:00
; #@! TF.GenerationSoftware,Kicad,Pcbnew,9.0.7
; #@! TF.FileFunction,Plated,1,2,PTH
FMAT,2
METRIC
; #@! TA.AperFunction,Plated,PTH,ComponentDrill
T1C0.800
; #@! TA.AperFunction,Plated,PTH,ComponentDrill
T2C1.000
; #@! TA.AperFunction,Plated,PTH,ComponentDrill
T3C1.300
%
G90
G05
T1
X81.026Y-64.77
X81.026Y-67.31
X81.026Y-69.85
X81.026Y-72.39
X81.026Y-74.93
X81.026Y-77.47
X81.026Y-80.01
X81.026Y-82.55
X81.026Y-85.09
X81.026Y-87.63
X81.026Y-90.17
X81.026Y-92.71
X81.026Y-95.25
X81.026Y-97.79
X81.026Y-100.33
X81.026Y-102.87
X103.886Y-64.77
X103.886Y-67.31
X103.886Y-69.85
X103.886Y-72.39
X103.886Y-74.93
X103.886Y-77.47
X103.886Y-80.01
X103.886Y-82.55
X103.886Y-85.09
X103.886Y-87.63
X103.886Y-90.17
X103.886Y-92.71
X103.886Y-95.25
X103.886Y-97.79
X103.886Y-100.33
X103.886Y-102.87
T2
X53.594Y-78.105
X53.594Y-80.645
X53.619Y-87.65
X53.619Y-90.19
X54.229Y-60.452
X54.229Y-62.992
X54.229Y-65.532
X54.229Y-68.072
X62.382Y-75.336
X62.382Y-77.876
X62.382Y-80.416
X62.382Y-82.956
X62.382Y-85.496
X62.382Y-88.036
X63.373Y-60.325
X63.373Y-62.865
X63.373Y-65.405
X63.373Y-67.945
X63.754Y-99.695
X64.262Y-53.213
X66.294Y-99.695
X66.802Y-53.213
X68.834Y-99.695
X69.342Y-53.213
X71.374Y-99.695
X71.882Y-53.213
X74.382Y-75.376
X74.382Y-77.916
X74.382Y-80.456
X74.382Y-82.996
X74.382Y-85.536
X74.382Y-88.076
X74.422Y-53.213
X109.474Y-61.214
X109.474Y-63.754
X109.474Y-66.294
X109.855Y-85.09
X109.855Y-87.63
X109.855Y-90.17
X109.855Y-92.71
T3
X66.298Y-109.741
X71.298Y-109.741
M30
