%TF.GenerationSoftware,KiCad,Pcbnew,9.0.7*%
%TF.CreationDate,2026-02-19T11:27:47-05:00*%
%TF.ProjectId,project_pcba,70726f6a-6563-4745-9f70-6362612e6b69,rev?*%
%TF.SameCoordinates,Original*%
%TF.FileFunction,Copper,L2,Bot*%
%TF.FilePolarity,Positive*%
%FSLAX46Y46*%
G04 Gerber Fmt 4.6, Leading zero omitted, Abs format (unit mm)*
G04 Created by KiCad (PCBNEW 9.0.7) date 2026-02-19 11:27:47*
%MOMM*%
%LPD*%
G01*
G04 APERTURE LIST*
G04 Aperture macros list*
%AMRoundRect*
0 Rectangle with rounded corners*
0 $1 Rounding radius*
0 $2 $3 $4 $5 $6 $7 $8 $9 X,Y pos of 4 corners*
0 Add a 4 corners polygon primitive as box body*
4,1,4,$2,$3,$4,$5,$6,$7,$8,$9,$2,$3,0*
0 Add four circle primitives for the rounded corners*
1,1,$1+$1,$2,$3*
1,1,$1+$1,$4,$5*
1,1,$1+$1,$6,$7*
1,1,$1+$1,$8,$9*
0 Add four rect primitives between the rounded corners*
20,1,$1+$1,$2,$3,$4,$5,0*
20,1,$1+$1,$4,$5,$6,$7,0*
20,1,$1+$1,$6,$7,$8,$9,0*
20,1,$1+$1,$8,$9,$2,$3,0*%
G04 Aperture macros list end*
%TA.AperFunction,ComponentPad*%
%ADD10R,1.700000X1.700000*%
%TD*%
%TA.AperFunction,ComponentPad*%
%ADD11C,1.700000*%
%TD*%
%TA.AperFunction,ComponentPad*%
%ADD12R,2.000000X1.200000*%
%TD*%
%TA.AperFunction,ComponentPad*%
%ADD13O,2.000000X1.200000*%
%TD*%
%TA.AperFunction,ComponentPad*%
%ADD14RoundRect,0.249999X-1.250001X-1.250001X1.250001X-1.250001X1.250001X1.250001X-1.250001X1.250001X0*%
%TD*%
%TA.AperFunction,ComponentPad*%
%ADD15C,3.000000*%
%TD*%
G04 APERTURE END LIST*
D10*
%TO.P,J2,1,Pin_1*%
%TO.N,/Vin*%
X63754000Y-99695000D03*
D11*
%TO.P,J2,2,Pin_2*%
X66294000Y-99695000D03*
%TO.P,J2,3,Pin_3*%
%TO.N,5V*%
X68834000Y-99695000D03*
%TO.P,J2,4,Pin_4*%
%TO.N,GND*%
X71374000Y-99695000D03*
%TD*%
D10*
%TO.P,J4,1,Pin_1*%
%TO.N,GND*%
X54229000Y-60452000D03*
D11*
%TO.P,J4,2,Pin_2*%
%TO.N,5V*%
X54229000Y-62992000D03*
%TO.P,J4,3,Pin_3*%
%TO.N,/SCL*%
X54229000Y-65532000D03*
%TO.P,J4,4,Pin_4*%
%TO.N,/SDA*%
X54229000Y-68072000D03*
%TD*%
D10*
%TO.P,J3,1,Pin_1*%
%TO.N,GND*%
X63373000Y-60325000D03*
D11*
%TO.P,J3,2,Pin_2*%
%TO.N,5V*%
X63373000Y-62865000D03*
%TO.P,J3,3,Pin_3*%
%TO.N,/SCL*%
X63373000Y-65405000D03*
%TO.P,J3,4,Pin_4*%
%TO.N,/SDA*%
X63373000Y-67945000D03*
%TD*%
D12*
%TO.P,U1,1,3V3*%
%TO.N,unconnected-(U1-3V3-Pad1)*%
X81026000Y-64770000D03*
D13*
%TO.P,U1,2,EN/RESET*%
%TO.N,unconnected-(U1-EN{slash}RESET-Pad2)*%
X81026000Y-67310000D03*
%TO.P,U1,3,GPIO4/MTMS*%
%TO.N,/AMP*%
X81026000Y-69850000D03*
%TO.P,U1,4,GPIO5/MTDI*%
%TO.N,/SCL*%
X81026000Y-72390000D03*
%TO.P,U1,5,GPIO6*%
%TO.N,/SDA*%
X81026000Y-74930000D03*
%TO.P,U1,6,GPIO7*%
%TO.N,/LED*%
X81026000Y-77470000D03*
%TO.P,U1,7,GPIO0*%
%TO.N,unconnected-(U1-GPIO0-Pad7)*%
X81026000Y-80010000D03*
%TO.P,U1,8,GPIO1*%
%TO.N,unconnected-(U1-GPIO1-Pad8)*%
X81026000Y-82550000D03*
%TO.P,U1,9,GPIO8/BOOT*%
%TO.N,unconnected-(U1-GPIO8{slash}BOOT-Pad9)*%
X81026000Y-85090000D03*
%TO.P,U1,10,GPIO10*%
%TO.N,/M2F*%
X81026000Y-87630000D03*
%TO.P,U1,11,GPIO11*%
%TO.N,/M2R*%
X81026000Y-90170000D03*
%TO.P,U1,12,GPIO2*%
%TO.N,/M1F*%
X81026000Y-92710000D03*
%TO.P,U1,13,GPIO3*%
%TO.N,/M1R*%
X81026000Y-95250000D03*
%TO.P,U1,14,5V*%
%TO.N,5V*%
X81026000Y-97790000D03*
%TO.P,U1,15,GND*%
%TO.N,GND*%
X81026000Y-100330000D03*
%TO.P,U1,16,NC*%
%TO.N,unconnected-(U1-NC-Pad16)*%
X81026000Y-102870000D03*
%TO.P,U1,17,NC*%
%TO.N,unconnected-(U1-NC-Pad17)*%
X103886000Y-102870000D03*
%TO.P,U1,18,GND*%
%TO.N,GND*%
X103886000Y-100330000D03*
%TO.P,U1,19,GPIO12/USB_D-*%
%TO.N,unconnected-(U1-GPIO12{slash}USB_D--Pad19)*%
X103886000Y-97790000D03*
%TO.P,U1,20,GPIO13/USB_D+*%
%TO.N,unconnected-(U1-GPIO13{slash}USB_D+-Pad20)*%
X103886000Y-95250000D03*
%TO.P,U1,21,GND*%
%TO.N,unconnected-(U1-GND-Pad21)*%
X103886000Y-92710000D03*
%TO.P,U1,22,GPIO9/BOOT*%
%TO.N,unconnected-(U1-GPIO9{slash}BOOT-Pad22)*%
X103886000Y-90170000D03*
%TO.P,U1,23,GPIO18*%
%TO.N,/LeftSensor*%
X103886000Y-87630000D03*
%TO.P,U1,24,GPIO19*%
%TO.N,/RightSensor*%
X103886000Y-85090000D03*
%TO.P,U1,25,GPIO20*%
%TO.N,unconnected-(U1-GPIO20-Pad25)*%
X103886000Y-82550000D03*
%TO.P,U1,26,GPIO21*%
%TO.N,unconnected-(U1-GPIO21-Pad26)*%
X103886000Y-80010000D03*
%TO.P,U1,27,GPIO22*%
%TO.N,unconnected-(U1-GPIO22-Pad27)*%
X103886000Y-77470000D03*
%TO.P,U1,28,GPIO23*%
%TO.N,unconnected-(U1-GPIO23-Pad28)*%
X103886000Y-74930000D03*
%TO.P,U1,29,GPIO15/JTAG*%
%TO.N,unconnected-(U1-GPIO15{slash}JTAG-Pad29)*%
X103886000Y-72390000D03*
%TO.P,U1,30,GPIO17/U0RXD*%
%TO.N,unconnected-(U1-GPIO17{slash}U0RXD-Pad30)*%
X103886000Y-69850000D03*
%TO.P,U1,31,GPIO16/U0TXD*%
%TO.N,unconnected-(U1-GPIO16{slash}U0TXD-Pad31)*%
X103886000Y-67310000D03*
%TO.P,U1,32,GND*%
%TO.N,GND*%
X103886000Y-64770000D03*
%TD*%
D10*
%TO.P,J11,1,Pin_1*%
%TO.N,/RightSensor*%
X109855000Y-85090000D03*
D11*
%TO.P,J11,2,Pin_2*%
%TO.N,/LeftSensor*%
X109855000Y-87630000D03*
%TO.P,J11,3,Pin_3*%
%TO.N,5V*%
X109855000Y-90170000D03*
%TO.P,J11,4,Pin_4*%
%TO.N,GND*%
X109855000Y-92710000D03*
%TD*%
D14*
%TO.P,J1,1,Pin_1*%
%TO.N,/Vin*%
X66298000Y-109741000D03*
D15*
%TO.P,J1,2,Pin_2*%
%TO.N,GND*%
X71298000Y-109741000D03*
%TD*%
D10*
%TO.P,J9,1,Pin_1*%
%TO.N,Net-(J8-Pin_2)*%
X53594000Y-78105000D03*
D11*
%TO.P,J9,2,Pin_2*%
%TO.N,Net-(J8-Pin_3)*%
X53594000Y-80645000D03*
%TD*%
D10*
%TO.P,J7,1,Pin_1*%
%TO.N,/M2F*%
X74382000Y-75376000D03*
D11*
%TO.P,J7,2,Pin_2*%
%TO.N,/M2R*%
X74382000Y-77916000D03*
%TO.P,J7,3,Pin_3*%
%TO.N,GND*%
X74382000Y-80456000D03*
%TO.P,J7,4,Pin_4*%
%TO.N,/Vin*%
X74382000Y-82996000D03*
%TO.P,J7,5,Pin_5*%
%TO.N,/M1F*%
X74382000Y-85536000D03*
%TO.P,J7,6,Pin_6*%
%TO.N,/M1R*%
X74382000Y-88076000D03*
%TD*%
D10*
%TO.P,J8,1,Pin_1*%
%TO.N,unconnected-(J8-Pin_1-Pad1)*%
X62382000Y-75336000D03*
D11*
%TO.P,J8,2,Pin_2*%
%TO.N,Net-(J8-Pin_2)*%
X62382000Y-77876000D03*
%TO.P,J8,3,Pin_3*%
%TO.N,Net-(J8-Pin_3)*%
X62382000Y-80416000D03*
%TO.P,J8,4,Pin_4*%
%TO.N,Net-(J10-Pin_1)*%
X62382000Y-82956000D03*
%TO.P,J8,5,Pin_5*%
%TO.N,Net-(J10-Pin_2)*%
X62382000Y-85496000D03*
%TO.P,J8,6,Pin_6*%
%TO.N,unconnected-(J8-Pin_6-Pad6)*%
X62382000Y-88036000D03*
%TD*%
D10*
%TO.P,J10,1,Pin_1*%
%TO.N,Net-(J10-Pin_1)*%
X53619000Y-87650000D03*
D11*
%TO.P,J10,2,Pin_2*%
%TO.N,Net-(J10-Pin_2)*%
X53619000Y-90190000D03*
%TD*%
D10*
%TO.P,J6,1,Pin_1*%
%TO.N,5V*%
X109474000Y-66294000D03*
D11*
%TO.P,J6,2,Pin_2*%
%TO.N,/LED*%
X109474000Y-63754000D03*
%TO.P,J6,3,Pin_3*%
%TO.N,GND*%
X109474000Y-61214000D03*
%TD*%
D10*
%TO.P,J5,1,Pin_1*%
%TO.N,GND*%
X64262000Y-53213000D03*
D11*
%TO.P,J5,2,Pin_2*%
%TO.N,5V*%
X66802000Y-53213000D03*
%TO.P,J5,3,Pin_3*%
%TO.N,/AMP*%
X69342000Y-53213000D03*
%TO.P,J5,4,Pin_4*%
%TO.N,unconnected-(J5-Pin_4-Pad4)*%
X71882000Y-53213000D03*
%TO.P,J5,5,Pin_5*%
%TO.N,unconnected-(J5-Pin_5-Pad5)*%
X74422000Y-53213000D03*
%TD*%
%TA.AperFunction,Conductor*%
%TO.N,GND*%
G36*
X114942539Y-50020185D02*
G01*
X114988294Y-50072989D01*
X114999500Y-50124500D01*
X114999500Y-114875500D01*
X114979815Y-114942539D01*
X114927011Y-114988294D01*
X114875500Y-114999500D01*
X50124500Y-114999500D01*
X50057461Y-114979815D01*
X50011706Y-114927011D01*
X50000500Y-114875500D01*
X50000500Y-111384711D01*
X51616500Y-111384711D01*
X51616500Y-111627288D01*
X51648161Y-111867785D01*
X51710947Y-112102104D01*
X51803773Y-112326205D01*
X51803776Y-112326212D01*
X51925064Y-112536289D01*
X51925066Y-112536292D01*
X51925067Y-112536293D01*
X52072733Y-112728736D01*
X52072739Y-112728743D01*
X52244256Y-112900260D01*
X52244262Y-112900265D01*
X52436711Y-113047936D01*
X52646788Y-113169224D01*
X52870900Y-113262054D01*
X53105211Y-113324838D01*
X53285586Y-113348584D01*
X53345711Y-113356500D01*
X53345712Y-113356500D01*
X53588289Y-113356500D01*
X53636388Y-113350167D01*
X53828789Y-113324838D01*
X54063100Y-113262054D01*
X54287212Y-113169224D01*
X54497289Y-113047936D01*
X54689738Y-112900265D01*
X54861265Y-112728738D01*
X55008936Y-112536289D01*
X55130224Y-112326212D01*
X55223054Y-112102100D01*
X55285838Y-111867789D01*
X55317500Y-111627288D01*
X55317500Y-111384712D01*
X55285838Y-111144211D01*
X55223054Y-110909900D01*
X55130224Y-110685788D01*
X55008936Y-110475711D01*
X54861265Y-110283262D01*
X54861260Y-110283256D01*
X54689743Y-110111739D01*
X54689736Y-110111733D01*
X54497293Y-109964067D01*
X54497292Y-109964066D01*
X54497289Y-109964064D01*
X54287212Y-109842776D01*
X54287205Y-109842773D01*
X54063104Y-109749947D01*
X53828785Y-109687161D01*
X53588289Y-109655500D01*
X53588288Y-109655500D01*
X53345712Y-109655500D01*
X53345711Y-109655500D01*
X53105214Y-109687161D01*
X52870895Y-109749947D01*
X52646794Y-109842773D01*
X52646785Y-109842777D01*
X52436706Y-109964067D01*
X52244263Y-110111733D01*
X52244256Y-110111739D01*
X52072739Y-110283256D01*
X52072733Y-110283263D01*
X51925067Y-110475706D01*
X51803777Y-110685785D01*
X51803773Y-110685794D01*
X51710947Y-110909895D01*
X51648161Y-111144214D01*
X51616500Y-111384711D01*
X50000500Y-111384711D01*
X50000500Y-108440982D01*
X64297500Y-108440982D01*
X64297500Y-111041017D01*
X64308000Y-111143796D01*
X64363185Y-111310332D01*
X64363187Y-111310337D01*
X64369714Y-111320919D01*
X64455288Y-111459656D01*
X64579344Y-111583712D01*
X64728665Y-111675814D01*
X64895202Y-111730999D01*
X64997990Y-111741500D01*
X64997995Y-111741500D01*
X67598005Y-111741500D01*
X67598010Y-111741500D01*
X67700798Y-111730999D01*
X67867335Y-111675814D01*
X68016656Y-111583712D01*
X68140712Y-111459656D01*
X68232814Y-111310335D01*
X68287999Y-111143798D01*
X68298500Y-111041010D01*
X68298500Y-109609905D01*
X69298000Y-109609905D01*
X69298000Y-109872094D01*
X69332220Y-110132009D01*
X69332222Y-110132020D01*
X69400075Y-110385255D01*
X69500404Y-110627471D01*
X69500409Y-110627482D01*
X69631488Y-110854516D01*
X69631494Y-110854524D01*
X69718080Y-110967365D01*
X70696958Y-109988487D01*
X70721978Y-110048890D01*
X70793112Y-110155351D01*
X70883649Y-110245888D01*
X70990110Y-110317022D01*
X71050511Y-110342041D01*
X70071633Y-111320917D01*
X70071633Y-111320918D01*
X70184475Y-111407505D01*
X70184483Y-111407511D01*
X70411517Y-111538590D01*
X70411528Y-111538595D01*
X70653744Y-111638924D01*
X70906979Y-111706777D01*
X70906990Y-111706779D01*
X71166905Y-111740999D01*
X71166920Y-111741000D01*
X71429080Y-111741000D01*
X71429094Y-111740999D01*
X71689009Y-111706779D01*
X71689020Y-111706777D01*
X71942255Y-111638924D01*
X72184471Y-111538595D01*
X72184482Y-111538590D01*
X72411516Y-111407511D01*
X72411534Y-111407499D01*
X72441231Y-111384711D01*
X109655500Y-111384711D01*
X109655500Y-111627288D01*
X109687161Y-111867785D01*
X109749947Y-112102104D01*
X109842773Y-112326205D01*
X109842776Y-112326212D01*
X109964064Y-112536289D01*
X109964066Y-112536292D01*
X109964067Y-112536293D01*
X110111733Y-112728736D01*
X110111739Y-112728743D01*
X110283256Y-112900260D01*
X110283262Y-112900265D01*
X110475711Y-113047936D01*
X110685788Y-113169224D01*
X110909900Y-113262054D01*
X111144211Y-113324838D01*
X111324586Y-113348584D01*
X111384711Y-113356500D01*
X111384712Y-113356500D01*
X111627289Y-113356500D01*
X111675388Y-113350167D01*
X111867789Y-113324838D01*
X112102100Y-113262054D01*
X112326212Y-113169224D01*
X112536289Y-113047936D01*
X112728738Y-112900265D01*
X112900265Y-112728738D01*
X113047936Y-112536289D01*
X113169224Y-112326212D01*
X113262054Y-112102100D01*
X113324838Y-111867789D01*
X113356500Y-111627288D01*
X113356500Y-111384712D01*
X113324838Y-111144211D01*
X113262054Y-110909900D01*
X113169224Y-110685788D01*
X113047936Y-110475711D01*
X112900265Y-110283262D01*
X112900260Y-110283256D01*
X112728743Y-110111739D01*
X112728736Y-110111733D01*
X112536293Y-109964067D01*
X112536292Y-109964066D01*
X112536289Y-109964064D01*
X112326212Y-109842776D01*
X112326205Y-109842773D01*
X112102104Y-109749947D01*
X111867785Y-109687161D01*
X111627289Y-109655500D01*
X111627288Y-109655500D01*
X111384712Y-109655500D01*
X111384711Y-109655500D01*
X111144214Y-109687161D01*
X110909895Y-109749947D01*
X110685794Y-109842773D01*
X110685785Y-109842777D01*
X110475706Y-109964067D01*
X110283263Y-110111733D01*
X110283256Y-110111739D01*
X110111739Y-110283256D01*
X110111733Y-110283263D01*
X109964067Y-110475706D01*
X109842777Y-110685785D01*
X109842773Y-110685794D01*
X109749947Y-110909895D01*
X109687161Y-111144214D01*
X109655500Y-111384711D01*
X72441231Y-111384711D01*
X72524365Y-111320919D01*
X72524365Y-111320917D01*
X71545488Y-110342041D01*
X71605890Y-110317022D01*
X71712351Y-110245888D01*
X71802888Y-110155351D01*
X71874022Y-110048890D01*
X71899041Y-109988489D01*
X72877917Y-110967365D01*
X72877919Y-110967365D01*
X72964499Y-110854534D01*
X72964511Y-110854516D01*
X73095590Y-110627482D01*
X73095595Y-110627471D01*
X73195924Y-110385255D01*
X73263777Y-110132020D01*
X73263779Y-110132009D01*
X73297999Y-109872094D01*
X73298000Y-109872080D01*
X73298000Y-109609919D01*
X73297999Y-109609905D01*
X73263779Y-109349990D01*
X73263777Y-109349979D01*
X73195924Y-109096744D01*
X73095595Y-108854528D01*
X73095590Y-108854517D01*
X72964511Y-108627483D01*
X72964505Y-108627475D01*
X72877918Y-108514633D01*
X72877917Y-108514633D01*
X71899041Y-109493510D01*
X71874022Y-109433110D01*
X71802888Y-109326649D01*
X71712351Y-109236112D01*
X71605890Y-109164978D01*
X71545487Y-109139957D01*
X72524365Y-108161080D01*
X72411524Y-108074494D01*
X72411516Y-108074488D01*
X72184482Y-107943409D01*
X72184471Y-107943404D01*
X71942255Y-107843075D01*
X71689020Y-107775222D01*
X71689009Y-107775220D01*
X71429094Y-107741000D01*
X71166905Y-107741000D01*
X70906990Y-107775220D01*
X70906979Y-107775222D01*
X70653744Y-107843075D01*
X70411528Y-107943404D01*
X70411517Y-107943409D01*
X70184471Y-108074496D01*
X70071633Y-108161079D01*
X70071633Y-108161080D01*
X71050511Y-109139958D01*
X70990110Y-109164978D01*
X70883649Y-109236112D01*
X70793112Y-109326649D01*
X70721978Y-109433110D01*
X70696958Y-109493511D01*
X69718080Y-108514633D01*
X69718079Y-108514633D01*
X69631496Y-108627471D01*
X69500409Y-108854517D01*
X69500404Y-108854528D01*
X69400075Y-109096744D01*
X69332222Y-109349979D01*
X69332220Y-109349990D01*
X69298000Y-109609905D01*
X68298500Y-109609905D01*
X68298500Y-108440990D01*
X68287999Y-108338202D01*
X68232814Y-108171665D01*
X68140712Y-108022344D01*
X68016656Y-107898288D01*
X67867335Y-107806186D01*
X67700798Y-107751001D01*
X67700796Y-107751000D01*
X67598017Y-107740500D01*
X67598010Y-107740500D01*
X64997990Y-107740500D01*
X64997982Y-107740500D01*
X64895203Y-107751000D01*
X64895202Y-107751001D01*
X64822114Y-107775220D01*
X64728667Y-107806185D01*
X64728662Y-107806187D01*
X64579342Y-107898289D01*
X64455289Y-108022342D01*
X64363187Y-108171662D01*
X64363186Y-108171665D01*
X64308001Y-108338202D01*
X64308001Y-108338203D01*
X64308000Y-108338203D01*
X64297500Y-108440982D01*
X50000500Y-108440982D01*
X50000500Y-102783389D01*
X79525500Y-102783389D01*
X79525500Y-102956611D01*
X79552598Y-103127701D01*
X79606127Y-103292445D01*
X79684768Y-103446788D01*
X79786586Y-103586928D01*
X79909072Y-103709414D01*
X80049212Y-103811232D01*
X80203555Y-103889873D01*
X80368299Y-103943402D01*
X80539389Y-103970500D01*
X80539390Y-103970500D01*
X81512610Y-103970500D01*
X81512611Y-103970500D01*
X81683701Y-103943402D01*
X81848445Y-103889873D01*
X82002788Y-103811232D01*
X82142928Y-103709414D01*
X82265414Y-103586928D01*
X82367232Y-103446788D01*
X82445873Y-103292445D01*
X82499402Y-103127701D01*
X82526500Y-102956611D01*
X82526500Y-102783389D01*
X102385500Y-102783389D01*
X102385500Y-102956611D01*
X102412598Y-103127701D01*
X102466127Y-103292445D01*
X102544768Y-103446788D01*
X102646586Y-103586928D01*
X102769072Y-103709414D01*
X102909212Y-103811232D01*
X103063555Y-103889873D01*
X103228299Y-103943402D01*
X103399389Y-103970500D01*
X103399390Y-103970500D01*
X104372610Y-103970500D01*
X104372611Y-103970500D01*
X104543701Y-103943402D01*
X104708445Y-103889873D01*
X104862788Y-103811232D01*
X105002928Y-103709414D01*
X105125414Y-103586928D01*
X105227232Y-103446788D01*
X105305873Y-103292445D01*
X105359402Y-103127701D01*
X105386500Y-102956611D01*
X105386500Y-102783389D01*
X105359402Y-102612299D01*
X105305873Y-102447555D01*
X105227232Y-102293212D01*
X105125414Y-102153072D01*
X105002928Y-102030586D01*
X104862788Y-101928768D01*
X104708445Y-101850127D01*
X104543701Y-101796598D01*
X104543699Y-101796597D01*
X104543698Y-101796597D01*
X104412271Y-101775781D01*
X104372611Y-101769500D01*
X103399389Y-101769500D01*
X103359728Y-101775781D01*
X103228302Y-101796597D01*
X103063552Y-101850128D01*
X102909211Y-101928768D01*
X102829256Y-101986859D01*
X102769072Y-102030586D01*
X102769070Y-102030588D01*
X102769069Y-102030588D01*
X102646588Y-102153069D01*
X102646588Y-102153070D01*
X102646586Y-102153072D01*
X102602859Y-102213256D01*
X102544768Y-102293211D01*
X102466128Y-102447552D01*
X102412597Y-102612302D01*
X102385500Y-102783389D01*
X82526500Y-102783389D01*
X82499402Y-102612299D01*
X82445873Y-102447555D01*
X82367232Y-102293212D01*
X82265414Y-102153072D01*
X82142928Y-102030586D01*
X82002788Y-101928768D01*
X81848445Y-101850127D01*
X81683701Y-101796598D01*
X81683699Y-101796597D01*
X81683698Y-101796597D01*
X81552271Y-101775781D01*
X81512611Y-101769500D01*
X80539389Y-101769500D01*
X80499728Y-101775781D01*
X80368302Y-101796597D01*
X80203552Y-101850128D01*
X80049211Y-101928768D01*
X79969256Y-101986859D01*
X79909072Y-102030586D01*
X79909070Y-102030588D01*
X79909069Y-102030588D01*
X79786588Y-102153069D01*
X79786588Y-102153070D01*
X79786586Y-102153072D01*
X79742859Y-102213256D01*
X79684768Y-102293211D01*
X79606128Y-102447552D01*
X79552597Y-102612302D01*
X79525500Y-102783389D01*
X50000500Y-102783389D01*
X50000500Y-98797135D01*
X62403500Y-98797135D01*
X62403500Y-100592870D01*
X62403501Y-100592876D01*
X62409908Y-100652483D01*
X62460202Y-100787328D01*
X62460206Y-100787335D01*
X62546452Y-100902544D01*
X62546455Y-100902547D01*
X62661664Y-100988793D01*
X62661671Y-100988797D01*
X62796517Y-101039091D01*
X62796516Y-101039091D01*
X62803444Y-101039835D01*
X62856127Y-101045500D01*
X64651872Y-101045499D01*
X64711483Y-101039091D01*
X64846331Y-100988796D01*
X64961546Y-100902546D01*
X65047796Y-100787331D01*
X65096810Y-100655916D01*
X65138681Y-100599984D01*
X65204145Y-100575566D01*
X65272418Y-100590417D01*
X65300673Y-100611569D01*
X65414213Y-100725109D01*
X65586179Y-100850048D01*
X65586181Y-100850049D01*
X65586184Y-100850051D01*
X65775588Y-100946557D01*
X65977757Y-101012246D01*
X66187713Y-101045500D01*
X66187714Y-101045500D01*
X66400286Y-101045500D01*
X66400287Y-101045500D01*
X66610243Y-101012246D01*
X66812412Y-100946557D01*
X67001816Y-100850051D01*
X67088138Y-100787335D01*
X67173786Y-100725109D01*
X67173788Y-100725106D01*
X67173792Y-100725104D01*
X67324104Y-100574792D01*
X67324106Y-100574788D01*
X67324109Y-100574786D01*
X67449048Y-100402820D01*
X67449047Y-100402820D01*
X67449051Y-100402816D01*
X67453514Y-100394054D01*
X67501488Y-100343259D01*
X67569308Y-100326463D01*
X67635444Y-100348999D01*
X67674486Y-100394056D01*
X67678951Y-100402820D01*
X67803890Y-100574786D01*
X67954213Y-100725109D01*
X68126179Y-100850048D01*
X68126181Y-100850049D01*
X68126184Y-100850051D01*
X68315588Y-100946557D01*
X68517757Y-101012246D01*
X68727713Y-101045500D01*
X68727714Y-101045500D01*
X68940286Y-101045500D01*
X68940287Y-101045500D01*
X69150243Y-101012246D01*
X69352412Y-100946557D01*
X69541816Y-100850051D01*
X69628138Y-100787335D01*
X69713786Y-100725109D01*
X69713788Y-100725106D01*
X69713792Y-100725104D01*
X69864104Y-100574792D01*
X69864106Y-100574788D01*
X69864109Y-100574786D01*
X69949890Y-100456717D01*
X69989051Y-100402816D01*
X69993793Y-100393508D01*
X70041763Y-100342711D01*
X70109583Y-100325911D01*
X70175719Y-100348445D01*
X70214763Y-100393500D01*
X70219373Y-100402547D01*
X70258728Y-100456716D01*
X70891037Y-99824408D01*
X70908075Y-99887993D01*
X70973901Y-100002007D01*
X71066993Y-100095099D01*
X71181007Y-100160925D01*
X71244590Y-100177962D01*
X70612282Y-100810269D01*
X70612282Y-100810270D01*
X70666449Y-100849624D01*
X70855782Y-100946095D01*
X71057870Y-101011757D01*
X71267754Y-101045000D01*
X71480246Y-101045000D01*
X71690127Y-101011757D01*
X71690130Y-101011757D01*
X71892217Y-100946095D01*
X72081554Y-100849622D01*
X72135716Y-100810270D01*
X72135717Y-100810270D01*
X71503408Y-100177962D01*
X71566993Y-100160925D01*
X71681007Y-100095099D01*
X71774099Y-100002007D01*
X71839925Y-99887993D01*
X71856962Y-99824408D01*
X72489270Y-100456717D01*
X72489271Y-100456716D01*
X72528620Y-100402558D01*
X72625095Y-100213217D01*
X72668380Y-100079999D01*
X79551884Y-100079999D01*
X79551885Y-100080000D01*
X80710314Y-100080000D01*
X80705920Y-100084394D01*
X80653259Y-100175606D01*
X80626000Y-100277339D01*
X80626000Y-100382661D01*
X80653259Y-100484394D01*
X80705920Y-100575606D01*
X80710314Y-100580000D01*
X79551885Y-100580000D01*
X79553085Y-100587584D01*
X79606591Y-100752255D01*
X79685195Y-100906524D01*
X79786967Y-101046602D01*
X79909397Y-101169032D01*
X80049475Y-101270804D01*
X80203742Y-101349408D01*
X80368415Y-101402914D01*
X80539429Y-101430000D01*
X80776000Y-101430000D01*
X80776000Y-100645686D01*
X80780394Y-100650080D01*
X80871606Y-100702741D01*
X80973339Y-100730000D01*
X81078661Y-100730000D01*
X81180394Y-100702741D01*
X81271606Y-100650080D01*
X81276000Y-100645686D01*
X81276000Y-101430000D01*
X81512571Y-101430000D01*
X81683584Y-101402914D01*
X81848257Y-101349408D01*
X82002524Y-101270804D01*
X82142602Y-101169032D01*
X82265032Y-101046602D01*
X82366804Y-100906524D01*
X82445408Y-100752255D01*
X82498914Y-100587584D01*
X82500115Y-100580000D01*
X81341686Y-100580000D01*
X81346080Y-100575606D01*
X81398741Y-100484394D01*
X81426000Y-100382661D01*
X81426000Y-100277339D01*
X81398741Y-100175606D01*
X81346080Y-100084394D01*
X81341686Y-100080000D01*
X82500115Y-100080000D01*
X82500115Y-100079999D01*
X102411884Y-100079999D01*
X102411885Y-100080000D01*
X103570314Y-100080000D01*
X103565920Y-100084394D01*
X103513259Y-100175606D01*
X103486000Y-100277339D01*
X103486000Y-100382661D01*
X103513259Y-100484394D01*
X103565920Y-100575606D01*
X103570314Y-100580000D01*
X102411885Y-100580000D01*
X102413085Y-100587584D01*
X102466591Y-100752255D01*
X102545195Y-100906524D01*
X102646967Y-101046602D01*
X102769397Y-101169032D01*
X102909475Y-101270804D01*
X103063742Y-101349408D01*
X103228415Y-101402914D01*
X103399429Y-101430000D01*
X103636000Y-101430000D01*
X103636000Y-100645686D01*
X103640394Y-100650080D01*
X103731606Y-100702741D01*
X103833339Y-100730000D01*
X103938661Y-100730000D01*
X104040394Y-100702741D01*
X104131606Y-100650080D01*
X104136000Y-100645686D01*
X104136000Y-101430000D01*
X104372571Y-101430000D01*
X104543584Y-101402914D01*
X104708257Y-101349408D01*
X104862524Y-101270804D01*
X105002602Y-101169032D01*
X105125032Y-101046602D01*
X105226804Y-100906524D01*
X105305408Y-100752255D01*
X105358914Y-100587584D01*
X105360115Y-100580000D01*
X104201686Y-100580000D01*
X104206080Y-100575606D01*
X104258741Y-100484394D01*
X104286000Y-100382661D01*
X104286000Y-100277339D01*
X104258741Y-100175606D01*
X104206080Y-100084394D01*
X104201686Y-100080000D01*
X105360115Y-100080000D01*
X105360115Y-100079999D01*
X105358914Y-100072415D01*
X105305408Y-99907744D01*
X105226804Y-99753475D01*
X105125032Y-99613397D01*
X105002602Y-99490967D01*
X104862524Y-99389195D01*
X104708257Y-99310591D01*
X104543584Y-99257085D01*
X104372571Y-99230000D01*
X104136000Y-99230000D01*
X104136000Y-100014314D01*
X104131606Y-100009920D01*
X104040394Y-99957259D01*
X103938661Y-99930000D01*
X103833339Y-99930000D01*
X103731606Y-99957259D01*
X103640394Y-100009920D01*
X103636000Y-100014314D01*
X103636000Y-99230000D01*
X103399429Y-99230000D01*
X103228415Y-99257085D01*
X103063742Y-99310591D01*
X102909475Y-99389195D01*
X102769397Y-99490967D01*
X102646967Y-99613397D01*
X102545195Y-99753475D01*
X102466591Y-99907744D01*
X102413085Y-100072415D01*
X102411884Y-100079999D01*
X82500115Y-100079999D01*
X82498914Y-100072415D01*
X82445408Y-99907744D01*
X82366804Y-99753475D01*
X82265032Y-99613397D01*
X82142602Y-99490967D01*
X82002524Y-99389195D01*
X81848257Y-99310591D01*
X81683584Y-99257085D01*
X81512571Y-99230000D01*
X81276000Y-99230000D01*
X81276000Y-100014314D01*
X81271606Y-100009920D01*
X81180394Y-99957259D01*
X81078661Y-99930000D01*
X80973339Y-99930000D01*
X80871606Y-99957259D01*
X80780394Y-100009920D01*
X80776000Y-100014314D01*
X80776000Y-99230000D01*
X80539429Y-99230000D01*
X80368415Y-99257085D01*
X80203742Y-99310591D01*
X80049475Y-99389195D01*
X79909397Y-99490967D01*
X79786967Y-99613397D01*
X79685195Y-99753475D01*
X79606591Y-99907744D01*
X79553085Y-100072415D01*
X79551884Y-100079999D01*
X72668380Y-100079999D01*
X72668787Y-100078747D01*
X72690757Y-100011130D01*
X72690757Y-100011127D01*
X72724000Y-99801246D01*
X72724000Y-99588753D01*
X72690757Y-99378872D01*
X72690757Y-99378869D01*
X72625095Y-99176782D01*
X72528624Y-98987449D01*
X72489270Y-98933282D01*
X72489269Y-98933282D01*
X71856962Y-99565590D01*
X71839925Y-99502007D01*
X71774099Y-99387993D01*
X71681007Y-99294901D01*
X71566993Y-99229075D01*
X71503409Y-99212037D01*
X72135716Y-98579728D01*
X72081550Y-98540375D01*
X71892217Y-98443904D01*
X71690129Y-98378242D01*
X71480246Y-98345000D01*
X71267754Y-98345000D01*
X71057872Y-98378242D01*
X71057869Y-98378242D01*
X70855782Y-98443904D01*
X70666439Y-98540380D01*
X70612282Y-98579727D01*
X70612282Y-98579728D01*
X71244591Y-99212037D01*
X71181007Y-99229075D01*
X71066993Y-99294901D01*
X70973901Y-99387993D01*
X70908075Y-99502007D01*
X70891037Y-99565591D01*
X70258728Y-98933282D01*
X70258727Y-98933282D01*
X70219380Y-98987440D01*
X70219376Y-98987446D01*
X70214760Y-98996505D01*
X70166781Y-99047297D01*
X70098959Y-99064087D01*
X70032826Y-99041543D01*
X69993794Y-98996493D01*
X69989051Y-98987184D01*
X69989049Y-98987181D01*
X69989048Y-98987179D01*
X69864109Y-98815213D01*
X69713786Y-98664890D01*
X69541820Y-98539951D01*
X69352414Y-98443444D01*
X69352413Y-98443443D01*
X69352412Y-98443443D01*
X69150243Y-98377754D01*
X69150241Y-98377753D01*
X69150240Y-98377753D01*
X68988957Y-98352208D01*
X68940287Y-98344500D01*
X68727713Y-98344500D01*
X68679042Y-98352208D01*
X68517760Y-98377753D01*
X68315585Y-98443444D01*
X68126179Y-98539951D01*
X67954213Y-98664890D01*
X67803890Y-98815213D01*
X67678949Y-98987182D01*
X67674484Y-98995946D01*
X67626509Y-99046742D01*
X67558688Y-99063536D01*
X67492553Y-99040998D01*
X67453516Y-98995946D01*
X67449050Y-98987182D01*
X67324109Y-98815213D01*
X67173786Y-98664890D01*
X67001820Y-98539951D01*
X66812414Y-98443444D01*
X66812413Y-98443443D01*
X66812412Y-98443443D01*
X66610243Y-98377754D01*
X66610241Y-98377753D01*
X66610240Y-98377753D01*
X66448957Y-98352208D01*
X66400287Y-98344500D01*
X66187713Y-98344500D01*
X66139042Y-98352208D01*
X65977760Y-98377753D01*
X65775585Y-98443444D01*
X65586179Y-98539951D01*
X65414215Y-98664889D01*
X65300673Y-98778431D01*
X65239350Y-98811915D01*
X65169658Y-98806931D01*
X65113725Y-98765059D01*
X65096810Y-98734082D01*
X65047797Y-98602671D01*
X65047793Y-98602664D01*
X64961547Y-98487455D01*
X64961544Y-98487452D01*
X64846335Y-98401206D01*
X64846328Y-98401202D01*
X64711482Y-98350908D01*
X64711483Y-98350908D01*
X64651883Y-98344501D01*
X64651881Y-98344500D01*
X64651873Y-98344500D01*
X64651864Y-98344500D01*
X62856129Y-98344500D01*
X62856123Y-98344501D01*
X62796516Y-98350908D01*
X62661671Y-98401202D01*
X62661664Y-98401206D01*
X62546455Y-98487452D01*
X62546452Y-98487455D01*
X62460206Y-98602664D01*
X62460202Y-98602671D01*
X62409908Y-98737517D01*
X62403501Y-98797116D01*
X62403500Y-98797135D01*
X50000500Y-98797135D01*
X50000500Y-97703389D01*
X79525500Y-97703389D01*
X79525500Y-97876611D01*
X79552598Y-98047701D01*
X79606127Y-98212445D01*
X79684768Y-98366788D01*
X79786586Y-98506928D01*
X79909072Y-98629414D01*
X80049212Y-98731232D01*
X80203555Y-98809873D01*
X80368299Y-98863402D01*
X80539389Y-98890500D01*
X80539390Y-98890500D01*
X81512610Y-98890500D01*
X81512611Y-98890500D01*
X81683701Y-98863402D01*
X81848445Y-98809873D01*
X82002788Y-98731232D01*
X82142928Y-98629414D01*
X82265414Y-98506928D01*
X82367232Y-98366788D01*
X82445873Y-98212445D01*
X82499402Y-98047701D01*
X82526500Y-97876611D01*
X82526500Y-97703389D01*
X102385500Y-97703389D01*
X102385500Y-97876611D01*
X102412598Y-98047701D01*
X102466127Y-98212445D01*
X102544768Y-98366788D01*
X102646586Y-98506928D01*
X102769072Y-98629414D01*
X102909212Y-98731232D01*
X103063555Y-98809873D01*
X103228299Y-98863402D01*
X103399389Y-98890500D01*
X103399390Y-98890500D01*
X104372610Y-98890500D01*
X104372611Y-98890500D01*
X104543701Y-98863402D01*
X104708445Y-98809873D01*
X104862788Y-98731232D01*
X105002928Y-98629414D01*
X105125414Y-98506928D01*
X105227232Y-98366788D01*
X105305873Y-98212445D01*
X105359402Y-98047701D01*
X105386500Y-97876611D01*
X105386500Y-97703389D01*
X105359402Y-97532299D01*
X105305873Y-97367555D01*
X105227232Y-97213212D01*
X105125414Y-97073072D01*
X105002928Y-96950586D01*
X104862788Y-96848768D01*
X104708445Y-96770127D01*
X104543701Y-96716598D01*
X104543699Y-96716597D01*
X104543698Y-96716597D01*
X104412271Y-96695781D01*
X104372611Y-96689500D01*
X103399389Y-96689500D01*
X103359728Y-96695781D01*
X103228302Y-96716597D01*
X103063552Y-96770128D01*
X102909211Y-96848768D01*
X102829256Y-96906859D01*
X102769072Y-96950586D01*
X102769070Y-96950588D01*
X102769069Y-96950588D01*
X102646588Y-97073069D01*
X102646588Y-97073070D01*
X102646586Y-97073072D01*
X102602859Y-97133256D01*
X102544768Y-97213211D01*
X102466128Y-97367552D01*
X102412597Y-97532302D01*
X102385500Y-97703389D01*
X82526500Y-97703389D01*
X82499402Y-97532299D01*
X82445873Y-97367555D01*
X82367232Y-97213212D01*
X82265414Y-97073072D01*
X82142928Y-96950586D01*
X82002788Y-96848768D01*
X81848445Y-96770127D01*
X81683701Y-96716598D01*
X81683699Y-96716597D01*
X81683698Y-96716597D01*
X81552271Y-96695781D01*
X81512611Y-96689500D01*
X80539389Y-96689500D01*
X80499728Y-96695781D01*
X80368302Y-96716597D01*
X80203552Y-96770128D01*
X80049211Y-96848768D01*
X79969256Y-96906859D01*
X79909072Y-96950586D01*
X79909070Y-96950588D01*
X79909069Y-96950588D01*
X79786588Y-97073069D01*
X79786588Y-97073070D01*
X79786586Y-97073072D01*
X79742859Y-97133256D01*
X79684768Y-97213211D01*
X79606128Y-97367552D01*
X79552597Y-97532302D01*
X79525500Y-97703389D01*
X50000500Y-97703389D01*
X50000500Y-95163389D01*
X79525500Y-95163389D01*
X79525500Y-95336611D01*
X79552598Y-95507701D01*
X79606127Y-95672445D01*
X79684768Y-95826788D01*
X79786586Y-95966928D01*
X79909072Y-96089414D01*
X80049212Y-96191232D01*
X80203555Y-96269873D01*
X80368299Y-96323402D01*
X80539389Y-96350500D01*
X80539390Y-96350500D01*
X81512610Y-96350500D01*
X81512611Y-96350500D01*
X81683701Y-96323402D01*
X81848445Y-96269873D01*
X82002788Y-96191232D01*
X82142928Y-96089414D01*
X82265414Y-95966928D01*
X82367232Y-95826788D01*
X82445873Y-95672445D01*
X82499402Y-95507701D01*
X82526500Y-95336611D01*
X82526500Y-95163389D01*
X102385500Y-95163389D01*
X102385500Y-95336611D01*
X102412598Y-95507701D01*
X102466127Y-95672445D01*
X102544768Y-95826788D01*
X102646586Y-95966928D01*
X102769072Y-96089414D01*
X102909212Y-96191232D01*
X103063555Y-96269873D01*
X103228299Y-96323402D01*
X103399389Y-96350500D01*
X103399390Y-96350500D01*
X104372610Y-96350500D01*
X104372611Y-96350500D01*
X104543701Y-96323402D01*
X104708445Y-96269873D01*
X104862788Y-96191232D01*
X105002928Y-96089414D01*
X105125414Y-95966928D01*
X105227232Y-95826788D01*
X105305873Y-95672445D01*
X105359402Y-95507701D01*
X105386500Y-95336611D01*
X105386500Y-95163389D01*
X105359402Y-94992299D01*
X105305873Y-94827555D01*
X105227232Y-94673212D01*
X105125414Y-94533072D01*
X105002928Y-94410586D01*
X104862788Y-94308768D01*
X104708445Y-94230127D01*
X104543701Y-94176598D01*
X104543699Y-94176597D01*
X104543698Y-94176597D01*
X104412271Y-94155781D01*
X104372611Y-94149500D01*
X103399389Y-94149500D01*
X103359728Y-94155781D01*
X103228302Y-94176597D01*
X103063552Y-94230128D01*
X102909211Y-94308768D01*
X102829256Y-94366859D01*
X102769072Y-94410586D01*
X102769070Y-94410588D01*
X102769069Y-94410588D01*
X102646588Y-94533069D01*
X102646588Y-94533070D01*
X102646586Y-94533072D01*
X102602859Y-94593256D01*
X102544768Y-94673211D01*
X102466128Y-94827552D01*
X102412597Y-94992302D01*
X102385500Y-95163389D01*
X82526500Y-95163389D01*
X82499402Y-94992299D01*
X82445873Y-94827555D01*
X82367232Y-94673212D01*
X82265414Y-94533072D01*
X82142928Y-94410586D01*
X82002788Y-94308768D01*
X81848445Y-94230127D01*
X81683701Y-94176598D01*
X81683699Y-94176597D01*
X81683698Y-94176597D01*
X81552271Y-94155781D01*
X81512611Y-94149500D01*
X80539389Y-94149500D01*
X80499728Y-94155781D01*
X80368302Y-94176597D01*
X80203552Y-94230128D01*
X80049211Y-94308768D01*
X79969256Y-94366859D01*
X79909072Y-94410586D01*
X79909070Y-94410588D01*
X79909069Y-94410588D01*
X79786588Y-94533069D01*
X79786588Y-94533070D01*
X79786586Y-94533072D01*
X79742859Y-94593256D01*
X79684768Y-94673211D01*
X79606128Y-94827552D01*
X79552597Y-94992302D01*
X79525500Y-95163389D01*
X50000500Y-95163389D01*
X50000500Y-92623389D01*
X79525500Y-92623389D01*
X79525500Y-92796611D01*
X79552598Y-92967701D01*
X79606127Y-93132445D01*
X79684768Y-93286788D01*
X79786586Y-93426928D01*
X79909072Y-93549414D01*
X80049212Y-93651232D01*
X80203555Y-93729873D01*
X80368299Y-93783402D01*
X80539389Y-93810500D01*
X80539390Y-93810500D01*
X81512610Y-93810500D01*
X81512611Y-93810500D01*
X81683701Y-93783402D01*
X81848445Y-93729873D01*
X82002788Y-93651232D01*
X82142928Y-93549414D01*
X82265414Y-93426928D01*
X82367232Y-93286788D01*
X82445873Y-93132445D01*
X82499402Y-92967701D01*
X82526500Y-92796611D01*
X82526500Y-92623389D01*
X102385500Y-92623389D01*
X102385500Y-92796611D01*
X102412598Y-92967701D01*
X102466127Y-93132445D01*
X102544768Y-93286788D01*
X102646586Y-93426928D01*
X102769072Y-93549414D01*
X102909212Y-93651232D01*
X103063555Y-93729873D01*
X103228299Y-93783402D01*
X103399389Y-93810500D01*
X103399390Y-93810500D01*
X104372610Y-93810500D01*
X104372611Y-93810500D01*
X104543701Y-93783402D01*
X104708445Y-93729873D01*
X104862788Y-93651232D01*
X105002928Y-93549414D01*
X105125414Y-93426928D01*
X105227232Y-93286788D01*
X105305873Y-93132445D01*
X105359402Y-92967701D01*
X105386500Y-92796611D01*
X105386500Y-92623389D01*
X105359402Y-92452299D01*
X105305873Y-92287555D01*
X105227232Y-92133212D01*
X105125414Y-91993072D01*
X105002928Y-91870586D01*
X104862788Y-91768768D01*
X104708445Y-91690127D01*
X104543701Y-91636598D01*
X104543699Y-91636597D01*
X104543698Y-91636597D01*
X104412271Y-91615781D01*
X104372611Y-91609500D01*
X103399389Y-91609500D01*
X103359728Y-91615781D01*
X103228302Y-91636597D01*
X103063552Y-91690128D01*
X102909211Y-91768768D01*
X102829256Y-91826859D01*
X102769072Y-91870586D01*
X102769070Y-91870588D01*
X102769069Y-91870588D01*
X102646588Y-91993069D01*
X102646588Y-91993070D01*
X102646586Y-91993072D01*
X102602859Y-92053256D01*
X102544768Y-92133211D01*
X102466128Y-92287552D01*
X102412597Y-92452302D01*
X102402349Y-92517007D01*
X102385500Y-92623389D01*
X82526500Y-92623389D01*
X82499402Y-92452299D01*
X82445873Y-92287555D01*
X82367232Y-92133212D01*
X82265414Y-91993072D01*
X82142928Y-91870586D01*
X82002788Y-91768768D01*
X81848445Y-91690127D01*
X81683701Y-91636598D01*
X81683699Y-91636597D01*
X81683698Y-91636597D01*
X81552271Y-91615781D01*
X81512611Y-91609500D01*
X80539389Y-91609500D01*
X80499728Y-91615781D01*
X80368302Y-91636597D01*
X80203552Y-91690128D01*
X80049211Y-91768768D01*
X79969256Y-91826859D01*
X79909072Y-91870586D01*
X79909070Y-91870588D01*
X79909069Y-91870588D01*
X79786588Y-91993069D01*
X79786588Y-91993070D01*
X79786586Y-91993072D01*
X79742859Y-92053256D01*
X79684768Y-92133211D01*
X79606128Y-92287552D01*
X79552597Y-92452302D01*
X79542349Y-92517007D01*
X79525500Y-92623389D01*
X50000500Y-92623389D01*
X50000500Y-86752135D01*
X52268500Y-86752135D01*
X52268500Y-88547870D01*
X52268501Y-88547876D01*
X52274908Y-88607483D01*
X52325202Y-88742328D01*
X52325206Y-88742335D01*
X52411452Y-88857544D01*
X52411455Y-88857547D01*
X52526664Y-88943793D01*
X52526671Y-88943797D01*
X52658082Y-88992810D01*
X52714016Y-89034681D01*
X52738433Y-89100145D01*
X52723582Y-89168418D01*
X52702431Y-89196673D01*
X52588889Y-89310215D01*
X52463951Y-89482179D01*
X52367444Y-89671585D01*
X52301753Y-89873760D01*
X52268500Y-90083713D01*
X52268500Y-90296286D01*
X52298585Y-90486239D01*
X52301754Y-90506243D01*
X52360945Y-90688414D01*
X52367444Y-90708414D01*
X52463951Y-90897820D01*
X52588890Y-91069786D01*
X52739213Y-91220109D01*
X52911179Y-91345048D01*
X52911181Y-91345049D01*
X52911184Y-91345051D01*
X53100588Y-91441557D01*
X53302757Y-91507246D01*
X53512713Y-91540500D01*
X53512714Y-91540500D01*
X53725286Y-91540500D01*
X53725287Y-91540500D01*
X53935243Y-91507246D01*
X54137412Y-91441557D01*
X54326816Y-91345051D01*
X54354348Y-91325048D01*
X54498786Y-91220109D01*
X54498788Y-91220106D01*
X54498792Y-91220104D01*
X54649104Y-91069792D01*
X54649106Y-91069788D01*
X54649109Y-91069786D01*
X54774048Y-90897820D01*
X54774047Y-90897820D01*
X54774051Y-90897816D01*
X54870557Y-90708412D01*
X54936246Y-90506243D01*
X54969500Y-90296287D01*
X54969500Y-90083713D01*
X54969449Y-90083389D01*
X79525500Y-90083389D01*
X79525500Y-90256611D01*
X79552598Y-90427701D01*
X79606127Y-90592445D01*
X79684768Y-90746788D01*
X79786586Y-90886928D01*
X79909072Y-91009414D01*
X80049212Y-91111232D01*
X80203555Y-91189873D01*
X80368299Y-91243402D01*
X80539389Y-91270500D01*
X80539390Y-91270500D01*
X81512610Y-91270500D01*
X81512611Y-91270500D01*
X81683701Y-91243402D01*
X81848445Y-91189873D01*
X82002788Y-91111232D01*
X82142928Y-91009414D01*
X82265414Y-90886928D01*
X82367232Y-90746788D01*
X82445873Y-90592445D01*
X82499402Y-90427701D01*
X82526500Y-90256611D01*
X82526500Y-90083389D01*
X102385500Y-90083389D01*
X102385500Y-90256611D01*
X102412598Y-90427701D01*
X102466127Y-90592445D01*
X102544768Y-90746788D01*
X102646586Y-90886928D01*
X102769072Y-91009414D01*
X102909212Y-91111232D01*
X103063555Y-91189873D01*
X103228299Y-91243402D01*
X103399389Y-91270500D01*
X103399390Y-91270500D01*
X104372610Y-91270500D01*
X104372611Y-91270500D01*
X104543701Y-91243402D01*
X104708445Y-91189873D01*
X104862788Y-91111232D01*
X105002928Y-91009414D01*
X105125414Y-90886928D01*
X105227232Y-90746788D01*
X105305873Y-90592445D01*
X105359402Y-90427701D01*
X105386500Y-90256611D01*
X105386500Y-90083389D01*
X105359402Y-89912299D01*
X105305873Y-89747555D01*
X105227232Y-89593212D01*
X105125414Y-89453072D01*
X105002928Y-89330586D01*
X104862788Y-89228768D01*
X104708445Y-89150127D01*
X104543701Y-89096598D01*
X104543699Y-89096597D01*
X104543698Y-89096597D01*
X104412271Y-89075781D01*
X104372611Y-89069500D01*
X103399389Y-89069500D01*
X103359728Y-89075781D01*
X103228302Y-89096597D01*
X103063552Y-89150128D01*
X102909211Y-89228768D01*
X102829256Y-89286859D01*
X102769072Y-89330586D01*
X102769070Y-89330588D01*
X102769069Y-89330588D01*
X102646588Y-89453069D01*
X102646588Y-89453070D01*
X102646586Y-89453072D01*
X102625435Y-89482184D01*
X102544768Y-89593211D01*
X102466128Y-89747552D01*
X102412597Y-89912302D01*
X102388616Y-90063713D01*
X102385500Y-90083389D01*
X82526500Y-90083389D01*
X82499402Y-89912299D01*
X82445873Y-89747555D01*
X82367232Y-89593212D01*
X82265414Y-89453072D01*
X82142928Y-89330586D01*
X82002788Y-89228768D01*
X81848445Y-89150127D01*
X81683701Y-89096598D01*
X81683699Y-89096597D01*
X81683698Y-89096597D01*
X81552271Y-89075781D01*
X81512611Y-89069500D01*
X80539389Y-89069500D01*
X80499728Y-89075781D01*
X80368302Y-89096597D01*
X80203552Y-89150128D01*
X80049211Y-89228768D01*
X79969256Y-89286859D01*
X79909072Y-89330586D01*
X79909070Y-89330588D01*
X79909069Y-89330588D01*
X79786588Y-89453069D01*
X79786588Y-89453070D01*
X79786586Y-89453072D01*
X79765435Y-89482184D01*
X79684768Y-89593211D01*
X79606128Y-89747552D01*
X79552597Y-89912302D01*
X79528616Y-90063713D01*
X79525500Y-90083389D01*
X54969449Y-90083389D01*
X54936246Y-89873757D01*
X54870557Y-89671588D01*
X54774051Y-89482184D01*
X54774049Y-89482181D01*
X54774048Y-89482179D01*
X54649109Y-89310213D01*
X54535569Y-89196673D01*
X54502084Y-89135350D01*
X54507068Y-89065658D01*
X54548940Y-89009725D01*
X54579915Y-88992810D01*
X54711331Y-88943796D01*
X54826546Y-88857546D01*
X54912796Y-88742331D01*
X54963091Y-88607483D01*
X54969500Y-88547873D01*
X54969499Y-86752128D01*
X54963091Y-86692517D01*
X54962544Y-86691051D01*
X54912797Y-86557671D01*
X54912793Y-86557664D01*
X54826547Y-86442455D01*
X54826544Y-86442452D01*
X54711335Y-86356206D01*
X54711328Y-86356202D01*
X54576482Y-86305908D01*
X54576483Y-86305908D01*
X54516883Y-86299501D01*
X54516881Y-86299500D01*
X54516873Y-86299500D01*
X54516864Y-86299500D01*
X52721129Y-86299500D01*
X52721123Y-86299501D01*
X52661516Y-86305908D01*
X52526671Y-86356202D01*
X52526664Y-86356206D01*
X52411455Y-86442452D01*
X52411452Y-86442455D01*
X52325206Y-86557664D01*
X52325202Y-86557671D01*
X52274908Y-86692517D01*
X52268501Y-86752116D01*
X52268501Y-86752123D01*
X52268500Y-86752135D01*
X50000500Y-86752135D01*
X50000500Y-77207135D01*
X52243500Y-77207135D01*
X52243500Y-79002870D01*
X52243501Y-79002876D01*
X52249908Y-79062483D01*
X52300202Y-79197328D01*
X52300206Y-79197335D01*
X52386452Y-79312544D01*
X52386455Y-79312547D01*
X52501664Y-79398793D01*
X52501671Y-79398797D01*
X52633082Y-79447810D01*
X52689016Y-79489681D01*
X52713433Y-79555145D01*
X52698582Y-79623418D01*
X52677431Y-79651673D01*
X52563889Y-79765215D01*
X52438951Y-79937179D01*
X52342444Y-80126585D01*
X52276753Y-80328760D01*
X52243500Y-80538713D01*
X52243500Y-80751286D01*
X52275923Y-80956000D01*
X52276754Y-80961243D01*
X52329577Y-81123816D01*
X52342444Y-81163414D01*
X52438951Y-81352820D01*
X52563890Y-81524786D01*
X52714213Y-81675109D01*
X52886179Y-81800048D01*
X52886181Y-81800049D01*
X52886184Y-81800051D01*
X53075588Y-81896557D01*
X53277757Y-81962246D01*
X53487713Y-81995500D01*
X53487714Y-81995500D01*
X53700286Y-81995500D01*
X53700287Y-81995500D01*
X53910243Y-81962246D01*
X54112412Y-81896557D01*
X54301816Y-81800051D01*
X54372754Y-81748512D01*
X54473786Y-81675109D01*
X54473788Y-81675106D01*
X54473792Y-81675104D01*
X54624104Y-81524792D01*
X54624106Y-81524788D01*
X54624109Y-81524786D01*
X54749048Y-81352820D01*
X54749047Y-81352820D01*
X54749051Y-81352816D01*
X54845557Y-81163412D01*
X54911246Y-80961243D01*
X54944500Y-80751287D01*
X54944500Y-80538713D01*
X54911246Y-80328757D01*
X54845557Y-80126588D01*
X54749051Y-79937184D01*
X54749049Y-79937181D01*
X54749048Y-79937179D01*
X54624109Y-79765213D01*
X54510569Y-79651673D01*
X54477084Y-79590350D01*
X54482068Y-79520658D01*
X54523940Y-79464725D01*
X54554915Y-79447810D01*
X54686331Y-79398796D01*
X54801546Y-79312546D01*
X54887796Y-79197331D01*
X54938091Y-79062483D01*
X54944500Y-79002873D01*
X54944499Y-77207128D01*
X54938091Y-77147517D01*
X54896577Y-77036213D01*
X54887797Y-77012671D01*
X54887793Y-77012664D01*
X54801547Y-76897455D01*
X54801544Y-76897452D01*
X54686335Y-76811206D01*
X54686328Y-76811202D01*
X54551482Y-76760908D01*
X54551483Y-76760908D01*
X54491883Y-76754501D01*
X54491881Y-76754500D01*
X54491873Y-76754500D01*
X54491864Y-76754500D01*
X52696129Y-76754500D01*
X52696123Y-76754501D01*
X52636516Y-76760908D01*
X52501671Y-76811202D01*
X52501664Y-76811206D01*
X52386455Y-76897452D01*
X52386452Y-76897455D01*
X52300206Y-77012664D01*
X52300202Y-77012671D01*
X52249908Y-77147517D01*
X52243501Y-77207116D01*
X52243501Y-77207123D01*
X52243500Y-77207135D01*
X50000500Y-77207135D01*
X50000500Y-74438135D01*
X61031500Y-74438135D01*
X61031500Y-76233870D01*
X61031501Y-76233876D01*
X61037908Y-76293483D01*
X61088202Y-76428328D01*
X61088206Y-76428335D01*
X61174452Y-76543544D01*
X61174455Y-76543547D01*
X61289664Y-76629793D01*
X61289671Y-76629797D01*
X61421082Y-76678810D01*
X61477016Y-76720681D01*
X61501433Y-76786145D01*
X61486582Y-76854418D01*
X61465431Y-76882673D01*
X61351889Y-76996215D01*
X61226951Y-77168179D01*
X61130444Y-77357585D01*
X61064753Y-77559760D01*
X61058418Y-77599760D01*
X61031500Y-77769713D01*
X61031500Y-77982287D01*
X61064754Y-78192243D01*
X61102825Y-78309414D01*
X61130444Y-78394414D01*
X61226951Y-78583820D01*
X61351890Y-78755786D01*
X61502213Y-78906109D01*
X61674182Y-79031050D01*
X61682946Y-79035516D01*
X61733742Y-79083491D01*
X61750536Y-79151312D01*
X61727998Y-79217447D01*
X61682946Y-79256484D01*
X61674182Y-79260949D01*
X61502213Y-79385890D01*
X61351890Y-79536213D01*
X61226951Y-79708179D01*
X61130444Y-79897585D01*
X61064753Y-80099760D01*
X61038155Y-80267697D01*
X61031500Y-80309713D01*
X61031500Y-80522287D01*
X61064754Y-80732243D01*
X61104997Y-80856099D01*
X61130444Y-80934414D01*
X61226951Y-81123820D01*
X61351890Y-81295786D01*
X61502213Y-81446109D01*
X61674182Y-81571050D01*
X61682946Y-81575516D01*
X61733742Y-81623491D01*
X61750536Y-81691312D01*
X61727998Y-81757447D01*
X61682946Y-81796484D01*
X61674182Y-81800949D01*
X61502213Y-81925890D01*
X61351890Y-82076213D01*
X61226951Y-82248179D01*
X61130444Y-82437585D01*
X61064753Y-82639760D01*
X61058418Y-82679760D01*
X61031500Y-82849713D01*
X61031500Y-83062287D01*
X61064754Y-83272243D01*
X61102825Y-83389414D01*
X61130444Y-83474414D01*
X61226951Y-83663820D01*
X61351890Y-83835786D01*
X61502213Y-83986109D01*
X61674182Y-84111050D01*
X61682946Y-84115516D01*
X61733742Y-84163491D01*
X61750536Y-84231312D01*
X61727998Y-84297447D01*
X61682946Y-84336484D01*
X61674182Y-84340949D01*
X61502213Y-84465890D01*
X61351890Y-84616213D01*
X61226951Y-84788179D01*
X61130444Y-84977585D01*
X61064753Y-85179760D01*
X61058418Y-85219760D01*
X61031500Y-85389713D01*
X61031500Y-85602287D01*
X61064754Y-85812243D01*
X61121823Y-85987883D01*
X61130444Y-86014414D01*
X61226951Y-86203820D01*
X61351890Y-86375786D01*
X61502213Y-86526109D01*
X61674182Y-86651050D01*
X61682946Y-86655516D01*
X61733742Y-86703491D01*
X61750536Y-86771312D01*
X61727998Y-86837447D01*
X61682946Y-86876484D01*
X61674182Y-86880949D01*
X61502213Y-87005890D01*
X61351890Y-87156213D01*
X61226951Y-87328179D01*
X61130444Y-87517585D01*
X61064753Y-87719760D01*
X61058418Y-87759760D01*
X61031500Y-87929713D01*
X61031500Y-88142287D01*
X61037835Y-88182286D01*
X61062469Y-88337820D01*
X61064754Y-88352243D01*
X61128319Y-88547876D01*
X61130444Y-88554414D01*
X61226951Y-88743820D01*
X61351890Y-88915786D01*
X61502213Y-89066109D01*
X61674179Y-89191048D01*
X61674181Y-89191049D01*
X61674184Y-89191051D01*
X61863588Y-89287557D01*
X62065757Y-89353246D01*
X62275713Y-89386500D01*
X62275714Y-89386500D01*
X62488286Y-89386500D01*
X62488287Y-89386500D01*
X62698243Y-89353246D01*
X62900412Y-89287557D01*
X63089816Y-89191051D01*
X63120968Y-89168418D01*
X63261786Y-89066109D01*
X63261788Y-89066106D01*
X63261792Y-89066104D01*
X63412104Y-88915792D01*
X63412106Y-88915788D01*
X63412109Y-88915786D01*
X63537048Y-88743820D01*
X63537047Y-88743820D01*
X63537051Y-88743816D01*
X63633557Y-88554412D01*
X63699246Y-88352243D01*
X63732500Y-88142287D01*
X63732500Y-87929713D01*
X63699246Y-87719757D01*
X63633557Y-87517588D01*
X63537051Y-87328184D01*
X63537049Y-87328181D01*
X63537048Y-87328179D01*
X63412109Y-87156213D01*
X63261786Y-87005890D01*
X63089820Y-86880951D01*
X63089115Y-86880591D01*
X63081054Y-86876485D01*
X63030259Y-86828512D01*
X63013463Y-86760692D01*
X63035999Y-86694556D01*
X63081054Y-86655515D01*
X63089816Y-86651051D01*
X63146142Y-86610128D01*
X63261786Y-86526109D01*
X63261788Y-86526106D01*
X63261792Y-86526104D01*
X63412104Y-86375792D01*
X63412106Y-86375788D01*
X63412109Y-86375786D01*
X63537048Y-86203820D01*
X63537047Y-86203820D01*
X63537051Y-86203816D01*
X63633557Y-86014412D01*
X63699246Y-85812243D01*
X63732500Y-85602287D01*
X63732500Y-85389713D01*
X63699246Y-85179757D01*
X63633557Y-84977588D01*
X63537051Y-84788184D01*
X63537049Y-84788181D01*
X63537048Y-84788179D01*
X63412109Y-84616213D01*
X63261786Y-84465890D01*
X63089820Y-84340951D01*
X63089115Y-84340591D01*
X63081054Y-84336485D01*
X63030259Y-84288512D01*
X63013463Y-84220692D01*
X63035999Y-84154556D01*
X63081054Y-84115515D01*
X63089816Y-84111051D01*
X63146142Y-84070128D01*
X63261786Y-83986109D01*
X63261788Y-83986106D01*
X63261792Y-83986104D01*
X63412104Y-83835792D01*
X63412106Y-83835788D01*
X63412109Y-83835786D01*
X63537048Y-83663820D01*
X63537047Y-83663820D01*
X63537051Y-83663816D01*
X63633557Y-83474412D01*
X63699246Y-83272243D01*
X63732500Y-83062287D01*
X63732500Y-82849713D01*
X63699246Y-82639757D01*
X63633557Y-82437588D01*
X63537051Y-82248184D01*
X63537049Y-82248181D01*
X63537048Y-82248179D01*
X63412109Y-82076213D01*
X63261786Y-81925890D01*
X63089820Y-81800951D01*
X63089115Y-81800591D01*
X63081054Y-81796485D01*
X63030259Y-81748512D01*
X63013463Y-81680692D01*
X63035999Y-81614556D01*
X63081054Y-81575515D01*
X63089816Y-81571051D01*
X63146142Y-81530128D01*
X63261786Y-81446109D01*
X63261788Y-81446106D01*
X63261792Y-81446104D01*
X63412104Y-81295792D01*
X63412106Y-81295788D01*
X63412109Y-81295786D01*
X63537048Y-81123820D01*
X63537047Y-81123820D01*
X63537051Y-81123816D01*
X63633557Y-80934412D01*
X63699246Y-80732243D01*
X63732500Y-80522287D01*
X63732500Y-80309713D01*
X63699246Y-80099757D01*
X63633557Y-79897588D01*
X63537051Y-79708184D01*
X63537049Y-79708181D01*
X63537048Y-79708179D01*
X63412109Y-79536213D01*
X63261786Y-79385890D01*
X63089820Y-79260951D01*
X63089115Y-79260591D01*
X63081054Y-79256485D01*
X63030259Y-79208512D01*
X63013463Y-79140692D01*
X63035999Y-79074556D01*
X63081054Y-79035515D01*
X63089816Y-79031051D01*
X63146142Y-78990128D01*
X63261786Y-78906109D01*
X63261788Y-78906106D01*
X63261792Y-78906104D01*
X63412104Y-78755792D01*
X63412106Y-78755788D01*
X63412109Y-78755786D01*
X63537048Y-78583820D01*
X63537047Y-78583820D01*
X63537051Y-78583816D01*
X63633557Y-78394412D01*
X63699246Y-78192243D01*
X63732500Y-77982287D01*
X63732500Y-77769713D01*
X63699246Y-77559757D01*
X63633557Y-77357588D01*
X63537051Y-77168184D01*
X63537049Y-77168181D01*
X63537048Y-77168179D01*
X63412109Y-76996213D01*
X63298569Y-76882673D01*
X63265084Y-76821350D01*
X63270068Y-76751658D01*
X63311940Y-76695725D01*
X63342915Y-76678810D01*
X63474331Y-76629796D01*
X63589546Y-76543546D01*
X63675796Y-76428331D01*
X63726091Y-76293483D01*
X63732500Y-76233873D01*
X63732499Y-74478135D01*
X73031500Y-74478135D01*
X73031500Y-76273870D01*
X73031501Y-76273876D01*
X73037908Y-76333483D01*
X73088202Y-76468328D01*
X73088206Y-76468335D01*
X73174452Y-76583544D01*
X73174455Y-76583547D01*
X73289664Y-76669793D01*
X73289671Y-76669797D01*
X73421082Y-76718810D01*
X73477016Y-76760681D01*
X73501433Y-76826145D01*
X73486582Y-76894418D01*
X73465431Y-76922673D01*
X73351889Y-77036215D01*
X73226951Y-77208179D01*
X73130444Y-77397585D01*
X73064753Y-77599760D01*
X73031500Y-77809713D01*
X73031500Y-78022286D01*
X73058418Y-78192243D01*
X73064754Y-78232243D01*
X73122911Y-78411232D01*
X73130444Y-78434414D01*
X73226951Y-78623820D01*
X73351890Y-78795786D01*
X73502213Y-78946109D01*
X73674179Y-79071048D01*
X73674181Y-79071049D01*
X73674184Y-79071051D01*
X73683493Y-79075794D01*
X73734290Y-79123766D01*
X73751087Y-79191587D01*
X73728552Y-79257722D01*
X73683505Y-79296760D01*
X73674446Y-79301376D01*
X73674440Y-79301380D01*
X73620282Y-79340727D01*
X73620282Y-79340728D01*
X74252591Y-79973037D01*
X74189007Y-79990075D01*
X74074993Y-80055901D01*
X73981901Y-80148993D01*
X73916075Y-80263007D01*
X73899037Y-80326591D01*
X73266728Y-79694282D01*
X73266727Y-79694282D01*
X73227380Y-79748439D01*
X73130904Y-79937782D01*
X73065242Y-80139869D01*
X73065242Y-80139872D01*
X73032000Y-80349753D01*
X73032000Y-80562246D01*
X73065242Y-80772127D01*
X73065242Y-80772130D01*
X73130904Y-80974217D01*
X73227375Y-81163550D01*
X73266728Y-81217716D01*
X73899037Y-80585408D01*
X73916075Y-80648993D01*
X73981901Y-80763007D01*
X74074993Y-80856099D01*
X74189007Y-80921925D01*
X74252590Y-80938962D01*
X73620282Y-81571269D01*
X73620282Y-81571270D01*
X73674452Y-81610626D01*
X73674451Y-81610626D01*
X73683495Y-81615234D01*
X73734292Y-81663208D01*
X73751087Y-81731029D01*
X73728550Y-81797164D01*
X73683499Y-81836202D01*
X73674182Y-81840949D01*
X73502213Y-81965890D01*
X73351890Y-82116213D01*
X73226951Y-82288179D01*
X73130444Y-82477585D01*
X73064753Y-82679760D01*
X73031500Y-82889713D01*
X73031500Y-83102286D01*
X73058418Y-83272243D01*
X73064754Y-83312243D01*
X73122911Y-83491232D01*
X73130444Y-83514414D01*
X73226951Y-83703820D01*
X73351890Y-83875786D01*
X73502213Y-84026109D01*
X73674182Y-84151050D01*
X73682946Y-84155516D01*
X73733742Y-84203491D01*
X73750536Y-84271312D01*
X73727998Y-84337447D01*
X73682946Y-84376484D01*
X73674182Y-84380949D01*
X73502213Y-84505890D01*
X73351890Y-84656213D01*
X73226951Y-84828179D01*
X73130444Y-85017585D01*
X73064753Y-85219760D01*
X73031500Y-85429713D01*
X73031500Y-85642286D01*
X73058418Y-85812243D01*
X73064754Y-85852243D01*
X73128191Y-86047482D01*
X73130444Y-86054414D01*
X73226951Y-86243820D01*
X73351890Y-86415786D01*
X73502213Y-86566109D01*
X73674182Y-86691050D01*
X73682946Y-86695516D01*
X73733742Y-86743491D01*
X73750536Y-86811312D01*
X73727998Y-86877447D01*
X73682946Y-86916484D01*
X73674182Y-86920949D01*
X73502213Y-87045890D01*
X73351890Y-87196213D01*
X73226951Y-87368179D01*
X73130444Y-87557585D01*
X73064753Y-87759760D01*
X73031500Y-87969713D01*
X73031500Y-88182286D01*
X73058418Y-88352243D01*
X73064754Y-88392243D01*
X73122911Y-88571232D01*
X73130444Y-88594414D01*
X73226951Y-88783820D01*
X73351890Y-88955786D01*
X73502213Y-89106109D01*
X73674179Y-89231048D01*
X73674181Y-89231049D01*
X73674184Y-89231051D01*
X73863588Y-89327557D01*
X74065757Y-89393246D01*
X74275713Y-89426500D01*
X74275714Y-89426500D01*
X74488286Y-89426500D01*
X74488287Y-89426500D01*
X74698243Y-89393246D01*
X74900412Y-89327557D01*
X75089816Y-89231051D01*
X75176024Y-89168418D01*
X75261786Y-89106109D01*
X75261788Y-89106106D01*
X75261792Y-89106104D01*
X75412104Y-88955792D01*
X75412106Y-88955788D01*
X75412109Y-88955786D01*
X75537048Y-88783820D01*
X75537047Y-88783820D01*
X75537051Y-88783816D01*
X75633557Y-88594412D01*
X75699246Y-88392243D01*
X75732500Y-88182287D01*
X75732500Y-87969713D01*
X75699246Y-87759757D01*
X75633557Y-87557588D01*
X75626322Y-87543389D01*
X79525500Y-87543389D01*
X79525500Y-87716611D01*
X79552598Y-87887701D01*
X79606127Y-88052445D01*
X79684768Y-88206788D01*
X79786586Y-88346928D01*
X79909072Y-88469414D01*
X80049212Y-88571232D01*
X80203555Y-88649873D01*
X80368299Y-88703402D01*
X80539389Y-88730500D01*
X80539390Y-88730500D01*
X81512610Y-88730500D01*
X81512611Y-88730500D01*
X81683701Y-88703402D01*
X81848445Y-88649873D01*
X82002788Y-88571232D01*
X82142928Y-88469414D01*
X82265414Y-88346928D01*
X82367232Y-88206788D01*
X82445873Y-88052445D01*
X82499402Y-87887701D01*
X82526500Y-87716611D01*
X82526500Y-87543389D01*
X102385500Y-87543389D01*
X102385500Y-87716611D01*
X102412598Y-87887701D01*
X102466127Y-88052445D01*
X102544768Y-88206788D01*
X102646586Y-88346928D01*
X102769072Y-88469414D01*
X102909212Y-88571232D01*
X103063555Y-88649873D01*
X103228299Y-88703402D01*
X103399389Y-88730500D01*
X103399390Y-88730500D01*
X104372610Y-88730500D01*
X104372611Y-88730500D01*
X104543701Y-88703402D01*
X104708445Y-88649873D01*
X104862788Y-88571232D01*
X105002928Y-88469414D01*
X105125414Y-88346928D01*
X105227232Y-88206788D01*
X105305873Y-88052445D01*
X105359402Y-87887701D01*
X105386500Y-87716611D01*
X105386500Y-87543389D01*
X105359402Y-87372299D01*
X105305873Y-87207555D01*
X105227232Y-87053212D01*
X105125414Y-86913072D01*
X105002928Y-86790586D01*
X104862788Y-86688768D01*
X104708445Y-86610127D01*
X104543701Y-86556598D01*
X104543699Y-86556597D01*
X104543698Y-86556597D01*
X104412271Y-86535781D01*
X104372611Y-86529500D01*
X103399389Y-86529500D01*
X103359728Y-86535781D01*
X103228302Y-86556597D01*
X103063552Y-86610128D01*
X102909211Y-86688768D01*
X102846190Y-86734556D01*
X102769072Y-86790586D01*
X102769070Y-86790588D01*
X102769069Y-86790588D01*
X102646588Y-86913069D01*
X102646588Y-86913070D01*
X102646586Y-86913072D01*
X102639966Y-86922184D01*
X102544768Y-87053211D01*
X102466128Y-87207552D01*
X102412597Y-87372302D01*
X102389587Y-87517585D01*
X102385500Y-87543389D01*
X82526500Y-87543389D01*
X82499402Y-87372299D01*
X82445873Y-87207555D01*
X82367232Y-87053212D01*
X82265414Y-86913072D01*
X82142928Y-86790586D01*
X82002788Y-86688768D01*
X81848445Y-86610127D01*
X81683701Y-86556598D01*
X81683699Y-86556597D01*
X81683698Y-86556597D01*
X81552271Y-86535781D01*
X81512611Y-86529500D01*
X80539389Y-86529500D01*
X80499728Y-86535781D01*
X80368302Y-86556597D01*
X80203552Y-86610128D01*
X80049211Y-86688768D01*
X79986190Y-86734556D01*
X79909072Y-86790586D01*
X79909070Y-86790588D01*
X79909069Y-86790588D01*
X79786588Y-86913069D01*
X79786588Y-86913070D01*
X79786586Y-86913072D01*
X79779966Y-86922184D01*
X79684768Y-87053211D01*
X79606128Y-87207552D01*
X79552597Y-87372302D01*
X79529587Y-87517585D01*
X79525500Y-87543389D01*
X75626322Y-87543389D01*
X75537051Y-87368184D01*
X75537049Y-87368181D01*
X75537048Y-87368179D01*
X75412109Y-87196213D01*
X75261786Y-87045890D01*
X75089820Y-86920951D01*
X75089115Y-86920591D01*
X75081054Y-86916485D01*
X75030259Y-86868512D01*
X75013463Y-86800692D01*
X75035999Y-86734556D01*
X75081054Y-86695515D01*
X75089816Y-86691051D01*
X75144876Y-86651048D01*
X75261786Y-86566109D01*
X75261788Y-86566106D01*
X75261792Y-86566104D01*
X75412104Y-86415792D01*
X75412106Y-86415788D01*
X75412109Y-86415786D01*
X75537048Y-86243820D01*
X75537047Y-86243820D01*
X75537051Y-86243816D01*
X75633557Y-86054412D01*
X75699246Y-85852243D01*
X75732500Y-85642287D01*
X75732500Y-85429713D01*
X75699246Y-85219757D01*
X75633557Y-85017588D01*
X75626322Y-85003389D01*
X79525500Y-85003389D01*
X79525500Y-85176611D01*
X79552598Y-85347701D01*
X79606127Y-85512445D01*
X79684768Y-85666788D01*
X79786586Y-85806928D01*
X79909072Y-85929414D01*
X80049212Y-86031232D01*
X80203555Y-86109873D01*
X80368299Y-86163402D01*
X80539389Y-86190500D01*
X80539390Y-86190500D01*
X81512610Y-86190500D01*
X81512611Y-86190500D01*
X81683701Y-86163402D01*
X81848445Y-86109873D01*
X82002788Y-86031232D01*
X82142928Y-85929414D01*
X82265414Y-85806928D01*
X82367232Y-85666788D01*
X82445873Y-85512445D01*
X82499402Y-85347701D01*
X82526500Y-85176611D01*
X82526500Y-85003389D01*
X102385500Y-85003389D01*
X102385500Y-85176611D01*
X102412598Y-85347701D01*
X102466127Y-85512445D01*
X102544768Y-85666788D01*
X102646586Y-85806928D01*
X102769072Y-85929414D01*
X102909212Y-86031232D01*
X103063555Y-86109873D01*
X103228299Y-86163402D01*
X103399389Y-86190500D01*
X103399390Y-86190500D01*
X104372610Y-86190500D01*
X104372611Y-86190500D01*
X104543701Y-86163402D01*
X104708445Y-86109873D01*
X104862788Y-86031232D01*
X105002928Y-85929414D01*
X105125414Y-85806928D01*
X105227232Y-85666788D01*
X105305873Y-85512445D01*
X105359402Y-85347701D01*
X105386500Y-85176611D01*
X105386500Y-85003389D01*
X105359402Y-84832299D01*
X105305873Y-84667555D01*
X105227232Y-84513212D01*
X105125414Y-84373072D01*
X105002928Y-84250586D01*
X104922477Y-84192135D01*
X108504500Y-84192135D01*
X108504500Y-85987870D01*
X108504501Y-85987876D01*
X108510908Y-86047483D01*
X108561202Y-86182328D01*
X108561206Y-86182335D01*
X108647452Y-86297544D01*
X108647455Y-86297547D01*
X108762664Y-86383793D01*
X108762671Y-86383797D01*
X108894082Y-86432810D01*
X108950016Y-86474681D01*
X108974433Y-86540145D01*
X108959582Y-86608418D01*
X108938431Y-86636673D01*
X108824889Y-86750215D01*
X108699951Y-86922179D01*
X108603444Y-87111585D01*
X108537753Y-87313760D01*
X108528481Y-87372302D01*
X108504500Y-87523713D01*
X108504500Y-87736287D01*
X108537754Y-87946243D01*
X108572261Y-88052445D01*
X108603444Y-88148414D01*
X108699951Y-88337820D01*
X108824890Y-88509786D01*
X108975213Y-88660109D01*
X109147182Y-88785050D01*
X109155946Y-88789516D01*
X109206742Y-88837491D01*
X109223536Y-88905312D01*
X109200998Y-88971447D01*
X109155946Y-89010484D01*
X109147182Y-89014949D01*
X108975213Y-89139890D01*
X108824890Y-89290213D01*
X108699951Y-89462179D01*
X108603444Y-89651585D01*
X108537753Y-89853760D01*
X108528481Y-89912302D01*
X108504500Y-90063713D01*
X108504500Y-90276287D01*
X108537754Y-90486243D01*
X108572261Y-90592445D01*
X108603444Y-90688414D01*
X108699951Y-90877820D01*
X108824890Y-91049786D01*
X108975213Y-91200109D01*
X109147179Y-91325048D01*
X109147181Y-91325049D01*
X109147184Y-91325051D01*
X109156493Y-91329794D01*
X109207290Y-91377766D01*
X109224087Y-91445587D01*
X109201552Y-91511722D01*
X109156505Y-91550760D01*
X109147446Y-91555376D01*
X109147440Y-91555380D01*
X109093282Y-91594727D01*
X109093282Y-91594728D01*
X109725591Y-92227037D01*
X109662007Y-92244075D01*
X109547993Y-92309901D01*
X109454901Y-92402993D01*
X109389075Y-92517007D01*
X109372037Y-92580591D01*
X108739728Y-91948282D01*
X108739727Y-91948282D01*
X108700380Y-92002439D01*
X108603904Y-92191782D01*
X108538242Y-92393869D01*
X108538242Y-92393872D01*
X108505000Y-92603753D01*
X108505000Y-92816246D01*
X108538242Y-93026127D01*
X108538242Y-93026130D01*
X108603904Y-93228217D01*
X108700375Y-93417550D01*
X108739728Y-93471716D01*
X109372037Y-92839408D01*
X109389075Y-92902993D01*
X109454901Y-93017007D01*
X109547993Y-93110099D01*
X109662007Y-93175925D01*
X109725590Y-93192962D01*
X109093282Y-93825269D01*
X109093282Y-93825270D01*
X109147449Y-93864624D01*
X109336782Y-93961095D01*
X109538870Y-94026757D01*
X109748754Y-94060000D01*
X109961246Y-94060000D01*
X110171127Y-94026757D01*
X110171130Y-94026757D01*
X110373217Y-93961095D01*
X110562554Y-93864622D01*
X110616716Y-93825270D01*
X110616717Y-93825270D01*
X109984408Y-93192962D01*
X110047993Y-93175925D01*
X110162007Y-93110099D01*
X110255099Y-93017007D01*
X110320925Y-92902993D01*
X110337962Y-92839409D01*
X110970270Y-93471717D01*
X110970270Y-93471716D01*
X111009622Y-93417554D01*
X111106095Y-93228217D01*
X111171757Y-93026130D01*
X111171757Y-93026127D01*
X111205000Y-92816246D01*
X111205000Y-92603753D01*
X111171757Y-92393872D01*
X111171757Y-92393869D01*
X111106095Y-92191782D01*
X111009624Y-92002449D01*
X110970270Y-91948282D01*
X110970269Y-91948282D01*
X110337962Y-92580590D01*
X110320925Y-92517007D01*
X110255099Y-92402993D01*
X110162007Y-92309901D01*
X110047993Y-92244075D01*
X109984409Y-92227037D01*
X110616716Y-91594728D01*
X110562547Y-91555373D01*
X110562547Y-91555372D01*
X110553500Y-91550763D01*
X110502706Y-91502788D01*
X110485912Y-91434966D01*
X110508451Y-91368832D01*
X110553508Y-91329793D01*
X110562816Y-91325051D01*
X110675197Y-91243402D01*
X110734786Y-91200109D01*
X110734788Y-91200106D01*
X110734792Y-91200104D01*
X110885104Y-91049792D01*
X110885106Y-91049788D01*
X110885109Y-91049786D01*
X111010048Y-90877820D01*
X111010047Y-90877820D01*
X111010051Y-90877816D01*
X111106557Y-90688412D01*
X111172246Y-90486243D01*
X111205500Y-90276287D01*
X111205500Y-90063713D01*
X111172246Y-89853757D01*
X111106557Y-89651588D01*
X111010051Y-89462184D01*
X111010049Y-89462181D01*
X111010048Y-89462179D01*
X110885109Y-89290213D01*
X110734786Y-89139890D01*
X110562820Y-89014951D01*
X110562115Y-89014591D01*
X110554054Y-89010485D01*
X110503259Y-88962512D01*
X110486463Y-88894692D01*
X110508999Y-88828556D01*
X110554054Y-88789515D01*
X110562816Y-88785051D01*
X110621610Y-88742335D01*
X110734786Y-88660109D01*
X110734788Y-88660106D01*
X110734792Y-88660104D01*
X110885104Y-88509792D01*
X110885106Y-88509788D01*
X110885109Y-88509786D01*
X111010048Y-88337820D01*
X111010047Y-88337820D01*
X111010051Y-88337816D01*
X111106557Y-88148412D01*
X111172246Y-87946243D01*
X111205500Y-87736287D01*
X111205500Y-87523713D01*
X111172246Y-87313757D01*
X111106557Y-87111588D01*
X111010051Y-86922184D01*
X111010049Y-86922181D01*
X111010048Y-86922179D01*
X110885109Y-86750213D01*
X110771569Y-86636673D01*
X110738084Y-86575350D01*
X110743068Y-86505658D01*
X110784940Y-86449725D01*
X110815915Y-86432810D01*
X110947331Y-86383796D01*
X111062546Y-86297546D01*
X111148796Y-86182331D01*
X111199091Y-86047483D01*
X111205500Y-85987873D01*
X111205499Y-84192128D01*
X111199091Y-84132517D01*
X111192749Y-84115514D01*
X111148797Y-83997671D01*
X111148793Y-83997664D01*
X111062547Y-83882455D01*
X111062544Y-83882452D01*
X110947335Y-83796206D01*
X110947328Y-83796202D01*
X110812482Y-83745908D01*
X110812483Y-83745908D01*
X110752883Y-83739501D01*
X110752881Y-83739500D01*
X110752873Y-83739500D01*
X110752864Y-83739500D01*
X108957129Y-83739500D01*
X108957123Y-83739501D01*
X108897516Y-83745908D01*
X108762671Y-83796202D01*
X108762664Y-83796206D01*
X108647455Y-83882452D01*
X108647452Y-83882455D01*
X108561206Y-83997664D01*
X108561202Y-83997671D01*
X108510908Y-84132517D01*
X108504501Y-84192116D01*
X108504501Y-84192123D01*
X108504500Y-84192135D01*
X104922477Y-84192135D01*
X104862788Y-84148768D01*
X104708445Y-84070127D01*
X104543701Y-84016598D01*
X104543699Y-84016597D01*
X104543698Y-84016597D01*
X104412271Y-83995781D01*
X104372611Y-83989500D01*
X103399389Y-83989500D01*
X103359728Y-83995781D01*
X103228302Y-84016597D01*
X103063552Y-84070128D01*
X102909211Y-84148768D01*
X102846190Y-84194556D01*
X102769072Y-84250586D01*
X102769070Y-84250588D01*
X102769069Y-84250588D01*
X102646588Y-84373069D01*
X102646588Y-84373070D01*
X102646586Y-84373072D01*
X102644106Y-84376486D01*
X102544768Y-84513211D01*
X102466128Y-84667552D01*
X102412597Y-84832302D01*
X102389587Y-84977585D01*
X102385500Y-85003389D01*
X82526500Y-85003389D01*
X82499402Y-84832299D01*
X82445873Y-84667555D01*
X82367232Y-84513212D01*
X82265414Y-84373072D01*
X82142928Y-84250586D01*
X82002788Y-84148768D01*
X81848445Y-84070127D01*
X81683701Y-84016598D01*
X81683699Y-84016597D01*
X81683698Y-84016597D01*
X81552271Y-83995781D01*
X81512611Y-83989500D01*
X80539389Y-83989500D01*
X80499728Y-83995781D01*
X80368302Y-84016597D01*
X80203552Y-84070128D01*
X80049211Y-84148768D01*
X79986190Y-84194556D01*
X79909072Y-84250586D01*
X79909070Y-84250588D01*
X79909069Y-84250588D01*
X79786588Y-84373069D01*
X79786588Y-84373070D01*
X79786586Y-84373072D01*
X79784106Y-84376486D01*
X79684768Y-84513211D01*
X79606128Y-84667552D01*
X79552597Y-84832302D01*
X79529587Y-84977585D01*
X79525500Y-85003389D01*
X75626322Y-85003389D01*
X75537051Y-84828184D01*
X75537049Y-84828181D01*
X75537048Y-84828179D01*
X75412109Y-84656213D01*
X75261786Y-84505890D01*
X75089820Y-84380951D01*
X75089115Y-84380591D01*
X75081054Y-84376485D01*
X75030259Y-84328512D01*
X75013463Y-84260692D01*
X75035999Y-84194556D01*
X75081054Y-84155515D01*
X75089816Y-84151051D01*
X75201198Y-84070128D01*
X75261786Y-84026109D01*
X75261788Y-84026106D01*
X75261792Y-84026104D01*
X75412104Y-83875792D01*
X75412106Y-83875788D01*
X75412109Y-83875786D01*
X75537048Y-83703820D01*
X75537047Y-83703820D01*
X75537051Y-83703816D01*
X75633557Y-83514412D01*
X75699246Y-83312243D01*
X75732500Y-83102287D01*
X75732500Y-82889713D01*
X75699246Y-82679757D01*
X75633557Y-82477588D01*
X75626322Y-82463389D01*
X79525500Y-82463389D01*
X79525500Y-82636611D01*
X79552598Y-82807701D01*
X79606127Y-82972445D01*
X79684768Y-83126788D01*
X79786586Y-83266928D01*
X79909072Y-83389414D01*
X80049212Y-83491232D01*
X80203555Y-83569873D01*
X80368299Y-83623402D01*
X80539389Y-83650500D01*
X80539390Y-83650500D01*
X81512610Y-83650500D01*
X81512611Y-83650500D01*
X81683701Y-83623402D01*
X81848445Y-83569873D01*
X82002788Y-83491232D01*
X82142928Y-83389414D01*
X82265414Y-83266928D01*
X82367232Y-83126788D01*
X82445873Y-82972445D01*
X82499402Y-82807701D01*
X82526500Y-82636611D01*
X82526500Y-82463389D01*
X102385500Y-82463389D01*
X102385500Y-82636611D01*
X102412598Y-82807701D01*
X102466127Y-82972445D01*
X102544768Y-83126788D01*
X102646586Y-83266928D01*
X102769072Y-83389414D01*
X102909212Y-83491232D01*
X103063555Y-83569873D01*
X103228299Y-83623402D01*
X103399389Y-83650500D01*
X103399390Y-83650500D01*
X104372610Y-83650500D01*
X104372611Y-83650500D01*
X104543701Y-83623402D01*
X104708445Y-83569873D01*
X104862788Y-83491232D01*
X105002928Y-83389414D01*
X105125414Y-83266928D01*
X105227232Y-83126788D01*
X105305873Y-82972445D01*
X105359402Y-82807701D01*
X105386500Y-82636611D01*
X105386500Y-82463389D01*
X105359402Y-82292299D01*
X105305873Y-82127555D01*
X105227232Y-81973212D01*
X105125414Y-81833072D01*
X105002928Y-81710586D01*
X104862788Y-81608768D01*
X104708445Y-81530127D01*
X104543701Y-81476598D01*
X104543699Y-81476597D01*
X104543698Y-81476597D01*
X104412271Y-81455781D01*
X104372611Y-81449500D01*
X103399389Y-81449500D01*
X103359728Y-81455781D01*
X103228302Y-81476597D01*
X103063552Y-81530128D01*
X102909211Y-81608768D01*
X102834282Y-81663208D01*
X102769072Y-81710586D01*
X102769070Y-81710588D01*
X102769069Y-81710588D01*
X102646588Y-81833069D01*
X102646588Y-81833070D01*
X102646586Y-81833072D01*
X102640863Y-81840949D01*
X102544768Y-81973211D01*
X102466128Y-82127552D01*
X102412597Y-82292302D01*
X102389587Y-82437585D01*
X102385500Y-82463389D01*
X82526500Y-82463389D01*
X82499402Y-82292299D01*
X82445873Y-82127555D01*
X82367232Y-81973212D01*
X82265414Y-81833072D01*
X82142928Y-81710586D01*
X82002788Y-81608768D01*
X81848445Y-81530127D01*
X81683701Y-81476598D01*
X81683699Y-81476597D01*
X81683698Y-81476597D01*
X81552271Y-81455781D01*
X81512611Y-81449500D01*
X80539389Y-81449500D01*
X80499728Y-81455781D01*
X80368302Y-81476597D01*
X80203552Y-81530128D01*
X80049211Y-81608768D01*
X79974282Y-81663208D01*
X79909072Y-81710586D01*
X79909070Y-81710588D01*
X79909069Y-81710588D01*
X79786588Y-81833069D01*
X79786588Y-81833070D01*
X79786586Y-81833072D01*
X79780863Y-81840949D01*
X79684768Y-81973211D01*
X79606128Y-82127552D01*
X79552597Y-82292302D01*
X79529587Y-82437585D01*
X79525500Y-82463389D01*
X75626322Y-82463389D01*
X75537051Y-82288184D01*
X75537049Y-82288181D01*
X75537048Y-82288179D01*
X75412109Y-82116213D01*
X75261786Y-81965890D01*
X75089817Y-81840949D01*
X75080504Y-81836204D01*
X75029707Y-81788230D01*
X75012912Y-81720409D01*
X75035449Y-81654274D01*
X75080507Y-81615232D01*
X75089555Y-81610622D01*
X75143716Y-81571270D01*
X75143717Y-81571270D01*
X74511408Y-80938962D01*
X74574993Y-80921925D01*
X74689007Y-80856099D01*
X74782099Y-80763007D01*
X74847925Y-80648993D01*
X74864962Y-80585408D01*
X75497270Y-81217717D01*
X75497270Y-81217716D01*
X75536622Y-81163554D01*
X75633095Y-80974217D01*
X75698757Y-80772130D01*
X75698757Y-80772127D01*
X75732000Y-80562246D01*
X75732000Y-80349753D01*
X75698757Y-80139872D01*
X75698757Y-80139869D01*
X75639286Y-79956835D01*
X75633095Y-79937782D01*
X75625761Y-79923389D01*
X79525500Y-79923389D01*
X79525500Y-80096610D01*
X79551854Y-80263007D01*
X79552598Y-80267701D01*
X79606127Y-80432445D01*
X79684768Y-80586788D01*
X79786586Y-80726928D01*
X79909072Y-80849414D01*
X80049212Y-80951232D01*
X80203555Y-81029873D01*
X80368299Y-81083402D01*
X80539389Y-81110500D01*
X80539390Y-81110500D01*
X81512610Y-81110500D01*
X81512611Y-81110500D01*
X81683701Y-81083402D01*
X81848445Y-81029873D01*
X82002788Y-80951232D01*
X82142928Y-80849414D01*
X82265414Y-80726928D01*
X82367232Y-80586788D01*
X82445873Y-80432445D01*
X82499402Y-80267701D01*
X82526500Y-80096611D01*
X82526500Y-79923389D01*
X102385500Y-79923389D01*
X102385500Y-80096610D01*
X102411854Y-80263007D01*
X102412598Y-80267701D01*
X102466127Y-80432445D01*
X102544768Y-80586788D01*
X102646586Y-80726928D01*
X102769072Y-80849414D01*
X102909212Y-80951232D01*
X103063555Y-81029873D01*
X103228299Y-81083402D01*
X103399389Y-81110500D01*
X103399390Y-81110500D01*
X104372610Y-81110500D01*
X104372611Y-81110500D01*
X104543701Y-81083402D01*
X104708445Y-81029873D01*
X104862788Y-80951232D01*
X105002928Y-80849414D01*
X105125414Y-80726928D01*
X105227232Y-80586788D01*
X105305873Y-80432445D01*
X105359402Y-80267701D01*
X105386500Y-80096611D01*
X105386500Y-79923389D01*
X105359402Y-79752299D01*
X105305873Y-79587555D01*
X105227232Y-79433212D01*
X105125414Y-79293072D01*
X105002928Y-79170586D01*
X104862788Y-79068768D01*
X104708445Y-78990127D01*
X104543701Y-78936598D01*
X104543699Y-78936597D01*
X104543698Y-78936597D01*
X104412271Y-78915781D01*
X104372611Y-78909500D01*
X103399389Y-78909500D01*
X103359728Y-78915781D01*
X103228302Y-78936597D01*
X103063552Y-78990128D01*
X102909211Y-79068768D01*
X102833514Y-79123766D01*
X102769072Y-79170586D01*
X102769070Y-79170588D01*
X102769069Y-79170588D01*
X102646588Y-79293069D01*
X102646588Y-79293070D01*
X102646586Y-79293072D01*
X102632437Y-79312547D01*
X102544768Y-79433211D01*
X102466128Y-79587552D01*
X102412597Y-79752302D01*
X102385500Y-79923389D01*
X82526500Y-79923389D01*
X82499402Y-79752299D01*
X82445873Y-79587555D01*
X82367232Y-79433212D01*
X82265414Y-79293072D01*
X82142928Y-79170586D01*
X82002788Y-79068768D01*
X81848445Y-78990127D01*
X81683701Y-78936598D01*
X81683699Y-78936597D01*
X81683698Y-78936597D01*
X81552271Y-78915781D01*
X81512611Y-78909500D01*
X80539389Y-78909500D01*
X80499728Y-78915781D01*
X80368302Y-78936597D01*
X80203552Y-78990128D01*
X80049211Y-79068768D01*
X79973514Y-79123766D01*
X79909072Y-79170586D01*
X79909070Y-79170588D01*
X79909069Y-79170588D01*
X79786588Y-79293069D01*
X79786588Y-79293070D01*
X79786586Y-79293072D01*
X79772437Y-79312547D01*
X79684768Y-79433211D01*
X79606128Y-79587552D01*
X79552597Y-79752302D01*
X79525500Y-79923389D01*
X75625761Y-79923389D01*
X75536624Y-79748449D01*
X75497270Y-79694282D01*
X75497269Y-79694282D01*
X74864962Y-80326590D01*
X74847925Y-80263007D01*
X74782099Y-80148993D01*
X74689007Y-80055901D01*
X74574993Y-79990075D01*
X74511409Y-79973037D01*
X75143716Y-79340728D01*
X75089547Y-79301373D01*
X75089547Y-79301372D01*
X75080500Y-79296763D01*
X75029706Y-79248788D01*
X75012912Y-79180966D01*
X75035451Y-79114832D01*
X75080508Y-79075793D01*
X75089816Y-79071051D01*
X75183642Y-79002883D01*
X75261786Y-78946109D01*
X75261788Y-78946106D01*
X75261792Y-78946104D01*
X75412104Y-78795792D01*
X75412106Y-78795788D01*
X75412109Y-78795786D01*
X75537048Y-78623820D01*
X75537047Y-78623820D01*
X75537051Y-78623816D01*
X75633557Y-78434412D01*
X75699246Y-78232243D01*
X75732500Y-78022287D01*
X75732500Y-77809713D01*
X75699246Y-77599757D01*
X75633557Y-77397588D01*
X75626322Y-77383389D01*
X79525500Y-77383389D01*
X79525500Y-77556611D01*
X79552598Y-77727701D01*
X79606127Y-77892445D01*
X79684768Y-78046788D01*
X79786586Y-78186928D01*
X79909072Y-78309414D01*
X80049212Y-78411232D01*
X80203555Y-78489873D01*
X80368299Y-78543402D01*
X80539389Y-78570500D01*
X80539390Y-78570500D01*
X81512610Y-78570500D01*
X81512611Y-78570500D01*
X81683701Y-78543402D01*
X81848445Y-78489873D01*
X82002788Y-78411232D01*
X82142928Y-78309414D01*
X82265414Y-78186928D01*
X82367232Y-78046788D01*
X82445873Y-77892445D01*
X82499402Y-77727701D01*
X82526500Y-77556611D01*
X82526500Y-77383389D01*
X102385500Y-77383389D01*
X102385500Y-77556611D01*
X102412598Y-77727701D01*
X102466127Y-77892445D01*
X102544768Y-78046788D01*
X102646586Y-78186928D01*
X102769072Y-78309414D01*
X102909212Y-78411232D01*
X103063555Y-78489873D01*
X103228299Y-78543402D01*
X103399389Y-78570500D01*
X103399390Y-78570500D01*
X104372610Y-78570500D01*
X104372611Y-78570500D01*
X104543701Y-78543402D01*
X104708445Y-78489873D01*
X104862788Y-78411232D01*
X105002928Y-78309414D01*
X105125414Y-78186928D01*
X105227232Y-78046788D01*
X105305873Y-77892445D01*
X105359402Y-77727701D01*
X105386500Y-77556611D01*
X105386500Y-77383389D01*
X105359402Y-77212299D01*
X105305873Y-77047555D01*
X105227232Y-76893212D01*
X105125414Y-76753072D01*
X105002928Y-76630586D01*
X104862788Y-76528768D01*
X104708445Y-76450127D01*
X104543701Y-76396598D01*
X104543699Y-76396597D01*
X104543698Y-76396597D01*
X104412271Y-76375781D01*
X104372611Y-76369500D01*
X103399389Y-76369500D01*
X103359728Y-76375781D01*
X103228302Y-76396597D01*
X103063552Y-76450128D01*
X102909211Y-76528768D01*
X102833817Y-76583546D01*
X102769072Y-76630586D01*
X102769070Y-76630588D01*
X102769069Y-76630588D01*
X102646588Y-76753069D01*
X102646588Y-76753070D01*
X102646586Y-76753072D01*
X102604349Y-76811206D01*
X102544768Y-76893211D01*
X102466128Y-77047552D01*
X102412597Y-77212302D01*
X102389587Y-77357585D01*
X102385500Y-77383389D01*
X82526500Y-77383389D01*
X82499402Y-77212299D01*
X82445873Y-77047555D01*
X82367232Y-76893212D01*
X82265414Y-76753072D01*
X82142928Y-76630586D01*
X82002788Y-76528768D01*
X81848445Y-76450127D01*
X81683701Y-76396598D01*
X81683699Y-76396597D01*
X81683698Y-76396597D01*
X81552271Y-76375781D01*
X81512611Y-76369500D01*
X80539389Y-76369500D01*
X80499728Y-76375781D01*
X80368302Y-76396597D01*
X80203552Y-76450128D01*
X80049211Y-76528768D01*
X79973817Y-76583546D01*
X79909072Y-76630586D01*
X79909070Y-76630588D01*
X79909069Y-76630588D01*
X79786588Y-76753069D01*
X79786588Y-76753070D01*
X79786586Y-76753072D01*
X79744349Y-76811206D01*
X79684768Y-76893211D01*
X79606128Y-77047552D01*
X79552597Y-77212302D01*
X79529587Y-77357585D01*
X79525500Y-77383389D01*
X75626322Y-77383389D01*
X75537051Y-77208184D01*
X75537049Y-77208181D01*
X75537048Y-77208179D01*
X75412109Y-77036213D01*
X75298569Y-76922673D01*
X75265084Y-76861350D01*
X75270068Y-76791658D01*
X75311940Y-76735725D01*
X75342915Y-76718810D01*
X75474331Y-76669796D01*
X75589546Y-76583546D01*
X75675796Y-76468331D01*
X75726091Y-76333483D01*
X75732500Y-76273873D01*
X75732499Y-74843389D01*
X79525500Y-74843389D01*
X79525500Y-75016611D01*
X79552598Y-75187701D01*
X79606127Y-75352445D01*
X79684768Y-75506788D01*
X79786586Y-75646928D01*
X79909072Y-75769414D01*
X80049212Y-75871232D01*
X80203555Y-75949873D01*
X80368299Y-76003402D01*
X80539389Y-76030500D01*
X80539390Y-76030500D01*
X81512610Y-76030500D01*
X81512611Y-76030500D01*
X81683701Y-76003402D01*
X81848445Y-75949873D01*
X82002788Y-75871232D01*
X82142928Y-75769414D01*
X82265414Y-75646928D01*
X82367232Y-75506788D01*
X82445873Y-75352445D01*
X82499402Y-75187701D01*
X82526500Y-75016611D01*
X82526500Y-74843389D01*
X102385500Y-74843389D01*
X102385500Y-75016611D01*
X102412598Y-75187701D01*
X102466127Y-75352445D01*
X102544768Y-75506788D01*
X102646586Y-75646928D01*
X102769072Y-75769414D01*
X102909212Y-75871232D01*
X103063555Y-75949873D01*
X103228299Y-76003402D01*
X103399389Y-76030500D01*
X103399390Y-76030500D01*
X104372610Y-76030500D01*
X104372611Y-76030500D01*
X104543701Y-76003402D01*
X104708445Y-75949873D01*
X104862788Y-75871232D01*
X105002928Y-75769414D01*
X105125414Y-75646928D01*
X105227232Y-75506788D01*
X105305873Y-75352445D01*
X105359402Y-75187701D01*
X105386500Y-75016611D01*
X105386500Y-74843389D01*
X105359402Y-74672299D01*
X105305873Y-74507555D01*
X105227232Y-74353212D01*
X105125414Y-74213072D01*
X105002928Y-74090586D01*
X104862788Y-73988768D01*
X104708445Y-73910127D01*
X104543701Y-73856598D01*
X104543699Y-73856597D01*
X104543698Y-73856597D01*
X104412271Y-73835781D01*
X104372611Y-73829500D01*
X103399389Y-73829500D01*
X103359728Y-73835781D01*
X103228302Y-73856597D01*
X103063552Y-73910128D01*
X102909211Y-73988768D01*
X102835667Y-74042202D01*
X102769072Y-74090586D01*
X102769070Y-74090588D01*
X102769069Y-74090588D01*
X102646588Y-74213069D01*
X102646588Y-74213070D01*
X102646586Y-74213072D01*
X102602859Y-74273256D01*
X102544768Y-74353211D01*
X102466128Y-74507552D01*
X102412597Y-74672302D01*
X102385500Y-74843389D01*
X82526500Y-74843389D01*
X82499402Y-74672299D01*
X82445873Y-74507555D01*
X82367232Y-74353212D01*
X82265414Y-74213072D01*
X82142928Y-74090586D01*
X82002788Y-73988768D01*
X81848445Y-73910127D01*
X81683701Y-73856598D01*
X81683699Y-73856597D01*
X81683698Y-73856597D01*
X81552271Y-73835781D01*
X81512611Y-73829500D01*
X80539389Y-73829500D01*
X80499728Y-73835781D01*
X80368302Y-73856597D01*
X80203552Y-73910128D01*
X80049211Y-73988768D01*
X79975667Y-74042202D01*
X79909072Y-74090586D01*
X79909070Y-74090588D01*
X79909069Y-74090588D01*
X79786588Y-74213069D01*
X79786588Y-74213070D01*
X79786586Y-74213072D01*
X79742859Y-74273256D01*
X79684768Y-74353211D01*
X79606128Y-74507552D01*
X79552597Y-74672302D01*
X79525500Y-74843389D01*
X75732499Y-74843389D01*
X75732499Y-74478128D01*
X75726091Y-74418517D01*
X75701733Y-74353211D01*
X75675797Y-74283671D01*
X75675793Y-74283664D01*
X75589547Y-74168455D01*
X75589544Y-74168452D01*
X75474335Y-74082206D01*
X75474328Y-74082202D01*
X75339482Y-74031908D01*
X75339483Y-74031908D01*
X75279883Y-74025501D01*
X75279881Y-74025500D01*
X75279873Y-74025500D01*
X75279864Y-74025500D01*
X73484129Y-74025500D01*
X73484123Y-74025501D01*
X73424516Y-74031908D01*
X73289671Y-74082202D01*
X73289664Y-74082206D01*
X73174455Y-74168452D01*
X73174452Y-74168455D01*
X73088206Y-74283664D01*
X73088202Y-74283671D01*
X73037908Y-74418517D01*
X73031501Y-74478116D01*
X73031501Y-74478123D01*
X73031500Y-74478135D01*
X63732499Y-74478135D01*
X63732499Y-74438128D01*
X63726091Y-74378517D01*
X63716652Y-74353211D01*
X63675797Y-74243671D01*
X63675793Y-74243664D01*
X63589547Y-74128455D01*
X63589544Y-74128452D01*
X63474335Y-74042206D01*
X63474328Y-74042202D01*
X63339482Y-73991908D01*
X63339483Y-73991908D01*
X63279883Y-73985501D01*
X63279881Y-73985500D01*
X63279873Y-73985500D01*
X63279864Y-73985500D01*
X61484129Y-73985500D01*
X61484123Y-73985501D01*
X61424516Y-73991908D01*
X61289671Y-74042202D01*
X61289664Y-74042206D01*
X61174455Y-74128452D01*
X61174452Y-74128455D01*
X61088206Y-74243664D01*
X61088202Y-74243671D01*
X61037908Y-74378517D01*
X61033608Y-74418516D01*
X61031501Y-74438123D01*
X61031500Y-74438135D01*
X50000500Y-74438135D01*
X50000500Y-72303389D01*
X79525500Y-72303389D01*
X79525500Y-72476611D01*
X79552598Y-72647701D01*
X79606127Y-72812445D01*
X79684768Y-72966788D01*
X79786586Y-73106928D01*
X79909072Y-73229414D01*
X80049212Y-73331232D01*
X80203555Y-73409873D01*
X80368299Y-73463402D01*
X80539389Y-73490500D01*
X80539390Y-73490500D01*
X81512610Y-73490500D01*
X81512611Y-73490500D01*
X81683701Y-73463402D01*
X81848445Y-73409873D01*
X82002788Y-73331232D01*
X82142928Y-73229414D01*
X82265414Y-73106928D01*
X82367232Y-72966788D01*
X82445873Y-72812445D01*
X82499402Y-72647701D01*
X82526500Y-72476611D01*
X82526500Y-72303389D01*
X102385500Y-72303389D01*
X102385500Y-72476611D01*
X102412598Y-72647701D01*
X102466127Y-72812445D01*
X102544768Y-72966788D01*
X102646586Y-73106928D01*
X102769072Y-73229414D01*
X102909212Y-73331232D01*
X103063555Y-73409873D01*
X103228299Y-73463402D01*
X103399389Y-73490500D01*
X103399390Y-73490500D01*
X104372610Y-73490500D01*
X104372611Y-73490500D01*
X104543701Y-73463402D01*
X104708445Y-73409873D01*
X104862788Y-73331232D01*
X105002928Y-73229414D01*
X105125414Y-73106928D01*
X105227232Y-72966788D01*
X105305873Y-72812445D01*
X105359402Y-72647701D01*
X105386500Y-72476611D01*
X105386500Y-72303389D01*
X105359402Y-72132299D01*
X105305873Y-71967555D01*
X105227232Y-71813212D01*
X105125414Y-71673072D01*
X105002928Y-71550586D01*
X104862788Y-71448768D01*
X104708445Y-71370127D01*
X104543701Y-71316598D01*
X104543699Y-71316597D01*
X104543698Y-71316597D01*
X104412271Y-71295781D01*
X104372611Y-71289500D01*
X103399389Y-71289500D01*
X103359728Y-71295781D01*
X103228302Y-71316597D01*
X103063552Y-71370128D01*
X102909211Y-71448768D01*
X102829256Y-71506859D01*
X102769072Y-71550586D01*
X102769070Y-71550588D01*
X102769069Y-71550588D01*
X102646588Y-71673069D01*
X102646588Y-71673070D01*
X102646586Y-71673072D01*
X102602859Y-71733256D01*
X102544768Y-71813211D01*
X102466128Y-71967552D01*
X102412597Y-72132302D01*
X102385500Y-72303389D01*
X82526500Y-72303389D01*
X82499402Y-72132299D01*
X82445873Y-71967555D01*
X82367232Y-71813212D01*
X82265414Y-71673072D01*
X82142928Y-71550586D01*
X82002788Y-71448768D01*
X81848445Y-71370127D01*
X81683701Y-71316598D01*
X81683699Y-71316597D01*
X81683698Y-71316597D01*
X81552271Y-71295781D01*
X81512611Y-71289500D01*
X80539389Y-71289500D01*
X80499728Y-71295781D01*
X80368302Y-71316597D01*
X80203552Y-71370128D01*
X80049211Y-71448768D01*
X79969256Y-71506859D01*
X79909072Y-71550586D01*
X79909070Y-71550588D01*
X79909069Y-71550588D01*
X79786588Y-71673069D01*
X79786588Y-71673070D01*
X79786586Y-71673072D01*
X79742859Y-71733256D01*
X79684768Y-71813211D01*
X79606128Y-71967552D01*
X79552597Y-72132302D01*
X79525500Y-72303389D01*
X50000500Y-72303389D01*
X50000500Y-69763389D01*
X79525500Y-69763389D01*
X79525500Y-69936611D01*
X79552598Y-70107701D01*
X79606127Y-70272445D01*
X79684768Y-70426788D01*
X79786586Y-70566928D01*
X79909072Y-70689414D01*
X80049212Y-70791232D01*
X80203555Y-70869873D01*
X80368299Y-70923402D01*
X80539389Y-70950500D01*
X80539390Y-70950500D01*
X81512610Y-70950500D01*
X81512611Y-70950500D01*
X81683701Y-70923402D01*
X81848445Y-70869873D01*
X82002788Y-70791232D01*
X82142928Y-70689414D01*
X82265414Y-70566928D01*
X82367232Y-70426788D01*
X82445873Y-70272445D01*
X82499402Y-70107701D01*
X82526500Y-69936611D01*
X82526500Y-69763389D01*
X102385500Y-69763389D01*
X102385500Y-69936611D01*
X102412598Y-70107701D01*
X102466127Y-70272445D01*
X102544768Y-70426788D01*
X102646586Y-70566928D01*
X102769072Y-70689414D01*
X102909212Y-70791232D01*
X103063555Y-70869873D01*
X103228299Y-70923402D01*
X103399389Y-70950500D01*
X103399390Y-70950500D01*
X104372610Y-70950500D01*
X104372611Y-70950500D01*
X104543701Y-70923402D01*
X104708445Y-70869873D01*
X104862788Y-70791232D01*
X105002928Y-70689414D01*
X105125414Y-70566928D01*
X105227232Y-70426788D01*
X105305873Y-70272445D01*
X105359402Y-70107701D01*
X105386500Y-69936611D01*
X105386500Y-69763389D01*
X105359402Y-69592299D01*
X105305873Y-69427555D01*
X105227232Y-69273212D01*
X105125414Y-69133072D01*
X105002928Y-69010586D01*
X104862788Y-68908768D01*
X104708445Y-68830127D01*
X104543701Y-68776598D01*
X104543699Y-68776597D01*
X104543698Y-68776597D01*
X104412271Y-68755781D01*
X104372611Y-68749500D01*
X103399389Y-68749500D01*
X103359728Y-68755781D01*
X103228302Y-68776597D01*
X103063552Y-68830128D01*
X102909211Y-68908768D01*
X102829256Y-68966859D01*
X102769072Y-69010586D01*
X102769070Y-69010588D01*
X102769069Y-69010588D01*
X102646588Y-69133069D01*
X102646588Y-69133070D01*
X102646586Y-69133072D01*
X102602859Y-69193256D01*
X102544768Y-69273211D01*
X102466128Y-69427552D01*
X102412597Y-69592302D01*
X102385500Y-69763389D01*
X82526500Y-69763389D01*
X82499402Y-69592299D01*
X82445873Y-69427555D01*
X82367232Y-69273212D01*
X82265414Y-69133072D01*
X82142928Y-69010586D01*
X82002788Y-68908768D01*
X81848445Y-68830127D01*
X81683701Y-68776598D01*
X81683699Y-68776597D01*
X81683698Y-68776597D01*
X81552271Y-68755781D01*
X81512611Y-68749500D01*
X80539389Y-68749500D01*
X80499728Y-68755781D01*
X80368302Y-68776597D01*
X80203552Y-68830128D01*
X80049211Y-68908768D01*
X79969256Y-68966859D01*
X79909072Y-69010586D01*
X79909070Y-69010588D01*
X79909069Y-69010588D01*
X79786588Y-69133069D01*
X79786588Y-69133070D01*
X79786586Y-69133072D01*
X79742859Y-69193256D01*
X79684768Y-69273211D01*
X79606128Y-69427552D01*
X79552597Y-69592302D01*
X79525500Y-69763389D01*
X50000500Y-69763389D01*
X50000500Y-62885713D01*
X52878500Y-62885713D01*
X52878500Y-63098286D01*
X52911753Y-63308239D01*
X52977444Y-63510414D01*
X53073951Y-63699820D01*
X53198890Y-63871786D01*
X53349213Y-64022109D01*
X53521182Y-64147050D01*
X53529946Y-64151516D01*
X53580742Y-64199491D01*
X53597536Y-64267312D01*
X53574998Y-64333447D01*
X53529946Y-64372484D01*
X53521182Y-64376949D01*
X53349213Y-64501890D01*
X53198890Y-64652213D01*
X53073951Y-64824179D01*
X52977444Y-65013585D01*
X52911753Y-65215760D01*
X52878500Y-65425713D01*
X52878500Y-65638286D01*
X52906297Y-65813793D01*
X52911754Y-65848243D01*
X52918985Y-65870499D01*
X52977444Y-66050414D01*
X53073951Y-66239820D01*
X53198890Y-66411786D01*
X53349213Y-66562109D01*
X53521182Y-66687050D01*
X53529946Y-66691516D01*
X53580742Y-66739491D01*
X53597536Y-66807312D01*
X53574998Y-66873447D01*
X53529946Y-66912484D01*
X53521182Y-66916949D01*
X53349213Y-67041890D01*
X53198890Y-67192213D01*
X53073951Y-67364179D01*
X52977444Y-67553585D01*
X52911753Y-67755760D01*
X52878500Y-67965713D01*
X52878500Y-68178286D01*
X52911753Y-68388239D01*
X52977444Y-68590414D01*
X53073951Y-68779820D01*
X53198890Y-68951786D01*
X53349213Y-69102109D01*
X53521179Y-69227048D01*
X53521181Y-69227049D01*
X53521184Y-69227051D01*
X53710588Y-69323557D01*
X53912757Y-69389246D01*
X54122713Y-69422500D01*
X54122714Y-69422500D01*
X54335286Y-69422500D01*
X54335287Y-69422500D01*
X54545243Y-69389246D01*
X54747412Y-69323557D01*
X54936816Y-69227051D01*
X54978788Y-69196557D01*
X55108786Y-69102109D01*
X55108788Y-69102106D01*
X55108792Y-69102104D01*
X55259104Y-68951792D01*
X55259106Y-68951788D01*
X55259109Y-68951786D01*
X55384048Y-68779820D01*
X55384047Y-68779820D01*
X55384051Y-68779816D01*
X55480557Y-68590412D01*
X55546246Y-68388243D01*
X55579500Y-68178287D01*
X55579500Y-67965713D01*
X55546246Y-67755757D01*
X55480557Y-67553588D01*
X55384051Y-67364184D01*
X55384049Y-67364181D01*
X55384048Y-67364179D01*
X55259109Y-67192213D01*
X55108786Y-67041890D01*
X54936820Y-66916951D01*
X54936115Y-66916591D01*
X54928054Y-66912485D01*
X54877259Y-66864512D01*
X54860463Y-66796692D01*
X54882999Y-66730556D01*
X54928054Y-66691515D01*
X54936816Y-66687051D01*
X55051738Y-66603556D01*
X55108786Y-66562109D01*
X55108788Y-66562106D01*
X55108792Y-66562104D01*
X55259104Y-66411792D01*
X55259106Y-66411788D01*
X55259109Y-66411786D01*
X55384048Y-66239820D01*
X55384047Y-66239820D01*
X55384051Y-66239816D01*
X55480557Y-66050412D01*
X55546246Y-65848243D01*
X55579500Y-65638287D01*
X55579500Y-65425713D01*
X55546246Y-65215757D01*
X55480557Y-65013588D01*
X55384051Y-64824184D01*
X55384049Y-64824181D01*
X55384048Y-64824179D01*
X55259109Y-64652213D01*
X55108786Y-64501890D01*
X54936820Y-64376951D01*
X54936115Y-64376591D01*
X54928054Y-64372485D01*
X54877259Y-64324512D01*
X54860463Y-64256692D01*
X54882999Y-64190556D01*
X54928054Y-64151515D01*
X54936816Y-64147051D01*
X54971110Y-64122135D01*
X55108786Y-64022109D01*
X55108788Y-64022106D01*
X55108792Y-64022104D01*
X55259104Y-63871792D01*
X55259106Y-63871788D01*
X55259109Y-63871786D01*
X55384048Y-63699820D01*
X55384047Y-63699820D01*
X55384051Y-63699816D01*
X55480557Y-63510412D01*
X55546246Y-63308243D01*
X55579500Y-63098287D01*
X55579500Y-62885713D01*
X55559385Y-62758713D01*
X62022500Y-62758713D01*
X62022500Y-62971286D01*
X62055753Y-63181239D01*
X62121444Y-63383414D01*
X62217951Y-63572820D01*
X62342890Y-63744786D01*
X62493213Y-63895109D01*
X62665182Y-64020050D01*
X62673946Y-64024516D01*
X62724742Y-64072491D01*
X62741536Y-64140312D01*
X62718998Y-64206447D01*
X62673946Y-64245484D01*
X62665182Y-64249949D01*
X62493213Y-64374890D01*
X62342890Y-64525213D01*
X62217951Y-64697179D01*
X62121444Y-64886585D01*
X62055753Y-65088760D01*
X62022500Y-65298713D01*
X62022500Y-65511286D01*
X62054100Y-65710804D01*
X62055754Y-65721243D01*
X62104250Y-65870499D01*
X62121444Y-65923414D01*
X62217951Y-66112820D01*
X62342890Y-66284786D01*
X62493213Y-66435109D01*
X62665182Y-66560050D01*
X62673946Y-66564516D01*
X62724742Y-66612491D01*
X62741536Y-66680312D01*
X62718998Y-66746447D01*
X62673946Y-66785484D01*
X62665182Y-66789949D01*
X62493213Y-66914890D01*
X62342890Y-67065213D01*
X62217951Y-67237179D01*
X62121444Y-67426585D01*
X62055753Y-67628760D01*
X62022500Y-67838713D01*
X62022500Y-68051287D01*
X62055754Y-68261243D01*
X62078053Y-68329873D01*
X62121444Y-68463414D01*
X62217951Y-68652820D01*
X62342890Y-68824786D01*
X62493213Y-68975109D01*
X62665179Y-69100048D01*
X62665181Y-69100049D01*
X62665184Y-69100051D01*
X62854588Y-69196557D01*
X63056757Y-69262246D01*
X63266713Y-69295500D01*
X63266714Y-69295500D01*
X63479286Y-69295500D01*
X63479287Y-69295500D01*
X63689243Y-69262246D01*
X63891412Y-69196557D01*
X64080816Y-69100051D01*
X64102789Y-69084086D01*
X64252786Y-68975109D01*
X64252788Y-68975106D01*
X64252792Y-68975104D01*
X64403104Y-68824792D01*
X64403106Y-68824788D01*
X64403109Y-68824786D01*
X64528048Y-68652820D01*
X64528047Y-68652820D01*
X64528051Y-68652816D01*
X64624557Y-68463412D01*
X64690246Y-68261243D01*
X64723500Y-68051287D01*
X64723500Y-67838713D01*
X64690246Y-67628757D01*
X64624557Y-67426588D01*
X64528051Y-67237184D01*
X64528050Y-67237182D01*
X64518029Y-67223389D01*
X79525500Y-67223389D01*
X79525500Y-67396610D01*
X79550362Y-67553588D01*
X79552598Y-67567701D01*
X79606127Y-67732445D01*
X79684768Y-67886788D01*
X79786586Y-68026928D01*
X79909072Y-68149414D01*
X80049212Y-68251232D01*
X80203555Y-68329873D01*
X80368299Y-68383402D01*
X80539389Y-68410500D01*
X80539390Y-68410500D01*
X81512610Y-68410500D01*
X81512611Y-68410500D01*
X81683701Y-68383402D01*
X81848445Y-68329873D01*
X82002788Y-68251232D01*
X82142928Y-68149414D01*
X82265414Y-68026928D01*
X82367232Y-67886788D01*
X82445873Y-67732445D01*
X82499402Y-67567701D01*
X82526500Y-67396611D01*
X82526500Y-67223389D01*
X102385500Y-67223389D01*
X102385500Y-67396610D01*
X102410362Y-67553588D01*
X102412598Y-67567701D01*
X102466127Y-67732445D01*
X102544768Y-67886788D01*
X102646586Y-68026928D01*
X102769072Y-68149414D01*
X102909212Y-68251232D01*
X103063555Y-68329873D01*
X103228299Y-68383402D01*
X103399389Y-68410500D01*
X103399390Y-68410500D01*
X104372610Y-68410500D01*
X104372611Y-68410500D01*
X104543701Y-68383402D01*
X104708445Y-68329873D01*
X104862788Y-68251232D01*
X105002928Y-68149414D01*
X105125414Y-68026928D01*
X105227232Y-67886788D01*
X105305873Y-67732445D01*
X105359402Y-67567701D01*
X105386500Y-67396611D01*
X105386500Y-67223389D01*
X105359402Y-67052299D01*
X105305873Y-66887555D01*
X105227232Y-66733212D01*
X105125414Y-66593072D01*
X105002928Y-66470586D01*
X104862788Y-66368768D01*
X104708445Y-66290127D01*
X104543701Y-66236598D01*
X104543699Y-66236597D01*
X104543698Y-66236597D01*
X104412271Y-66215781D01*
X104372611Y-66209500D01*
X103399389Y-66209500D01*
X103359728Y-66215781D01*
X103228302Y-66236597D01*
X103063552Y-66290128D01*
X102909211Y-66368768D01*
X102829256Y-66426859D01*
X102769072Y-66470586D01*
X102769070Y-66470588D01*
X102769069Y-66470588D01*
X102646588Y-66593069D01*
X102646588Y-66593070D01*
X102646586Y-66593072D01*
X102602859Y-66653256D01*
X102544768Y-66733211D01*
X102466128Y-66887552D01*
X102412597Y-67052302D01*
X102385500Y-67223389D01*
X82526500Y-67223389D01*
X82499402Y-67052299D01*
X82445873Y-66887555D01*
X82367232Y-66733212D01*
X82265414Y-66593072D01*
X82142928Y-66470586D01*
X82002788Y-66368768D01*
X81848445Y-66290127D01*
X81683701Y-66236598D01*
X81683699Y-66236597D01*
X81683698Y-66236597D01*
X81552271Y-66215781D01*
X81512611Y-66209500D01*
X80539389Y-66209500D01*
X80499728Y-66215781D01*
X80368302Y-66236597D01*
X80203552Y-66290128D01*
X80049211Y-66368768D01*
X79969256Y-66426859D01*
X79909072Y-66470586D01*
X79909070Y-66470588D01*
X79909069Y-66470588D01*
X79786588Y-66593069D01*
X79786588Y-66593070D01*
X79786586Y-66593072D01*
X79742859Y-66653256D01*
X79684768Y-66733211D01*
X79606128Y-66887552D01*
X79552597Y-67052302D01*
X79525500Y-67223389D01*
X64518029Y-67223389D01*
X64403109Y-67065213D01*
X64252786Y-66914890D01*
X64080820Y-66789951D01*
X64080115Y-66789591D01*
X64072054Y-66785485D01*
X64021259Y-66737512D01*
X64004463Y-66669692D01*
X64026999Y-66603556D01*
X64072054Y-66564515D01*
X64080816Y-66560051D01*
X64102789Y-66544086D01*
X64252786Y-66435109D01*
X64252788Y-66435106D01*
X64252792Y-66435104D01*
X64403104Y-66284792D01*
X64403106Y-66284788D01*
X64403109Y-66284786D01*
X64528048Y-66112820D01*
X64528047Y-66112820D01*
X64528051Y-66112816D01*
X64624557Y-65923412D01*
X64690246Y-65721243D01*
X64723500Y-65511287D01*
X64723500Y-65298713D01*
X64690246Y-65088757D01*
X64624557Y-64886588D01*
X64528051Y-64697184D01*
X64528049Y-64697181D01*
X64528048Y-64697179D01*
X64403109Y-64525213D01*
X64252786Y-64374890D01*
X64080820Y-64249951D01*
X64080115Y-64249591D01*
X64072054Y-64245485D01*
X64065644Y-64239430D01*
X64057287Y-64236618D01*
X64040634Y-64215811D01*
X64021259Y-64197512D01*
X64019139Y-64188951D01*
X64013629Y-64182067D01*
X64010869Y-64155560D01*
X64004463Y-64129692D01*
X64007038Y-64122135D01*
X79525500Y-64122135D01*
X79525500Y-65417870D01*
X79525501Y-65417876D01*
X79531908Y-65477483D01*
X79582202Y-65612328D01*
X79582206Y-65612335D01*
X79668452Y-65727544D01*
X79668455Y-65727547D01*
X79783664Y-65813793D01*
X79783671Y-65813797D01*
X79918517Y-65864091D01*
X79918516Y-65864091D01*
X79925444Y-65864835D01*
X79978127Y-65870500D01*
X82073872Y-65870499D01*
X82133483Y-65864091D01*
X82268331Y-65813796D01*
X82383546Y-65727546D01*
X82469796Y-65612331D01*
X82520091Y-65477483D01*
X82526500Y-65417873D01*
X82526499Y-64519999D01*
X102411884Y-64519999D01*
X102411885Y-64520000D01*
X103570314Y-64520000D01*
X103565920Y-64524394D01*
X103513259Y-64615606D01*
X103486000Y-64717339D01*
X103486000Y-64822661D01*
X103513259Y-64924394D01*
X103565920Y-65015606D01*
X103570314Y-65020000D01*
X102411885Y-65020000D01*
X102413085Y-65027584D01*
X102466591Y-65192255D01*
X102545195Y-65346524D01*
X102646967Y-65486602D01*
X102769397Y-65609032D01*
X102909475Y-65710804D01*
X103063742Y-65789408D01*
X103228415Y-65842914D01*
X103399429Y-65870000D01*
X103636000Y-65870000D01*
X103636000Y-65085686D01*
X103640394Y-65090080D01*
X103731606Y-65142741D01*
X103833339Y-65170000D01*
X103938661Y-65170000D01*
X104040394Y-65142741D01*
X104131606Y-65090080D01*
X104136000Y-65085686D01*
X104136000Y-65870000D01*
X104372571Y-65870000D01*
X104543584Y-65842914D01*
X104708257Y-65789408D01*
X104862524Y-65710804D01*
X105002602Y-65609032D01*
X105125032Y-65486602D01*
X105226804Y-65346524D01*
X105305408Y-65192255D01*
X105358914Y-65027584D01*
X105360115Y-65020000D01*
X104201686Y-65020000D01*
X104206080Y-65015606D01*
X104258741Y-64924394D01*
X104286000Y-64822661D01*
X104286000Y-64717339D01*
X104258741Y-64615606D01*
X104206080Y-64524394D01*
X104201686Y-64520000D01*
X105360115Y-64520000D01*
X105360115Y-64519999D01*
X105358914Y-64512415D01*
X105305408Y-64347744D01*
X105226804Y-64193475D01*
X105125032Y-64053397D01*
X105002602Y-63930967D01*
X104862524Y-63829195D01*
X104713623Y-63753326D01*
X104708257Y-63750591D01*
X104543584Y-63697085D01*
X104372571Y-63670000D01*
X104136000Y-63670000D01*
X104136000Y-64454314D01*
X104131606Y-64449920D01*
X104040394Y-64397259D01*
X103938661Y-64370000D01*
X103833339Y-64370000D01*
X103731606Y-64397259D01*
X103640394Y-64449920D01*
X103636000Y-64454314D01*
X103636000Y-63670000D01*
X103399429Y-63670000D01*
X103228415Y-63697085D01*
X103063742Y-63750591D01*
X102909475Y-63829195D01*
X102769397Y-63930967D01*
X102646967Y-64053397D01*
X102545195Y-64193475D01*
X102466591Y-64347744D01*
X102413085Y-64512415D01*
X102411884Y-64519999D01*
X82526499Y-64519999D01*
X82526499Y-64122128D01*
X82520091Y-64062517D01*
X82516689Y-64053397D01*
X82469797Y-63927671D01*
X82469793Y-63927664D01*
X82383547Y-63812455D01*
X82383544Y-63812452D01*
X82268335Y-63726206D01*
X82268328Y-63726202D01*
X82133482Y-63675908D01*
X82133483Y-63675908D01*
X82073883Y-63669501D01*
X82073881Y-63669500D01*
X82073873Y-63669500D01*
X82073864Y-63669500D01*
X79978129Y-63669500D01*
X79978123Y-63669501D01*
X79918516Y-63675908D01*
X79783671Y-63726202D01*
X79783664Y-63726206D01*
X79668455Y-63812452D01*
X79668452Y-63812455D01*
X79582206Y-63927664D01*
X79582202Y-63927671D01*
X79531908Y-64062517D01*
X79529085Y-64088781D01*
X79525501Y-64122123D01*
X79525500Y-64122135D01*
X64007038Y-64122135D01*
X64007307Y-64121345D01*
X64006394Y-64112573D01*
X64018403Y-64088781D01*
X64026999Y-64063556D01*
X64034733Y-64056430D01*
X64037879Y-64050199D01*
X64057517Y-64035439D01*
X64065435Y-64028146D01*
X64068689Y-64026229D01*
X64080816Y-64020051D01*
X64098001Y-64007565D01*
X64252786Y-63895109D01*
X64252788Y-63895106D01*
X64252792Y-63895104D01*
X64403104Y-63744792D01*
X64403106Y-63744788D01*
X64403109Y-63744786D01*
X64473636Y-63647713D01*
X108123500Y-63647713D01*
X108123500Y-63860286D01*
X108151241Y-64035439D01*
X108156754Y-64070243D01*
X108217335Y-64256692D01*
X108222444Y-64272414D01*
X108318951Y-64461820D01*
X108443890Y-64633786D01*
X108557430Y-64747326D01*
X108590915Y-64808649D01*
X108585931Y-64878341D01*
X108544059Y-64934274D01*
X108513083Y-64951189D01*
X108381669Y-65000203D01*
X108381664Y-65000206D01*
X108266455Y-65086452D01*
X108266452Y-65086455D01*
X108180206Y-65201664D01*
X108180202Y-65201671D01*
X108129908Y-65336517D01*
X108123501Y-65396116D01*
X108123501Y-65396123D01*
X108123500Y-65396135D01*
X108123500Y-67191870D01*
X108123501Y-67191876D01*
X108129908Y-67251483D01*
X108180202Y-67386328D01*
X108180206Y-67386335D01*
X108266452Y-67501544D01*
X108266455Y-67501547D01*
X108381664Y-67587793D01*
X108381671Y-67587797D01*
X108516517Y-67638091D01*
X108516516Y-67638091D01*
X108523444Y-67638835D01*
X108576127Y-67644500D01*
X110371872Y-67644499D01*
X110431483Y-67638091D01*
X110566331Y-67587796D01*
X110681546Y-67501546D01*
X110767796Y-67386331D01*
X110818091Y-67251483D01*
X110824500Y-67191873D01*
X110824499Y-65396128D01*
X110818091Y-65336517D01*
X110773050Y-65215757D01*
X110767797Y-65201671D01*
X110767793Y-65201664D01*
X110681547Y-65086455D01*
X110681544Y-65086452D01*
X110566335Y-65000206D01*
X110566328Y-65000202D01*
X110434917Y-64951189D01*
X110378983Y-64909318D01*
X110354566Y-64843853D01*
X110369418Y-64775580D01*
X110390563Y-64747332D01*
X110504104Y-64633792D01*
X110629051Y-64461816D01*
X110725557Y-64272412D01*
X110791246Y-64070243D01*
X110824500Y-63860287D01*
X110824500Y-63647713D01*
X110791246Y-63437757D01*
X110725557Y-63235588D01*
X110629051Y-63046184D01*
X110629049Y-63046181D01*
X110629048Y-63046179D01*
X110504109Y-62874213D01*
X110353786Y-62723890D01*
X110181817Y-62598949D01*
X110172504Y-62594204D01*
X110121707Y-62546230D01*
X110104912Y-62478409D01*
X110127449Y-62412274D01*
X110172507Y-62373232D01*
X110181555Y-62368622D01*
X110235716Y-62329270D01*
X110235717Y-62329270D01*
X109603408Y-61696962D01*
X109666993Y-61679925D01*
X109781007Y-61614099D01*
X109874099Y-61521007D01*
X109939925Y-61406993D01*
X109956962Y-61343409D01*
X110589270Y-61975717D01*
X110589270Y-61975716D01*
X110628622Y-61921554D01*
X110725095Y-61732217D01*
X110790757Y-61530130D01*
X110790757Y-61530127D01*
X110824000Y-61320246D01*
X110824000Y-61107753D01*
X110790757Y-60897872D01*
X110790757Y-60897869D01*
X110725095Y-60695782D01*
X110628624Y-60506449D01*
X110589270Y-60452282D01*
X110589269Y-60452282D01*
X109956962Y-61084590D01*
X109939925Y-61021007D01*
X109874099Y-60906993D01*
X109781007Y-60813901D01*
X109666993Y-60748075D01*
X109603409Y-60731037D01*
X110235716Y-60098728D01*
X110181550Y-60059375D01*
X109992217Y-59962904D01*
X109790129Y-59897242D01*
X109580246Y-59864000D01*
X109367754Y-59864000D01*
X109157872Y-59897242D01*
X109157869Y-59897242D01*
X108955782Y-59962904D01*
X108766439Y-60059380D01*
X108712282Y-60098727D01*
X108712282Y-60098728D01*
X109344591Y-60731037D01*
X109281007Y-60748075D01*
X109166993Y-60813901D01*
X109073901Y-60906993D01*
X109008075Y-61021007D01*
X108991037Y-61084591D01*
X108358728Y-60452282D01*
X108358727Y-60452282D01*
X108319380Y-60506439D01*
X108222904Y-60695782D01*
X108157242Y-60897869D01*
X108157242Y-60897872D01*
X108124000Y-61107753D01*
X108124000Y-61320246D01*
X108157242Y-61530127D01*
X108157242Y-61530130D01*
X108222904Y-61732217D01*
X108319375Y-61921550D01*
X108358728Y-61975716D01*
X108991037Y-61343408D01*
X109008075Y-61406993D01*
X109073901Y-61521007D01*
X109166993Y-61614099D01*
X109281007Y-61679925D01*
X109344590Y-61696962D01*
X108712282Y-62329269D01*
X108712282Y-62329270D01*
X108766452Y-62368626D01*
X108766451Y-62368626D01*
X108775495Y-62373234D01*
X108826292Y-62421208D01*
X108843087Y-62489029D01*
X108820550Y-62555164D01*
X108775499Y-62594202D01*
X108766182Y-62598949D01*
X108594213Y-62723890D01*
X108443890Y-62874213D01*
X108318951Y-63046179D01*
X108222444Y-63235585D01*
X108156753Y-63437760D01*
X108123500Y-63647713D01*
X64473636Y-63647713D01*
X64528048Y-63572820D01*
X64528047Y-63572820D01*
X64528051Y-63572816D01*
X64624557Y-63383412D01*
X64690246Y-63181243D01*
X64723500Y-62971287D01*
X64723500Y-62758713D01*
X64690246Y-62548757D01*
X64624557Y-62346588D01*
X64528051Y-62157184D01*
X64528049Y-62157181D01*
X64528048Y-62157179D01*
X64403109Y-61985213D01*
X64289181Y-61871285D01*
X64255696Y-61809962D01*
X64260680Y-61740270D01*
X64302552Y-61684337D01*
X64333529Y-61667422D01*
X64465086Y-61618354D01*
X64465093Y-61618350D01*
X64580187Y-61532190D01*
X64580190Y-61532187D01*
X64666350Y-61417093D01*
X64666354Y-61417086D01*
X64716596Y-61282379D01*
X64716598Y-61282372D01*
X64722999Y-61222844D01*
X64723000Y-61222827D01*
X64723000Y-60575000D01*
X63806012Y-60575000D01*
X63838925Y-60517993D01*
X63873000Y-60390826D01*
X63873000Y-60259174D01*
X63838925Y-60132007D01*
X63806012Y-60075000D01*
X64723000Y-60075000D01*
X64723000Y-59427172D01*
X64722999Y-59427155D01*
X64716598Y-59367627D01*
X64716596Y-59367620D01*
X64666354Y-59232913D01*
X64666350Y-59232906D01*
X64580190Y-59117812D01*
X64580187Y-59117809D01*
X64465093Y-59031649D01*
X64465086Y-59031645D01*
X64330379Y-58981403D01*
X64330372Y-58981401D01*
X64270844Y-58975000D01*
X63623000Y-58975000D01*
X63623000Y-59891988D01*
X63565993Y-59859075D01*
X63438826Y-59825000D01*
X63307174Y-59825000D01*
X63180007Y-59859075D01*
X63123000Y-59891988D01*
X63123000Y-58975000D01*
X62475155Y-58975000D01*
X62415627Y-58981401D01*
X62415620Y-58981403D01*
X62280913Y-59031645D01*
X62280906Y-59031649D01*
X62165812Y-59117809D01*
X62165809Y-59117812D01*
X62079649Y-59232906D01*
X62079645Y-59232913D01*
X62029403Y-59367620D01*
X62029401Y-59367627D01*
X62023000Y-59427155D01*
X62023000Y-60075000D01*
X62939988Y-60075000D01*
X62907075Y-60132007D01*
X62873000Y-60259174D01*
X62873000Y-60390826D01*
X62907075Y-60517993D01*
X62939988Y-60575000D01*
X62023000Y-60575000D01*
X62023000Y-61222844D01*
X62029401Y-61282372D01*
X62029403Y-61282379D01*
X62079645Y-61417086D01*
X62079649Y-61417093D01*
X62165809Y-61532187D01*
X62165812Y-61532190D01*
X62280906Y-61618350D01*
X62280913Y-61618354D01*
X62412470Y-61667422D01*
X62468404Y-61709293D01*
X62492821Y-61774758D01*
X62477969Y-61843031D01*
X62456819Y-61871285D01*
X62342889Y-61985215D01*
X62217951Y-62157179D01*
X62121444Y-62346585D01*
X62055753Y-62548760D01*
X62022500Y-62758713D01*
X55559385Y-62758713D01*
X55546246Y-62675757D01*
X55480557Y-62473588D01*
X55384051Y-62284184D01*
X55384049Y-62284181D01*
X55384048Y-62284179D01*
X55259109Y-62112213D01*
X55145181Y-61998285D01*
X55111696Y-61936962D01*
X55116680Y-61867270D01*
X55158552Y-61811337D01*
X55189529Y-61794422D01*
X55321086Y-61745354D01*
X55321093Y-61745350D01*
X55436187Y-61659190D01*
X55436190Y-61659187D01*
X55522350Y-61544093D01*
X55522354Y-61544086D01*
X55572596Y-61409379D01*
X55572598Y-61409372D01*
X55578999Y-61349844D01*
X55579000Y-61349827D01*
X55579000Y-60702000D01*
X54662012Y-60702000D01*
X54694925Y-60644993D01*
X54729000Y-60517826D01*
X54729000Y-60386174D01*
X54694925Y-60259007D01*
X54662012Y-60202000D01*
X55579000Y-60202000D01*
X55579000Y-59554172D01*
X55578999Y-59554155D01*
X55572598Y-59494627D01*
X55572596Y-59494617D01*
X55562364Y-59467183D01*
X55522354Y-59359913D01*
X55522350Y-59359906D01*
X55436190Y-59244812D01*
X55436187Y-59244809D01*
X55321093Y-59158649D01*
X55321086Y-59158645D01*
X55186379Y-59108403D01*
X55186372Y-59108401D01*
X55126844Y-59102000D01*
X54479000Y-59102000D01*
X54479000Y-60018988D01*
X54421993Y-59986075D01*
X54294826Y-59952000D01*
X54163174Y-59952000D01*
X54036007Y-59986075D01*
X53979000Y-60018988D01*
X53979000Y-59102000D01*
X53331155Y-59102000D01*
X53271627Y-59108401D01*
X53271620Y-59108403D01*
X53136913Y-59158645D01*
X53136906Y-59158649D01*
X53021812Y-59244809D01*
X53021809Y-59244812D01*
X52935649Y-59359906D01*
X52935645Y-59359913D01*
X52885403Y-59494620D01*
X52885401Y-59494627D01*
X52879000Y-59554155D01*
X52879000Y-60202000D01*
X53795988Y-60202000D01*
X53763075Y-60259007D01*
X53729000Y-60386174D01*
X53729000Y-60517826D01*
X53763075Y-60644993D01*
X53795988Y-60702000D01*
X52879000Y-60702000D01*
X52879000Y-61349844D01*
X52885401Y-61409372D01*
X52885403Y-61409379D01*
X52935645Y-61544086D01*
X52935649Y-61544093D01*
X53021809Y-61659187D01*
X53021812Y-61659190D01*
X53136906Y-61745350D01*
X53136913Y-61745354D01*
X53268470Y-61794422D01*
X53324404Y-61836293D01*
X53348821Y-61901758D01*
X53333969Y-61970031D01*
X53312819Y-61998285D01*
X53198889Y-62112215D01*
X53073951Y-62284179D01*
X52977444Y-62473585D01*
X52911753Y-62675760D01*
X52878500Y-62885713D01*
X50000500Y-62885713D01*
X50000500Y-53345711D01*
X51616500Y-53345711D01*
X51616500Y-53588288D01*
X51648161Y-53828785D01*
X51710947Y-54063104D01*
X51803773Y-54287205D01*
X51803777Y-54287214D01*
X51814100Y-54305093D01*
X51925064Y-54497289D01*
X51925066Y-54497292D01*
X51925067Y-54497293D01*
X52072733Y-54689736D01*
X52072739Y-54689743D01*
X52244256Y-54861260D01*
X52244262Y-54861265D01*
X52436711Y-55008936D01*
X52646788Y-55130224D01*
X52870900Y-55223054D01*
X53105211Y-55285838D01*
X53285586Y-55309584D01*
X53345711Y-55317500D01*
X53345712Y-55317500D01*
X53588289Y-55317500D01*
X53636388Y-55311167D01*
X53828789Y-55285838D01*
X54063100Y-55223054D01*
X54287212Y-55130224D01*
X54497289Y-55008936D01*
X54689738Y-54861265D01*
X54861265Y-54689738D01*
X55008936Y-54497289D01*
X55130224Y-54287212D01*
X55223054Y-54063100D01*
X55285838Y-53828789D01*
X55317500Y-53588288D01*
X55317500Y-53345712D01*
X55285838Y-53105211D01*
X55223054Y-52870900D01*
X55130224Y-52646788D01*
X55008936Y-52436711D01*
X54929519Y-52333213D01*
X54915663Y-52315155D01*
X62912000Y-52315155D01*
X62912000Y-52963000D01*
X63828988Y-52963000D01*
X63796075Y-53020007D01*
X63762000Y-53147174D01*
X63762000Y-53278826D01*
X63796075Y-53405993D01*
X63828988Y-53463000D01*
X62912000Y-53463000D01*
X62912000Y-54110844D01*
X62918401Y-54170372D01*
X62918403Y-54170379D01*
X62968645Y-54305086D01*
X62968649Y-54305093D01*
X63054809Y-54420187D01*
X63054812Y-54420190D01*
X63169906Y-54506350D01*
X63169913Y-54506354D01*
X63304620Y-54556596D01*
X63304627Y-54556598D01*
X63364155Y-54562999D01*
X63364172Y-54563000D01*
X64012000Y-54563000D01*
X64012000Y-53646012D01*
X64069007Y-53678925D01*
X64196174Y-53713000D01*
X64327826Y-53713000D01*
X64454993Y-53678925D01*
X64512000Y-53646012D01*
X64512000Y-54563000D01*
X65159828Y-54563000D01*
X65159844Y-54562999D01*
X65219372Y-54556598D01*
X65219379Y-54556596D01*
X65354086Y-54506354D01*
X65354093Y-54506350D01*
X65469187Y-54420190D01*
X65469190Y-54420187D01*
X65555350Y-54305093D01*
X65555354Y-54305086D01*
X65604422Y-54173529D01*
X65646293Y-54117595D01*
X65711757Y-54093178D01*
X65780030Y-54108030D01*
X65808285Y-54129181D01*
X65922213Y-54243109D01*
X66094179Y-54368048D01*
X66094181Y-54368049D01*
X66094184Y-54368051D01*
X66283588Y-54464557D01*
X66485757Y-54530246D01*
X66695713Y-54563500D01*
X66695714Y-54563500D01*
X66908286Y-54563500D01*
X66908287Y-54563500D01*
X67118243Y-54530246D01*
X67320412Y-54464557D01*
X67509816Y-54368051D01*
X67596471Y-54305093D01*
X67681786Y-54243109D01*
X67681788Y-54243106D01*
X67681792Y-54243104D01*
X67832104Y-54092792D01*
X67832106Y-54092788D01*
X67832109Y-54092786D01*
X67957048Y-53920820D01*
X67957047Y-53920820D01*
X67957051Y-53920816D01*
X67961514Y-53912054D01*
X68009488Y-53861259D01*
X68077308Y-53844463D01*
X68143444Y-53866999D01*
X68182486Y-53912056D01*
X68186951Y-53920820D01*
X68311890Y-54092786D01*
X68462213Y-54243109D01*
X68634179Y-54368048D01*
X68634181Y-54368049D01*
X68634184Y-54368051D01*
X68823588Y-54464557D01*
X69025757Y-54530246D01*
X69235713Y-54563500D01*
X69235714Y-54563500D01*
X69448286Y-54563500D01*
X69448287Y-54563500D01*
X69658243Y-54530246D01*
X69860412Y-54464557D01*
X70049816Y-54368051D01*
X70136471Y-54305093D01*
X70221786Y-54243109D01*
X70221788Y-54243106D01*
X70221792Y-54243104D01*
X70372104Y-54092792D01*
X70372106Y-54092788D01*
X70372109Y-54092786D01*
X70497048Y-53920820D01*
X70497047Y-53920820D01*
X70497051Y-53920816D01*
X70501514Y-53912054D01*
X70549488Y-53861259D01*
X70617308Y-53844463D01*
X70683444Y-53866999D01*
X70722486Y-53912056D01*
X70726951Y-53920820D01*
X70851890Y-54092786D01*
X71002213Y-54243109D01*
X71174179Y-54368048D01*
X71174181Y-54368049D01*
X71174184Y-54368051D01*
X71363588Y-54464557D01*
X71565757Y-54530246D01*
X71775713Y-54563500D01*
X71775714Y-54563500D01*
X71988286Y-54563500D01*
X71988287Y-54563500D01*
X72198243Y-54530246D01*
X72400412Y-54464557D01*
X72589816Y-54368051D01*
X72676471Y-54305093D01*
X72761786Y-54243109D01*
X72761788Y-54243106D01*
X72761792Y-54243104D01*
X72912104Y-54092792D01*
X72912106Y-54092788D01*
X72912109Y-54092786D01*
X73037048Y-53920820D01*
X73037047Y-53920820D01*
X73037051Y-53920816D01*
X73041514Y-53912054D01*
X73089488Y-53861259D01*
X73157308Y-53844463D01*
X73223444Y-53866999D01*
X73262486Y-53912056D01*
X73266951Y-53920820D01*
X73391890Y-54092786D01*
X73542213Y-54243109D01*
X73714179Y-54368048D01*
X73714181Y-54368049D01*
X73714184Y-54368051D01*
X73903588Y-54464557D01*
X74105757Y-54530246D01*
X74315713Y-54563500D01*
X74315714Y-54563500D01*
X74528286Y-54563500D01*
X74528287Y-54563500D01*
X74738243Y-54530246D01*
X74940412Y-54464557D01*
X75129816Y-54368051D01*
X75216471Y-54305093D01*
X75301786Y-54243109D01*
X75301788Y-54243106D01*
X75301792Y-54243104D01*
X75452104Y-54092792D01*
X75452106Y-54092788D01*
X75452109Y-54092786D01*
X75577048Y-53920820D01*
X75577047Y-53920820D01*
X75577051Y-53920816D01*
X75673557Y-53731412D01*
X75739246Y-53529243D01*
X75768315Y-53345711D01*
X109655500Y-53345711D01*
X109655500Y-53588288D01*
X109687161Y-53828785D01*
X109749947Y-54063104D01*
X109842773Y-54287205D01*
X109842777Y-54287214D01*
X109853100Y-54305093D01*
X109964064Y-54497289D01*
X109964066Y-54497292D01*
X109964067Y-54497293D01*
X110111733Y-54689736D01*
X110111739Y-54689743D01*
X110283256Y-54861260D01*
X110283262Y-54861265D01*
X110475711Y-55008936D01*
X110685788Y-55130224D01*
X110909900Y-55223054D01*
X111144211Y-55285838D01*
X111324586Y-55309584D01*
X111384711Y-55317500D01*
X111384712Y-55317500D01*
X111627289Y-55317500D01*
X111675388Y-55311167D01*
X111867789Y-55285838D01*
X112102100Y-55223054D01*
X112326212Y-55130224D01*
X112536289Y-55008936D01*
X112728738Y-54861265D01*
X112900265Y-54689738D01*
X113047936Y-54497289D01*
X113169224Y-54287212D01*
X113262054Y-54063100D01*
X113324838Y-53828789D01*
X113356500Y-53588288D01*
X113356500Y-53345712D01*
X113324838Y-53105211D01*
X113262054Y-52870900D01*
X113169224Y-52646788D01*
X113047936Y-52436711D01*
X112900265Y-52244262D01*
X112900260Y-52244256D01*
X112728743Y-52072739D01*
X112728736Y-52072733D01*
X112536293Y-51925067D01*
X112536292Y-51925066D01*
X112536289Y-51925064D01*
X112326212Y-51803776D01*
X112326205Y-51803773D01*
X112102104Y-51710947D01*
X111867785Y-51648161D01*
X111627289Y-51616500D01*
X111627288Y-51616500D01*
X111384712Y-51616500D01*
X111384711Y-51616500D01*
X111144214Y-51648161D01*
X110909895Y-51710947D01*
X110685794Y-51803773D01*
X110685785Y-51803777D01*
X110475706Y-51925067D01*
X110283263Y-52072733D01*
X110283256Y-52072739D01*
X110111739Y-52244256D01*
X110111733Y-52244263D01*
X109964067Y-52436706D01*
X109842777Y-52646785D01*
X109842773Y-52646794D01*
X109749947Y-52870895D01*
X109687161Y-53105214D01*
X109655500Y-53345711D01*
X75768315Y-53345711D01*
X75772500Y-53319287D01*
X75772500Y-53106713D01*
X75739246Y-52896757D01*
X75673557Y-52694588D01*
X75577051Y-52505184D01*
X75577049Y-52505181D01*
X75577048Y-52505179D01*
X75452109Y-52333213D01*
X75301786Y-52182890D01*
X75129820Y-52057951D01*
X74940414Y-51961444D01*
X74940413Y-51961443D01*
X74940412Y-51961443D01*
X74738243Y-51895754D01*
X74738241Y-51895753D01*
X74738240Y-51895753D01*
X74576957Y-51870208D01*
X74528287Y-51862500D01*
X74315713Y-51862500D01*
X74267042Y-51870208D01*
X74105760Y-51895753D01*
X73903585Y-51961444D01*
X73714179Y-52057951D01*
X73542213Y-52182890D01*
X73391890Y-52333213D01*
X73266949Y-52505182D01*
X73262484Y-52513946D01*
X73214509Y-52564742D01*
X73146688Y-52581536D01*
X73080553Y-52558998D01*
X73041516Y-52513946D01*
X73037050Y-52505182D01*
X72912109Y-52333213D01*
X72761786Y-52182890D01*
X72589820Y-52057951D01*
X72400414Y-51961444D01*
X72400413Y-51961443D01*
X72400412Y-51961443D01*
X72198243Y-51895754D01*
X72198241Y-51895753D01*
X72198240Y-51895753D01*
X72036957Y-51870208D01*
X71988287Y-51862500D01*
X71775713Y-51862500D01*
X71727042Y-51870208D01*
X71565760Y-51895753D01*
X71363585Y-51961444D01*
X71174179Y-52057951D01*
X71002213Y-52182890D01*
X70851890Y-52333213D01*
X70726949Y-52505182D01*
X70722484Y-52513946D01*
X70674509Y-52564742D01*
X70606688Y-52581536D01*
X70540553Y-52558998D01*
X70501516Y-52513946D01*
X70497050Y-52505182D01*
X70372109Y-52333213D01*
X70221786Y-52182890D01*
X70049820Y-52057951D01*
X69860414Y-51961444D01*
X69860413Y-51961443D01*
X69860412Y-51961443D01*
X69658243Y-51895754D01*
X69658241Y-51895753D01*
X69658240Y-51895753D01*
X69496957Y-51870208D01*
X69448287Y-51862500D01*
X69235713Y-51862500D01*
X69187042Y-51870208D01*
X69025760Y-51895753D01*
X68823585Y-51961444D01*
X68634179Y-52057951D01*
X68462213Y-52182890D01*
X68311890Y-52333213D01*
X68186949Y-52505182D01*
X68182484Y-52513946D01*
X68134509Y-52564742D01*
X68066688Y-52581536D01*
X68000553Y-52558998D01*
X67961516Y-52513946D01*
X67957050Y-52505182D01*
X67832109Y-52333213D01*
X67681786Y-52182890D01*
X67509820Y-52057951D01*
X67320414Y-51961444D01*
X67320413Y-51961443D01*
X67320412Y-51961443D01*
X67118243Y-51895754D01*
X67118241Y-51895753D01*
X67118240Y-51895753D01*
X66956957Y-51870208D01*
X66908287Y-51862500D01*
X66695713Y-51862500D01*
X66647042Y-51870208D01*
X66485760Y-51895753D01*
X66283585Y-51961444D01*
X66094179Y-52057951D01*
X65922215Y-52182889D01*
X65808285Y-52296819D01*
X65746962Y-52330303D01*
X65677270Y-52325319D01*
X65621337Y-52283447D01*
X65604422Y-52252470D01*
X65555354Y-52120913D01*
X65555350Y-52120906D01*
X65469190Y-52005812D01*
X65469187Y-52005809D01*
X65354093Y-51919649D01*
X65354086Y-51919645D01*
X65219379Y-51869403D01*
X65219372Y-51869401D01*
X65159844Y-51863000D01*
X64512000Y-51863000D01*
X64512000Y-52779988D01*
X64454993Y-52747075D01*
X64327826Y-52713000D01*
X64196174Y-52713000D01*
X64069007Y-52747075D01*
X64012000Y-52779988D01*
X64012000Y-51863000D01*
X63364155Y-51863000D01*
X63304627Y-51869401D01*
X63304620Y-51869403D01*
X63169913Y-51919645D01*
X63169906Y-51919649D01*
X63054812Y-52005809D01*
X63054809Y-52005812D01*
X62968649Y-52120906D01*
X62968645Y-52120913D01*
X62918403Y-52255620D01*
X62918401Y-52255627D01*
X62912000Y-52315155D01*
X54915663Y-52315155D01*
X54861266Y-52244263D01*
X54861260Y-52244256D01*
X54689743Y-52072739D01*
X54689736Y-52072733D01*
X54497293Y-51925067D01*
X54497292Y-51925066D01*
X54497289Y-51925064D01*
X54287212Y-51803776D01*
X54287205Y-51803773D01*
X54063104Y-51710947D01*
X53828785Y-51648161D01*
X53588289Y-51616500D01*
X53588288Y-51616500D01*
X53345712Y-51616500D01*
X53345711Y-51616500D01*
X53105214Y-51648161D01*
X52870895Y-51710947D01*
X52646794Y-51803773D01*
X52646785Y-51803777D01*
X52436706Y-51925067D01*
X52244263Y-52072733D01*
X52244256Y-52072739D01*
X52072739Y-52244256D01*
X52072733Y-52244263D01*
X51925067Y-52436706D01*
X51803777Y-52646785D01*
X51803773Y-52646794D01*
X51710947Y-52870895D01*
X51648161Y-53105214D01*
X51616500Y-53345711D01*
X50000500Y-53345711D01*
X50000500Y-50124500D01*
X50020185Y-50057461D01*
X50072989Y-50011706D01*
X50124500Y-50000500D01*
X114875500Y-50000500D01*
X114942539Y-50020185D01*
G37*
%TD.AperFunction*%
%TD*%
M02*
